<?xml version="1.0" encoding="UTF-8"?>
<svg id="uuid-498725ee-f2c4-497f-a093-55f0ba271cdc" data-name="Capa 2" xmlns="http://www.w3.org/2000/svg" viewBox="0 0 470.66 349.44">
  <g id="uuid-7fdc03c9-7a43-4734-909c-bd522d700e4d" data-name="Capa 1">
    <g>
      <ellipse cx="188.93" cy="335.16" rx="64.52" ry="9.3" style="fill: #000; stroke: #000; stroke-miterlimit: 10; stroke-width: 9.94px;"/>
      <line x1="188.93" y1="289.83" x2="188.93" y2="322.84" style="fill: #000; stroke: #000; stroke-linecap: round; stroke-miterlimit: 10; stroke-width: 15.98px;"/>
      <rect x="47.25" y="131.58" width="283.36" height="158.25" transform="translate(-12.4 11.82) rotate(-3.47)" style="fill: #fff; stroke: #000; stroke-linecap: round; stroke-linejoin: round; stroke-width: 16.32px;"/>
      <ellipse cx="149.07" cy="180.38" rx="10.42" ry="21.62" transform="translate(-22.35 21.09) rotate(-7.53)" style="fill: #000; stroke-width: 0px;"/>
      <ellipse cx="217.08" cy="175.23" rx="10.42" ry="21.62" transform="translate(-21.09 29.95) rotate(-7.53)" style="fill: #000; stroke-width: 0px;"/>
      <ellipse cx="190.74" cy="240.62" rx="7.42" ry="10.97" transform="translate(-29.88 27.06) rotate(-7.53)" style="fill: #000; stroke-width: 0px;"/>
      <path d="M330.87,210.7s82.13,13.01,82.13-51.51" style="fill: none; stroke: #000; stroke-linecap: round; stroke-miterlimit: 10; stroke-width: 10.66px;"/>
      <path d="M42.84,215.4s-67.27,48.88-21.65,94.5" style="fill: none; stroke: #000; stroke-linecap: round; stroke-miterlimit: 10; stroke-width: 10.66px;"/>
      <line x1="407.49" y1="123.57" x2="418.13" y2="200.23" style="fill: none; stroke: #727271; stroke-linecap: round; stroke-miterlimit: 10; stroke-width: 10.66px;"/>
      <polygon points="424.26 5.33 357.43 14.16 331.67 76.45 372.73 129.91 439.56 121.08 465.33 58.79 424.26 5.33" style="fill: #991616; stroke: #991616; stroke-linecap: round; stroke-linejoin: round; stroke-width: 10.66px;"/>
      <polygon points="422.97 8.45 359.49 16.84 335.01 76.01 374.02 126.79 437.5 118.4 461.98 59.23 422.97 8.45" style="fill: #991616; stroke: #fff; stroke-linecap: round; stroke-linejoin: round; stroke-width: 5.33px;"/>
      <g>
        <path d="M383.85,42.74l3.11-.41,6.95,9.16-1.31-9.91,2.76-.36,1.88,14.2-2.97.39-7.11-9.32,1.33,10.08-2.77.37-1.88-14.2Z" style="fill: #fff; stroke-width: 0px;"/>
        <path d="M408.4,52.64c-.74,1.21-2.02,1.93-3.82,2.17-1.8.24-3.22-.13-4.25-1.1-1.04-.98-1.65-2.24-1.85-3.78-.2-1.51.07-2.88.81-4.11.74-1.23,2.01-1.96,3.81-2.2,1.81-.24,3.23.14,4.26,1.13,1.03.99,1.65,2.24,1.85,3.76.2,1.54-.07,2.91-.81,4.13ZM406,51.4c.36-.63.46-1.47.33-2.52-.14-1.05-.46-1.84-.97-2.35s-1.16-.71-1.96-.6c-.81.11-1.38.47-1.74,1.09-.36.63-.47,1.47-.33,2.52.14,1.05.46,1.84.97,2.35.5.51,1.16.72,1.97.61.8-.1,1.38-.48,1.73-1.1Z" style="fill: #fff; stroke-width: 0px;"/>
        <path d="M356.71,74.35c.53.22.98.55,1.36,1l-.67-5.01,2.79-.37,1.87,14.18-2.67.35-.19-1.46c-.31.68-.69,1.19-1.16,1.53-.46.35-1.07.57-1.81.67-1.23.17-2.33-.2-3.29-1.08-.97-.88-1.56-2.1-1.76-3.66-.24-1.79-.01-3.25.68-4.39.69-1.13,1.72-1.8,3.11-1.98.63-.08,1.22-.01,1.75.2ZM358.38,81.74c.33-.63.43-1.4.31-2.33-.17-1.28-.61-2.16-1.34-2.62-.44-.28-.93-.39-1.45-.32-.81.1-1.35.48-1.65,1.14-.29.66-.38,1.44-.27,2.34.13.97.42,1.72.88,2.25.46.53,1.08.74,1.86.63.78-.1,1.33-.46,1.66-1.1Z" style="fill: #fff; stroke-width: 0px;"/>
        <path d="M365.83,71.7l-2.78.37-.33-2.53,2.78-.37.33,2.53ZM363.21,73.32l2.78-.37,1.39,10.51-2.78.37-1.39-10.51Z" style="fill: #fff; stroke-width: 0px;"/>
        <path d="M371.73,79.47c.12.48.3.81.52.99.39.32,1.05.42,1.97.3.54-.07.96-.21,1.26-.42.3-.2.43-.46.39-.79-.04-.3-.2-.53-.48-.65s-1.27-.28-2.99-.45c-1.23-.13-2.12-.39-2.66-.77-.55-.37-.87-.97-.98-1.8-.13-.97.14-1.85.81-2.65.68-.8,1.7-1.29,3.09-1.47,1.31-.17,2.41-.05,3.31.36.89.42,1.49,1.25,1.78,2.52l-2.74.36c-.08-.34-.22-.61-.41-.79-.35-.34-.89-.46-1.62-.36-.6.08-1.02.23-1.24.45-.23.22-.33.45-.3.7.04.32.21.53.49.63.29.11,1.28.24,2.97.38,1.12.11,2,.4,2.61.85.61.45.96,1.07,1.07,1.86.14,1.04-.14,1.94-.82,2.71-.69.75-1.84,1.24-3.47,1.46-1.65.22-2.92.04-3.8-.56-.88-.59-1.39-1.43-1.53-2.5l2.78-.37Z" style="fill: #fff; stroke-width: 0px;"/>
        <path d="M388.61,71.11c.98.79,1.58,2.07,1.82,3.82.24,1.85.01,3.31-.7,4.4-.71,1.08-1.72,1.7-3.04,1.88-.84.11-1.57,0-2.18-.35-.33-.18-.68-.49-1.03-.89l.73,5.47-2.72.36-1.94-14.64,2.63-.35.21,1.56c.23-.5.5-.9.81-1.2.55-.56,1.25-.88,2.1-1,1.23-.16,2.34.15,3.31.95ZM386.77,73.36c-.46-.57-1.1-.8-1.94-.69-1.01.14-1.63.7-1.89,1.69-.12.53-.14,1.18-.04,1.95.16,1.22.6,2.04,1.32,2.44.43.24.91.32,1.44.25.77-.1,1.32-.47,1.65-1.11.33-.65.43-1.46.3-2.44-.11-.81-.39-1.51-.84-2.08Z" style="fill: #fff; stroke-width: 0px;"/>
        <path d="M401.66,77.62c-.74,1.21-2.02,1.94-3.82,2.17-1.8.24-3.22-.13-4.25-1.11-1.03-.97-1.65-2.24-1.85-3.77-.2-1.52.07-2.89.81-4.12.74-1.23,2.01-1.96,3.81-2.2,1.81-.24,3.23.14,4.26,1.13,1.03.99,1.65,2.24,1.85,3.76.2,1.53-.07,2.92-.81,4.13ZM399.26,76.4c.35-.63.46-1.47.32-2.52-.14-1.06-.46-1.84-.97-2.35-.5-.51-1.16-.72-1.96-.61-.8.1-1.38.47-1.74,1.1-.36.62-.47,1.46-.33,2.52.14,1.05.46,1.83.97,2.35.51.51,1.17.71,1.97.61.81-.1,1.38-.47,1.74-1.1Z" style="fill: #fff; stroke-width: 0px;"/>
        <path d="M412.29,67.45c.76.48,1.23,1.38,1.4,2.7l.94,7.07-2.81.37-.85-6.38c-.07-.55-.2-.97-.39-1.25-.34-.5-.88-.71-1.63-.61-.93.12-1.51.6-1.74,1.44-.12.44-.15.99-.06,1.63l.75,5.69-2.75.36-1.38-10.48,2.66-.35.2,1.53c.28-.59.56-1.02.84-1.3.5-.49,1.19-.81,2.06-.92,1.08-.15,2,.03,2.77.5Z" style="fill: #fff; stroke-width: 0px;"/>
        <path d="M418.45,64.75l-2.78.36-.33-2.53,2.78-.36.33,2.53ZM415.83,66.36l2.78-.36,1.39,10.51-2.78.36-1.39-10.51Z" style="fill: #fff; stroke-width: 0px;"/>
        <path d="M430.4,65.72c.92.89,1.48,2.13,1.69,3.7.21,1.63,0,3.03-.63,4.21-.63,1.18-1.64,1.85-3.03,2.03-.87.12-1.6.04-2.17-.24-.34-.16-.73-.48-1.17-.94l.18,1.32-2.71.35-1.88-14.18,2.74-.36.67,5.05c.29-.53.62-.96,1.01-1.27.45-.39,1.06-.63,1.83-.73,1.39-.18,2.54.17,3.46,1.06ZM428.96,72.43c.32-.62.42-1.4.3-2.34-.1-.74-.28-1.35-.54-1.81-.49-.88-1.23-1.25-2.23-1.12-1,.13-1.63.68-1.89,1.63-.13.5-.15,1.14-.05,1.9.12.9.42,1.62.9,2.15.48.54,1.13.75,1.96.65.71-.09,1.22-.45,1.55-1.07Z" style="fill: #fff; stroke-width: 0px;"/>
        <path d="M437.52,74.19l-2.75.36-1.88-14.2,2.75-.36,1.88,14.2Z" style="fill: #fff; stroke-width: 0px;"/>
        <path d="M445.68,62.64c.78.23,1.45.67,2.02,1.32.52.56.89,1.25,1.12,2.06.14.47.26,1.17.37,2.07l-7.65,1.01c.18,1.05.65,1.74,1.39,2.08.45.2.98.27,1.57.19.62-.08,1.11-.31,1.46-.69.19-.2.35-.46.47-.8l2.8-.37c0,.63-.25,1.31-.77,2.03-.81,1.14-2.06,1.83-3.75,2.05-1.4.19-2.69-.08-3.87-.8-1.18-.72-1.9-2.05-2.15-3.99-.24-1.82.05-3.28.89-4.38.83-1.1,2.02-1.75,3.56-1.95.91-.12,1.76-.06,2.53.16ZM441.89,65.55c-.34.45-.51,1.03-.52,1.72l4.73-.62c-.15-.72-.46-1.24-.95-1.56-.49-.32-1.06-.44-1.71-.35-.7.09-1.22.36-1.56.81Z" style="fill: #fff; stroke-width: 0px;"/>
      </g>
      <path d="M182.92,246.22c1.15,3.43,3.63,7.61,7.74,7.5.92-.07,1.08,1.32.16,1.44-3.7.64-7.03-1.95-9-4.84-.75-1.34-3.17-3.89-1.01-5.08.84-.39,1.86.08,2.1.97h0Z" style="fill: #000; stroke-width: 0px;"/>
    </g>
  </g>
</svg>