<?xml version="1.0" encoding="UTF-8"?>
<svg id="Capa_2" data-name="Capa 2" xmlns="http://www.w3.org/2000/svg" viewBox="0 0 759.04 254.23">
  <defs>
    <style>
      .cls-1 {
        fill: #fff;
      }
    </style>
  </defs>
  <g id="Capa_1-2" data-name="Capa 1">
    <path class="cls-1" d="M442.07,3v2c2.72-.15,6.18.23,8.59,0,.95-.09,1.47-.89,2.45-1,3.18-.36,3.54.77,4.91,1s3.25-.18,3.68,0c.46.19-.46,1.81,0,2s4.45-.19,4.91,0c.74.3-2.01,4.26,8.59,1l9.82,4h2.45c3.27-1.83,9.58-.68,14.73-1,.92-.06,1.54-.94,2.45-1,12.14-.73,24.74,2.85,34.37,2,9.95-.88,5.67-3.04,22.09-1,5.46.68,11.72-2.68,17.18-2,3.78.47,6.36.62,9.82,1,3.21.36,7.05,2.61,12.27,2,4-.47,3.37-2.87,3.68-3,2.02-.82,5.67.95,6.14,1,2,.23,8.55-1.84,13.5-1,1.22.41-2.46,1.25-2.45,1.5,0,.32,10.29,4.42,11.05,4.5,6.04.68,9.28-1,9.82-1,6.02,0,18.61,2.41,24.55,2,7.81-.55,6.2,1.47,12.27,2,3.52.31,8.52-.25,12.27,0,13.09.89,28.53,2.13,46.64,2,2.96,1.54,19.29,1.3,20.86,3.5,1.41,1.98-2.29,2.66-2.45,3-1.09,2.21,3.01,4.1-4.91,3.5l2.45,1.5c-5.67,1.67-.34,2.38,0,3,1.75,3.19-1.11,7.28,0,10,3.26,7.98-3.31,15.89,0,24,1.39,3.4-1.6,10.1,0,13,2.89,5.26,1.74,19.27,0,25-1.96,6.46,5.13,12.44,2.45,19-.87,2.13-3.77,11.7-2.45,14,2.31,4.04,4.71,17.9,2.45,22-3.43,6.24,3.3,13.99,0,20-3.88,7.06,2.58,15.56-2.45,23-.93,1.38,3.52,11.62,2.45,14-1.9,4.24-.24,8.97-2.45,13-1.31,2.39,1.39,13.93,0,14.5-.46.19-4.45-.19-4.91,0s.46,1.81,0,2c-.39.16-9.04.13-11.05,0-.93-.06-1.56-.96-2.45-1-16.11-.72-31.76-1.12-41.73,0-1.47.16-21-1.74-29.46-1-2.62.23-7.79,2.78-12.27,2l-7.36-2c-2.6.94-4.47,1.5-3.68,3-5.44-1.68-11.57.14-9.82-3-5.99-.4-9.72,1.59-15.96,1-12.63-1.2-47.49-1.94-61.37-1-2.68.18.68.91-4.91,0-5.42-.88-3.21,1.81-3.68,2-2.02.82-5.48-.91-6.14-1-2.16-.3-5.38.52-7.36-1-1.82.5-6.52,3-7.36,3s-1.64-1-2.45-1-1.64,1-2.45,1c-1.31,0,.15-.34-4.91,0-6.33.43-15.74.26-19.64,0-8.73-.59-20.82.62-29.46,0-.86-.06-1.39-.82-2.45-1-2.49-.42-4.66.91-3.68-2-5.96,2.04-6.69.17-8.59,0-7.42-.68-12.97,1.81-11.05-3-4.39-.73-7.43,2.01-8.59,2-.83,0-1.63-1-2.45-1-.54,0-3.57,1.59-9.82,1-6.23-.59-12.9-.52-17.18-1-1.35-.15-3.95-2-4.91-2-.8,0-1.45.89-2.45,1-1.61.17-3.57-.21-4.91,0-2.18.34-9.06,2.81-11.05,2,1.11-1.55-5.24-4.38-8.59-4-2.75.31-2.05,1.78-7.36-1-5.75,1.72-9.22,0-9.82,0-.44,0-6.31,1.88-7.36,2-4.88.54-11.58-.79-11.05,3-1,.5-2.77-.9-3.68-1-3.23-.36-3.73.85-4.91,1-5.76.76-8.41,0-9.82,0-.72,0-11.56,3-12.27,3-.64,0-1.7-1.36-4.91-1-7.29.82-3.92-.6-7.36-1-5.26-.62-9.4,1.74-12.27,2-5.45.49-7.03-.7-14.73,0-4.75.43-10.12-.92-13.5,1.5-.65.47.46,1.31,0,1.5-.39.16-9.54.17-11.05,0-1.35-.15-3.95-2-4.91-2s-3.56,1.85-4.91,2c-5.41.61-15.73-.43-22.09,0-.94.06-1.64,1-2.45,1-.72,0-11.56-2-12.27-2-.82,0-1.64,1-2.45,1-.62,0-1.7-1.36-4.91-1-1.73.19-5.64,2.81-7.36,3-6.51.73-26.47-7.65-31.91-8.16-7.88-.75-12.37,2.79-11.05-1-3.64-.55-5.72,1.01-6.14,1-.85-.01-1.63-1-2.45-1-1.83,0-.02,1.82-7.36,1-4.14-.46-7.35,2.71-9.82,3-1.51.18-3.4-.18-4.91,0-2.11.25-7.33-4.63-6.14-3.53l-6.14-2c-.87,0-5.37,2.46-7.36,3-2.4.65-18.55,4.12-19.64,4-7.69-.86-9.04,1.36-12.27,1-8.2-.92-7.25,2.56-12.27,2-7.78-.87-11.89-1.3-19.64,1-6.69.18-14.54,2.73-15.96-1.5-.65-1.96-.77-7.12,0-9,1.6-3.91,2.2-1.19,0-7.31-1.48-4.11-5.12-22.14-2.45-27,3.3-6-3.04-17.56,0-25,1.8-4.4-3.02-12.52,0-18,2.24-4.07,6.33-17.59,4.91-23-.64-2.46-1.72-6.2-2.45-8-2.31-5.66,3.04-13.47,0-19-2.09-3.79.79-9.88,0-15-1.43-9.28-5.4-23.78-2.45-31,2.51-6.15-3.82-12.88,0-18,1.39-1.86-3.82-8.65-2.45-12,2.26-5.55,0-11.28,0-16,0-.33,2.29-.62,2.45-1,.4-.95-.57-2.21,0-3,.27-.38,2.02-.58,2.45-1,.55-.54-.43-1.33,0-1.5.62-.25,6.3.22,8.59,0,6.32-.61,7.55-3.08,17.18-2,3.13.35,10.53-3.47,14.73-3,1.99.22,3.79,1.57,9.82,1s9.23-.5,14.73-1c10.68-.97,19.02,2.22,27,4,4.17-2.47,8.97-1,9.82-1,1.92,0,9.72-1.51,17.18-1,.94.06,1.64,1,2.45,1,.73,0,1.36-.79,2.45-1,.78-.15,1.96.13,2.45,0,1.19-.31,5.52-2.05,6.14-2.5.65-.47-.46-1.31,0-1.5.41-.17,2.3.2,3.68,0,1.06-.16,1.68-1,2.45-1,.82,0,1.51.93,2.45,1,2.3.16,5.15-.18,7.36,0,.95.08,1.68,1.36,4.91,1,1.22-.14,3.21-1.6,4.91-2,1.3-.31,5.96-.69,7.36-1,1.68-.37,3.66-1.86,4.91-2,2.12-.24,12.16-.19,14.73,0,1.05.08,9.23,2,9.82,2,.96,0,3.56-1.85,4.91-2,6.84-.77,17.46-1.52,22.09-1,1.66.19,13.89-2,14.73-2,.96,0,3.56,1.85,4.91,2,2.45.27,22.44,1.14,24.55,1,.94-.06,1.64-1,2.45-1,.95,0,7.81,1.5,14.73,1,4.68-.34,19.62-4.55,24.55-4,14.93,1.68,17.64-.28,31.91-1,6.89-.35,15.5.45,22.09,0,.94-.06,1.64-1,2.45-1,.96,0,3.56,1.85,4.91,2,10.07,1.13,18.96.13,27,1,7.46.81,8.83-1,9.82-1,.83,0,1.64,1,2.45,1s8.26-1.73,14.73-1c3.01.34,5.24,3.85,13.5,1Z"/>
  </g>
</svg>