<?xml version="1.0" encoding="UTF-8"?>
<svg id="Capa_2" data-name="Capa 2" xmlns="http://www.w3.org/2000/svg" viewBox="0 0 271.92 274.34">
  <defs>
    <style>
      .cls-1 {
        fill: none;
        stroke: #fff;
        stroke-miterlimit: 10;
        stroke-width: 4px;
      }
    </style>
  </defs>
  <g id="Capa_1-2" data-name="Capa 1">
    <g>
      <path class="cls-1" d="M109.03,237.28c-14.98,4.63-29.96,9.25-44.94,13.88"/>
      <path class="cls-1" d="M238.64,224.42c-14.4,4.67-28.79,9.35-43.19,14.02-30.44,9.88-60.88,19.76-91.32,29.64"/>
      <path class="cls-1" d="M77.42,258.55l9.48-2.28c7.87-1.89,15.74-3.78,23.6-5.67,14.27-3.43,28.53-6.85,42.79-10.28,14-3.36,27.99-6.72,41.98-10.08,1.4-.34,2.8-.67,4.2-1.01,1.23-.3,2.46-.59,3.68-.88,13.37-3.22,26.74-6.43,40.1-9.64"/>
      <path class="cls-1" d="M128.77,271.65c4.53-1.89,9.07-3.78,13.6-5.67,13.93-5.81,27.87-11.62,41.8-17.43,13.56-5.65,27.11-11.3,40.67-16.95,3.95-1.64,7.89-3.29,11.84-4.94"/>
      <path class="cls-1" d="M238.54,224.54c-14.71,4.77-29.43,9.54-44.14,14.32-30.06,9.74-60.11,19.5-90.17,29.24"/>
      <path class="cls-1" d="M209.97,249.73c-7.86,2.33-15.72,4.67-23.58,7-16.95,5.04-33.9,10.07-50.85,15.11"/>
      <path class="cls-1" d="M168.29,267.93c5.63-2.14,11.27-4.29,16.9-6.44,4.57-1.74,9.15-3.48,13.72-5.22"/>
      <path class="cls-1" d="M202.37,254.37c-11.19,3.74-22.37,7.48-33.56,11.22-5.09,1.7-10.18,3.41-15.27,5.11"/>
      <path class="cls-1" d="M220.1,242.37c-17.63,5.36-35.25,10.71-52.88,16.06-8.28,2.52-16.57,5.04-24.85,7.55-5.92,1.8-11.84,3.6-17.76,5.4"/>
      <path class="cls-1" d="M113.84,270.05c6.17-2.26,12.34-4.5,18.52-6.73,1.72-.62,3.44-1.23,5.16-1.84,28.98-10.37,58.09-20.33,87.32-29.88,3.48-1.14,6.95-2.27,10.43-3.39"/>
      <path class="cls-1" d="M128.14,272.43c.66-.24,1.33-.48,1.99-.72,12.36-4.42,24.73-8.85,37.09-13.28,19.59-7.01,39.17-14.02,58.76-21.03"/>
      <path class="cls-1" d="M145.04,271.54c7.93-1.98,15.85-3.97,23.77-5.95,5.46-1.36,10.92-2.73,16.38-4.1,2.07-.51,4.13-1.03,6.19-1.54"/>
      <path class="cls-1" d="M70.11,254.75c6.96-1.45,13.91-2.89,20.88-4.31.05-.01.1-.02.16-.03,4.52-.93,9.04-1.85,13.56-2.75,1.2-.26,2.41-.5,3.62-.73,3.04-.63,6.08-1.24,9.12-1.84.57-.12,1.13-.23,1.7-.33,2.05-.42,4.11-.83,6.16-1.23,13.33-2.66,26.66-5.27,40.01-7.82,10.55-2.04,21.11-4.05,31.68-6.02.82-.16,1.64-.31,2.47-.46.83-.16,1.66-.31,2.49-.47,11.01-2.05,22.03-4.07,33.05-6.06,1.98-.36,3.97-.72,5.95-1.07"/>
      <path class="cls-1" d="M227.18,236.3c-14.34,4.09-28.67,8.17-43.01,12.25-16.66,4.76-33.32,9.51-49.98,14.25-.61.18-1.22.35-1.83.52-7.21,2.06-14.43,4.12-21.64,6.17"/>
      <path class="cls-1" d="M72.28,255.93c2.55-.76,5.09-1.51,7.64-2.26,3.69-1.08,7.38-2.16,11.07-3.23.13-.04.26-.07.39-.11,11.21-3.25,22.43-6.44,33.68-9.57,12.4-3.46,24.82-6.84,37.27-10.15,3.15-.84,6.3-1.68,9.45-2.5,13.41-3.53,26.84-6.97,40.29-10.34,12.74-3.17,25.5-6.28,38.28-9.31"/>
      <path class="cls-1" d="M247.35,213.05c-.63.15-1.26.3-1.9.46-20.19,4.9-40.39,9.8-60.59,14.7-16.6,4.03-33.21,8.06-49.82,12.09-3.67.89-7.34,1.78-11.01,2.67-1.16.28-2.33.57-3.5.85l-6.42,1.56c-3.13.76-6.26,1.52-9.4,2.28-6.2,1.51-12.41,3.01-18.62,4.52-2.05.5-4.11,1-6.17,1.49-2.72.67-5.44,1.33-8.16,1.99"/>
      <path class="cls-1" d="M76.77,258.23c13.56-4.38,27.12-8.76,40.68-13.14.76-.24,1.52-.49,2.29-.73,1.43-.46,2.86-.93,4.29-1.39,1.5-.48,3-.97,4.5-1.45,11.26-3.64,22.53-7.27,33.8-10.91,23.81-7.69,47.62-15.37,71.43-23.06-20.66,6.85-41.32,13.71-61.98,20.56-9.53,3.16-19.06,6.32-28.58,9.48-2.72.91-5.44,1.81-8.16,2.71-3.25,1.08-6.49,2.15-9.73,3.23-2.85.94-5.69,1.88-8.53,2.83-9.96,3.3-19.92,6.61-29.88,9.91l-8.4,2.79"/>
      <path class="cls-1" d="M53.86,244.05c20.11-6.94,40.23-13.88,60.34-20.82,25.04-8.64,50.08-17.28,75.12-25.91,8.92-3.08,17.84-6.16,26.76-9.24,16.85-5.81,33.7-11.63,50.55-17.44"/>
      <path class="cls-1" d="M260.26,189.45c-24.68,9.21-49.4,18.28-74.16,27.23-4.83,1.75-9.66,3.49-14.5,5.22-13.17,4.75-26.35,9.45-39.54,14.12-13.55,4.8-27.11,9.57-40.68,14.31-.08.03-.15.05-.23.08-1.69.59-3.37,1.18-5.06,1.77-2.92,1.01-5.84,2.03-8.76,3.04-1.29.45-2.57.9-3.86,1.34"/>
      <path class="cls-1" d="M267.43,167.38c-8.03,2.76-16.07,5.53-24.1,8.29-14.94,5.15-29.89,10.29-44.83,15.44-4.23,1.45-8.45,2.91-12.68,4.36-24.25,8.35-48.5,16.7-72.75,25.05-20.67,7.11-41.33,14.23-62,21.34"/>
      <path class="cls-1" d="M267.31,167.88c-5.37,1.87-10.73,3.75-16.1,5.62-18.38,6.42-36.77,12.84-55.15,19.26-.68.23-1.35.47-2.03.71-9.85,3.44-19.71,6.88-29.56,10.32-30.81,10.76-61.63,21.52-92.44,32.28-6.54,2.28-13.09,4.57-19.63,6.85"/>
      <path class="cls-1" d="M115.37,270.28c6.27-2.49,12.55-4.98,18.82-7.48l3.33-1.32c18.96-7.54,37.92-15.08,56.88-22.62l1.05-.42c13.19-5.24,26.37-10.49,39.56-15.74,2.48-.98,4.97-1.97,7.45-2.96"/>
      <path class="cls-1" d="M73.08,256.36c1.42-.38,2.83-.76,4.25-1.14,10.33-2.76,20.67-5.53,31-8.29,1.93-.52,3.85-1.04,5.78-1.55l6.81-1.83c2.54-.67,5.07-1.35,7.61-2.03,4.89-1.31,9.78-2.62,14.67-3.93,18.97-5.07,37.94-10.15,56.91-15.23,16.63-4.45,33.27-8.9,49.9-13.35"/>
      <path class="cls-1" d="M213.13,247.58c-8.91,3.05-17.82,6.1-26.74,9.15-14.54,4.98-29.08,9.96-43.62,14.93"/>
      <path class="cls-1" d="M217.15,244.66c-28.92,9.02-57.84,18.04-86.76,27.07-.75.23-1.5.46-2.25.7"/>
      <path class="cls-1" d="M270.62,128.01c-7.54,2.11-15.07,4.21-22.61,6.31-1.96.55-3.91,1.09-5.87,1.64-17.31,4.83-34.63,9.67-51.94,14.49"/>
      <path class="cls-1" d="M16.07,199.05c10.64-2.96,21.28-5.93,31.92-8.91,5.52-1.53,11.04-3.07,16.56-4.62,10.66-2.97,21.31-5.94,31.97-8.92"/>
      <path class="cls-1" d="M270.79,142.23l-3.27,2.22c-2.65,1.78-5.29,3.57-7.94,5.37l-11.46,7.74c-.39.26-.78.53-1.17.79-.92.63-1.85,1.25-2.77,1.88-2.37,1.6-4.75,3.2-7.12,4.81-2.1,1.42-4.19,2.83-6.29,4.25-.9.61-1.81,1.22-2.71,1.84-4.28,2.88-8.55,5.78-12.83,8.66-2.14,1.46-4.29,2.9-6.43,4.36-.87.58-1.75,1.17-2.62,1.77l-7.68,5.19c-.81.55-1.63,1.1-2.44,1.65-.17.11-.33.22-.5.33-.55.37-1.09.74-1.64,1.11-1.53,1.04-3.07,2.08-4.6,3.12-2.74,1.85-5.49,3.7-8.23,5.56-11.48,7.76-22.95,15.52-34.43,23.27-.05.04-.11.08-.16.11l-5.13,3.48c-.15.1-.31.2-.46.3-2.95,2-5.9,3.99-8.85,5.98-2.33,1.58-4.67,3.16-7,4.74-1.38.93-2.76,1.87-4.14,2.79-.13.1-.26.18-.39.27-.26.18-.53.36-.79.54-.2.13-.39.26-.59.4-.79.53-1.58,1.06-2.37,1.6-2.09,1.41-4.19,2.83-6.28,4.24-5.79,3.92-11.58,7.83-17.37,11.75-.84.56-1.68,1.13-2.52,1.7"/>
      <path class="cls-1" d="M14.55,196.05c14.85-5.02,29.76-9.87,44.72-14.55.45-.15.9-.29,1.34-.42,10.43-3.27,20.88-6.45,31.36-9.55"/>
      <path class="cls-1" d="M191.32,144.68c16.7-4.09,33.46-7.98,50.26-11.66,2.88-.63,5.77-1.26,8.65-1.88-8.62,2.45-17.24,4.9-25.86,7.35-11.21,3.18-22.41,6.37-33.62,9.55"/>
      <path class="cls-1" d="M95.15,175.2c-4.35,1.24-8.71,2.48-13.06,3.71-5.39,1.53-10.78,3.07-16.17,4.6-16.82,4.78-33.65,9.56-50.47,14.34"/>
      <path class="cls-1" d="M260.34,189.26c-37.89,12.3-75.79,24.6-113.68,36.89-14.91,4.84-29.82,9.68-44.73,14.52-11.99,3.89-23.97,7.78-35.96,11.67"/>
      <path class="cls-1" d="M265.1,176.11l-49.02,11.97c-4.48,1.1-8.95,2.19-13.43,3.28-2.36.58-4.73,1.16-7.09,1.73-.51.13-1.02.25-1.53.38-2.74.67-5.47,1.33-8.21,2-8.97,2.19-17.95,4.39-26.92,6.58-17.62,4.3-35.25,8.61-52.87,12.91-11.17,2.73-22.35,5.46-33.52,8.19-4.03.98-8.05,1.96-12.08,2.95-2.62.64-5.25,1.28-7.87,1.92,13.31-4.8,26.62-9.59,39.93-14.39l3.09-1.11c16.08-5.79,32.16-11.59,48.24-17.38,2.3-.83,4.6-1.66,6.89-2.48,28.17-10.15,56.33-20.3,84.49-30.45.68-.24,1.36-.48,2.04-.73,3.63-1.31,7.26-2.61,10.88-3.92,7.4-2.66,14.8-5.33,22.19-7.99"/>
      <path class="cls-1" d="M113.43,188.11c-14.58,4.41-29.14,8.9-43.67,13.46-1.6.5-3.2,1-4.79,1.51-12.95,4.07-25.88,8.21-38.79,12.4"/>
      <path class="cls-1" d="M182.53,167.8c5.1-1.46,10.2-2.9,15.31-4.34,23.17-6.53,46.4-12.86,69.68-19.01,1.07-.29,2.14-.57,3.21-.85"/>
      <path class="cls-1" d="M91.03,264.2c5.77-2.21,11.54-4.42,17.32-6.64,14.98-5.74,29.96-11.49,44.94-17.24,4.01-1.54,8.02-3.07,12.03-4.61,6.51-2.5,13.02-5,19.54-7.5,5.08-1.95,10.16-3.9,15.25-5.85,3.98-1.53,7.97-3.06,11.96-4.59,14.12-5.41,28.24-10.83,42.36-16.25"/>
      <path class="cls-1" d="M260.29,189.4c-37.93,12.29-75.86,24.57-113.79,36.86-14.64,4.74-29.28,9.49-43.92,14.23-12.2,3.95-24.39,7.9-36.59,11.86"/>
      <path class="cls-1" d="M256.98,196.62c-23.66,6.57-47.29,13.26-70.88,20.06-14.92,4.31-29.83,8.66-44.73,13.06-2.31.68-4.62,1.36-6.93,2.05-22.83,6.75-45.62,13.62-68.38,20.6"/>
      <path class="cls-1" d="M96.12,265.88c35.28-12.37,70.56-24.74,105.84-37.12.4-.13.79-.27,1.19-.41,5.35-1.88,10.71-3.76,16.06-5.64,8.75-3.06,17.49-6.13,26.24-9.2.69-.24,1.39-.49,2.08-.73"/>
      <path class="cls-1" d="M254.79,200.85c-27.79,6.79-55.52,13.81-83.19,21.05-10.24,2.68-20.47,5.4-30.69,8.14-2.16.58-4.31,1.16-6.47,1.75-10.63,2.86-21.25,5.76-31.86,8.7-.22.06-.43.12-.65.18-12.58,3.48-25.15,7.01-37.7,10.59"/>
      <path class="cls-1" d="M89.26,263.56c1.29-.4,2.58-.81,3.87-1.21,5.07-1.6,10.15-3.19,15.22-4.79,28.97-9.11,57.95-18.22,86.92-27.32.58-.19,1.15-.37,1.73-.55,7.4-2.33,14.81-4.65,22.21-6.98,9.14-2.87,18.27-5.74,27.41-8.62"/>
      <path class="cls-1" d="M269.72,154.77c-.51.1-1.01.21-1.51.31-8.02,1.67-16.03,3.39-24.03,5.15-2.99.65-5.99,1.31-8.98,1.98l-.78.18c-19.7,4.41-39.34,9.08-58.92,14.01"/>
      <path class="cls-1" d="M121.01,190.81c-9.74,2.7-19.46,5.47-29.15,8.3-11.85,3.45-23.67,7-35.47,10.65-9.33,2.88-18.64,5.82-27.93,8.82"/>
      <path class="cls-1" d="M269.15,158.64c-9.11,2.47-18.2,4.98-27.29,7.53-3.7,1.03-7.39,2.07-11.09,3.12-29.09,8.24-58.08,16.86-86.95,25.85-7.51,2.33-15.01,4.69-22.5,7.08-4.98,1.58-9.95,3.18-14.92,4.79-14.96,4.83-29.88,9.76-44.77,14.8-7.86,2.65-15.71,5.33-23.55,8.05"/>
      <path class="cls-1" d="M266.66,170.53c-21.34,6.94-42.67,13.89-64.01,20.83-2.91.95-5.82,1.9-8.73,2.84-9.82,3.2-19.63,6.39-29.45,9.59-17.13,5.58-34.27,11.15-51.4,16.73-20.34,6.62-40.69,13.24-61.03,19.86-.66.22-1.32.43-1.98.65"/>
      <path class="cls-1" d="M267.87,165.4c-9.56,2.61-19.12,5.23-28.67,7.84-7.99,2.19-15.98,4.37-23.97,6.55-15.8,4.33-31.6,8.65-47.39,12.97-24.09,6.59-48.18,13.18-72.26,19.76-.59.17-1.18.33-1.77.48-3.21.89-6.42,1.76-9.63,2.64-7.52,2.06-15.04,4.11-22.55,6.17-4.74,1.3-9.48,2.59-14.22,3.89-3.52.96-7.03,1.92-10.54,2.88"/>
      <path class="cls-1" d="M270.39,125.03c-6.51,2.71-13.03,5.41-19.54,8.11-.95.39-1.89.79-2.84,1.18l-7.95,3.3c-17.67,7.33-35.35,14.66-53.02,22"/>
      <path class="cls-1" d="M32.57,223.71c19.76-8.2,39.53-16.4,59.29-24.6,2.23-.93,4.47-1.86,6.7-2.78l17.34-7.2"/>
      <path class="cls-1" d="M270.66,128.79c-8.49,4.04-16.98,8.08-25.47,12.13-12.93,6.16-25.87,12.32-38.81,18.48-2.84,1.35-5.69,2.71-8.54,4.06-5.78,2.76-11.56,5.51-17.35,8.27-.44.21-.89.42-1.34.63"/>
      <path class="cls-1" d="M136.23,192.81c-2.65,1.26-5.31,2.52-7.97,3.79-3.65,1.74-7.31,3.48-10.97,5.22-3.24,1.55-6.48,3.09-9.73,4.64-.38.18-.77.37-1.16.55-1.74.83-3.49,1.66-5.24,2.49-2.45,1.17-4.9,2.34-7.35,3.5l-1.32.63c-6.02,2.87-12.05,5.74-18.08,8.61-.63.31-1.26.61-1.9.91-9.26,4.41-18.52,8.82-27.79,13.23"/>
      <path class="cls-1" d="M270.18,150.87c-7.75,2.49-15.49,4.99-23.23,7.48-3.24,1.04-6.48,2.09-9.71,3.13-.94.3-1.88.61-2.82.91-23.26,7.49-46.51,14.99-69.76,22.48"/>
      <path class="cls-1" d="M140.63,192.61c-4.13,1.33-8.25,2.66-12.37,3.99-31.06,10.01-62.12,20.02-93.17,30.02"/>
      <path class="cls-1" d="M45.19,236.82c20.28-7.29,40.56-14.57,60.84-21.86,5.72-2.05,11.45-4.11,17.17-6.17,14.88-5.34,29.76-10.68,44.64-16.03,20.07-7.21,40.15-14.42,60.22-21.63,4.6-1.66,9.2-3.31,13.8-4.96,9.22-3.31,18.43-6.62,27.65-9.94"/>
      <path class="cls-1" d="M264.69,177.43c-27.86,8.49-55.73,16.97-83.6,25.45-22.29,6.79-44.59,13.57-66.89,20.35-14.06,4.29-28.11,8.56-42.17,12.84-6.81,2.07-13.62,4.15-20.43,6.22"/>
      <path class="cls-1" d="M267.01,169.14c-5.27,1.46-10.53,2.91-15.8,4.36-2.63.73-5.25,1.45-7.88,2.17-12.38,3.42-24.77,6.83-37.15,10.25-3.33.91-6.66,1.83-9.99,2.75-24.33,6.71-48.66,13.41-72.99,20.12-16.26,4.49-32.53,8.97-48.79,13.45-4.66,1.29-9.32,2.57-13.98,3.86-6.84,1.88-13.68,3.77-20.52,5.66-.49.13-.97.26-1.46.4"/>
      <path class="cls-1" d="M270.53,146.92c-3.65.96-7.3,1.92-10.95,2.9-26.44,7.02-52.8,14.32-79.09,21.91-.36.1-.71.2-1.07.31"/>
      <path class="cls-1" d="M118.67,190.11c-6.71,2.05-13.41,4.12-20.11,6.22-14.08,4.39-28.13,8.86-42.17,13.43-9.24,3-18.48,6.04-27.71,9.1"/>
      <path class="cls-1" d="M268.41,162.76c-9.74,3.5-19.47,6.99-29.21,10.48-10.13,3.64-20.27,7.27-30.4,10.91-4.2,1.51-8.41,3.02-12.61,4.52-12.43,4.46-24.86,8.92-37.29,13.38-35.62,12.78-71.24,25.56-106.86,38.33l-1.92.69"/>
      <path class="cls-1" d="M270.82,141.56c-21.54,5.74-43.02,11.69-64.44,17.84-7.57,2.17-15.13,4.36-22.69,6.59"/>
      <path class="cls-1" d="M112.55,187.72c-14.29,4.52-28.56,9.14-42.79,13.85-4.01,1.33-8.02,2.66-12.02,4-10.38,3.47-20.74,6.99-31.09,10.57"/>
      <path class="cls-1" d="M269.74,154.59c-.51.16-1.02.32-1.53.49-10.38,3.32-20.77,6.64-31.15,9.96-28.78,9.21-57.57,18.41-86.35,27.62-8.46,2.7-16.92,5.41-25.38,8.12-5.92,1.89-11.85,3.78-17.77,5.68-20.05,6.41-40.1,12.82-60.15,19.24-3.4,1.08-6.79,2.17-10.19,3.25"/>
      <path class="cls-1" d="M36.04,227.67c27.08-8.61,54.17-17.23,81.25-25.85,14.36-4.56,28.71-9.13,43.07-13.7-11.68,4.22-23.35,8.44-35.03,12.66-1.34.48-2.67.96-4.01,1.44-6.72,2.43-13.44,4.86-20.16,7.28-5.66,2.05-11.32,4.09-16.98,6.14-14.78,5.34-29.57,10.68-44.36,16.02-.45.17-.91.33-1.37.5"/>
      <path class="cls-1" d="M265.49,98.89c-4.45.62-8.89,1.25-13.33,1.91-22.19,3.23-44.3,6.8-66.34,10.71"/>
      <path class="cls-1" d="M126.1,122.92h0c2.01-.41,4.01-.82,6.02-1.23,2.47-.5,4.95-1,7.42-1.48h.01"/>
      <path class="cls-1" d="M1.78,152.2c2.46-.66,4.91-1.31,7.37-1.95.98-.26,1.97-.52,2.95-.77,5.16-1.35,10.33-2.68,15.5-3.99,17.44-4.42,34.93-8.62,52.47-12.61"/>
      <path class="cls-1" d="M97.57,177.62c-11.5,4.54-22.97,9.16-34.41,13.86-3.53,1.45-7.06,2.9-10.58,4.37-5,2.07-10,4.16-14.99,6.26-5.3,2.24-10.59,4.48-15.88,6.75"/>
      <path class="cls-1" d="M269.25,115.72c-25.99,8.47-51.88,17.31-77.64,26.51"/>
      <path class="cls-1" d="M267.99,108.86c-25.38,9.56-50.75,19.12-76.13,28.69"/>
      <path class="cls-1" d="M94.32,174.31c-4.08,1.53-8.15,3.07-12.23,4.6-5.85,2.21-11.69,4.41-17.54,6.61-15.45,5.83-30.9,11.65-46.35,17.47"/>
      <path class="cls-1" d="M268.72,112.58c-25.62,8.43-51.24,16.87-76.86,25.3"/>
      <path class="cls-1" d="M91.49,170.91c-10.29,3.39-20.59,6.78-30.88,10.17-.74.24-1.49.49-2.23.73.3-.1.59-.21.89-.31,10.59-3.74,21.17-7.47,31.76-11.2"/>
      <path class="cls-1" d="M144.98,151.26h-.01s-.01.01-.02.01c-2.33.83-4.68,1.66-7.01,2.48t-.02.01"/>
      <path class="cls-1" d="M191.83,134.74c20.25-7.14,40.49-14.28,60.74-21.43,5.08-1.78,10.15-3.58,15.23-5.37"/>
      <path class="cls-1" d="M80.39,144.07c-10.06,2.53-20.12,5.07-30.18,7.6-10.76,2.71-21.52,5.42-32.28,8.13-.54.14-1.08.27-1.62.41-4.25,1.07-8.49,2.14-12.74,3.21,0,0-.03.01-.04.01"/>
      <path class="cls-1" d="M149.55,126.65c-10.16,2.56-20.33,5.12-30.49,7.68"/>
      <path class="cls-1" d="M188.21,116.91c21.32-5.37,42.63-10.74,63.95-16.11,4.31-1.09,8.62-2.17,12.93-3.26"/>
      <path class="cls-1" d="M20.61,207.1c10.65-3.78,21.3-7.53,31.97-11.25,9.15-3.19,18.3-6.36,27.46-9.51,6.57-2.27,13.15-4.52,19.73-6.75"/>
      <path class="cls-1" d="M190.46,149.41c11.3-3.68,22.6-7.32,33.91-10.92,5.74-1.84,11.47-3.66,17.21-5.47,9.57-3.03,19.14-6.03,28.72-9.01"/>
      <path class="cls-1" d="M189.5,153.01c16.86-5.12,33.71-10.26,50.56-15.39,10.2-3.1,20.39-6.21,30.58-9.31"/>
      <path class="cls-1" d="M100.43,180.14c-6.79,2.07-13.59,4.14-20.39,6.2-5.62,1.72-11.25,3.43-16.88,5.14-14.63,4.46-29.26,8.92-43.89,13.37"/>
      <path class="cls-1" d="M189.51,152.98c17.54-5.67,35.09-11.34,52.63-17.02,2.9-.94,5.81-1.88,8.71-2.82,6.56-2.12,13.12-4.24,19.68-6.36"/>
      <path class="cls-1" d="M101.92,181.31c-21.44,6.93-42.89,13.87-64.33,20.8-5.57,1.81-11.15,3.61-16.72,5.41"/>
      <path class="cls-1" d="M26.74,216.27c10.33-3.57,20.66-7.13,31-10.7l7.23-2.49c15.43-5.32,30.86-10.65,46.3-15.97"/>
      <path class="cls-1" d="M270.82,132.08c-8.55,2.94-17.09,5.89-25.63,8.84-19.64,6.77-39.28,13.54-58.91,20.31"/>
      <path class="cls-1" d="M267.93,108.57c-5.12,1.59-10.24,3.17-15.36,4.74-20.3,6.27-40.6,12.54-60.9,18.8"/>
      <path class="cls-1" d="M127.8,151.83h.01c7.74-2.39,15.48-4.78,23.23-7.17"/>
      <path class="cls-1" d="M87.16,164.37c-7.27,2.25-14.54,4.49-21.8,6.73-18.15,5.61-36.3,11.21-54.45,16.81"/>
      <path class="cls-1" d="M17.36,201.48c10.21-3.78,20.42-7.56,30.63-11.34,5.98-2.21,11.95-4.42,17.93-6.63,9.18-3.4,18.35-6.8,27.53-10.19"/>
      <path class="cls-1" d="M267.96,108.72c-25.36,9.39-50.73,18.78-76.09,28.16"/>
      <path class="cls-1" d="M152.89,138.11c-9.94,3.31-19.88,6.61-29.82,9.93"/>
      <path class="cls-1" d="M190.72,125.53c9.69-3.23,19.38-6.45,29.07-9.67,15.39-5.12,30.77-10.24,46.16-15.36"/>
      <path class="cls-1" d="M85.23,160.63c-25.07,8.33-50.14,16.67-75.22,25.02"/>
      <path class="cls-1" d="M152.93,137.24c-10.18,3.33-20.35,6.65-30.53,9.98"/>
      <path class="cls-1" d="M190.59,124.92c8.24-2.7,16.47-5.39,24.71-8.09,16.86-5.51,33.73-11.03,50.59-16.54"/>
      <path class="cls-1" d="M84.73,159.55c-25.1,8.2-50.19,16.41-75.29,24.62"/>
      <path class="cls-1" d="M151.79,130.68c-10.96,2.39-21.93,4.78-32.89,7.17"/>
      <path class="cls-1" d="M189.98,122.35c8.44-1.83,16.88-3.67,25.32-5.52,1.5-.32,2.99-.65,4.49-.97,15.82-3.45,31.63-6.9,47.45-10.35"/>
      <path class="cls-1" d="M3.45,163.01c1.39-.3,2.78-.6,4.17-.91,2.9-.63,5.79-1.26,8.69-1.89.44-.09.89-.19,1.33-.29,9.29-2.02,18.59-4.05,27.88-6.08,10.36-2.25,20.72-4.51,31.08-6.77,1.37-.3,2.73-.59,4.1-.9"/>
      <path class="cls-1" d="M11.2,188.61c18.05-5.84,36.11-11.67,54.16-17.51,7.22-2.33,14.43-4.66,21.65-6.99"/>
      <path class="cls-1" d="M267.32,105.84c-25.28,8.17-50.55,16.33-75.83,24.5"/>
      <path class="cls-1" d="M151.71,143.2c-8.3,2.68-16.59,5.36-24.89,8.04"/>
      <path class="cls-1" d="M245.11,57.47c-20.54,6.81-41.09,13.62-61.63,20.44l-24.24,8.04"/>
      <path class="cls-1" d="M86.78,109.98l-34.65,11.49c-17.07,5.66-34.14,11.32-51.21,16.99"/>
      <path class="cls-1" d="M2.21,155.62c8.46-3.38,16.93-6.75,25.39-10.13,17.93-7.15,35.87-14.3,53.8-21.45"/>
      <path class="cls-1" d="M166.63,90.05c.74-.29,1.47-.59,2.21-.88l17.82-7.11c19.72-7.86,39.45-15.73,59.17-23.59"/>
      <path class="cls-1" d="M.63,136.2c.09-.03.19-.06.28-.09,6.95-2.24,13.9-4.46,20.87-6.66,14.1-4.44,28.24-8.79,42.4-13.06,7.6-2.28,15.19-4.53,22.8-6.76"/>
      <path class="cls-1" d="M163.54,88.16c7.7-2.06,15.41-4.09,23.12-6.1,7.4-1.92,14.81-3.82,22.22-5.69,2.07-.53,4.15-1.05,6.22-1.57.76-.19,1.51-.38,2.26-.56,4.62-1.16,9.24-2.31,13.86-3.44-5.89,1.73-11.78,3.47-17.67,5.2-2.86.85-5.73,1.69-8.59,2.53-3.16.93-6.31,1.86-9.47,2.79-8.88,2.62-17.77,5.23-26.65,7.85-.82.24-1.63.48-2.45.72"/>
      <path class="cls-1" d="M84.83,113.91c-16.33,4.81-32.67,9.62-49,14.43-11.64,3.43-23.27,6.85-34.91,10.28"/>
      <path class="cls-1" d="M237.8,48.28c-1.52.35-3.04.69-4.55,1.03-7.3,1.66-14.59,3.35-21.87,5.06-3.61.84-7.22,1.7-10.82,2.56-1.44.34-2.88.68-4.31,1.03-1.98.47-3.95.94-5.92,1.42-20.5,4.95-40.95,10.11-61.34,15.46-17.29,4.53-34.54,9.21-51.75,14.04-14.4,4.03-28.76,8.16-43.1,12.38-10.23,3.02-20.45,6.09-30.65,9.22"/>
      <path class="cls-1" d="M1.47,149.24c9.85-3.32,19.69-6.63,29.54-9.94,16.95-5.72,33.91-11.42,50.86-17.13"/>
      <path class="cls-1" d="M170.04,92.49c9.67-3.26,19.34-6.52,29.01-9.77,17.14-5.77,34.28-11.54,51.42-17.31"/>
      <path class="cls-1" d="M237.37,47.8c-1.37.5-2.74,1.01-4.12,1.51-25.95,9.55-51.91,19.1-77.87,28.66-3.34,1.22-6.69,2.46-10.04,3.69"/>
      <path class="cls-1" d="M92.97,100.93c-22.25,8.19-44.5,16.37-66.76,24.57-2.85,1.04-5.71,2.09-8.57,3.15-5.57,2.04-11.14,4.09-16.71,6.15"/>
      <path class="cls-1" d="M234.62,44.77c-.69.23-1.39.46-2.08.68-5.81,1.92-11.61,3.84-17.42,5.75-3.59,1.19-7.19,2.37-10.78,3.56l-14.01,4.62C127.47,80.12,64.62,100.86,1.76,121.6"/>
      <path class="cls-1" d="M.92,135.79c12.83-4.52,25.67-9.04,38.5-13.56,16.98-5.98,33.97-11.96,50.95-17.94"/>
      <path class="cls-1" d="M151.01,82.93c25.47-8.97,50.93-17.94,76.4-26.91-25.41,8.99-50.83,17.97-76.24,26.95"/>
      <path class="cls-1" d="M.63,136.2c.09-.03.19-.06.28-.1,11.23-3.97,22.45-7.94,33.68-11.91,18.53-6.55,37.07-13.1,55.6-19.66"/>
      <path class="cls-1" d="M242.59,54.11c-19.71,7.94-39.41,15.87-59.11,23.8-7.44,2.99-14.87,5.99-22.3,8.98"/>
      <path class="cls-1" d="M83.07,118.34c-17.36,6.99-34.71,13.97-52.06,20.96-9.79,3.94-19.57,7.88-29.35,11.81"/>
      <path class="cls-1" d="M90.25,104.46c-17.54,6.17-35.08,12.33-52.62,18.49-12.24,4.31-24.47,8.61-36.71,12.91"/>
      <path class="cls-1" d="M240.59,51.61c-29.77,10.46-59.54,20.93-89.31,31.39"/>
      <path class="cls-1" d="M255,73.23c-25.96,8.36-51.82,17.06-77.58,26.07"/>
      <path class="cls-1" d="M3.97,165.55c4.55-1.89,9.11-3.77,13.67-5.63.1-.05.19-.09.29-.12,4.21-1.73,8.42-3.44,12.63-5.14,16.42-6.64,32.89-13.15,49.4-19.51"/>
      <path class="cls-1" d="M3.53,163.43s.03-.01.04-.01l4.05-1.32c7.65-2.48,15.29-4.96,22.94-7.44,14.69-4.77,29.39-9.54,44.08-14.31,1.77-.57,3.55-1.15,5.32-1.72"/>
      <path class="cls-1" d="M258.67,80.63c-25.48,8.26-50.96,16.53-76.44,24.8"/>
      <path class="cls-1" d="M124.53,124.16c2.53-.82,5.07-1.64,7.6-2.47,1.84-.59,3.68-1.19,5.52-1.79h.01"/>
      <path class="cls-1" d="M259.83,83.23c-24.94,8.92-49.87,17.84-74.81,26.75"/>
      <path class="cls-1" d="M146.71,123.68c-9.17,3.28-18.34,6.56-27.51,9.83"/>
      <path class="cls-1" d="M80.89,147.21c-24.94,8.92-49.87,17.83-74.81,26.75"/>
      <path class="cls-1" d="M80.62,145.65c-1.34.47-2.68.94-4.02,1.42-22.88,8.05-45.76,16.11-68.64,24.17-.8.28-1.6.56-2.4.85"/>
      <path class="cls-1" d="M145.53,122.79c-8.64,3.04-17.29,6.09-25.93,9.14h-.01"/>
      <path class="cls-1" d="M259.57,82.63c-25.02,8.81-50.04,17.62-75.06,26.43"/>
      <path class="cls-1" d="M1.86,152.95c2.43-.9,4.86-1.8,7.29-2.7,24.13-8.92,48.26-17.85,72.39-26.77"/>
      <path class="cls-1" d="M168.47,91.32c9.01-3.34,18.01-6.67,27.02-10,4.46-1.65,8.93-3.3,13.39-4.95,6.42-2.38,12.85-4.75,19.27-7.13-2.67,1.24-5.33,2.47-8,3.7-.93.44-1.86.87-2.79,1.3-1.27.59-2.54,1.18-3.81,1.76-4.83,2.24-9.67,4.48-14.5,6.72-8.72,4.04-17.43,8.08-26.15,12.12"/>
      <path class="cls-1" d="M79.94,137.9c-1.77.82-3.53,1.63-5.3,2.45-8.14,3.77-16.29,7.55-24.43,11.32-1.56.72-3.13,1.45-4.69,2.17-12.52,5.8-25.04,11.6-37.56,17.4-.78.36-1.55.72-2.33,1.08"/>
      <path class="cls-1" d="M144.6,82.51c.61-.22,1.22-.43,1.84-.65,31.06-10.88,62.34-21.1,93.81-30.67"/>
      <path class="cls-1" d="M92.52,101.47c-17.77,6.7-35.47,13.62-53.1,20.76-.59.24-1.19.48-1.79.72-1.01.41-2.03.83-3.04,1.24-4.27,1.74-8.55,3.49-12.81,5.26-6.97,2.88-13.92,5.8-20.86,8.76"/>
      <path class="cls-1" d="M1.9,153.23l10.2-3.75c23.1-8.5,46.21-17,69.31-25.5"/>
      <path class="cls-1" d="M248.6,62.48c-9.48,3.49-18.97,6.98-28.45,10.46-1.68.62-3.37,1.24-5.05,1.86-3.38,1.25-6.76,2.49-10.14,3.73-11.97,4.41-23.94,8.81-35.91,13.21"/>
      <path class="cls-1" d="M233.78,43.87c-6.22,2.44-12.44,4.88-18.66,7.33-4.85,1.91-9.71,3.82-14.56,5.73-20.39,8.01-40.77,16.03-61.16,24.05"/>
      <path class="cls-1" d="M95.29,98.33c-23.03,9.05-46.05,18.11-69.08,27.17-8.43,3.31-16.86,6.62-25.29,9.94"/>
      <path class="cls-1" d="M1.05,142.99c11.59-4.88,23.19-9.76,34.78-14.65,5.43-2.29,10.87-4.58,16.3-6.87,4.02-1.69,8.03-3.38,12.05-5.08,8.38-3.53,16.76-7.06,25.14-10.59"/>
      <path class="cls-1" d="M234.5,44.63c-.65.27-1.31.55-1.96.82-7.05,2.98-14.11,5.95-21.16,8.92-18.67,7.87-37.33,15.73-56,23.6-3.05,1.28-6.1,2.57-9.15,3.85-.54.23-1.09.46-1.63.69"/>
      <path class="cls-1" d="M2.16,118.4c42.28-14.52,84.55-29.04,126.83-43.56,33.7-11.57,67.4-23.14,101.1-34.72"/>
      <path class="cls-1" d="M.92,135.27c5.58-2.21,11.15-4.42,16.72-6.62,26.1-10.33,52.2-20.66,78.3-30.99"/>
      <path class="cls-1" d="M138.24,80.92c19.34-7.65,38.68-15.31,58.01-22.96,2.7-1.07,5.4-2.13,8.09-3.2,9.64-3.82,19.28-7.63,28.91-11.44"/>
      <path class="cls-1" d="M6.82,97.23c36.18-14.02,72.37-28.05,108.55-42.07,15.47-6,30.95-11.99,46.42-17.99-4.49,2.06-8.98,4.12-13.47,6.17-4.86,2.23-9.72,4.46-14.58,6.69-28.98,13.28-57.96,26.56-86.94,39.84-14.38,6.59-28.77,13.18-43.15,19.78"/>
      <path class="cls-1" d="M16.04,74.69c24.42-8.32,48.84-16.65,73.26-24.98,24.94-8.5,49.88-17.01,74.81-25.51-6.85,2.9-13.69,5.8-20.54,8.7-1.09.46-2.17.92-3.26,1.38-1.83.78-3.65,1.55-5.48,2.33-14.36,6.08-28.73,12.16-43.09,18.25-7.64,3.24-15.29,6.48-22.93,9.72-1.56.65-3.11,1.31-4.67,1.98-6.76,2.86-13.52,5.72-20.28,8.59-11.51,4.87-23.01,9.75-34.52,14.62"/>
      <path class="cls-1" d="M167.88,5.65c-5.71,1.13-11.41,2.27-17.12,3.4-5.12,1.03-10.24,2.05-15.36,3.06-8.14,1.63-16.28,3.25-24.42,4.87l-14.31,2.85c-4.04.8-8.07,1.6-12.11,2.41-9.46,1.88-18.92,3.77-28.38,5.65"/>
      <path class="cls-1" d="M178.64,8.74c-35.96,13.74-71.92,27.47-107.89,41.21-17.35,6.63-34.7,13.26-52.06,19.88"/>
      <path class="cls-1" d="M36.14,45.89c9.29-3.59,18.58-7.18,27.88-10.77,15.65-6.05,31.3-12.09,46.96-18.14l37.65-14.55"/>
      <path class="cls-1" d="M94.18,8.41s.04-.02.07-.02c5.27-1.36,10.54-2.72,15.81-4.07"/>
      <path class="cls-1" d="M14.67,77.39c40.05-13.6,80.11-27.19,120.16-40.78,11.17-3.8,22.35-7.59,33.52-11.38,2.9-.99,5.79-1.97,8.69-2.95,6.29-2.14,12.57-4.27,18.86-6.41"/>
      <path class="cls-1" d="M193.77,14.84c-41.01,11.7-82.02,23.4-123.02,35.11-16.12,4.6-32.24,9.2-48.36,13.8"/>
      <path class="cls-1" d="M6.31,98.94c39.58-15.49,79.15-30.99,118.73-46.48,7.76-3.04,15.52-6.08,23.28-9.12,19-7.43,38-14.87,57-22.31"/>
      <path class="cls-1" d="M201.9,19.05c-4.4,1.43-8.79,2.86-13.19,4.29-14.29,4.64-28.59,9.29-42.88,13.94-18.03,5.86-36.06,11.72-54.09,17.58-26.16,8.51-52.33,17.01-78.49,25.52"/>
      <path class="cls-1" d="M2.94,113.38c10.4-4.04,20.8-8.07,31.2-12.12,61.34-23.82,122.69-47.64,184.03-71.47"/>
      <path class="cls-1" d="M217.11,28.99c-56.77,20.3-113.54,40.59-170.31,60.88-14.03,5.02-28.07,10.04-42.1,15.05"/>
      <path class="cls-1" d="M11.57,84.17c10.77-3,21.53-6.01,32.29-9.02,23.84-6.66,47.68-13.33,71.51-19.99,3.23-.9,6.45-1.8,9.67-2.7l8.7-2.43c27.05-7.56,54.1-15.12,81.14-22.68"/>
      <path class="cls-1" d="M224.93,35.36c-49.23,17.84-98.46,35.68-147.69,53.52-24.9,9.02-49.81,18.05-74.72,27.07"/>
      <path class="cls-1" d="M17.5,71.95c23.93-7.42,47.87-14.83,71.8-22.24,18.09-5.6,36.18-11.2,54.27-16.81,6.14-1.9,12.27-3.8,18.41-5.7,2.12-.66,4.25-1.31,6.37-1.97,9.52-2.95,19.04-5.9,28.56-8.85"/>
      <path class="cls-1" d="M201.59,18.87c-4.29,1.48-8.59,2.97-12.88,4.47-41.52,14.4-83.05,28.81-124.57,43.22-14.36,4.98-28.71,9.96-43.07,14.94,15.91-5.64,31.83-11.28,47.74-16.92,25.67-9.1,51.35-18.2,77.02-27.3,18.09-6.41,36.17-12.82,54.26-19.24"/>
      <path class="cls-1" d="M15.9,74.95c41.47-13.56,82.94-27.11,124.41-40.67,7.23-2.36,14.45-4.72,21.67-7.08l15.06-4.92c6.39-2.09,12.77-4.18,19.15-6.26"/>
      <path class="cls-1" d="M44.8,37.23c13.26-5,26.51-10,39.76-14.99,18.02-6.79,36.03-13.58,54.04-20.37"/>
      <path class="cls-1" d="M140.59,1.92c-14.64,5.97-29.28,11.94-43.92,17.91-18.64,7.6-37.28,15.2-55.93,22.8-.83.34-1.66.68-2.5,1.01"/>
      <path class="cls-1" d="M38.54,43.34c.73-.24,1.46-.48,2.2-.71,7.76-2.51,15.52-5.01,23.28-7.51,23.79-7.67,47.58-15.34,71.38-23.01,8.33-2.69,16.66-5.37,24.99-8.05"/>
      <path class="cls-1" d="M163.72,4.71c-4.32,1.45-8.64,2.9-12.96,4.34-38.88,13.04-77.77,26.08-116.65,39.12"/>
      <path class="cls-1" d="M120.79,2.68c-20.61,7.74-41.23,15.49-61.84,23.23"/>
    </g>
  </g>
</svg>