<?xml version="1.0" encoding="UTF-8"?>
<svg id="Capa_2" data-name="Capa 2" xmlns="http://www.w3.org/2000/svg" viewBox="0 0 273.45 272.01">
  <defs>
    <style>
      .cls-1, .cls-2 {
        fill: #fff;
      }

      .cls-2 {
        stroke: #fff;
        stroke-miterlimit: 10;
      }
    </style>
  </defs>
  <g id="Capa_1-2" data-name="Capa 1">
    <g>
      <path class="cls-2" d="M129.2,183.73c1.58-.35,3.16-.7,4.74-1.05-1.69.11-3.27.46-4.74,1.05Z"/>
      <path class="cls-1" d="M229.45,231.56c-19.43,2.71-38.82,5.68-58.17,8.87-19.39,3.2-38.75,6.65-58.06,10.34-10.86,2.07-21.71,4.23-32.54,6.46-1.89.39-1.09,3.28.8,2.89,19.24-3.96,38.54-7.68,57.87-11.16,19.35-3.48,38.74-6.71,58.16-9.7,10.9-1.68,21.81-3.29,32.73-4.81,1.9-.27,1.09-3.16-.8-2.89h0Z"/>
      <path class="cls-1" d="M95.95,265.66c32.21-5.81,64.42-11.63,96.63-17.44,9.17-1.65,18.35-3.31,27.52-4.96,1.9-.34,1.09-3.23-.8-2.89-32.23,5.81-64.47,11.63-96.7,17.45-9.15,1.65-18.3,3.3-27.45,4.95-1.9.34-1.09,3.23.8,2.89h0Z"/>
      <path class="cls-1" d="M232.42,228.98c-21.91,2.31-43.8,4.9-65.64,7.79-21.34,2.82-42.66,5.87-63.92,9.27-11.71,1.87-23.45,3.65-35.11,5.82-1.9.35-1.09,3.24.8,2.89,20.67-3.84,41.52-6.91,62.32-9.97,21.5-3.16,43.05-6.04,64.63-8.64,12.3-1.48,24.6-2.87,36.92-4.16,1.9-.2,1.92-3.2,0-3h0Z"/>
      <path class="cls-1" d="M139.64,271.94c19.8-4.45,39.61-9.24,59.09-14.96,1.85-.54,1.06-3.44-.8-2.89-19.48,5.72-39.29,10.51-59.09,14.96-1.88.42-1.09,3.32.8,2.89h0Z"/>
      <path class="cls-1" d="M235.97,225.24c-21.35,2.37-42.64,5.11-63.84,8.56s-42.18,7.48-63.09,12.11c-11.61,2.57-23.19,5.32-34.71,8.26-1.87.48-1.08,3.37.8,2.89,20.42-5.21,40.99-9.83,61.67-13.88,20.95-4.11,42.02-7.63,63.17-10.55,11.98-1.65,23.98-3.05,35.99-4.39,1.9-.21,1.92-3.21,0-3h0Z"/>
      <path class="cls-1" d="M197.06,254.54c-20.13,3.05-40.2,6.5-60.2,10.27-5.69,1.07-11.38,2.17-17.06,3.3-1.89.38-1.09,3.27.8,2.89,20.13-3.99,40.32-7.64,60.57-10.94,5.56-.9,11.12-1.79,16.69-2.63,1.9-.29,1.09-3.18-.8-2.89h0Z"/>
      <path class="cls-1" d="M74.81,256.9c20.79-3.79,41.62-7.41,62.43-11.12,21.24-3.78,42.48-7.57,63.72-11.35,11.82-2.11,23.62-4.37,35.47-6.31,1.9-.31,1.09-3.2-.8-2.89-10.54,1.73-21.04,3.74-31.55,5.61-10.67,1.9-21.35,3.81-32.02,5.71-21.14,3.77-42.28,7.53-63.42,11.29-11.54,2.05-23.09,4.07-34.62,6.17-1.9.35-1.09,3.24.8,2.89h0Z"/>
      <path class="cls-1" d="M226.86,234.28c-9.63,1.2-19.23,2.79-28.83,4.18-9.81,1.42-19.62,2.84-29.44,4.27-19.51,2.83-39.02,5.65-58.53,8.5-10.74,1.56-21.49,3.1-32.23,4.68-1.9.28-1.09,3.17.8,2.89,19.06-2.8,38.14-5.54,57.2-8.3,19.53-2.83,39.06-5.67,58.59-8.5,10.8-1.57,21.6-3.36,32.43-4.71,1.89-.24,1.91-3.24,0-3h0Z"/>
      <path class="cls-1" d="M224.79,235.83c-17.44,3.28-34.86,6.61-52.3,9.93s-34.8,6.61-52.19,9.91c-9.85,1.87-19.71,3.74-29.56,5.61-1.89.36-1.09,3.25.8,2.89,17.44-3.31,34.87-6.62,52.31-9.93,17.42-3.31,34.84-6.62,52.26-9.93,9.82-1.87,19.65-3.74,29.48-5.59,1.9-.36,1.09-3.25-.8-2.89h0Z"/>
      <path class="cls-1" d="M231.04,230.02c-18.34,3.94-36.67,7.92-55.01,11.88-18.56,4.01-37.12,8.02-55.67,12.03-10.42,2.25-20.84,4.5-31.26,6.75-1.89.41-1.09,3.3.8,2.89,18.56-4.01,37.12-8.01,55.67-12.03,18.5-4,37-7.99,55.5-11.99,10.25-2.22,20.51-4.44,30.76-6.64,1.89-.4,1.09-3.3-.8-2.89h0Z"/>
      <path class="cls-1" d="M106.79,268.61c31.71-8.27,63.43-16.52,95.14-24.79,4.46-1.16,8.92-2.33,13.39-3.49l6.64-1.73,3.32-.86c.75-.2,1.66-.32,2.35-.66,1.73-.86.21-3.45-1.51-2.59l.66-.18c-.3.02-.59.08-.87.18-.48.11-.95.25-1.42.37l-2.84.74-6.16,1.6c-3.98,1.04-7.96,2.07-11.93,3.11-7.85,2.05-15.69,4.09-23.54,6.14-15.67,4.08-31.34,8.16-47.01,12.25-9,2.34-17.99,4.69-26.99,7.04-1.87.49-1.08,3.38.8,2.89h0Z"/>
      <path class="cls-1" d="M239.35,221c-22.98,3.13-45.93,6.51-68.84,10.13-22.14,3.5-44.23,7.23-66.3,11.16-12.82,2.28-25.62,4.66-38.4,7.1-1.89.36-1.09,3.25.8,2.89,22.35-4.26,44.75-8.3,67.18-12.12,22.41-3.81,44.86-7.38,67.34-10.72,12.99-1.93,26-3.78,39.02-5.55.81-.11,1.23-1.14,1.05-1.85-.23-.87-1.05-1.16-1.85-1.05h0Z"/>
      <path class="cls-1" d="M73.39,256.16c22.33-5.24,44.66-10.48,66.99-15.72,22.63-5.3,45.25-10.62,67.88-15.93,12.8-3,25.6-6.01,38.4-9.01,1.88-.44,1.08-3.33-.8-2.89-22.69,5.32-45.37,10.64-68.05,15.96-22.52,5.28-45.03,10.57-67.55,15.84-12.56,2.94-25.11,5.89-37.67,8.84-1.88.44-1.08,3.33.8,2.89h0Z"/>
      <path class="cls-1" d="M245.07,213.72c-21.52,5.67-43.05,11.33-64.57,16.99s-42.67,11.24-64.01,16.85c-12.05,3.17-24.1,6.34-36.14,9.51-1.87.49-1.07,3.39.8,2.89,21.29-5.61,42.59-11.2,63.89-16.81s42.91-11.29,64.37-16.94c12.16-3.2,24.32-6.4,36.47-9.6,1.87-.49,1.07-3.39-.8-2.89h0Z"/>
      <path class="cls-1" d="M71.44,255.09c17.53-3.81,35.07-7.57,52.6-11.36,17.6-3.8,35.2-7.6,52.8-11.4,10.16-2.19,20.32-4.39,30.48-6.58l-.8-2.89c-16.52,4.4-33.05,8.78-49.57,13.18-16.57,4.41-33.14,8.81-49.71,13.21-9.29,2.47-18.59,4.88-27.86,7.41-1.86.51-1.07,3.4.8,2.89,16.45-4.49,32.96-8.77,49.44-13.15,16.61-4.41,33.22-8.83,49.83-13.25,9.29-2.47,18.57-4.93,27.86-7.4,1.88-.5,1.08-3.3-.8-2.89-17.92,3.87-35.83,7.74-53.75,11.61-17.51,3.78-35.02,7.53-52.52,11.34-9.87,2.15-19.75,4.26-29.62,6.4-1.89.41-1.09,3.3.8,2.89h0Z"/>
      <path class="cls-1" d="M231.38,229.68c-19.55,3.63-39.1,7.27-58.65,10.9-19.47,3.62-38.94,7.24-58.42,10.86-10.97,2.04-21.93,4.07-32.9,6.11-1.9.35-1.09,3.24.8,2.89,19.51-3.62,39.01-7.24,58.52-10.87,19.49-3.63,38.99-7.24,58.48-10.87,10.99-2.05,21.98-4.09,32.97-6.13,1.9-.35,1.09-3.24-.8-2.89h0Z"/>
      <path class="cls-1" d="M227.12,233.74c-17.48,3.64-34.95,7.26-52.43,10.9s-35.12,7.3-52.68,10.95c-9.94,2.07-19.88,4.13-29.81,6.2-1.89.39-1.09,3.28.8,2.89,17.59-3.65,35.18-7.31,52.76-10.97,17.55-3.65,35.1-7.3,52.65-10.95,9.84-2.04,19.68-4.09,29.52-6.14,1.89-.39,1.09-3.29-.8-2.89h0Z"/>
      <path class="cls-1" d="M173.13,263.93c-8.72,1.58-17.44,3.16-26.17,4.72-1.9.34-1.09,3.23.8,2.89,8.73-1.56,17.45-3.14,26.17-4.72,1.9-.34,1.09-3.24-.8-2.89h0Z"/>
      <path class="cls-1" d="M199.91,253.06c-17.17,3.92-34.3,8.02-51.4,12.27-4.95,1.23-9.89,2.47-14.83,3.73-1.87.48-1.08,3.37.8,2.89,17.13-4.36,34.31-8.56,51.52-12.59,4.9-1.15,9.8-2.29,14.71-3.41,1.88-.43,1.09-3.32-.8-2.89h0Z"/>
      <path class="cls-1" d="M93.89,264.99c16.48-2.86,32.96-5.72,49.44-8.58,16.42-2.85,32.84-5.7,49.26-8.55,9.26-1.61,18.52-3.22,27.78-4.82,1.9-.33,1.09-3.22-.8-2.89-16.34,2.84-32.67,5.67-49.01,8.51-16.48,2.86-32.96,5.72-49.44,8.58-9.35,1.62-18.69,3.24-28.04,4.86-1.9.33-1.09,3.22.8,2.89h0Z"/>
      <path class="cls-1" d="M255.47,197.12c-24.63,7.18-49.25,14.36-73.88,21.54-24.35,7.1-48.69,14.2-73.04,21.3-13.6,3.97-27.22,7.89-40.81,11.9-1.85.55-1.06,3.44.8,2.89,24.21-7.15,48.48-14.13,72.71-21.21,24.5-7.15,49.01-14.29,73.51-21.44,13.83-4.03,27.66-8.07,41.5-12.1,1.85-.54,1.06-3.44-.8-2.89h0Z"/>
      <path class="cls-1" d="M25.61,213.49c24.49-3.96,49-7.84,73.5-11.76,6.97-1.11,13.94-2.23,20.9-3.34,1.9-.3,1.09-3.19-.8-2.89-24.59,3.92-49.18,7.87-73.77,11.8-6.88,1.1-13.76,2.19-20.63,3.3-1.9.31-1.09,3.2.8,2.89h0Z"/>
      <path class="cls-1" d="M149.9,193.61c30.49-4.92,61.07-9.77,91.51-14.65,8.34-1.34,16.68-2.66,25.02-4,1.9-.31,1.09-3.2-.8-2.89-30.27,4.88-60.49,9.68-90.79,14.53-8.58,1.37-17.16,2.74-25.74,4.12-1.9.31-1.09,3.2.8,2.89h0Z"/>
      <path class="cls-1" d="M22.99,209.53c32.34-7.48,64.67-14.98,97.01-22.48,32.3-7.49,64.59-14.98,96.89-22.46,18.04-4.18,36.08-8.37,54.13-12.55,1.88-.43,1.08-3.33-.8-2.89-32.33,7.48-64.65,14.98-96.97,22.48-32.24,7.47-64.48,14.95-96.72,22.42-18.11,4.2-36.22,8.4-54.34,12.59-1.88.44-1.08,3.33.8,2.89h0Z"/>
      <path class="cls-1" d="M270.18,149.57c-16.63,4.38-33.26,8.75-49.89,13.11-16.49,4.32-32.97,8.67-49.46,13-9.45,2.48-18.9,4.96-28.35,7.45-1.87.49-1.07,3.38.8,2.89,16.66-4.38,33.32-8.75,49.97-13.13,16.47-4.33,32.95-8.66,49.42-12.98,9.44-2.48,18.87-4.96,28.3-7.44,1.87-.49,1.07-3.39-.8-2.89h0Z"/>
      <path class="cls-1" d="M121.27,188.69c-19.3,5.08-38.6,10.16-57.91,15.22l1.16,2.74c26.05-11.36,52.56-21.67,79.4-31,27.07-9.41,54.5-17.82,82.21-25.15,7.63-2.02,15.28-3.96,22.95-5.83s15.48-3.84,23.29-5.39c1.89-.37,1.09-3.27-.8-2.89-6.92,1.37-13.8,3.1-20.66,4.75s-13.73,3.37-20.57,5.15c-13.98,3.64-27.89,7.54-41.72,11.7-27.49,8.28-54.66,17.6-81.44,27.94-14.85,5.74-29.59,11.76-44.18,18.12-1.59.69-.44,3.16,1.16,2.74,19.31-5.06,38.61-10.14,57.91-15.22,1.87-.49,1.07-3.39-.8-2.89h0Z"/>
      <path class="cls-1" d="M18.38,201.76c27.56-8.9,55.35-17.06,83.35-24.45,7.91-2.09,15.83-4.11,23.77-6.07,1.87-.46,1.08-3.36-.8-2.89-28.04,6.92-55.88,14.63-83.49,23.08-7.89,2.42-15.77,4.9-23.63,7.44-1.83.59-1.05,3.49.8,2.89h0Z"/>
      <path class="cls-1" d="M146.19,166.26c16.3-3.8,32.66-7.35,49.08-10.64,16.22-3.25,32.5-6.24,48.82-8.99,9.21-1.55,18.43-3,27.67-4.39,1.9-.28,1.09-3.18-.8-2.89-16.35,2.45-32.66,5.15-48.92,8.1-16.39,2.98-32.73,6.22-49.02,9.72-9.23,1.98-18.44,4.04-27.63,6.19-1.88.44-1.08,3.33.8,2.89h0Z"/>
      <path class="cls-1" d="M266.87,167.59c-30.52,6.23-61.03,12.5-91.55,18.76-8.63,1.77-17.25,3.53-25.88,5.3-1.89.39-1.09,3.28.8,2.89,30.63-6.28,61.25-12.55,91.88-18.83,8.52-1.75,17.03-3.49,25.55-5.23,1.89-.39,1.09-3.28-.8-2.89h0Z"/>
      <path class="cls-1" d="M119.23,197.84c-23.41,4.81-46.83,9.6-70.25,14.4-6.66,1.36-13.32,2.73-19.98,4.09-1.89.39-1.09,3.28.8,2.89,23.56-4.83,47.11-9.65,70.67-14.48,6.52-1.34,13.04-2.67,19.56-4.01,1.89-.39,1.09-3.28-.8-2.89h0Z"/>
      <path class="cls-1" d="M259.91,187.88c-24.32,8.76-48.6,17.6-72.89,26.43s-48.01,17.41-72.02,26.11c-13.18,4.77-26.37,9.5-39.53,14.34-1.8.66-1.02,3.56.8,2.89,23.68-8.71,47.43-17.21,71.15-25.81s48.2-17.46,72.29-26.21c13.66-4.96,27.31-9.94,40.98-14.86,1.8-.65,1.03-3.55-.8-2.89h0Z"/>
      <path class="cls-1" d="M253.57,200.58c-22.93,7.31-45.85,14.61-68.78,21.92-22.63,7.22-45.28,14.4-67.91,21.64-12.73,4.07-25.46,8.14-38.2,12.17-1.83.58-1.05,3.48.8,2.89,22.56-7.14,45.1-14.36,67.65-21.56,22.86-7.3,45.72-14.57,68.58-21.85,12.89-4.11,25.77-8.21,38.66-12.32,1.83-.58,1.05-3.48-.8-2.89h0Z"/>
      <path class="cls-1" d="M81.12,259.65c22.14-11.18,44.88-21.32,67.72-30.97,23.79-10.05,47.88-19.41,72.23-28.02,13.68-4.84,27.44-9.46,41.28-13.83,1.83-.58,1.05-3.48-.8-2.89-24.71,7.81-49.19,16.38-73.39,25.67-24.12,9.26-47.96,19.24-71.49,29.92-12.44,5.64-24.87,11.38-37.06,17.53-1.72.87-.21,3.46,1.51,2.59h0Z"/>
      <path class="cls-1" d="M202.63,251.55c-17.45,4.78-34.96,9.36-52.51,13.77-5.05,1.27-10.11,2.52-15.17,3.75-1.87.46-1.08,3.35.8,2.89,17.67-4.31,35.28-8.83,52.85-13.51,4.95-1.32,9.89-2.65,14.83-4.01,1.86-.51,1.07-3.4-.8-2.89h0Z"/>
      <path class="cls-1" d="M40.15,231.17c21.33-6.22,42.73-12.21,64.18-17.97,6.05-1.63,12.11-3.23,18.17-4.82,1.87-.49,1.07-3.38-.8-2.89-21.53,5.64-42.98,11.55-64.39,17.62-5.99,1.7-11.98,3.42-17.96,5.17-1.85.54-1.06,3.44.8,2.89h0Z"/>
      <path class="cls-1" d="M150.88,201.1c30.05-7.7,60.3-14.7,90.59-21.37,8.38-1.84,16.75-3.65,25.14-5.41,1.89-.4,1.09-3.29-.8-2.89-30.37,6.39-60.69,13.18-90.82,20.62-8.3,2.05-16.62,4.04-24.91,6.16-1.87.48-1.08,3.37.8,2.89h0Z"/>
      <path class="cls-1" d="M79.52,259.22c22.43-6.57,44.78-13.41,67.14-20.22s45.41-13.97,68.08-21.08c12.77-4,25.52-8.04,38.27-12.11,1.83-.58,1.05-3.48-.8-2.89-22.66,7.23-45.35,14.36-68.07,21.41-22.58,7.01-45.19,13.93-67.83,20.75-12.52,3.77-25.03,7.57-37.58,11.24-1.85.54-1.06,3.44.8,2.89h0Z"/>
      <path class="cls-1" d="M45.3,236.18c21.93-6.48,44.04-12.4,66.27-17.75,6.26-1.51,12.52-2.96,18.8-4.38,1.88-.42,1.09-3.32-.8-2.89-22.35,5.04-44.57,10.65-66.63,16.82-6.16,1.72-12.31,3.49-18.44,5.31-1.85.55-1.06,3.44.8,2.89h0Z"/>
      <path class="cls-1" d="M146.57,210.5c29.43-6.25,59.05-11.5,88.83-15.81,8.21-1.19,16.43-2.31,24.66-3.31,1.89-.23,1.92-3.23,0-3-29.87,3.64-59.62,8.42-89.16,14.13-8.39,1.62-16.77,3.32-25.13,5.1-1.89.4-1.09,3.29.8,2.89h0Z"/>
      <path class="cls-1" d="M57.1,245.9c25.97-6.12,51.95-12.21,77.93-18.31,25.98-6.1,51.96-12.19,77.93-18.3,14.61-3.44,29.22-6.87,43.83-10.3,1.88-.44,1.08-3.33-.8-2.89-26,6.1-52,12.21-78,18.32-26.02,6.12-52.04,12.22-78.05,18.33-14.55,3.42-29.09,6.83-43.64,10.25-1.88.44-1.08,3.34.8,2.89h0Z"/>
      <path class="cls-1" d="M262.57,181.29c-29.8,5.01-59.48,10.72-89.02,17.06-8.34,1.79-16.66,3.64-24.98,5.53-1.88.43-1.09,3.32.8,2.89,29.46-6.71,59.07-12.79,88.8-18.17,8.39-1.52,16.79-3,25.2-4.42,1.9-.32,1.09-3.21-.8-2.89h0Z"/>
      <path class="cls-1" d="M125.66,209.25c-21.8,5.24-43.51,10.83-65.13,16.79-6.1,1.68-12.19,3.39-18.27,5.13-1.85.53-1.07,3.43.8,2.89,21.56-6.16,43.22-11.97,64.98-17.41,6.13-1.53,12.27-3.04,18.42-4.51,1.88-.45,1.08-3.34-.8-2.89h0Z"/>
      <path class="cls-1" d="M267.72,162.57c-26.74,11.5-53.64,22.61-80.68,33.38s-54.74,21.39-82.31,31.53c-15.52,5.71-31.09,11.3-46.7,16.77-1.81.63-1.03,3.53.8,2.89,27.96-9.8,55.8-19.99,83.48-30.55s54.51-21.2,81.55-32.34c15.17-6.25,30.3-12.6,45.37-19.09,1.77-.76.24-3.35-1.51-2.59h0Z"/>
      <path class="cls-1" d="M23.65,210.56c16.04-4.13,32.11-8.14,48.21-12.03,16-3.86,32.03-7.61,48.1-11.21s32.02-7.07,48.08-10.42c16.01-3.34,32.04-6.55,48.1-9.65s32.05-6.05,48.11-8.88c2.03-.36,4.05-.71,6.08-1.07,1.9-.33,1.09-3.22-.8-2.89-16.21,2.83-32.41,5.78-48.58,8.87s-31.78,6.2-47.64,9.47c-16.08,3.32-32.12,6.78-48.15,10.34s-32.07,7.27-48.05,11.1c-16.11,3.85-32.19,7.83-48.23,11.93-2.01.51-4.01,1.03-6.02,1.54-1.87.48-1.08,3.38.8,2.89h0Z"/>
      <path class="cls-1" d="M43.24,234.24c28.26-5.85,56.53-11.67,84.8-17.51,28.46-5.87,56.93-11.75,85.4-17.62,15.97-3.29,31.95-6.6,47.92-9.89,1.89-.39,1.09-3.28-.8-2.89-28.43,5.86-56.86,11.73-85.29,17.6-28.39,5.86-56.79,11.72-85.18,17.57-15.88,3.28-31.76,6.55-47.64,9.84-1.89.39-1.09,3.28.8,2.89h0Z"/>
      <path class="cls-1" d="M40.45,231.48c21.09-6.64,42.3-12.91,63.64-18.73,6.03-1.64,12.07-3.25,18.11-4.83,1.87-.49,1.08-3.38-.8-2.89-21.48,5.61-42.84,11.65-64.09,18.09-5.9,1.79-11.79,3.62-17.66,5.47-1.84.58-1.05,3.48.8,2.89h0Z"/>
      <path class="cls-1" d="M150.91,200.72c29.6-7.18,59.41-13.5,89.36-19.02,8.48-1.56,16.97-3.05,25.48-4.48,1.9-.32,1.09-3.21-.8-2.89-30.15,5.07-60.15,10.99-89.96,17.72-8.3,1.87-16.6,3.77-24.88,5.78-1.88.46-1.08,3.35.8,2.89h0Z"/>
      <path class="cls-1" d="M64.08,250.69c25.07-6.67,50.13-13.33,75.2-20s49.88-13.27,74.83-19.9c14.14-3.76,28.28-7.52,42.42-11.29,1.86-.5,1.07-3.39-.8-2.89-25.06,6.67-50.12,13.35-75.19,20.01-24.95,6.62-49.89,13.27-74.84,19.9-14.14,3.76-28.28,7.52-42.42,11.28-1.86.5-1.07,3.39.8,2.89h0Z"/>
      <path class="cls-1" d="M253.71,200.33c-24.04,6.73-48.08,13.46-72.12,20.2-24.03,6.73-48.06,13.45-72.08,20.19-13.19,3.7-26.38,7.41-39.57,11.08-1.86.52-1.07,3.41.8,2.89,23.77-6.61,47.51-13.29,71.27-19.95,24.04-6.74,48.08-13.47,72.12-20.2,13.46-3.77,26.93-7.54,40.39-11.31,1.86-.52,1.07-3.41-.8-2.89h0Z"/>
      <path class="cls-1" d="M73.11,256c22.96-6.08,45.92-12.16,68.88-18.23s46.4-12.28,69.6-18.42c13.17-3.49,26.35-6.97,39.52-10.45,1.86-.49,1.07-3.39-.8-2.89-23.4,6.19-46.8,12.37-70.19,18.57-23.19,6.15-46.39,12.27-69.57,18.42-12.74,3.38-25.5,6.74-38.24,10.12-1.86.49-1.07,3.39.8,2.89h0Z"/>
      <path class="cls-1" d="M27.11,215.61c24.23-3.96,48.5-7.63,72.82-11.02,6.59-.92,13.19-1.82,19.79-2.69.81-.11,1.49-.61,1.5-1.5,0-.73-.7-1.61-1.5-1.5-24.29,3.22-48.54,6.72-72.75,10.52-6.89,1.08-13.77,2.18-20.66,3.31-1.9.31-1.09,3.2.8,2.89h0Z"/>
      <path class="cls-1" d="M150.5,197.96c28.95-3.58,57.96-6.73,87-9.48,8.24-.78,16.47-1.53,24.71-2.25,1.91-.17,1.93-3.17,0-3-29.1,2.55-58.19,5.41-87.21,8.81-8.17.96-16.34,1.91-24.5,2.92-1.89.23-1.91,3.24,0,3h0Z"/>
      <path class="cls-1" d="M22.5,208.75c32.24-7.67,64.49-15.31,96.74-22.98,32.23-7.67,64.48-15.31,96.71-22.96,18.11-4.3,36.22-8.59,54.32-12.9l-.8-2.89c-32.32,7.81-64.62,15.68-96.93,23.51s-64.04,15.54-96.06,23.3c-18.03,4.37-36.06,8.75-54.09,13.12-1.88.45-1.08,3.35.8,2.89,32.17-7.78,64.34-15.61,96.51-23.41s64.17-15.57,96.26-23.34c18.11-4.39,36.2-8.8,54.31-13.18,1.88-.45,1.08-3.34-.8-2.89-32.31,7.68-64.63,15.34-96.95,23.02-32.21,7.65-64.41,15.3-96.62,22.95-18.07,4.29-36.13,8.58-54.2,12.87-1.88.45-1.08,3.34.8,2.89h0Z"/>
      <path class="cls-1" d="M263.11,179.84c-29.45,4.72-58.9,9.45-88.35,14.17-8.22,1.32-16.44,2.61-24.65,3.96-1.9.31-1.09,3.2.8,2.89,29.27-4.82,58.59-9.4,87.88-14.1,8.37-1.34,16.75-2.69,25.12-4.03,1.9-.3,1.09-3.2-.8-2.89h0Z"/>
      <path class="cls-1" d="M120.26,202.76c-23.51,3.76-47.02,7.54-70.53,11.31-6.67,1.07-13.33,2.14-20,3.21-1.9.31-1.09,3.2.8,2.89,23.47-3.78,46.95-7.53,70.43-11.3,6.7-1.07,13.4-2.15,20.1-3.22,1.9-.3,1.09-3.2-.8-2.89h0Z"/>
      <path class="cls-1" d="M13.28,191.4c16.59-2.55,33.2-4.95,49.83-7.24,16.67-2.29,33.36-4.44,50.06-6.46s33.23-3.88,49.86-5.63c16.48-1.73,32.97-3.33,49.48-4.81,16.68-1.49,33.37-2.85,50.07-4.07,2.14-.16,4.28-.31,6.43-.46,1.92-.13,1.93-3.14,0-3-16.86,1.18-33.72,2.53-50.55,4.01-16.52,1.46-33.03,3-49.53,4.71-16.73,1.73-33.44,3.59-50.13,5.58-16.65,1.98-33.28,4.1-49.89,6.34-16.69,2.25-33.36,4.64-50.02,7.16-2.13.32-4.27.65-6.4.98-1.9.29-1.09,3.18.8,2.89h0Z"/>
      <path class="cls-1" d="M270.15,118.35c-30.82,7.32-61.65,14.64-92.48,21.96-8.67,2.06-17.33,4.11-26,6.16-1.88.44-1.08,3.34.8,2.89,30.78-7.28,61.56-14.6,92.33-21.91,8.72-2.07,17.43-4.14,26.15-6.21,1.88-.45,1.08-3.34-.8-2.89h0Z"/>
      <path class="cls-1" d="M121.23,153.7c-29.19,6.93-58.38,13.85-87.57,20.79-8.16,1.94-16.32,3.88-24.48,5.81-1.88.45-1.08,3.34.8,2.89,29.12-6.92,58.23-13.83,87.35-20.74,8.23-1.95,16.46-3.91,24.7-5.86,1.88-.45,1.08-3.34-.8-2.89h0Z"/>
      <path class="cls-1" d="M121.05,157.52c-28.57,7.22-57.15,14.44-85.72,21.66-8.07,2.04-16.14,4.08-24.21,6.12-1.87.47-1.08,3.37.8,2.89,28.57-7.22,57.14-14.44,85.71-21.66,8.07-2.04,16.14-4.08,24.22-6.12,1.87-.47,1.08-3.37-.8-2.89h0Z"/>
      <path class="cls-1" d="M149.85,153.33c31.55-7.98,63.11-15.95,94.66-23.93,8.86-2.24,17.72-4.48,26.59-6.72,1.87-.47,1.08-3.37-.8-2.89-31.57,7.98-63.14,15.96-94.71,23.94-8.85,2.24-17.7,4.47-26.54,6.71-1.87.47-1.08,3.37.8,2.89h0Z"/>
      <path class="cls-1" d="M270.89,140.76c-16.45,3.22-32.89,6.45-49.34,9.67s-32.73,6.42-49.09,9.63c-9.29,1.82-18.58,3.64-27.87,5.46-1.89.37-1.09,3.26.8,2.89,16.47-3.22,32.93-6.45,49.39-9.68,16.36-3.21,32.71-6.42,49.07-9.62,9.28-1.82,18.56-3.64,27.85-5.46,1.89-.37,1.09-3.26-.8-2.89h0Z"/>
      <path class="cls-1" d="M14.49,194.08c29.03-5.69,58.05-11.37,87.08-17.08,8.31-1.63,16.63-3.25,24.94-4.89,1.89-.37,1.09-3.27-.8-2.89-29.06,5.74-58.14,11.41-87.22,17.11-8.27,1.62-16.54,3.24-24.8,4.86-1.89.37-1.09,3.26.8,2.89h0Z"/>
      <path class="cls-1" d="M125.96,169.4c-28.41,6.81-56.71,14.08-84.89,21.79-8.01,2.19-16.02,4.43-24.01,6.7-1.85.53-1.07,3.42.8,2.89,28.22-8.02,56.58-15.54,85.05-22.66,7.94-1.98,15.89-3.93,23.85-5.83,1.88-.45,1.08-3.34-.8-2.89h0Z"/>
      <path class="cls-1" d="M145.63,167.84c16.38-3.8,32.79-7.46,49.24-10.95s32.9-6.84,49.4-10.03c9.16-1.77,18.33-3.5,27.5-5.17,1.9-.35,1.09-3.24-.8-2.89-16.3,2.97-32.57,6.11-48.81,9.39-16.56,3.34-33.1,6.84-49.59,10.49-9.26,2.05-18.5,4.14-27.73,6.29-1.88.44-1.08,3.33.8,2.89h0Z"/>
      <path class="cls-1" d="M22.33,208.48c16.24-4.6,32.48-9.2,48.72-13.8s32.75-9.28,49.12-13.91c16.13-4.57,32.25-9.15,48.38-13.71,16.21-4.58,32.42-9.18,48.63-13.77s32.3-9.15,48.45-13.72l6.22-1.76c1.85-.53,1.07-3.42-.8-2.89-16.16,4.58-32.31,9.15-48.47,13.73-16.23,4.6-32.47,9.2-48.7,13.8-16.09,4.55-32.19,9.11-48.28,13.67-16.38,4.64-32.76,9.28-49.14,13.92-16.24,4.6-32.48,9.2-48.72,13.8l-6.21,1.76c-1.85.53-1.07,3.42.8,2.89h0Z"/>
      <path class="cls-1" d="M26.83,215.22c15.96-4.95,31.92-9.87,47.87-14.81s32.17-9.96,48.25-14.92c15.97-4.93,31.94-9.87,47.91-14.81,16.01-4.95,32.01-9.9,48.02-14.85,15.91-4.92,31.82-9.84,47.73-14.76,1.91-.59,3.82-1.19,5.74-1.77s1.06-3.45-.8-2.89c-15.8,4.77-31.53,9.75-47.3,14.63s-32.13,9.93-48.2,14.9c-15.97,4.94-31.93,9.88-47.9,14.81-16.02,4.95-32.04,9.9-48.05,14.86-16.03,4.96-32.07,9.91-48.1,14.87-1.99.62-3.99,1.23-5.98,1.85-1.84.57-1.05,3.47.8,2.89h0Z"/>
      <path class="cls-1" d="M32.65,222.8c22.72-5.92,45.44-11.86,68.17-17.78,6.39-1.67,12.78-3.35,19.17-5,1.87-.48,1.08-3.38-.8-2.89-22.69,5.85-45.35,11.82-68.02,17.74-6.44,1.68-12.88,3.36-19.32,5.04-1.87.49-1.08,3.38.8,2.89h0Z"/>
      <path class="cls-1" d="M149.34,192.36c8.8-2.29,17.6-4.58,26.4-6.88,1.9-.5,1.07-3.21-.8-2.89-9.27,1.55-18.55,3.09-27.82,4.64-1.9.32-1.09,3.21.8,2.89,9.27-1.55,18.55-3.09,27.82-4.64l-.8-2.89c-8.8,2.3-17.6,4.59-26.4,6.88-1.87.49-1.08,3.38.8,2.89h0Z"/>
      <path class="cls-1" d="M119.89,191.76c-25.14,4.2-50.28,8.38-75.42,12.57-7.15,1.19-14.3,2.38-21.46,3.58-1.9.32-1.09,3.21.8,2.89,25.17-4.2,50.35-8.38,75.52-12.59,7.12-1.19,14.24-2.37,21.36-3.56,1.9-.32,1.09-3.21-.8-2.89h0Z"/>
      <path class="cls-1" d="M7.51,175.77c30.32-8.1,60.76-15.76,91.31-22.98,8.42-1.99,16.85-3.95,25.28-5.87,1.88-.43,1.09-3.32-.8-2.89-30.5,6.93-60.9,14.34-91.18,22.17-8.48,2.19-16.95,4.42-25.41,6.68-1.86.5-1.07,3.39.8,2.89h0Z"/>
      <path class="cls-1" d="M164.22,138.04c18.62-4,37.27-7.84,55.95-11.51,5.34-1.05,10.68-2.09,16.02-3.11l-.8-2.89c-22.34,7.95-44.76,15.68-67.27,23.15-6.25,2.08-12.51,4.15-18.78,6.18-1.83.59-1.05,3.49.8,2.89,22.46-7.27,44.81-14.86,67.1-22.65,6.32-2.21,12.64-4.44,18.95-6.68,1.82-.65,1.1-3.26-.8-2.89-18.68,3.57-37.33,7.31-55.94,11.22-5.35,1.12-10.69,2.26-16.03,3.4-1.89.41-1.09,3.3.8,2.89h0Z"/>
      <path class="cls-1" d="M121.07,158.94c-27.92,8.83-55.95,17.32-84.1,25.39-7.79,2.23-15.58,4.45-23.38,6.63-1.86.52-1.07,3.42.8,2.89,28.04-7.85,55.99-16.06,83.82-24.63,7.9-2.43,15.78-4.89,23.66-7.39,1.83-.58,1.05-3.48-.8-2.89h0Z"/>
      <path class="cls-1" d="M20.34,205.21c16.29-3.53,32.59-7.06,48.89-10.58,16.41-3.54,32.82-7.11,49.22-10.66,16.27-3.52,32.54-7.05,48.82-10.57,16.31-3.53,32.62-7.06,48.92-10.59,16.3-3.53,32.59-7.05,48.89-10.58,2.02-.44,4.03-.87,6.05-1.31,1.89-.41,1.09-3.3-.8-2.89-16.21,3.5-32.41,7.04-48.63,10.53-16.39,3.53-32.78,7.09-49.17,10.64s-32.53,7.04-48.79,10.56c-16.33,3.54-32.66,7.08-48.99,10.61s-32.76,7.08-49.13,10.63c-2.03.44-4.05.88-6.08,1.32-1.89.41-1.09,3.3.8,2.89h0Z"/>
      <path class="cls-1" d="M16.13,197.47c30.26-5.92,60.52-11.83,90.78-17.75,8.66-1.69,17.32-3.38,25.98-5.08,1.89-.37,1.09-3.26-.8-2.89-30.31,5.96-60.62,11.85-90.94,17.78-8.61,1.68-17.22,3.37-25.82,5.05-1.89.37-1.09,3.26.8,2.89h0Z"/>
      <path class="cls-1" d="M141.47,172.96c16.72-3.27,33.44-6.53,50.16-9.8,16.96-3.32,33.92-6.64,50.88-9.95,9.65-1.89,19.29-3.77,28.94-5.66,1.89-.37,1.09-3.26-.8-2.89-17,3.32-34,6.65-51,9.97-16.87,3.3-33.73,6.6-50.6,9.9-9.46,1.85-18.91,3.69-28.37,5.54-1.89.37-1.09,3.26.8,2.89h0Z"/>
      <path class="cls-1" d="M16.6,198.39c16.47-3.11,32.94-6.2,49.41-9.29,16.7-3.14,33.41-6.28,50.11-9.42,16.48-3.1,32.95-6.2,49.43-9.29,16.71-3.14,33.41-6.28,50.12-9.42s32.83-6.17,49.24-9.26c2.09-.39,4.18-.79,6.26-1.18,1.89-.36,1.09-3.25-.8-2.89-16.46,3.11-32.93,6.2-49.4,9.29-16.7,3.14-33.4,6.27-50.1,9.41s-32.96,6.2-49.44,9.3c-16.7,3.14-33.41,6.28-50.11,9.42-16.41,3.08-32.81,6.16-49.22,9.25-2.1.4-4.2.79-6.3,1.19-1.89.36-1.09,3.25.8,2.89h0Z"/>
      <path class="cls-1" d="M28.74,217.83c24.46-7.62,48.97-15.05,73.59-22.14,7.02-2.02,14.04-4.01,21.07-5.98,1.86-.52,1.07-3.42-.8-2.89-24.69,6.92-49.3,14.13-73.81,21.66-6.95,2.14-13.9,4.3-20.85,6.46-1.84.57-1.05,3.47.8,2.89h0Z"/>
      <path class="cls-1" d="M140.76,184.88c16.83-4.62,33.69-9.1,50.59-13.45,16.94-4.36,33.92-8.58,50.93-12.66,9.57-2.3,19.15-4.55,28.74-6.75,1.88-.43,1.08-3.33-.8-2.89-17,3.91-33.97,7.97-50.91,12.16-16.94,4.19-33.84,8.52-50.71,12.98-9.56,2.53-19.1,5.1-28.64,7.72-1.86.51-1.07,3.41.8,2.89h0Z"/>
      <path class="cls-1" d="M269.35,155.59c-31.44,8.69-62.88,17.4-94.32,26.09-8.9,2.46-17.8,4.93-26.7,7.39-1.86.51-1.07,3.41.8,2.89,31.43-8.7,62.85-17.39,94.28-26.09,8.91-2.47,17.83-4.93,26.74-7.39,1.86-.51,1.07-3.41-.8-2.89h0Z"/>
      <path class="cls-1" d="M33.58,223.92c22.71-6.28,45.42-12.56,68.13-18.85,6.09-1.69,12.16-3.47,18.28-5.05.64-.16,1.1-.8,1.1-1.45h0c0-1.94-3-1.94-3-.01h0c.37-.47.73-.95,1.1-1.44-11.09,2.86-22.1,6.11-33.14,9.16s-22.71,6.28-34.07,9.43c-6.4,1.77-12.8,3.54-19.2,5.31-1.86.51-1.07,3.41.8,2.89h0Z"/>
      <path class="cls-1" d="M10.59,184.84c28.83-7.92,57.81-15.34,86.91-22.22,8.15-1.93,16.32-3.81,24.49-5.66,1.88-.43,1.09-3.32-.8-2.89-29.17,6.59-58.21,13.7-87.12,21.34-8.1,2.14-16.19,4.32-24.28,6.54-1.86.51-1.07,3.41.8,2.89h0Z"/>
      <path class="cls-1" d="M151.62,150.46c30.91-6.65,61.99-12.6,93.14-18.01,8.93-1.55,17.86-3.05,26.8-4.49,1.9-.31,1.09-3.2-.8-2.89-31.33,5.08-62.57,10.76-93.68,17.05-8.76,1.77-17.52,3.57-26.26,5.45-1.89.41-1.09,3.3.8,2.89h0Z"/>
      <path class="cls-1" d="M271.06,133.87c-16.23,3.54-32.46,7.09-48.69,10.63s-32.62,7.12-48.93,10.69c-9.17,2-18.34,4.01-27.51,6.01-1.89.41-1.09,3.3.8,2.89,16.23-3.54,32.46-7.09,48.69-10.63s32.62-7.12,48.93-10.69c9.17-2,18.34-4.01,27.51-6.01,1.89-.41,1.09-3.3-.8-2.89h0Z"/>
      <path class="cls-1" d="M123,166.21c-28.66,6.26-57.32,12.51-85.98,18.77-7.93,1.73-15.86,3.46-23.78,5.2-1.89.41-1.09,3.31.8,2.89,28.48-6.24,56.97-12.44,85.46-18.66,8.1-1.77,16.2-3.54,24.3-5.31,1.89-.41,1.09-3.3-.8-2.89h0Z"/>
      <path class="cls-1" d="M11.99,188.38c28.69-5.92,57.38-11.85,86.07-17.77,8.1-1.67,16.2-3.34,24.31-5.01,1.89-.39,1.09-3.28-.8-2.89-28.69,5.9-57.38,11.84-86.07,17.76-8.1,1.67-16.21,3.35-24.31,5.02-1.89.39-1.09,3.28.8,2.89h0Z"/>
      <path class="cls-1" d="M147.57,160.39c32.29-6.65,64.57-13.32,96.85-19.99,9.14-1.89,18.27-3.77,27.41-5.66,1.89-.39,1.09-3.28-.8-2.89-32.3,6.67-64.6,13.33-96.9,20-9.12,1.88-18.24,3.77-27.36,5.65-1.89.39-1.09,3.28.8,2.89h0Z"/>
      <path class="cls-1" d="M270.93,128.27c-16.16,4.16-32.34,8.24-48.53,12.24s-32.34,7.92-48.53,11.78c-9.12,2.17-18.24,4.32-27.38,6.44-1.88.44-1.08,3.33.8,2.89,16.13-3.74,32.24-7.58,48.33-11.48,16.22-3.92,32.42-7.92,48.6-11.99,9.18-2.31,18.35-4.64,27.51-7,1.87-.48,1.08-3.37-.8-2.89h0Z"/>
      <path class="cls-1" d="M122.1,164.35c-28.44,6.5-56.93,12.76-85.47,18.82-8.08,1.71-16.17,3.41-24.26,5.08-1.89.39-1.09,3.28.8,2.89,28.54-5.9,57.02-12.05,85.46-18.41,8.1-1.81,16.19-3.64,24.27-5.49,1.88-.43,1.09-3.32-.8-2.89h0Z"/>
      <path class="cls-1" d="M9.21,181.06c29.76-9.76,59.69-19.01,89.77-27.75,8.48-2.46,16.96-4.89,25.46-7.26,1.86-.52,1.07-3.41-.8-2.89-30.09,8.41-60.03,17.36-89.81,26.81-8.49,2.69-16.96,5.43-25.42,8.2-1.83.6-1.04,3.5.8,2.89h0Z"/>
      <path class="cls-1" d="M268.32,106.86c-13.13,2.77-26.21,5.92-39.27,9.03s-26.23,6.34-39.31,9.65c-7.34,1.86-14.67,3.75-21.99,5.67-1.87.49-1.07,3.38.8,2.89,26.1-6.85,52.3-13.31,78.59-19.38,7.31-1.69,14.62-3.42,21.97-4.97,1.89-.4,1.09-3.29-.8-2.89h0Z"/>
      <path class="cls-1" d="M268.91,109.99c-29,8.11-58.07,16.01-87.1,24.01-8.22,2.26-16.43,4.53-24.65,6.79-1.86.51-1.07,3.41.8,2.89,29.1-8.01,58.19-16.03,87.29-24.05,8.15-2.25,16.32-4.47,24.46-6.75,1.86-.52,1.07-3.41-.8-2.89h0Z"/>
      <path class="cls-1" d="M121.6,150.6c-29.16,8.04-58.32,16.07-87.47,24.11-8.17,2.25-16.34,4.51-24.52,6.75-1.86.51-1.07,3.41.8,2.89,29.16-8.02,58.32-16.07,87.48-24.11,8.17-2.25,16.34-4.5,24.51-6.75,1.86-.51,1.07-3.41-.8-2.89h0Z"/>
      <path class="cls-1" d="M263.13,88.4c-19.75,3.47-39.49,6.93-59.24,10.4-5.55.97-11.1,1.95-16.64,2.92-1.9.33-1.09,3.22.8,2.89,19.74-3.47,39.49-6.93,59.23-10.4,5.55-.97,11.1-1.95,16.65-2.92,1.9-.33,1.09-3.22-.8-2.89h0Z"/>
      <path class="cls-1" d="M156.03,107.21c-28.02,4.91-56.03,9.84-84.05,14.76-7.94,1.39-15.88,2.79-23.81,4.18l.8,2.89c28.57-5.85,57.13-11.7,85.7-17.54,8.03-1.64,16.07-3.29,24.1-4.93,1.89-.39,1.09-3.28-.8-2.89-28.48,5.82-56.95,11.65-85.43,17.48-8.12,1.66-16.25,3.33-24.37,4.99-1.9.39-1.08,3.22.8,2.89,28.06-4.93,56.12-9.86,84.18-14.78,7.89-1.38,15.79-2.78,23.68-4.16,1.9-.33,1.09-3.22-.8-2.89h0Z"/>
      <path class="cls-1" d="M260.9,82.62c-19.08,3.9-38.17,7.81-57.25,11.71-5.38,1.1-10.77,2.2-16.15,3.31-1.89.39-1.09,3.28.8,2.89,19.08-3.91,38.17-7.82,57.25-11.72,5.38-1.1,10.77-2.2,16.15-3.3,1.89-.39,1.09-3.28-.8-2.89h0Z"/>
      <path class="cls-1" d="M1.86,138.06c24.05-6.52,48.18-12.77,72.37-18.76,6.83-1.69,13.66-3.37,20.5-5.01,1.88-.45,1.08-3.34-.8-2.89-24.17,5.81-48.28,11.91-72.31,18.27-6.86,1.81-13.71,3.65-20.56,5.5-1.86.5-1.07,3.4.8,2.89h0Z"/>
      <path class="cls-1" d="M159.18,96.32c-17.24,3.81-34.46,7.75-51.64,11.83-1.88.45-1.08,3.34.8,2.89,17.18-4.08,34.4-8.02,51.64-11.83,1.88-.42,1.09-3.31-.8-2.89h0Z"/>
      <path class="cls-1" d="M257.96,75.99c-18.46,3.52-36.9,7.19-55.3,11.01-5.27,1.1-10.54,2.2-15.8,3.33-1.89.4-1.09,3.29.8,2.89,18.38-3.92,36.8-7.67,55.25-11.28,5.28-1.03,10.57-2.05,15.85-3.06,1.89-.36,1.09-3.25-.8-2.89h0Z"/>
      <path class="cls-1" d="M2.02,143.72c20.14-4.34,40.26-8.72,60.4-13.07,20.21-4.37,40.41-8.75,60.62-13.13,11.23-2.43,22.46-4.86,33.7-7.29,1.89-.41,1.09-3.3-.8-2.89-20.08,4.35-40.16,8.69-60.23,13.04-20.2,4.38-40.41,8.75-60.61,13.12-11.29,2.44-22.58,4.9-33.87,7.33-1.89.41-1.09,3.3.8,2.89h0Z"/>
      <path class="cls-1" d="M261.64,84.44c-19.26,4.17-38.52,8.34-57.77,12.51-5.5,1.19-11,2.38-16.51,3.57-1.89.41-1.09,3.3.8,2.89,19.26-4.17,38.52-8.34,57.77-12.51,5.5-1.19,11-2.38,16.51-3.57,1.89-.41,1.09-3.3-.8-2.89h0Z"/>
      <path class="cls-1" d="M188.29,100.04c18.91-4.51,37.93-8.51,57.06-11.96,5.41-.98,10.82-1.91,16.24-2.81,1.9-.31,1.09-3.2-.8-2.89-19.18,3.16-38.27,6.85-57.24,11.07-5.36,1.19-10.72,2.43-16.06,3.7-1.88.45-1.08,3.34.8,2.89h0Z"/>
      <path class="cls-1" d="M157.44,104.81c-20.73,5.59-41.29,11.84-61.64,18.69-20.1,6.77-39.99,14.14-59.64,22.11-11.1,4.5-22.11,9.19-33.05,14.05-1.76.78-.24,3.37,1.51,2.59,19.35-8.59,38.94-16.63,58.77-24.05s39.96-14.28,60.24-20.52c11.48-3.53,23.02-6.86,34.61-9.98,1.86-.5,1.07-3.4-.8-2.89h0Z"/>
      <path class="cls-1" d="M168.14,134.47c26.46-5.55,52.91-11.1,79.36-16.66,7.41-1.56,14.83-3.13,22.25-4.66,1.89-.39,1.09-3.28-.8-2.89-26.42,5.45-52.81,11.08-79.21,16.62-7.47,1.57-14.93,3.13-22.4,4.7-1.89.4-1.09,3.29.8,2.89h0Z"/>
      <path class="cls-1" d="M124.88,140.49c-31.24,6.57-62.49,13.12-93.73,19.67-8.79,1.84-17.58,3.69-26.37,5.53-1.89.4-1.09,3.29.8,2.89,31.25-6.56,62.5-13.13,93.75-19.68,8.78-1.84,17.57-3.68,26.35-5.53,1.89-.4,1.09-3.29-.8-2.89h0Z"/>
      <path class="cls-1" d="M2.34,148.54c19.26-4.69,38.56-9.21,57.9-13.52s38.78-8.45,58.23-12.39c11.04-2.23,22.08-4.41,33.14-6.52,1.89-.36,1.09-3.25-.8-2.89-19.52,3.73-39,7.64-58.44,11.76-19.39,4.1-38.75,8.39-58.05,12.87-10.94,2.54-21.87,5.14-32.78,7.8-1.87.46-1.08,3.35.8,2.89h0Z"/>
      <path class="cls-1" d="M187.1,109.56c10.07-2.02,20.26-3.57,30.39-5.27s20.6-3.41,30.91-5.03c5.77-.91,11.54-1.8,17.31-2.68,1.9-.29,1.09-3.18-.8-2.89-20.52,3.12-41,6.43-61.45,9.96-5.72.99-11.47,1.88-17.16,3.02-1.89.38-1.09,3.27.8,2.89h0Z"/>
      <path class="cls-1" d="M268.33,106.92c-24.11,4.51-48.24,8.9-72.35,13.35-6.86,1.27-13.73,2.53-20.59,3.8-1.9.35-1.09,3.24.8,2.89,24.18-4.46,48.37-8.93,72.55-13.39,6.8-1.25,13.59-2.49,20.39-3.76,1.9-.35,1.09-3.25-.8-2.89h0Z"/>
      <path class="cls-1" d="M130.37,132.38c-16.71,3.08-33.41,6.16-50.11,9.25s-33.02,6.09-49.53,9.14c-9.3,1.72-18.61,3.4-27.91,5.14-1.9.36-1.09,3.25.8,2.89,16.53-3.1,33.08-6.1,49.61-9.15,16.56-3.06,33.12-6.12,49.68-9.17,9.42-1.74,18.83-3.47,28.25-5.21,1.9-.35,1.09-3.24-.8-2.89h0Z"/>
      <path class="cls-1" d="M2.02,143.65c19.52-4.55,39.11-8.81,58.75-12.78,19.64-3.96,39.33-7.64,59.08-11.02,11.14-1.91,22.3-3.72,33.48-5.44,1.9-.29,1.09-3.18-.8-2.89-19.9,3.06-39.75,6.42-59.55,10.07-19.65,3.63-39.25,7.56-58.79,11.76-11.01,2.37-22,4.85-32.97,7.4-1.88.44-1.08,3.33.8,2.89h0Z"/>
      <path class="cls-1" d="M187.11,109.51c20.49-2.92,41.08-5.28,61.66-7.45,5.87-.62,11.74-1.21,17.62-1.78,1.9-.18,1.92-3.19,0-3-21,2.02-41.97,4.37-62.9,7.06-5.73.73-11.46,1.46-17.18,2.28-1.9.27-1.09,3.16.8,2.89h0Z"/>
      <path class="cls-1" d="M167.41,135.14c26.73-5.41,53.46-10.82,80.2-16.22,7.45-1.51,14.91-3.02,22.36-4.53,1.89-.38,1.09-3.28-.8-2.89-26.63,5.39-53.26,10.77-79.89,16.16-7.56,1.53-15.11,3.06-22.67,4.59-1.89.38-1.09,3.27.8,2.89h0Z"/>
      <path class="cls-1" d="M124.77,140.72c-31.25,6.29-62.49,12.63-93.74,18.95-8.8,1.78-17.61,3.56-26.41,5.35-1.89.38-1.09,3.28.8,2.89,31.3-6.34,62.61-12.67,93.91-19,8.75-1.77,17.49-3.54,26.24-5.3,1.89-.38,1.09-3.27-.8-2.89h0Z"/>
      <path class="cls-1" d="M266.07,97.6c-21.27,3.15-42.49,6.65-63.64,10.52-5.98,1.09-11.96,2.22-17.93,3.37-1.89.37-1.09,3.26.8,2.89,21.06-4.07,42.2-7.77,63.39-11.11,6.06-.96,12.12-1.88,18.18-2.78,1.9-.28,1.09-3.17-.8-2.89h0Z"/>
      <path class="cls-1" d="M143.45,119.89c-18.48,4-36.9,8.27-55.25,12.81-18.35,4.55-36.64,9.37-54.85,14.48-10.2,2.86-20.35,5.86-30.52,8.83-1.85.54-1.06,3.44.8,2.89,18.11-5.28,36.22-10.52,54.45-15.36,18.27-4.86,36.62-9.44,55.03-13.75,10.36-2.42,20.74-4.76,31.14-7.01,1.89-.41,1.09-3.3-.8-2.89h0Z"/>
      <path class="cls-1" d="M4.63,164.37c17.16-4.5,34.32-9.01,51.48-13.51,17.16-4.5,34.31-9,51.47-13.5,9.66-2.54,19.33-5.07,28.99-7.61,1.87-.49,1.07-3.38-.8-2.89-17.15,4.5-34.31,9.01-51.46,13.51-17.16,4.5-34.32,9-51.48,13.5-9.67,2.54-19.33,5.07-29,7.61-1.87.49-1.07,3.38.8,2.89h0Z"/>
      <path class="cls-1" d="M183.64,117.4c21.34-5.58,42.67-11.19,64-16.79,5.95-1.56,11.91-3.12,17.86-4.68,1.87-.49,1.07-3.38-.8-2.89-21.2,5.55-42.39,11.12-63.59,16.68-6.09,1.6-12.18,3.19-18.27,4.79-1.87.49-1.07,3.38.8,2.89h0Z"/>
      <path class="cls-1" d="M4.37,110.9c21.18-4.25,42.41-8.23,63.68-12,6-1.06,12.01-2.11,18.02-3.13,1.9-.32,1.09-3.22-.8-2.89-21.37,3.64-42.7,7.53-63.98,11.65-5.91,1.14-11.82,2.3-17.72,3.48-1.89.38-1.09,3.27.8,2.89h0Z"/>
      <path class="cls-1" d="M118.35,90.44c11.33-1.81,22.72-3.34,34.04-5.23,1.9-.32,1.09-3.21-.8-2.89-11.32,1.89-22.71,3.42-34.04,5.23-1.9.3-1.09,3.2.8,2.89h0Z"/>
      <path class="cls-1" d="M182.89,80.88c18.58-2.55,37.18-4.9,55.81-7.1,5.35-.63,10.7-1.24,16.05-1.84,1.9-.21,1.92-3.21,0-3-18.92,2.1-37.81,4.41-56.68,6.89-5.33.7-10.66,1.42-15.98,2.15-.81.11-1.23,1.14-1.05,1.85.23.87,1.05,1.16,1.85,1.05h0Z"/>
      <path class="cls-1" d="M242.46,50.98c-18.02,4.34-36.03,8.69-54.05,13.03-5.09,1.23-10.18,2.45-15.27,3.68-1.88.45-1.08,3.35.8,2.89,18.02-4.34,36.03-8.69,54.05-13.03,5.09-1.23,10.18-2.45,15.27-3.68,1.88-.45,1.08-3.35-.8-2.89h0Z"/>
      <path class="cls-1" d="M86.47,88.58c-21.69,5.23-43.38,10.45-65.07,15.69-5.98,1.44-11.95,2.88-17.93,4.32-1.88.45-1.08,3.35.8,2.89,21.55-5.21,43.11-10.4,64.67-15.59,6.11-1.47,12.22-2.94,18.33-4.42,1.88-.45,1.08-3.35-.8-2.89h0Z"/>
      <path class="cls-1" d="M3.75,116.38c21.98-9.36,44.38-17.79,67-25.45,6.52-2.21,13.07-4.35,19.64-6.42,1.83-.58,1.05-3.48-.8-2.89-23.27,7.35-46.27,15.53-68.93,24.59-6.17,2.47-12.32,4.98-18.43,7.58-1.77.75-.24,3.34,1.51,2.59h0Z"/>
      <path class="cls-1" d="M164.02,64.41c19.81-4.58,39.77-8.55,59.83-11.89,5.45-.91,10.92-1.67,16.37-2.58,1.9-.32,1.09-3.21-.8-2.89.62-.1-.05,0-.15.02-.32.05-.65.1-.97.15-.57.08-1.13.17-1.7.26-1.29.2-2.58.4-3.88.6-2.5.39-5,.79-7.5,1.2-5.08.83-10.15,1.71-15.21,2.62-9.97,1.8-19.9,3.75-29.81,5.86-5.67,1.21-11.33,2.47-16.98,3.77-1.88.43-1.08,3.33.8,2.89h0Z"/>
      <path class="cls-1" d="M257.38,74.79c-18.54,3.1-37.09,6.2-55.63,9.3-5.25.88-10.5,1.76-15.76,2.63-1.9.32-1.09,3.21.8,2.89,18.54-3.1,37.09-6.2,55.63-9.3,5.25-.88,10.5-1.76,15.76-2.63,1.9-.32,1.09-3.21-.8-2.89h0Z"/>
      <path class="cls-1" d="M158.25,91.35c-7.75,1.29-15.49,2.59-23.24,3.88s-15.34,2.39-22.96,3.84c-1.89.36-1.09,3.25.8,2.89,7.62-1.45,15.31-2.56,22.96-3.84s15.49-2.59,23.24-3.88c1.9-.32,1.09-3.21-.8-2.89h0Z"/>
      <path class="cls-1" d="M85.51,103.5c-21.56,3.7-43.16,7.21-64.74,10.82-6.23,1.04-12.46,2.08-18.69,3.12-1.9.32-1.09,3.21.8,2.89,21.75-3.63,43.51-7.27,65.26-10.9,6.06-1.01,12.12-2,18.17-3.04,1.9-.33,1.09-3.22-.8-2.89h0Z"/>
      <path class="cls-1" d="M2.26,126.29c21.57-6.18,43.23-12.05,64.97-17.6,6.12-1.56,12.24-3.09,18.38-4.59,1.87-.46,1.08-3.35-.8-2.89-21.78,5.33-43.46,11.03-65.07,17.03-6.1,1.69-12.2,3.42-18.28,5.16-1.85.53-1.06,3.43.8,2.89h0Z"/>
      <path class="cls-1" d="M114.76,97.12c13.55-3.1,27.1-6.16,40.7-9.03,1.89-.4,1.09-3.29-.8-2.89-13.6,2.87-27.15,5.93-40.7,9.03-1.88.43-1.09,3.32.8,2.89h0Z"/>
      <path class="cls-1" d="M183.7,82.28c18.16-3.65,36.37-7.03,54.62-10.2,5.15-.9,10.3-1.77,15.45-2.64,1.9-.32,1.09-3.21-.8-2.89-18.27,3.08-36.5,6.32-54.7,9.82-5.13.99-10.25,1.99-15.37,3.02-1.89.38-1.09,3.27.8,2.89h0Z"/>
      <path class="cls-1" d="M245.06,54.42c-17.06,5.09-34.13,10.17-51.19,15.26-4.84,1.44-9.68,2.88-14.53,4.32-1.85.55-1.06,3.45.8,2.89,17.07-5.08,34.13-10.16,51.19-15.25,4.84-1.44,9.68-2.89,14.53-4.33,1.85-.55,1.06-3.45-.8-2.89h0Z"/>
      <path class="cls-1" d="M151.55,82.28c-12.39,3.68-24.79,7.38-37.18,11.07-1.85.55-1.06,3.45.8,2.89,12.39-3.69,24.79-7.39,37.18-11.07,1.85-.55,1.06-3.45-.8-2.89h0Z"/>
      <path class="cls-1" d="M83.92,103.53h0c.37-.47.73-.95,1.1-1.44-21.7,6.47-43.41,12.93-65.11,19.39-6.22,1.85-12.44,3.71-18.67,5.56-1.85.55-1.06,3.45.8,2.89,21.76-6.48,43.52-12.96,65.29-19.45,6.16-1.84,12.33-3.66,18.49-5.5.63-.19,1.1-.78,1.1-1.45h0c0-1.94-3-1.94-3-.01h0Z"/>
      <path class="cls-1" d="M1.95,131.75c21.99-6.68,43.97-13.36,65.96-20.04,6.1-1.85,12.19-3.72,18.29-5.55,1.84-.55,1.06-3.45-.8-2.89-21.93,6.57-43.81,13.31-65.72,19.96-6.18,1.88-12.36,3.75-18.53,5.63-1.84.56-1.06,3.46.8,2.89h0Z"/>
      <path class="cls-1" d="M152.37,82.93c-12.86,3.91-25.72,7.81-38.58,11.72-1.84.56-1.06,3.46.8,2.89,12.86-3.91,25.72-7.81,38.58-11.72,1.84-.56,1.06-3.46-.8-2.89h0Z"/>
      <path class="cls-1" d="M180.6,77.49c16.95-5.2,33.94-10.31,50.9-15.46,4.86-1.47,9.71-2.95,14.57-4.42,1.84-.56,1.06-3.46-.8-2.89-17.11,5.2-34.23,10.39-51.34,15.59-4.71,1.43-9.42,2.85-14.13,4.29-1.84.56-1.06,3.46.8,2.89h0Z"/>
      <path class="cls-1" d="M258.2,76.49c-18.42,3.97-36.84,7.95-55.26,11.92-5.28,1.14-10.55,2.28-15.83,3.41-1.89.41-1.09,3.3.8,2.89,18.42-3.97,36.85-7.94,55.27-11.92,5.27-1.14,10.55-2.27,15.82-3.41,1.89-.41,1.09-3.3-.8-2.89h0Z"/>
      <path class="cls-1" d="M159.2,97.84c-17.58,3.79-35.16,7.58-52.74,11.37-1.89.41-1.09,3.3.8,2.89,17.58-3.79,35.16-7.58,52.74-11.37,1.89-.41,1.09-3.3-.8-2.89h0Z"/>
      <path class="cls-1" d="M94.97,111.69c-24.3,5.23-48.6,10.48-72.89,15.72-7,1.51-14,3.02-21,4.53-1.89.41-1.09,3.3.8,2.89,24.44-5.28,48.88-10.54,73.31-15.81,6.86-1.48,13.72-2.97,20.58-4.44,1.89-.41,1.09-3.3-.8-2.89h0Z"/>
      <path class="cls-1" d="M3.44,116.21c21.28-5.39,42.65-10.44,64.05-15.33,6.13-1.4,12.26-2.78,18.4-4.14,1.88-.42,1.09-3.31-.8-2.89-21.48,4.77-42.91,9.76-64.28,14.98-6.06,1.48-12.12,2.96-18.17,4.49-1.87.47-1.08,3.37.8,2.89h0Z"/>
      <path class="cls-1" d="M148.6,80.43c-10.17,2.03-20.32,4.12-30.46,6.27-1.89.4-1.09,3.29.8,2.89,10.14-2.15,20.29-4.24,30.46-6.27,1.89-.38,1.09-3.27-.8-2.89h0Z"/>
      <path class="cls-1" d="M180.42,77.25c18.16-3.52,36.38-6.77,54.62-9.91,5.28-.91,10.55-1.8,15.83-2.68,1.9-.32,1.09-3.21-.8-2.89-18.41,3.07-36.79,6.32-55.14,9.71-5.11.94-10.21,1.89-15.31,2.88-1.89.37-1.09,3.26.8,2.89h0Z"/>
      <path class="cls-1" d="M252.9,66.42c-17.77,4.22-35.58,8.25-53.37,12.38-5.06,1.17-10.12,2.35-15.18,3.52-1.88.44-1.08,3.33.8,2.89,17.89-4.15,35.78-8.29,53.66-12.45,4.96-1.15,9.93-2.28,14.89-3.45,1.88-.45,1.08-3.34-.8-2.89h0Z"/>
      <path class="cls-1" d="M157.07,88.64c-15,3.48-30.03,6.87-45.02,10.44-1.88.45-1.08,3.34.8,2.89,14.99-3.57,30.02-6.96,45.02-10.44,1.88-.44,1.08-3.33-.8-2.89h0Z"/>
      <path class="cls-1" d="M2.17,127.63c22.01-5.1,44.01-10.2,66.02-15.31,6.3-1.46,12.6-2.92,18.9-4.38,1.88-.44,1.08-3.33-.8-2.89-22.02,5.11-44.04,10.22-66.07,15.32-6.28,1.46-12.57,2.91-18.85,4.37-1.88.44-1.08,3.33.8,2.89h0Z"/>
      <path class="cls-1" d="M248.11,58.77c-17.56,4.06-35.04,8.47-52.43,13.19-4.95,1.34-9.89,2.71-14.82,4.11-1.85.53-1.07,3.42.8,2.89,17.34-4.92,34.78-9.5,52.29-13.75,4.98-1.21,9.97-2.39,14.96-3.55,1.88-.44,1.08-3.33-.8-2.89h0Z"/>
      <path class="cls-1" d="M153.6,84.07c-13.68,4.15-27.29,8.51-40.83,13.08-1.82.61-1.04,3.51.8,2.89,13.54-4.57,27.15-8.93,40.83-13.08,1.84-.56,1.06-3.46-.8-2.89h0Z"/>
      <path class="cls-1" d="M2.34,142.65c21.96-9.49,44.17-18.4,66.57-26.77,6.27-2.34,12.56-4.64,18.86-6.89,1.8-.65,1.03-3.55-.8-2.89-22.59,8.08-44.98,16.72-67.14,25.91-6.35,2.64-12.69,5.32-19,8.05-1.77.76-.24,3.35,1.51,2.59h0Z"/>
      <path class="cls-1" d="M258.51,77.15c-18.46,4.62-36.92,9.23-55.38,13.84-5.24,1.31-10.48,2.62-15.71,3.93-1.87.47-1.08,3.36.8,2.89,18.46-4.61,36.91-9.22,55.37-13.84,5.24-1.31,10.48-2.62,15.72-3.93,1.87-.47,1.08-3.36-.8-2.89h0Z"/>
      <path class="cls-1" d="M158.52,102.14c-20.42,5.11-40.85,10.21-61.27,15.32s-41.06,10.27-61.59,15.39c-11.47,2.86-22.94,5.73-34.41,8.6-1.87.47-1.08,3.36.8,2.89,20.41-5.09,40.81-10.2,61.22-15.3,20.5-5.12,41.01-10.26,61.51-15.38,11.51-2.88,23.02-5.75,34.53-8.63,1.87-.47,1.08-3.36-.8-2.89h0Z"/>
      <path class="cls-1" d="M5.49,105.7c22.31-6.36,44.7-12.46,67.16-18.25,6.27-1.62,12.54-3.22,18.82-4.78,1.87-.47,1.08-3.36-.8-2.89-22.43,5.58-44.77,11.51-67.03,17.69-6.32,1.76-12.64,3.54-18.95,5.34-1.85.53-1.07,3.42.8,2.89h0Z"/>
      <path class="cls-1" d="M165.69,65.23c19.55-4.3,39.15-8.39,58.79-12.25,5.24-1.03,10.47-2.17,15.74-3.04,1.9-.32,1.09-3.21-.8-2.89-9.58,1.6-19.11,3.69-28.64,5.61-9.81,1.98-19.61,4.01-29.4,6.1-5.5,1.17-11,2.37-16.49,3.57-1.88.41-1.09,3.31.8,2.89h0Z"/>
      <path class="cls-1" d="M240.4,48.41c-18.03,4.55-36.06,9.1-54.09,13.65-5.15,1.3-10.3,2.6-15.45,3.9-1.87.47-1.08,3.37.8,2.89,18.03-4.55,36.06-9.1,54.09-13.65l15.45-3.9c1.87-.47,1.08-3.37-.8-2.89h0Z"/>
      <path class="cls-1" d="M87,87.12c-21.75,5.48-43.49,10.97-65.24,16.46-6.07,1.53-12.14,3.06-18.21,4.59-1.87.47-1.08,3.37.8,2.89,21.68-5.48,43.36-10.94,65.05-16.41,6.13-1.55,12.27-3.09,18.4-4.64,1.87-.47,1.08-3.37-.8-2.89h0Z"/>
      <path class="cls-1" d="M233.68,40.83c-21.47,3.97-42.88,8.24-64.23,12.8-6.04,1.29-12.08,2.61-18.11,3.95-1.88.42-1.09,3.31.8,2.89,21.31-4.73,42.69-9.17,64.12-13.31,6.07-1.17,12.14-2.32,18.22-3.44,1.9-.35,1.09-3.24-.8-2.89h0Z"/>
      <path class="cls-1" d="M99.1,69.82c-24.08,5.94-48.06,12.25-71.94,18.94-6.74,1.89-13.48,3.81-20.21,5.77-1.85.54-1.06,3.43.8,2.89,23.82-6.91,47.75-13.44,71.78-19.59,6.78-1.74,13.57-3.44,20.37-5.12,1.87-.46,1.08-3.36-.8-2.89h0Z"/>
      <path class="cls-1" d="M241.05,49.2c-18.13,4.39-36.25,8.79-54.38,13.18-5.18,1.26-10.36,2.51-15.54,3.77-1.88.45-1.08,3.35.8,2.89,18.13-4.39,36.25-8.79,54.38-13.18,5.18-1.26,10.36-2.51,15.54-3.77,1.88-.45,1.08-3.35-.8-2.89h0Z"/>
      <path class="cls-1" d="M87.26,86.47c-21.7,5.26-43.4,10.52-65.09,15.78-6.11,1.48-12.22,2.96-18.33,4.44-1.88.45-1.08,3.35.8,2.89,21.7-5.26,43.4-10.52,65.1-15.78,6.11-1.48,12.21-2.96,18.32-4.44,1.88-.45,1.08-3.35-.8-2.89h0Z"/>
      <path class="cls-1" d="M228.91,36.08c-28.62,5.36-57.18,11.08-85.65,17.17-28.49,6.09-56.9,12.56-85.22,19.39-15.88,3.83-31.74,7.77-47.56,11.83-1.87.48-1.08,3.37.8,2.89,28.15-7.22,56.4-14.07,84.73-20.57,28.42-6.52,56.92-12.66,85.5-18.44,16.05-3.24,32.12-6.37,48.21-9.39,1.9-.36,1.09-3.25-.8-2.89h0Z"/>
      <path class="cls-1" d="M226.01,33.42c-23.79,5.94-47.58,11.89-71.37,17.83-6.68,1.67-13.37,3.34-20.05,5.02-1.87.47-1.08,3.36.8,2.89,23.71-5.94,47.42-11.86,71.13-17.78l20.29-5.07c1.87-.47,1.08-3.36-.8-2.89h0Z"/>
      <path class="cls-1" d="M109.89,62.44c-26.14,6.53-52.27,13.06-78.41,19.6-7.4,1.85-14.8,3.7-22.2,5.55-1.87.47-1.08,3.36.8,2.89,26.11-6.54,52.22-13.06,78.34-19.58,7.42-1.86,14.85-3.71,22.27-5.57,1.87-.47,1.08-3.36-.8-2.89h0Z"/>
      <path class="cls-1" d="M221.67,29.69c-28.09,6.49-56.04,13.53-83.85,21.12-27.84,7.61-55.53,15.77-83.05,24.48-15.58,4.93-31.1,10.04-46.56,15.33-1.82.62-1.04,3.52.8,2.89,27.42-9.38,55.04-18.2,82.82-26.46s55.43-15.89,83.37-23c15.71-4,31.47-7.82,47.27-11.47,1.88-.43,1.08-3.33-.8-2.89h0Z"/>
      <path class="cls-1" d="M5.52,105.58c22.37-5.93,44.72-11.97,67.08-17.96,6.32-1.69,12.64-3.36,18.95-5.07,1.86-.5,1.07-3.4-.8-2.89-22.31,6.05-44.66,11.96-67,17.94-6.34,1.7-12.69,3.41-19.03,5.09-1.86.49-1.07,3.39.8,2.89h0Z"/>
      <path class="cls-1" d="M234.1,41.29c-18.84,5.04-37.68,10.08-56.53,15.13-5.37,1.44-10.74,2.88-16.11,4.31-1.86.5-1.07,3.39.8,2.89,18.84-5.04,37.68-10.08,56.53-15.13,5.37-1.44,10.74-2.88,16.11-4.31,1.86-.5,1.07-3.39-.8-2.89h0Z"/>
      <path class="cls-1" d="M215.94,25.25c-25.8,4.79-51.54,9.96-77.2,15.42-25.93,5.52-51.78,11.37-77.56,17.55-14.49,3.48-28.96,7.05-43.41,10.73-1.87.48-1.08,3.37.8,2.89,25.73-6.56,51.54-12.79,77.42-18.69,25.84-5.89,51.76-11.45,77.75-16.68,14.32-2.88,28.65-5.68,43-8.34,1.9-.35,1.09-3.24-.8-2.89h0Z"/>
      <path class="cls-1" d="M14.99,78.8c26.22-6.65,52.45-13.29,78.67-19.94,26.22-6.65,52.45-13.29,78.67-19.94,14.65-3.71,29.29-7.44,43.94-11.14,1.87-.47,1.08-3.37-.8-2.89-26.19,6.61-52.37,13.27-78.55,19.91-26.22,6.65-52.45,13.29-78.67,19.94-14.68,3.72-29.37,7.44-44.05,11.16-1.87.47-1.08,3.37.8,2.89h0Z"/>
      <path class="cls-1" d="M214.05,23.87c-25.68,6.24-51.35,12.48-77.03,18.72s-51.45,12.5-77.17,18.75c-14.56,3.54-29.12,7.08-43.68,10.61-1.88.46-1.08,3.35.8,2.89,25.88-6.29,51.77-12.58,77.65-18.87,25.72-6.25,51.45-12.5,77.17-18.75,14.35-3.49,28.7-6.98,43.05-10.46,1.88-.46,1.08-3.35-.8-2.89h0Z"/>
      <path class="cls-1" d="M17.95,72.98c24.28-6.86,48.56-13.71,72.84-20.56,24.28-6.85,48.55-13.71,72.83-20.56,13.7-3.87,27.4-7.74,41.1-11.61,1.86-.52,1.07-3.42-.8-2.89-24.36,6.88-48.71,13.75-73.07,20.63s-48.55,13.71-72.83,20.56c-13.62,3.85-27.25,7.69-40.87,11.53-1.86.52-1.07,3.42.8,2.89h0Z"/>
      <path class="cls-1" d="M157.67.8c-23.49,4.03-46.92,8.36-70.3,12.99-6.66,1.32-13.31,2.66-19.95,4.02-1.89.39-1.09,3.28.8,2.89,23.34-4.79,46.74-9.29,70.2-13.49,6.68-1.2,13.36-2.37,20.05-3.52,1.9-.33,1.09-3.22-.8-2.89h0Z"/>
      <path class="cls-1" d="M161.16,1.41c-27.2,6.1-54.39,12.2-81.59,18.3-7.61,1.71-15.22,3.41-22.82,5.12-1.88.42-1.09,3.32.8,2.89,27.19-6.1,54.39-12.2,81.58-18.3,7.61-1.71,15.22-3.41,22.83-5.12,1.88-.42,1.09-3.32-.8-2.89h0Z"/>
      <path class="cls-1" d="M173.96,4.47c-17.42,4.5-34.83,9.01-52.25,13.51-17.42,4.5-34.83,9.01-52.25,13.51-9.77,2.53-19.54,5.06-29.31,7.57-1.87.48-1.08,3.38.8,2.89,17.35-4.47,34.7-8.97,52.05-13.45,17.42-4.5,34.83-9.01,52.25-13.51,9.84-2.54,19.67-5.09,29.51-7.63,1.87-.48,1.08-3.38-.8-2.89h0Z"/>
      <path class="cls-1" d="M187.23,9.12c-19.63,4.41-39.25,8.82-58.88,13.22s-39.23,8.81-58.84,13.22c-11.02,2.48-22.05,4.95-33.07,7.43-1.88.42-1.09,3.32.8,2.89,19.61-4.41,39.23-8.81,58.84-13.22s39.24-8.81,58.86-13.21c11.03-2.48,22.06-4.95,33.09-7.43,1.88-.42,1.09-3.32-.8-2.89h0Z"/>
      <path class="cls-1" d="M23.96,62.9c21.41-7.15,42.9-14.07,64.46-20.74s43.03-13.04,64.65-19.2c12.23-3.48,24.48-6.88,36.75-10.21,1.86-.5,1.07-3.4-.8-2.89-21.77,5.9-43.48,12.05-65.11,18.44s-43.05,12.98-64.47,19.84c-12.12,3.88-24.21,7.84-36.28,11.87-1.82.61-1.04,3.51.8,2.89h0Z"/>
      <path class="cls-1" d="M193.42,11.84c-22.6,6.92-45.21,13.85-67.81,20.78s-44.89,13.75-67.33,20.63c-12.73,3.9-25.47,7.8-38.2,11.7-1.84.56-1.06,3.46.8,2.89,22.6-6.92,45.21-13.85,67.81-20.78s44.89-13.75,67.33-20.63c12.73-3.9,25.47-7.8,38.2-11.7,1.84-.56,1.06-3.46-.8-2.89h0Z"/>
      <path class="cls-1" d="M162.1,1.59c-16.25,4.67-32.45,9.52-48.6,14.56s-32.25,10.24-48.28,15.63c-8.99,3.02-17.98,6.08-26.93,9.23-1.81.64-1.03,3.53.8,2.89,15.93-5.59,31.93-10.96,47.98-16.18,16.08-5.23,32.23-10.29,48.42-15.16,9.12-2.74,18.25-5.43,27.4-8.06,1.85-.53,1.06-3.43-.8-2.89h0Z"/>
      <path class="cls-1" d="M29.94,54.52c19.72-5.88,39.43-11.76,59.15-17.64,19.62-5.85,39.25-11.7,58.88-17.55,11.08-3.3,22.16-6.61,33.24-9.91,1.85-.55,1.06-3.45-.8-2.89-19.69,5.87-39.38,11.74-59.06,17.61-19.64,5.85-39.27,11.71-58.91,17.57-11.1,3.31-22.19,6.62-33.29,9.92-1.85.55-1.06,3.45.8,2.89h0Z"/>
      <path class="cls-1" d="M152.2.04c-21.92,4.54-43.83,9.08-65.75,13.63-6.17,1.28-12.34,2.56-18.51,3.84-1.89.39-1.09,3.28.8,2.89,21.92-4.55,43.83-9.09,65.75-13.63,6.17-1.28,12.34-2.56,18.51-3.84,1.89-.39,1.09-3.28-.8-2.89h0Z"/>
    </g>
  </g>
</svg>