<?xml version="1.0" encoding="UTF-8"?>
<svg id="Capa_2" data-name="Capa 2" xmlns="http://www.w3.org/2000/svg" viewBox="0 0 293.39 293.39">
  <defs>
    <style>
      .cls-1 {
        fill: #fff;
      }

      .cls-2 {
        fill: none;
        stroke: #fff;
        stroke-miterlimit: 10;
        stroke-width: 2px;
      }
    </style>
  </defs>
  <g id="Capa_1-2" data-name="Capa 1">
    <g>
      <circle class="cls-2" cx="146.69" cy="146.69" r="145.69"/>
      <path class="cls-1" d="M123.72,109.2c-8.41.48-15.58-5.63-17.78-13.62-2.49-9,1.49-18.81,7.25-25.71,11.99-14.36,32.6-19.87,50.19-13.71s30.3,23.44,30.57,42.35c.14,9.94-2.79,19.41-8.43,27.59s-13.64,14.97-20.29,22.55c-15.04,17.15-23.47,38.93-23.96,61.74-.16,7.73,11.84,7.72,12,0,.26-12.22,3.04-24.33,8.49-35.31s13.58-19.78,22.1-28.67,15.41-17.43,19.17-28.71,3.89-23.28.72-34.4c-6.01-21.11-24.84-37.71-46.55-40.98-22.09-3.33-45.86,6.68-57.59,26.03-6.35,10.47-8.67,23.7-3.5,35.12,4.82,10.64,15.73,18.42,27.61,17.74,7.68-.44,7.73-12.44,0-12h0Z"/>
    </g>
  </g>
</svg>