<?xml version="1.0" encoding="UTF-8"?>
<svg id="Capa_2" data-name="Capa 2" xmlns="http://www.w3.org/2000/svg" viewBox="0 0 308.32 254.23">
  <defs>
    <style>
      .cls-1 {
        fill: #fff;
      }
    </style>
  </defs>
  <g id="Capa_1-2" data-name="Capa 1">
    <path class="cls-1" d="M179.56,3v2c1.1-.15,2.51.23,3.49,0,.39-.09.6-.89,1-1,1.29-.36,1.44.77,1.99,1s1.32-.18,1.5,0c.19.19-.19,1.81,0,2s1.81-.19,1.99,0c.3.3-.82,4.26,3.49,1l3.99,4h1c1.33-1.83,3.89-.68,5.98-1,.37-.06.62-.94,1-1,4.93-.73,10.05,2.85,13.96,2s2.31-3.04,8.97-1c2.22.68,4.76-2.68,6.98-2,1.54.47,2.58.62,3.99,1,1.31.36,2.86,2.61,4.99,2,1.63-.47,1.37-2.87,1.5-3,.82-.82,2.3.95,2.49,1,.81.23,3.47-1.84,5.48-1,.49.41-1,1.25-1,1.5,0,.32,4.18,4.42,4.49,4.5,2.45.68,3.77-1,3.99-1,2.45,0,7.56,2.41,9.97,2,3.17-.55,2.52,1.47,4.99,2,1.43.31,3.46-.25,4.99,0,5.32.89,11.59,2.13,18.94,2,1.2,1.54,7.84,1.3,8.48,3.5.57,1.98-.93,2.66-1,3-.44,2.21,1.22,4.1-1.99,3.5l1,1.5c-2.3,1.67-.14,2.38,0,3,.71,3.19-.45,7.28,0,10,1.32,7.98-1.35,15.89,0,24,.56,3.4-.65,10.1,0,13,1.17,5.26.71,19.27,0,25-.79,6.46,2.09,12.44,1,19-.35,2.13-1.53,11.7-1,14,.94,4.04,1.91,17.9,1,22-1.39,6.24,1.34,13.99,0,20-1.58,7.06,1.05,15.56-1,23-.38,1.38,1.43,11.62,1,14-.77,4.24-.1,8.97-1,13-.53,2.39.56,13.93,0,14.5-.19.19-1.81-.19-1.99,0s.19,1.81,0,2c-.16.16-3.67.13-4.49,0-.38-.06-.63-.96-1-1-6.55-.72-12.9-1.12-16.95,0-.6.16-8.53-1.74-11.96-1-1.07.23-3.16,2.78-4.99,2l-2.99-2c-1.06.94-1.81,1.5-1.5,3-2.21-1.68-4.7.14-3.99-3-2.43-.4-3.95,1.59-6.48,1-5.13-1.2-19.29-1.94-24.93-1-1.09.18.28.91-1.99,0s-1.3,1.81-1.5,2c-.82.82-2.22-.91-2.49-1-.88-.3-2.19.52-2.99-1-.74.5-2.65,3-2.99,3s-.66-1-1-1-.66,1-1,1c-.53,0,.06-.34-1.99,0-2.57.43-6.39.26-7.98,0-3.55-.59-8.46.62-11.96,0-.35-.06-.57-.82-1-1-1.01-.42-1.89.91-1.5-2-2.42,2.04-2.72.17-3.49,0-3.01-.68-5.27,1.81-4.49-3-1.78-.73-3.02,2.01-3.49,2-.34,0-.66-1-1-1-.22,0-1.45,1.59-3.99,1s-5.24-.52-6.98-1c-.55-.15-1.6-2-1.99-2-.33,0-.59.89-1,1-.65.17-1.45-.21-1.99,0-.88.34-3.68,2.81-4.49,2,.45-1.55-2.13-4.38-3.49-4-1.12.31-.83,1.78-2.99-1-2.33,1.72-3.74,0-3.99,0-.18,0-2.56,1.88-2.99,2-1.98.54-4.71-.79-4.49,3-.41.5-1.12-.9-1.5-1-1.31-.36-1.52.85-1.99,1-2.34.76-3.41,0-3.99,0-.29,0-4.69,3-4.99,3-.26,0-.69-1.36-1.99-1-2.96.82-1.59-.6-2.99-1-2.14-.62-3.82,1.74-4.99,2-2.21.49-2.85-.7-5.98,0-1.93.43-4.11-.92-5.48,1.5-.27.47.19,1.31,0,1.5-.16.16-3.88.17-4.49,0-.55-.15-1.6-2-1.99-2s-1.45,1.85-1.99,2c-2.2.61-6.39-.43-8.97,0-.38.06-.67,1-1,1-.29,0-4.69-2-4.99-2-.33,0-.66,1-1,1-.25,0-.69-1.36-1.99-1-.7.19-2.29,2.81-2.99,3-2.64.73-10.75-7.65-12.96-8.16-3.2-.75-5.02,2.79-4.49-1-1.48-.55-2.32,1.01-2.49,1-.34-.01-.66-1-1-1-.74,0,0,1.82-2.99,1-1.68-.46-2.98,2.71-3.99,3-.61.18-1.38-.18-1.99,0-.86.25-2.98-4.63-2.49-3.53l-2.49-2c-.35,0-2.18,2.46-2.99,3-.98.65-7.53,4.12-7.98,4-3.12-.86-3.67,1.36-4.99,1-3.33-.92-2.94,2.56-4.99,2-3.16-.87-4.83-1.3-7.98,1-2.72.18-5.91,2.73-6.48-1.5-.26-1.96-.31-7.12,0-9,.65-3.91.89-1.19,0-7.31-.6-4.11-2.08-22.14-1-27,1.34-6-1.23-17.56,0-25,.73-4.4-1.22-12.52,0-18,.91-4.07,2.57-17.59,1.99-23-.26-2.46-.7-6.2-1-8-.94-5.66,1.24-13.47,0-19-.85-3.79.32-9.88,0-15-.58-9.28-2.19-23.78-1-31,1.02-6.15-1.55-12.88,0-18,.56-1.86-1.55-8.65-1-12,.92-5.55,0-11.28,0-16,0-.33.93-.62,1-1,.16-.95-.23-2.21,0-3,.11-.38.82-.58,1-1,.22-.54-.17-1.33,0-1.5.25-.25,2.56.22,3.49,0,2.57-.61,3.07-3.08,6.98-2,1.27.35,4.28-3.47,5.98-3,.81.22,1.54,1.57,3.99,1s3.75-.5,5.98-1c4.34-.97,7.73,2.22,10.97,4,1.69-2.47,3.64-1,3.99-1,.78,0,3.95-1.51,6.98-1,.38.06.67,1,1,1,.3,0,.55-.79,1-1,.31-.15.8.13,1,0,.48-.31,2.24-2.05,2.49-2.5.26-.47-.19-1.31,0-1.5.17-.17.93.2,1.5,0,.43-.16.68-1,1-1,.33,0,.61.93,1,1,.94.16,2.09-.18,2.99,0,.38.08.68,1.36,1.99,1,.5-.14,1.31-1.6,1.99-2,.53-.31,2.42-.69,2.99-1,.68-.37,1.49-1.86,1.99-2,.86-.24,4.94-.19,5.98,0,.43.08,3.75,2,3.99,2,.39,0,1.45-1.85,1.99-2,2.78-.77,7.09-1.52,8.97-1,.68.19,5.64-2,5.98-2,.39,0,1.45,1.85,1.99,2,.99.27,9.12,1.14,9.97,1,.38-.06.67-1,1-1,.38,0,3.17,1.5,5.98,1,1.9-.34,7.97-4.55,9.97-4,6.06,1.68,7.17-.28,12.96-1,2.8-.35,6.3.45,8.97,0,.38-.06.67-1,1-1,.39,0,1.45,1.85,1.99,2,4.09,1.13,7.7.13,10.97,1,3.03.81,3.59-1,3.99-1,.34,0,.66,1,1,1s3.36-1.73,5.98-1c1.22.34,2.13,3.85,5.48,1Z"/>
  </g>
</svg>