<?xml version="1.0" encoding="UTF-8"?>
<svg id="Capa_2" data-name="Capa 2" xmlns="http://www.w3.org/2000/svg" viewBox="0 0 275.95 274.8">
  <defs>
    <style>
      .cls-1 {
        stroke: #fff;
        stroke-miterlimit: 10;
        stroke-width: 2px;
      }

      .cls-1, .cls-2 {
        fill: #fff;
      }
    </style>
  </defs>
  <g id="Capa_1-2" data-name="Capa 1">
    <g>
      <path class="cls-1" d="M163.85,114.94s-.08,0-.11.03c.03-.01.06-.03.09-.04h.02Z"/>
      <path class="cls-2" d="M243.64,217.12c-42.68,16.73-85.36,33.46-128.04,50.2-3.55,1.39-2.01,7.2,1.6,5.79,42.68-16.74,85.36-33.47,128.04-50.2,3.55-1.39,2.01-7.2-1.6-5.79h0Z"/>
      <path class="cls-2" d="M245.78,213.61c-35.97,20.31-72.9,39.05-110.7,55.72-3.53,1.55-.48,6.73,3.03,5.18,37.8-16.67,74.73-35.41,110.7-55.72,3.36-1.9.34-7.08-3.03-5.18h0Z"/>
      <path class="cls-2" d="M253.43,201.85c-47.24,21.71-94.46,43.48-141.69,65.22-3.5,1.61-.46,6.79,3.03,5.18,47.23-21.74,94.45-43.51,141.69-65.22,3.5-1.61.46-6.78-3.03-5.18h0Z"/>
      <path class="cls-2" d="M262.15,185.29c-63.18,22.46-126.37,44.88-189.56,67.31-3.61,1.28-2.06,7.08,1.6,5.79,63.19-22.43,126.38-44.85,189.56-67.31,3.61-1.28,2.06-7.08-1.6-5.79h0Z"/>
      <path class="cls-2" d="M267.2,170.65c-67.31,25.89-134.62,51.77-201.94,77.63-3.57,1.37-2.02,7.17,1.6,5.79,67.32-25.86,134.63-51.74,201.94-77.63,3.57-1.37,2.02-7.18-1.6-5.79h0Z"/>
      <path class="cls-2" d="M61.45,250.48c69.24-25.04,138.46-49.82,207.62-75.07,3.6-1.31,2.04-7.11-1.6-5.79-70.48,25.73-136.96,49.52-207.62,75.07-3.6,1.3-2.05,7.1,1.6,5.79h0Z"/>
      <path class="cls-2" d="M66.92,254.11c71.5-27.29,140.63-60.59,206.74-99.15,3.33-1.94.32-7.13-3.03-5.18-65.65,38.3-134.28,71.44-205.3,98.55-3.57,1.36-2.02,7.17,1.6,5.79h0Z"/>
      <path class="cls-2" d="M271.71,145.91c-80.41,21.42-159.88,46.35-238.15,74.61-3.6,1.3-2.05,7.1,1.6,5.79,78.27-28.26,157.74-53.19,238.15-74.61,3.73-.99,2.15-6.78-1.6-5.79h0Z"/>
      <path class="cls-2" d="M40.09,231.91c70.63-18.27,141.25-36.54,211.88-54.81,3.74-.97,2.16-6.71-1.6-5.79-71.33,17.49-142.67,34.96-213.99,52.5-3.75.92-2.16,6.71,1.6,5.79,71.32-17.54,142.66-35.01,213.99-52.5l-1.6-5.79c-70.63,18.27-141.25,36.54-211.88,54.81-3.74.97-2.15,6.76,1.6,5.79h0Z"/>
      <path class="cls-2" d="M84.29,262.73c64.05-28.93,126.7-61.04,187.54-96.23,3.34-1.93.32-7.12-3.03-5.18-60.84,35.19-123.49,67.3-187.54,96.23-3.51,1.59-.47,6.76,3.03,5.18h0Z"/>
      <path class="cls-2" d="M97.51,187.71c-22.87,9.04-45.42,18.87-67.59,29.5-3.48,1.67-.44,6.84,3.03,5.18,21.7-10.41,43.77-20.05,66.15-28.9,3.55-1.4,2-7.21-1.6-5.79h0Z"/>
      <path class="cls-2" d="M139.62,178.47c-1.6.8-1.5.51.24-.03,1.24-.38,2.47-.85,3.7-1.27,2.77-.94,5.55-1.88,8.34-2.8,5.88-1.94,11.77-3.83,17.68-5.66,11.52-3.57,23.1-6.94,34.73-10.1,22.96-6.24,46.15-11.65,69.49-16.26,3.78-.75,2.18-6.53-1.6-5.79-23.66,4.67-47.16,10.16-70.43,16.51-11.63,3.17-23.21,6.55-34.72,10.13-5.6,1.74-11.18,3.53-16.75,5.37-4.47,1.48-9.54,2.61-13.7,4.69-3.45,1.73-.42,6.9,3.03,5.18h0Z"/>
      <path class="cls-2" d="M77.87,260.32c57.38-12.53,114.42-26.8,171.05-42.37,3.72-1.02,2.14-6.81-1.6-5.79-56.63,15.57-113.67,29.84-171.05,42.37-3.77.82-2.17,6.61,1.6,5.79h0Z"/>
      <path class="cls-2" d="M84.84,263.61c55.42-20.65,111.9-38.49,169.15-53.33,3.73-.97,2.15-6.76-1.6-5.79-57.25,14.84-113.73,32.68-169.15,53.33-3.59,1.34-2.03,7.14,1.6,5.79h0Z"/>
      <path class="cls-2" d="M15.24,194.27c27.86-6.64,55.72-13.27,83.58-19.9,3.75-.89,2.17-6.68-1.6-5.79-27.86,6.63-55.72,13.26-83.58,19.9-3.75.9-2.16,6.68,1.6,5.79h0Z"/>
      <path class="cls-2" d="M272.03,126.96c-16.17,3.85-32.34,7.7-48.52,11.55-7.93,1.89-15.85,3.78-23.78,5.66-3.76.89-7.51,1.79-11.27,2.68-3.45.82-8.06,2.82-11.53,2.82-3.86,0-3.87,6,0,6,3.03,0,6.7-1.5,9.61-2.2,3.66-.87,7.32-1.75,10.98-2.62,8.56-2.04,17.12-4.08,25.68-6.12,16.81-4,33.61-8.01,50.42-12.01,3.75-.89,2.17-6.68-1.6-5.79h0Z"/>
      <path class="cls-2" d="M271.35,118.61c-24.31,4.95-48.6,9.94-72.9,14.92-3.78.77-2.18,6.56,1.6,5.79,24.3-4.98,48.59-9.97,72.9-14.92,3.78-.77,2.18-6.55-1.6-5.79h0Z"/>
      <path class="cls-2" d="M97.01,154.29c-29.74,6.08-59.49,12.14-89.22,18.26-3.78.78-2.18,6.56,1.6,5.79,29.73-6.12,59.48-12.18,89.22-18.26,3.78-.77,2.18-6.56-1.6-5.79h0Z"/>
      <path class="cls-2" d="M44.1,236.03c72.83-14.06,145.65-28.14,218.48-42.2,3.79-.73,2.18-6.51-1.6-5.79-72.83,14.06-145.65,28.14-218.48,42.2-3.79.73-2.18,6.52,1.6,5.79h0Z"/>
      <path class="cls-2" d="M15.29,194.39c13.76-3.22,27.52-6.43,41.28-9.65,7.04-1.65,14.08-3.29,21.12-4.94,3.2-.75,6.4-1.5,9.6-2.24s7.46-2.59,10.74-2.59c3.86,0,3.87-6,0-6-2.7,0-5.84,1.28-8.49,1.9-3.52.82-7.04,1.65-10.56,2.47-7.36,1.72-14.72,3.44-22.09,5.16-14.4,3.36-28.8,6.73-43.2,10.09-3.76.88-2.17,6.67,1.6,5.79h0Z"/>
      <path class="cls-2" d="M174.56,157.09c4.43,0,9.66-2.18,13.97-3.18,6.11-1.43,12.21-2.85,18.32-4.28,12.21-2.85,24.42-5.7,36.63-8.56l-3.39-4.41c-41.83,57.6-104.76,96.84-176.41,102.25l.8,5.89c65.48-15.75,130.96-31.51,196.43-47.32,3.75-.91,2.16-6.69-1.6-5.79-65.47,15.81-130.95,31.57-196.43,47.32-3.23.78-2.62,6.15.8,5.89,36.85-2.79,72.55-13.92,104.24-32.99,30.55-18.38,56.45-43.46,77.35-72.24,1.64-2.26-1.06-4.95-3.39-4.41-11.57,2.71-23.13,5.41-34.7,8.11-5.46,1.28-10.92,2.55-16.39,3.83-2.89.68-5.78,1.35-8.68,2.03-2.27.53-5.23,1.84-7.56,1.84-3.86,0-3.87,6,0,6h0Z"/>
      <path class="cls-2" d="M16.1,196.17c27.59-6.02,55.18-12.06,82.77-18.08,3.77-.82,2.18-6.61-1.6-5.79-27.59,6.02-55.18,12.06-82.77,18.08-3.77.82-2.18,6.61,1.6,5.79h0Z"/>
      <path class="cls-2" d="M163,164c2.71,0,5.75-1.19,8.4-1.77,3.79-.83,7.59-1.66,11.38-2.49,7.59-1.66,15.18-3.32,22.77-4.97l-1.6-5.79c-18.58,5.83-37.17,11.66-55.75,17.49-3.67,1.15-2.1,6.95,1.6,5.79,18.58-5.83,37.17-11.66,55.75-17.49,3.69-1.16,2.18-6.61-1.6-5.79-6.96,1.52-13.91,3.04-20.87,4.56-3.16.69-6.32,1.38-9.48,2.07s-7.32,2.38-10.6,2.38c-3.86,0-3.87,6,0,6h0Z"/>
      <path class="cls-2" d="M97.43,182.41c-24.86,7.8-49.71,15.6-74.57,23.4-3.67,1.15-2.1,6.95,1.6,5.79,24.86-7.8,49.71-15.6,74.57-23.4,3.67-1.15,2.1-6.95-1.6-5.79h0Z"/>
      <path class="cls-2" d="M174.08,157.38c2.86,0,6.3-1.71,9.06-2.54,4.14-1.23,8.27-2.49,12.4-3.76,8.69-2.68,17.36-5.45,25.99-8.31,17.26-5.72,34.4-11.8,51.42-18.22,3.58-1.35,2.03-7.15-1.6-5.79-16.41,6.19-32.93,12.07-49.57,17.6-8.01,2.67-16.05,5.26-24.12,7.77-4.21,1.31-8.43,2.61-12.65,3.88-3.21.97-7.71,3.36-10.93,3.36-3.86,0-3.87,6,0,6h0Z"/>
      <path class="cls-2" d="M97.27,171.21c-27.82,6.34-55.83,11.89-84,16.4-3.8.61-2.19,6.39,1.6,5.79,28.17-4.51,56.18-10.06,84-16.4,3.76-.86,2.17-6.64-1.6-5.79h0Z"/>
      <path class="cls-2" d="M97.37,177.89c-24.89,9.22-49.78,18.44-74.67,27.66-3.59,1.33-2.04,7.13,1.6,5.79,24.89-9.22,49.78-18.44,74.67-27.66,3.59-1.33,2.04-7.13-1.6-5.79h0Z"/>
      <path class="cls-2" d="M181.64,152.86c2.46,0,5.56-1.87,7.78-2.69,3.53-1.31,7.06-2.61,10.58-3.92,8.17-3.03,16.35-6.06,24.52-9.09,15.92-5.9,31.84-11.79,47.76-17.7,3.59-1.33,2.04-7.13-1.6-5.79-15.62,5.79-31.23,11.57-46.85,17.36-7.87,2.92-15.74,5.83-23.61,8.75-3.55,1.32-7.11,2.64-10.66,3.95-1.74.64-3.48,1.29-5.21,1.93-1.16.43-2.32.86-3.47,1.29-1.2.47-.94.44.77-.1-3.86,0-3.87,6,0,6h0Z"/>
      <path class="cls-2" d="M13.1,189.16c28.61-8.17,57.14-16.64,85.56-25.47,3.68-1.14,2.11-6.94-1.6-5.79-28.42,8.83-56.95,17.3-85.56,25.47-3.71,1.06-2.13,6.85,1.6,5.79h0Z"/>
      <path class="cls-2" d="M267.99,100.37c-26.11,9.47-52.32,18.67-78.63,27.58-3.64,1.23-2.08,7.03,1.6,5.79,26.31-8.91,52.52-18.11,78.63-27.58,3.6-1.31,2.05-7.11-1.6-5.79h0Z"/>
      <path class="cls-2" d="M261.79,81.92c-34.9,8.09-69.59,17.07-104.04,26.92-3.71,1.06-2.13,6.85,1.6,5.79,34.45-9.85,69.14-18.83,104.04-26.92,3.76-.87,2.17-6.66-1.6-5.79h0Z"/>
      <path class="cls-2" d="M96.61,127.34c-30.92,9.9-61.61,20.5-92.05,31.81-3.59,1.33-2.04,7.13,1.6,5.79,30.44-11.31,61.13-21.91,92.05-31.81,3.66-1.17,2.1-6.97-1.6-5.79h0Z"/>
      <path class="cls-2" d="M29.66,219.28c78.71-19.58,158.53-34.8,238.98-45.15,3.78-.49,3.83-6.49,0-6-80.99,10.42-161.34,25.65-240.58,45.37-3.74.93-2.16,6.72,1.6,5.79h0Z"/>
      <path class="cls-2" d="M37.53,229.09c77.54-15.84,154.89-33.19,231.44-53.33,3.73-.98,2.15-6.77-1.6-5.79-76.55,20.14-153.9,37.49-231.44,53.33-3.78.77-2.18,6.56,1.6,5.79h0Z"/>
      <path class="cls-2" d="M262.38,92.06h0c.73-.95,1.47-1.92,2.2-2.88-28.31,10.87-56.6,21.81-84.79,32.99-3.55,1.41-2,7.21,1.6,5.79,28.19-11.18,56.48-22.12,84.79-32.99,1.25-.48,2.2-1.48,2.2-2.89h0c0-3.87-6-3.88-6-.01h0Z"/>
      <path class="cls-2" d="M97.03,155.25c-27.71,11.24-55.43,22.49-83,34.08-3.51,1.47-1.97,7.28,1.6,5.79,27.57-11.59,55.29-22.84,83-34.08,3.53-1.43,1.99-7.24-1.6-5.79h0Z"/>
      <path class="cls-2" d="M96.67,131.66c-30.7,9.63-61.18,19.95-91.42,30.96-3.6,1.31-2.05,7.11,1.6,5.79,30.24-11.01,60.72-21.33,91.42-30.96,3.67-1.15,2.1-6.95-1.6-5.79h0Z"/>
      <path class="cls-2" d="M164.54,117.87c33.42-9.11,66.96-17.7,100.75-25.33,3.76-.85,2.17-6.64-1.6-5.79-33.79,7.63-67.33,16.22-100.75,25.33-3.72,1.01-2.14,6.8,1.6,5.79h0Z"/>
      <path class="cls-2" d="M269.05,104.82c-28.42,6.07-56.71,12.77-84.85,20.01-3.74.96-2.15,6.75,1.6,5.79,28.14-7.24,56.43-13.94,84.85-20.01,3.77-.81,2.18-6.59-1.6-5.79h0Z"/>
      <path class="cls-2" d="M96.94,149.34c-29.34,8.91-58.47,18.5-87.39,28.69-3.62,1.27-2.06,7.07,1.6,5.79,28.92-10.19,58.05-19.78,87.39-28.69,3.68-1.12,2.11-6.91-1.6-5.79h0Z"/>
      <path class="cls-2" d="M272.07,127.77c-23.35,8.66-46.78,17.08-70.3,25.25-11.65,4.05-23.32,8.04-35.01,11.98-5.84,1.97-11.69,3.92-17.54,5.86-3.08,1.02-6.16,2.04-9.24,3.05-2.41.79-6.03,2.92-8.46,2.92-3.86,0-3.87,6,0,6,2.08,0,4.41-1.28,6.36-1.92,3.08-1.01,6.17-2.02,9.25-3.04,6.16-2.03,12.32-4.08,18.47-6.15,11.99-4.03,23.96-8.12,35.92-12.26,24.14-8.38,48.2-17.01,72.16-25.9,3.59-1.33,2.04-7.13-1.6-5.79h0Z"/>
      <path class="cls-2" d="M97.51,187.57c-24,7.56-48.08,14.88-72.23,21.95-3.7,1.08-2.12,6.88,1.6,5.79,24.15-7.07,48.23-14.39,72.23-21.95,3.67-1.16,2.1-6.95-1.6-5.79h0Z"/>
      <path class="cls-2" d="M13.49,190.11c28.84-11.7,57.42-24.05,85.73-36.99,3.51-1.6.46-6.78-3.03-5.18-27.83,12.73-55.93,24.88-84.29,36.39-3.53,1.43-1.99,7.24,1.6,5.79h0Z"/>
      <path class="cls-2" d="M168.99,119.72c29.73-14.83,59.09-30.42,88.1-46.61,3.37-1.88.35-7.07-3.03-5.18-29.01,16.19-58.37,31.78-88.1,46.61-3.46,1.72-.42,6.9,3.03,5.18h0Z"/>
      <path class="cls-2" d="M251.92,62.82c-39.88,9.17-79.47,19.55-118.71,31.18-3.69,1.09-2.12,6.89,1.6,5.79,39.24-11.63,78.83-22.01,118.71-31.18,3.76-.86,2.17-6.65-1.6-5.79h0Z"/>
      <path class="cls-2" d="M96.28,105.36c-31.6,10.08-62.95,20.95-94,32.61-3.58,1.34-2.03,7.15,1.6,5.79,31.05-11.66,62.4-22.53,94-32.61,3.66-1.17,2.1-6.96-1.6-5.79h0Z"/>
      <path class="cls-2" d="M271.19,117.23c-14.57,4.83-29.15,9.59-43.77,14.27-7.14,2.29-14.29,4.55-21.44,6.8-3.73,1.17-7.47,2.34-11.2,3.51-2.83.88-7.36,3.3-10.2,3.3-3.86,0-3.87,6,0,6,2.63,0,5.64-1.6,8.13-2.38,3.71-1.15,7.42-2.31,11.13-3.47,7.78-2.44,15.55-4.9,23.31-7.38,15.24-4.87,30.45-9.83,45.63-14.86,3.65-1.21,2.08-7.01-1.6-5.79h0Z"/>
      <path class="cls-2" d="M97.26,171c-27.01,7.77-54.11,15.25-81.27,22.5-3.73,1-2.15,6.78,1.6,5.79,27.16-7.25,54.26-14.73,81.27-22.5,3.7-1.07,2.13-6.86-1.6-5.79h0Z"/>
      <path class="cls-2" d="M267.88,99.97c-31.23,5.5-62.29,11.87-93.16,19.13-3.76.88-2.17,6.67,1.6,5.79,30.87-7.26,61.93-13.63,93.16-19.13,3.8-.67,2.19-6.45-1.6-5.79h0Z"/>
      <path class="cls-2" d="M96.79,139.52c-30.33,8.71-60.39,18.39-90.15,28.88-3.62,1.27-2.06,7.07,1.6,5.79,29.76-10.49,59.82-20.17,90.15-28.88,3.7-1.06,2.13-6.86-1.6-5.79h0Z"/>
      <path class="cls-2" d="M165.26,117.56c30.93-13.75,62.84-25.63,94.17-38.44,3.53-1.44,1.98-7.25-1.6-5.79-31.81,13.01-64.2,25.08-95.61,39.04-3.52,1.57-.47,6.74,3.03,5.18h0Z"/>
      <path class="cls-2" d="M96.79,139.09c-29.43,11.95-58.81,23.99-88.21,36-3.53,1.44-1.98,7.25,1.6,5.79,29.4-12.01,58.78-24.05,88.21-36,3.53-1.43,1.99-7.24-1.6-5.79h0Z"/>
      <path class="cls-2" d="M9.93,180.15c29.51-11.87,58.96-23.87,88.44-35.81,3.53-1.43,1.99-7.24-1.6-5.79-29.48,11.94-58.93,23.94-88.44,35.81-3.54,1.42-1.99,7.23,1.6,5.79h0Z"/>
      <path class="cls-2" d="M164.3,117.63c31.71-12.83,63.42-25.68,95.12-38.52,3.53-1.43,1.99-7.24-1.6-5.79-31.7,12.84-63.41,25.69-95.12,38.52-3.53,1.43-1.99,7.24,1.6,5.79h0Z"/>
      <path class="cls-2" d="M262.07,84.67c-27.25,13.3-54.88,25.87-82.67,38-3.53,1.54-.48,6.71,3.03,5.18,27.79-12.13,55.42-24.7,82.67-38,3.47-1.69.43-6.87-3.03-5.18h0Z"/>
      <path class="cls-2" d="M97.05,156.62c-27.74,10.84-55.71,21.09-83.86,30.81-3.63,1.25-2.07,7.05,1.6,5.79,28.15-9.72,56.12-19.97,83.86-30.81,3.56-1.39,2.01-7.19-1.6-5.79h0Z"/>
      <path class="cls-2" d="M4.39,152.47c31.09-9.38,62.36-18.17,93.7-26.67,3.72-1.01,2.14-6.8-1.6-5.79-31.34,8.5-62.61,17.29-93.7,26.67-3.69,1.11-2.12,6.9,1.6,5.79h0Z"/>
      <path class="cls-2" d="M153.67,111.2c36.08-9.19,72.28-17.91,108.62-26.02,3.77-.84,2.17-6.63-1.6-5.79-36.34,8.11-72.54,16.83-108.62,26.02-3.74.95-2.15,6.74,1.6,5.79h0Z"/>
      <path class="cls-2" d="M246.33,54.52c-37.44,12.75-74.63,26.2-111.53,40.44-3.56,1.38-2.02,7.18,1.6,5.79,36.9-14.24,74.09-27.69,111.53-40.44,3.63-1.24,2.07-7.03-1.6-5.79h0Z"/>
      <path class="cls-2" d="M96.35,110.08c-31.55,12.68-62.88,25.89-93.99,39.62-3.52,1.56-.48,6.73,3.03,5.18,30.63-13.53,61.49-26.53,92.55-39.02,3.54-1.42,1.99-7.23-1.6-5.79h0Z"/>
      <path class="cls-2" d="M253.67,65.7c-17.14,6.63-34.32,13.17-51.53,19.62-8.61,3.22-17.22,6.43-25.84,9.6-4.31,1.59-8.62,3.17-12.94,4.75-1.85.68-3.7,1.35-5.55,2.03-1.68.61-4.91,2.58-6.62,2.58-3.86,0-3.87,6,0,6,3.36,0,7.83-2.66,10.99-3.81,4.62-1.69,9.25-3.38,13.87-5.08,8.62-3.18,17.24-6.37,25.85-9.59,17.83-6.67,35.62-13.45,53.38-20.31,3.56-1.38,2.02-7.18-1.6-5.79h0Z"/>
      <path class="cls-2" d="M96.55,123.6c-30.8,10.79-61.7,21.3-92.69,31.52-3.65,1.2-2.09,7,1.6,5.79,30.99-10.22,61.89-20.73,92.69-31.52,3.62-1.27,2.06-7.07-1.6-5.79h0Z"/>
      <path class="cls-2" d="M224.45,31c-41.29,15.01-83.19,28.51-124.76,42.73-3.63,1.24-2.07,7.04,1.6,5.79,41.57-14.22,83.47-27.72,124.76-42.73,3.6-1.31,2.05-7.11-1.6-5.79h0Z"/>
      <path class="cls-2" d="M96.63,74.94c-2.96,0-6.56,2.08-9.31,3.02l-11.34,3.88c-7.88,2.7-15.75,5.4-23.62,8.09-15.75,5.4-31.5,10.79-47.25,16.19-3.63,1.24-2.07,7.04,1.6,5.79,15.12-5.18,30.24-10.36,45.36-15.54l22.68-7.77,10.39-3.56,5.67-1.94c1.58-.54,4.25-2.16,5.83-2.16,3.86,0,3.87-6,0-6h0Z"/>
      <path class="cls-2" d="M5.18,152.83c31.08-15.21,62.24-30.26,93.36-45.4,3.47-1.69.43-6.86-3.03-5.18-31.12,15.14-62.28,30.19-93.36,45.4-3.47,1.7-.43,6.87,3.03,5.18h0Z"/>
      <path class="cls-2" d="M229.93,36.9c-35.54,17.28-71.09,34.56-106.63,51.84-3.47,1.69-.43,6.86,3.03,5.18,35.54-17.28,71.09-34.56,106.63-51.84,3.47-1.69.43-6.86-3.03-5.18h0Z"/>
      <path class="cls-2" d="M219.63,27.11c-19.32,7.44-38.48,15.29-57.45,23.56-9.57,4.17-19.08,8.44-28.56,12.82-4.73,2.19-9.45,4.4-14.16,6.64-2.35,1.12-4.71,2.25-7.05,3.38-1.36.65-5.24,3.44-6.41,3.44-3.86,0-3.87,6,0,6,3.17,0,7.51-3.33,10.32-4.69,4.99-2.41,10-4.78,15.01-7.13,9.74-4.56,19.54-9,29.39-13.33,19.97-8.78,40.14-17.08,60.5-24.91,3.57-1.37,2.02-7.18-1.6-5.79h0Z"/>
      <path class="cls-2" d="M4.54,138.44c30.6-18.24,61.84-35.36,93.7-51.3,3.45-1.73.42-6.91-3.03-5.18-31.86,15.94-63.1,33.06-93.7,51.3-3.31,1.98-.3,7.16,3.03,5.18h0Z"/>
      <path class="cls-2" d="M221.27,28.39C149.33,53.7,77.41,79.05,5.49,104.38c-3.62,1.27-2.06,7.07,1.6,5.79,71.93-25.33,143.85-50.68,215.78-75.99,3.62-1.27,2.06-7.07-1.6-5.79h0Z"/>
      <path class="cls-2" d="M17.89,79.73c63.84-21.06,128.75-38.77,194.42-53.16,3.77-.83,2.17-6.61-1.6-5.79-65.67,14.39-130.58,32.1-194.42,53.16-3.65,1.2-2.09,7,1.6,5.79h0Z"/>
      <path class="cls-2" d="M223.71,31.29c-36.73,16.53-72.76,34.83-109.09,52.21-3.48,1.67-.44,6.84,3.03,5.18,36.33-17.38,72.36-35.68,109.09-52.21,3.52-1.58.47-6.75-3.03-5.18h0Z"/>
      <path class="cls-2" d="M95.37,92.72c-31.28,14.96-62.55,29.94-93.83,44.91-3.48,1.67-.44,6.84,3.03,5.18,31.28-14.97,62.55-29.95,93.83-44.91,3.48-1.67.44-6.84-3.03-5.18h0Z"/>
      <path class="cls-2" d="M152.71.3C110.04,19.84,67.32,39.26,24.64,58.75c-3.51,1.6-.46,6.77,3.03,5.18C70.35,44.44,113.07,25.02,155.74,5.48c3.51-1.61.46-6.78-3.03-5.18h0Z"/>
      <path class="cls-2" d="M31.65,57.71C77.61,41.25,123.56,24.79,169.51,8.34c3.61-1.29,2.05-7.09-1.6-5.79C121.96,19.01,76.01,35.47,30.06,51.92c-3.61,1.29-2.05,7.09,1.6,5.79h0Z"/>
      <path class="cls-2" d="M51.56,36.81c35.82-10.16,71.63-20.34,107.46-30.47,3.71-1.05,2.13-6.84-1.6-5.79-35.83,10.13-71.64,20.31-107.46,30.47-3.71,1.05-2.13,6.84,1.6,5.79h0Z"/>
      <path class="cls-2" d="M13.1,93.63h0c-.73.95-1.47,1.92-2.2,2.88,65.01-24.6,130.03-49.2,195.03-73.84,3.58-1.36,2.03-7.16-1.6-5.79C139.33,41.53,74.32,66.13,9.31,90.73c-1.25.47-2.2,1.48-2.2,2.89h0c0,3.87,6,3.88,6,0h0Z"/>
      <path class="cls-2" d="M194.38,11.7C137.2,28.56,80.03,45.42,22.86,62.28c-3.7,1.09-2.12,6.88,1.6,5.79,57.17-16.86,114.35-33.72,171.52-50.58,3.7-1.09,2.12-6.88-1.6-5.79h0Z"/>
      <path class="cls-2" d="M192.5,10.84c-52.03,11.15-104.07,22.28-156.1,33.42-3.77.81-2.18,6.59,1.6,5.79,52.03-11.14,104.07-22.27,156.1-33.42,3.77-.81,2.18-6.59-1.6-5.79h0Z"/>
      <path class="cls-2" d="M206.27,18.01C140.55,42.43,74.84,66.85,9.13,91.27c-3.59,1.33-2.04,7.13,1.6,5.79,65.71-24.42,131.43-48.84,197.14-73.26,3.59-1.33,2.04-7.13-1.6-5.79h0Z"/>
      <path class="cls-2" d="M117.11,5.26c-21,7.46-42,14.93-63,22.38-3.61,1.28-2.06,7.08,1.6,5.79,21-7.45,42-14.92,63-22.38,3.61-1.28,2.06-7.08-1.6-5.79h0Z"/>
    </g>
  </g>
</svg>