<?xml version="1.0" encoding="UTF-8"?>
<svg id="Capa_2" data-name="Capa 2" xmlns="http://www.w3.org/2000/svg" viewBox="0 0 440.55 254.23">
  <g id="Capa_1-2" data-name="Capa 1">
    <path d="M256.58,3v2c1.58-.15,3.59.23,4.99,0,.55-.09.86-.89,1.42-1,1.85-.36,2.06.77,2.85,1s1.89-.18,2.14,0c.27.19-.27,1.81,0,2s2.58-.19,2.85,0c.43.3-1.17,4.26,4.99,1l5.7,4h1.42c1.9-1.83,5.56-.68,8.55-1,.53-.06.89-.94,1.42-1,7.05-.73,14.36,2.85,19.95,2s3.29-3.04,12.82-1c3.17.68,6.8-2.68,9.97-2,2.2.47,3.69.62,5.7,1,1.86.36,4.09,2.61,7.12,2,2.32-.47,1.95-2.87,2.14-3,1.17-.82,3.29.95,3.56,1,1.16.23,4.96-1.84,7.84-1,.71.41-1.43,1.25-1.42,1.5,0,.32,5.97,4.42,6.41,4.5,3.51.68,5.38-1,5.7-1,3.5,0,10.8,2.41,14.25,2,4.53-.55,3.6,1.47,7.12,2,2.04.31,4.95-.25,7.12,0,7.6.89,16.56,2.13,27.07,2,1.72,1.54,11.2,1.3,12.11,3.5.82,1.98-1.33,2.66-1.42,3-.63,2.21,1.75,4.1-2.85,3.5l1.42,1.5c-3.29,1.67-.2,2.38,0,3,1.02,3.19-.64,7.28,0,10,1.89,7.98-1.92,15.89,0,24,.81,3.4-.93,10.1,0,13,1.68,5.26,1.01,19.27,0,25-1.14,6.46,2.98,12.44,1.42,19-.5,2.13-2.19,11.7-1.42,14,1.34,4.04,2.73,17.9,1.42,22-1.99,6.24,1.92,13.99,0,20-2.25,7.06,1.49,15.56-1.42,23-.54,1.38,2.04,11.62,1.42,14-1.1,4.24-.14,8.97-1.42,13-.76,2.39.81,13.93,0,14.5-.27.19-2.58-.19-2.85,0s.27,1.81,0,2c-.23.16-5.25.13-6.41,0-.54-.06-.91-.96-1.42-1-9.35-.72-18.43-1.12-24.22,0-.85.16-12.19-1.74-17.1-1-1.52.23-4.52,2.78-7.12,2l-4.27-2c-1.51.94-2.59,1.5-2.14,3-3.16-1.68-6.71.14-5.7-3-3.48-.4-5.64,1.59-9.26,1-7.33-1.2-27.56-1.94-35.62-1-1.55.18.39.91-2.85,0s-1.86,1.81-2.14,2c-1.17.82-3.18-.91-3.56-1-1.25-.3-3.12.52-4.27-1-1.06.5-3.78,3-4.27,3s-.95-1-1.42-1-.95,1-1.42,1c-.76,0,.09-.34-2.85,0-3.67.43-9.14.26-11.4,0-5.07-.59-12.09.62-17.1,0-.5-.06-.81-.82-1.42-1-1.45-.42-2.71.91-2.14-2-3.46,2.04-3.88.17-4.99,0-4.31-.68-7.53,1.81-6.41-3-2.55-.73-4.31,2.01-4.99,2-.48,0-.95-1-1.42-1-.31,0-2.07,1.59-5.7,1s-7.49-.52-9.97-1c-.78-.15-2.29-2-2.85-2-.47,0-.84.89-1.42,1-.93.17-2.07-.21-2.85,0-1.26.34-5.26,2.81-6.41,2,.65-1.55-3.04-4.38-4.99-4-1.59.31-1.19,1.78-4.27-1-3.34,1.72-5.35,0-5.7,0-.26,0-3.66,1.88-4.27,2-2.83.54-6.72-.79-6.41,3-.58.5-1.61-.9-2.14-1-1.88-.36-2.17.85-2.85,1-3.34.76-4.88,0-5.7,0-.42,0-6.71,3-7.12,3-.37,0-.99-1.36-2.85-1-4.23.82-2.27-.6-4.27-1-3.05-.62-5.45,1.74-7.12,2-3.16.49-4.08-.7-8.55,0-2.76.43-5.87-.92-7.84,1.5-.38.47.27,1.31,0,1.5-.23.16-5.54.17-6.41,0-.78-.15-2.29-2-2.85-2s-2.07,1.85-2.85,2c-3.14.61-9.13-.43-12.82,0-.55.06-.95,1-1.42,1-.42,0-6.71-2-7.12-2-.47,0-.95,1-1.42,1-.36,0-.99-1.36-2.85-1-1,.19-3.27,2.81-4.27,3-3.78.73-15.36-7.65-18.52-8.16-4.57-.75-7.18,2.79-6.41-1-2.11-.55-3.32,1.01-3.56,1-.49-.01-.95-1-1.42-1-1.06,0,0,1.82-4.27,1-2.4-.46-4.26,2.71-5.7,3-.88.18-1.97-.18-2.85,0-1.22.25-4.26-4.63-3.56-3.53l-3.56-2c-.51,0-3.12,2.46-4.27,3-1.39.65-10.76,4.12-11.4,4-4.46-.86-5.25,1.36-7.12,1-4.76-.92-4.21,2.56-7.12,2-4.52-.87-6.9-1.3-11.4,1-3.88.18-8.44,2.73-9.26-1.5-.38-1.96-.45-7.12,0-9,.93-3.91,1.28-1.19,0-7.31-.86-4.11-2.97-22.14-1.42-27,1.91-6-1.76-17.56,0-25,1.04-4.4-1.75-12.52,0-18,1.3-4.07,3.67-17.59,2.85-23-.37-2.46-1-6.2-1.42-8-1.34-5.66,1.77-13.47,0-19-1.21-3.79.46-9.88,0-15-.83-9.28-3.14-23.78-1.42-31,1.46-6.15-2.22-12.88,0-18,.81-1.86-2.22-8.65-1.42-12,1.31-5.55,0-11.28,0-16,0-.33,1.33-.62,1.42-1,.23-.95-.33-2.21,0-3,.16-.38,1.18-.58,1.42-1,.32-.54-.25-1.33,0-1.5.36-.25,3.66.22,4.99,0,3.67-.61,4.38-3.08,9.97-2,1.82.35,6.11-3.47,8.55-3,1.15.22,2.2,1.57,5.7,1s5.35-.5,8.55-1c6.2-.97,11.04,2.22,15.67,4,2.42-2.47,5.21-1,5.7-1,1.11,0,5.64-1.51,9.97-1,.55.06.95,1,1.42,1,.42,0,.79-.79,1.42-1,.45-.15,1.14.13,1.42,0,.69-.31,3.21-2.05,3.56-2.5.38-.47-.27-1.31,0-1.5.24-.17,1.33.2,2.14,0,.61-.16.97-1,1.42-1,.47,0,.88.93,1.42,1,1.34.16,2.99-.18,4.27,0,.55.08.97,1.36,2.85,1,.71-.14,1.87-1.6,2.85-2,.75-.31,3.46-.69,4.27-1,.98-.37,2.12-1.86,2.85-2,1.23-.24,7.06-.19,8.55,0,.61.08,5.35,2,5.7,2,.56,0,2.07-1.85,2.85-2,3.97-.77,10.13-1.52,12.82-1,.96.19,8.06-2,8.55-2,.56,0,2.07,1.85,2.85,2,1.42.27,13.03,1.14,14.25,1,.55-.06.95-1,1.42-1,.55,0,4.53,1.5,8.55,1,2.71-.34,11.39-4.55,14.25-4,8.67,1.68,10.24-.28,18.52-1,4-.35,9,.45,12.82,0,.55-.06.95-1,1.42-1,.56,0,2.07,1.85,2.85,2,5.84,1.13,11,.13,15.67,1,4.33.81,5.12-1,5.7-1,.48,0,.95,1,1.42,1s4.79-1.73,8.55-1c1.75.34,3.04,3.85,7.84,1Z"/>
  </g>
</svg>