<?xml version="1.0" encoding="UTF-8"?>
<svg id="Layer_1" data-name="Layer 1" xmlns="http://www.w3.org/2000/svg" viewBox="0 0 596.12 299.73">
  <defs>
    <style>
      .cls-1, .cls-2, .cls-3, .cls-4 {
        fill: #fff;
      }

      .cls-5, .cls-6, .cls-7, .cls-8 {
        fill: #231f20;
      }

      .cls-5, .cls-3 {
        font-size: 47px;
        letter-spacing: .08em;
      }

      .cls-5, .cls-3, .cls-4, .cls-7 {
        font-family: Haettenschweiler, Haettenschweiler;
      }

      .cls-9 {
        fill: #666766;
      }

      .cls-2, .cls-6 {
        stroke: #231f20;
        stroke-miterlimit: 10;
      }

      .cls-4, .cls-7 {
        font-size: 58px;
        letter-spacing: .07em;
      }

      .cls-10 {
        fill: #010101;
      }
    </style>
  </defs>
  <g>
    <rect class="cls-2" x="340.5" y=".5" width="255.12" height="141.73"/>
    <g>
      <text class="cls-5" transform="translate(365.14 64.7)"><tspan x="0" y="0">OCEAN</tspan></text>
      <text class="cls-7" transform="translate(366.12 110.77)"><tspan x="0" y="0">ROCK</tspan></text>
    </g>
    <g>
      <path class="cls-10" d="m562.21,86.24c-17.31,35.19-32.06,33.54-32.06,33.54-6.14,0-18.53-6.14-32.23-33.54-11.82-23.63-9.85-35.28-9.39-38.02,4.25-25.27,37.15-25.32,41.62-25.27.31,0,35.72-1.18,41.15,22.91.71,3.13,3.58,14.63-9.09,40.39Z"/>
      <g>
        <path class="cls-1" d="m548.34,63.79c-.93,0-1.85-.03-2.76-.09-1.46-.09-2.9-.26-4.29-.5-3.21-.55-6.62-2.55-7.01-5.78-.24-1.94.91-3.25,2.15-3.69.44-.16.96-.24,1.53-.24,1.99,0,4.13.94,4.83,1.25.21.09.23.1.28.1.24-.13.47-.39.28-1.01-.58-1.93-4.29-5.38-9.61-5.38-3.94,0-7.98,1.83-12,5.43-3.45,3.1-7.71,5.02-12.31,5.57-3.83.46-7.94,1.17-12.19,2.13,0-.21,0-.42,0-.63,0-16.22,11.58-29.97,27.55-32.7,1.84-.32,3.74-.48,5.62-.48,2.79,0,5.56.35,8.22,1.03,14.69,3.75,24.95,16.96,24.95,32.14,0,.17,0,.35,0,.52l-.13.04c-2.75.79-5.49,1.39-8.17,1.77-2.35.34-4.69.51-6.94.51Z"/>
        <path class="cls-1" d="m530.42,27.94c2.77,0,5.53.34,8.18,1.02,14.62,3.73,24.83,16.88,24.83,31.99,0,.13,0,.27,0,.4h-.02c-2.74.8-5.48,1.39-8.15,1.77-2.34.34-4.67.51-6.91.51-.92,0-1.85-.03-2.75-.09-1.45-.09-2.89-.26-4.27-.5-3.15-.54-6.49-2.5-6.88-5.64-.23-1.85.86-3.1,2.04-3.52.43-.15.92-.23,1.48-.23,1.96,0,4.07.93,4.77,1.24.23.1.27.12.35.12h.1s.08-.05.08-.05c.19-.13.47-.44.26-1.17-.59-1.97-4.37-5.5-9.77-5.5-3.98,0-8.05,1.84-12.1,5.47-3.43,3.07-7.65,4.98-12.22,5.53-3.78.45-7.82,1.15-12.01,2.09,0-.14,0-.29,0-.43,0-16.14,11.53-29.83,27.41-32.54,1.83-.32,3.72-.48,5.6-.48m0-.32c-1.93,0-3.82.16-5.65.48-15.72,2.68-27.68,16.37-27.68,32.85,0,.28,0,.56,0,.83.05-.01.1-.02.15-.04,3.78-.86,7.95-1.63,12.21-2.14,4.61-.55,8.93-2.51,12.39-5.61,4.49-4.02,8.55-5.39,11.89-5.39,6.61,0,10.44,5.34,9.34,6.07,0,0,0,0,0,0-.08,0-2.72-1.35-5.12-1.35-.55,0-1.09.07-1.59.25-1.3.47-2.51,1.83-2.25,3.86.41,3.28,3.89,5.36,7.15,5.92,1.44.25,2.88.41,4.31.5.93.06,1.85.09,2.77.09,2.39,0,4.73-.19,6.96-.51,2.94-.42,5.71-1.06,8.19-1.77.08-.02.17-.05.25-.07,0-.21,0-.43,0-.64,0-15.56-10.66-28.63-25.07-32.3-2.64-.68-5.41-1.03-8.26-1.03h0Z"/>
      </g>
      <g>
        <g>
          <path class="cls-1" d="m530.41,94.12c-17.22,0-31.39-12.88-33.02-29.99,8.02-1.81,15.31-2.72,21.66-2.72,5.94,0,11.04.81,15.16,2.42,4.3,1.68,9.05,2.53,14.11,2.53h0c4.81,0,9.89-.76,15.11-2.26-1.59,16.85-16.05,30.02-33.02,30.02Z"/>
          <path class="cls-1" d="m519.05,61.25v.32c5.92,0,11,.81,15.1,2.41,4.32,1.69,9.09,2.54,14.17,2.54,4.76,0,9.78-.74,14.93-2.2-.81,8.01-4.52,15.42-10.48,20.91-6.11,5.63-14.05,8.73-22.36,8.73s-16.22-3.08-22.32-8.69c-5.99-5.5-9.73-12.96-10.53-21.01,7.95-1.78,15.18-2.69,21.49-2.69v-.32m0,0c-7.44,0-15.22,1.26-21.83,2.76,1.54,16.98,15.81,30.27,33.19,30.27s31.72-13.36,33.21-30.4c-4.4,1.28-9.69,2.32-15.3,2.32-4.58,0-9.37-.69-14.05-2.52-4.5-1.75-9.77-2.43-15.22-2.43h0Z"/>
        </g>
        <g>
          <path class="cls-10" d="m532.68,87.92c-1.17,0-2.13-.31-2.84-.91-.02-.16-.04-.54.24-.92.43-.58,1.39-.91,2.77-.97.09,0,.18,0,.27,0,1.01,0,1.69.25,2.02.73.39.57.2,1.35.11,1.64-.35.12-1.4.43-2.57.43Z"/>
          <path class="cls-10" d="m533.13,85.4c.62,0,1.44.1,1.78.6.25.37.2.92.11,1.26-.42.13-1.33.37-2.34.37s-1.91-.26-2.56-.77c0-.14.03-.37.19-.6.26-.36.91-.79,2.56-.86.09,0,.18,0,.26,0m0-.57c-.09,0-.18,0-.28,0-3.87.16-3.27,2.33-3.27,2.33.9.81,2.05,1.05,3.1,1.05,1.51,0,2.8-.49,2.8-.49,0,0,1.18-2.89-2.35-2.89h0Z"/>
        </g>
        <g>
          <path class="cls-10" d="m535.66,92.5c-1.09,0-2.24-.61-2.57-.81,0-.03.01-.08.04-.15.11-.24.53-.73,2.09-1.28.44-.15.83-.23,1.15-.23.37,0,.66.1.87.31.29.29.34.72.35.86-.37.87-1,1.3-1.92,1.3Z"/>
          <path class="cls-10" d="m536.36,90.32c.75,0,.9.52.92.83-.33.73-.85,1.07-1.63,1.07-.85,0-1.75-.41-2.21-.65.15-.2.59-.58,1.86-1.03.41-.14.76-.22,1.06-.22m0-.57c-.34,0-.74.07-1.25.25-2.79.98-2.28,1.88-2.28,1.88,0,0,1.43.91,2.82.91.87,0,1.73-.36,2.21-1.53,0,0,.03-1.51-1.5-1.51h0Z"/>
        </g>
        <g>
          <path class="cls-10" d="m527.32,92.47c-1.33,0-3.12-.17-4.11-.97-.77-.63-.77-.94-.75-1.02.03-.13.2-.22.33-.27.19.06.49.09.9.09.6,0,1.39-.06,2.38-.18.23-.03.46-.04.67-.04,1.95,0,2.89,1.12,3.09,1.38.03.73-.86.92-.9.93h0s-.69.08-1.6.08h0Z"/>
          <path class="cls-10" d="m526.73,90.37c1.66,0,2.53.87,2.8,1.19-.05.37-.53.52-.65.55-.14.02-.76.08-1.56.08-1.81,0-3.21-.32-3.93-.91-.57-.46-.64-.7-.66-.71.01-.02.04-.04.08-.05.19.04.46.07.88.07.61,0,1.42-.06,2.41-.18.22-.03.43-.04.63-.04m0-.57c-.22,0-.46.01-.7.04-1.12.14-1.86.18-2.34.18-.75,0-.89-.1-.89-.1,0,0-1.57.35.23,1.81,1.06.86,2.93,1.04,4.29,1.04.95,0,1.65-.09,1.65-.09,0,0,1.25-.26,1.12-1.31,0,0-1-1.57-3.37-1.57h0Z"/>
        </g>
        <path class="cls-10" d="m503.16,64.69c1.74,10.22,8.47,18.8,17.13,24.21,0,0-.05.1-.05.1-4.89-1.85-9.08-5.41-11.83-9.84-2.74-4.26-5.01-9.57-5.26-14.46h0Z"/>
        <path class="cls-9" d="m509.93,66.34c1.35,8.08,6.5,14.99,13.32,19.37,0,0-.04.07-.04.07-7.72-3-12.58-11.63-13.28-19.44h0Z"/>
        <path class="cls-10" d="m557.95,67.3c-1.29,9.8-6.98,19.95-16.57,23.58,0,0-.05-.09-.05-.09,8.95-5.76,14.37-13.24,16.62-23.49h0Z"/>
        <path class="cls-10" d="m518.04,63.98c.92,7.85,4.7,14.82,8.53,21.6,0,0-.08.06-.08.06-2.82-2.81-4.81-6.36-6.08-10.12-1.25-3.64-2.5-7.87-2.37-11.54h0Z"/>
        <path class="cls-9" d="m524.88,66.26c-.03,4.67,1.29,9.14,2.7,13.55-2.43-3.65-3.03-9.27-2.7-13.55h0Z"/>
        <path class="cls-10" d="m544.93,67.25c-.52,6.64-2.45,13.69-7.1,18.66,0,0-.07-.05-.07-.05,1.57-2.98,3.16-5.86,4.48-8.95,1.34-3.04,2.06-6.57,2.7-9.66h0Z"/>
        <path class="cls-9" d="m550.13,69.41c-.47,6.05-2.23,12.48-6.47,17.01,0,0-.06-.05-.06-.05,3.02-5.37,5.63-10.95,6.54-16.96h0Z"/>
        <path class="cls-10" d="m530.16,64.74c.11,4.6.39,9.19.75,13.76.11,1.3-.01,3.26.45,4.48,0,0-.08.07-.08.07-1.83-2.59-1.54-6.07-1.58-9.09.01-3.08.14-6.16.36-9.22h.11Z"/>
        <path class="cls-9" d="m538.38,68.2c-.32,3.15-.59,6.33-1.34,9.41-.34,1-.62,2.13-1.45,2.86,0,0-.05-.06-.05-.06.75-1.91.92-4.05,1.51-6.04.52-1.99.76-4.32,1.33-6.18h0Z"/>
      </g>
    </g>
  </g>
  <g>
    <rect class="cls-6" x="340.5" y="157.5" width="255.12" height="141.73"/>
    <g>
      <text class="cls-3" transform="translate(362.64 223.72)"><tspan x="0" y="0">OCEAN</tspan></text>
      <text class="cls-4" transform="translate(363.62 268.87)"><tspan x="0" y="0">ROCK</tspan></text>
    </g>
    <g>
      <path class="cls-1" d="m560.21,243.24c-17.31,35.19-32.06,33.54-32.06,33.54-6.14,0-18.53-6.14-32.23-33.54-11.82-23.63-9.85-35.28-9.39-38.02,4.25-25.27,37.15-25.32,41.62-25.27.31,0,35.72-1.18,41.15,22.91.71,3.13,3.58,14.63-9.09,40.39Z"/>
      <g>
        <path class="cls-8" d="m546.35,220.79c-.93,0-1.86-.03-2.76-.09-1.46-.09-2.9-.26-4.29-.5-3.21-.55-6.62-2.55-7.01-5.78-.24-1.94.91-3.25,2.15-3.69.44-.16.96-.24,1.53-.24,1.99,0,4.13.94,4.83,1.25.21.09.23.1.28.1.24-.13.47-.39.28-1.01-.58-1.93-4.29-5.38-9.61-5.38-3.94,0-7.98,1.83-12,5.43-3.45,3.1-7.71,5.02-12.31,5.57-3.83.46-7.93,1.17-12.19,2.13,0-.21,0-.42,0-.63,0-16.22,11.58-29.97,27.55-32.7,1.84-.32,3.74-.48,5.62-.48,2.79,0,5.55.35,8.22,1.03,14.69,3.75,24.95,16.96,24.95,32.14,0,.17,0,.35,0,.52l-.13.04c-2.75.79-5.5,1.39-8.17,1.77-2.35.34-4.69.51-6.94.51Z"/>
        <path class="cls-8" d="m528.42,184.94c2.77,0,5.53.34,8.18,1.02,14.62,3.73,24.83,16.88,24.83,31.99,0,.13,0,.27,0,.4h-.02c-2.74.8-5.48,1.39-8.15,1.77-2.34.34-4.67.51-6.91.51-.92,0-1.85-.03-2.75-.09-1.45-.09-2.89-.26-4.27-.5-3.15-.54-6.49-2.5-6.88-5.64-.23-1.85.86-3.1,2.04-3.52.43-.15.92-.23,1.48-.23,1.96,0,4.07.93,4.77,1.24.23.1.27.12.35.12h.1s.08-.05.08-.05c.19-.13.47-.44.26-1.17-.59-1.97-4.37-5.5-9.77-5.5-3.98,0-8.05,1.84-12.1,5.47-3.43,3.07-7.65,4.98-12.22,5.53-3.78.45-7.82,1.15-12.01,2.09,0-.14,0-.29,0-.43,0-16.14,11.53-29.83,27.41-32.54,1.83-.32,3.72-.48,5.6-.48m0-.32c-1.93,0-3.82.16-5.65.48-15.72,2.68-27.68,16.37-27.68,32.85,0,.28,0,.56,0,.83.05-.01.1-.02.15-.04,3.78-.86,7.95-1.63,12.21-2.14,4.61-.55,8.93-2.51,12.39-5.61,4.49-4.02,8.55-5.39,11.89-5.39,6.61,0,10.44,5.34,9.34,6.07,0,0,0,0,0,0-.08,0-2.72-1.35-5.12-1.35-.55,0-1.09.07-1.59.25-1.3.47-2.51,1.83-2.25,3.86.41,3.28,3.89,5.36,7.15,5.92,1.44.25,2.88.41,4.31.5.93.06,1.85.09,2.77.09,2.39,0,4.73-.19,6.96-.51,2.94-.42,5.71-1.06,8.19-1.77.08-.02.17-.05.25-.07,0-.21,0-.43,0-.64,0-15.56-10.66-28.63-25.07-32.3-2.64-.68-5.41-1.03-8.26-1.03h0Z"/>
      </g>
      <g>
        <g>
          <path class="cls-8" d="m528.41,251.12c-17.22,0-31.39-12.88-33.02-29.99,8.02-1.81,15.31-2.72,21.66-2.72,5.94,0,11.04.81,15.16,2.42,4.3,1.68,9.05,2.53,14.11,2.53s9.89-.76,15.11-2.26c-1.59,16.85-16.05,30.02-33.02,30.02Z"/>
          <path class="cls-8" d="m517.05,218.25v.32c5.92,0,11,.81,15.1,2.41,4.32,1.69,9.09,2.54,14.17,2.54,4.76,0,9.78-.74,14.93-2.2-.81,8.01-4.52,15.42-10.48,20.91-6.11,5.63-14.05,8.73-22.36,8.73s-16.22-3.08-22.32-8.69c-5.99-5.5-9.73-12.96-10.53-21.01,7.95-1.78,15.18-2.69,21.49-2.69v-.32m0,0c-7.44,0-15.22,1.26-21.83,2.76,1.54,16.98,15.81,30.27,33.19,30.27s31.72-13.36,33.21-30.4c-4.4,1.28-9.69,2.32-15.3,2.32-4.58,0-9.37-.69-14.05-2.52-4.5-1.75-9.77-2.43-15.22-2.43h0Z"/>
        </g>
        <g>
          <path class="cls-1" d="m529.95,244.78c-1.09,0-1.97-.28-2.63-.84-.02-.15-.03-.5.23-.84.4-.53,1.29-.84,2.58-.9.09,0,.17,0,.25,0,.94,0,1.57.23,1.87.67.35.52.18,1.23.1,1.51-.33.11-1.3.4-2.39.4Z"/>
          <path class="cls-1" d="m530.37,242.49c.57,0,1.32.09,1.63.54.23.33.18.81.11,1.13-.4.12-1.24.34-2.15.34-.97,0-1.76-.23-2.35-.7,0-.13.03-.34.18-.53.24-.32.85-.71,2.35-.77.08,0,.16,0,.24,0m0-.57c-.08,0-.17,0-.26,0-3.61.15-3.05,2.17-3.05,2.17.84.76,1.92.98,2.9.98,1.41,0,2.61-.46,2.61-.46,0,0,1.1-2.7-2.19-2.7h0Z"/>
        </g>
        <g>
          <path class="cls-1" d="m533.66,249.5c-1.09,0-2.24-.62-2.57-.81,0-.03.01-.08.04-.15.11-.24.53-.73,2.09-1.28.44-.15.83-.23,1.15-.23.37,0,.67.1.87.31.29.29.34.72.35.86-.37.87-1,1.3-1.92,1.3h0Z"/>
          <path class="cls-1" d="m534.36,247.32c.75,0,.9.52.92.83-.33.73-.85,1.07-1.63,1.07-.85,0-1.75-.41-2.21-.65.15-.2.59-.58,1.86-1.03.41-.14.76-.22,1.06-.22m0-.57c-.34,0-.74.07-1.25.25-2.79.98-2.28,1.88-2.28,1.88,0,0,1.43.91,2.82.91.87,0,1.73-.36,2.21-1.53,0,0,.03-1.51-1.5-1.51h0Z"/>
        </g>
        <g>
          <path class="cls-1" d="m524.95,249.04c-1.24,0-2.91-.16-3.83-.91-.71-.58-.71-.86-.7-.93.03-.11.18-.2.29-.24.18.05.46.08.84.08.56,0,1.3-.06,2.22-.17.22-.03.42-.04.62-.04,1.8,0,2.68,1.03,2.87,1.28.03.66-.79.84-.83.85h0s-.65.08-1.49.08h0Z"/>
          <path class="cls-1" d="m524.4,247.13c1.52,0,2.32.78,2.57,1.09-.05.31-.46.44-.58.47-.13.01-.71.07-1.45.07-1.68,0-2.98-.3-3.65-.84-.42-.34-.55-.55-.58-.63,0,0,.01,0,.02-.01.18.04.43.06.81.06.57,0,1.33-.06,2.26-.17.2-.02.4-.04.59-.04m0-.57c-.21,0-.43.01-.66.04-1.05.13-1.74.17-2.19.17-.7,0-.83-.1-.83-.1,0,0-1.47.33.21,1.69.99.8,2.74.97,4.01.97.89,0,1.55-.08,1.55-.08,0,0,1.17-.25,1.05-1.23,0,0-.94-1.47-3.15-1.47h0Z"/>
        </g>
        <path class="cls-1" d="m501.16,221.69c1.74,10.22,8.47,18.8,17.13,24.21,0,0-.05.1-.05.1-4.89-1.85-9.08-5.41-11.83-9.84-2.74-4.26-5.01-9.57-5.26-14.46h0Z"/>
        <path class="cls-9" d="m507.93,223.34c1.35,8.08,6.5,14.99,13.32,19.37,0,0-.04.07-.04.07-7.72-3-12.58-11.63-13.28-19.44h0Z"/>
        <path class="cls-1" d="m555.95,225.3c-1.29,9.8-6.98,19.95-16.57,23.58,0,0-.05-.09-.05-.09,8.95-5.76,14.37-13.24,16.62-23.49h0Z"/>
        <path class="cls-1" d="m516.04,220.98c.92,7.85,4.7,14.82,8.53,21.6,0,0-.08.06-.08.06-2.82-2.81-4.81-6.36-6.08-10.12-1.25-3.64-2.5-7.87-2.37-11.54h0Z"/>
        <path class="cls-9" d="m522.88,223.26c-.03,4.67,1.29,9.14,2.7,13.55-2.43-3.65-3.03-9.27-2.7-13.55h0Z"/>
        <path class="cls-1" d="m542.93,224.25c-.52,6.64-2.45,13.69-7.1,18.66,0,0-.07-.05-.07-.05,1.57-2.98,3.16-5.86,4.48-8.95,1.34-3.04,2.06-6.57,2.7-9.66h0Z"/>
        <path class="cls-9" d="m546.94,227.41c-.38,4.81-1.71,10.59-5.35,13.84,1.1-2.26,2.28-4.39,3.28-6.68,1.02-2.24,1.54-4.91,2.07-7.17h0Z"/>
        <path class="cls-1" d="m528.16,221.74c.11,4.6.39,9.19.75,13.76.11,1.3-.01,3.26.45,4.48,0,0-.08.07-.08.07-1.83-2.59-1.54-6.07-1.58-9.09.01-3.08.14-6.16.36-9.22h.11Z"/>
        <path class="cls-9" d="m536.38,225.2c-.32,3.15-.59,6.33-1.34,9.41-.34,1-.62,2.13-1.45,2.86,0,0-.05-.06-.05-.06.75-1.91.92-4.05,1.51-6.04.52-1.99.76-4.32,1.33-6.18h0Z"/>
      </g>
    </g>
  </g>
  <g>
    <rect class="cls-2" x=".5" y=".5" width="255.12" height="141.73"/>
    <g>
      <text class="cls-5" transform="translate(126.81 67.72)"><tspan x="0" y="0">OCEAN</tspan></text>
      <text class="cls-7" transform="translate(127.79 112.87)"><tspan x="0" y="0">ROCK</tspan></text>
    </g>
    <g>
      <path class="cls-10" d="m96.21,86.24c-17.31,35.19-32.06,33.54-32.06,33.54-6.14,0-18.53-6.14-32.23-33.54-11.82-23.63-9.85-35.28-9.39-38.02,4.25-25.27,37.15-25.32,41.62-25.27.31,0,35.72-1.18,41.15,22.91.71,3.13,3.58,14.63-9.09,40.39Z"/>
      <g>
        <path class="cls-1" d="m82.34,63.79c-.93,0-1.85-.03-2.76-.09-1.46-.09-2.9-.26-4.29-.5-3.2-.55-6.62-2.55-7.02-5.78-.24-1.94.91-3.25,2.15-3.69.44-.16.96-.24,1.53-.24,1.99,0,4.13.94,4.84,1.25.21.09.23.1.28.1.24-.13.47-.39.28-1.01-.58-1.93-4.29-5.38-9.61-5.38-3.94,0-7.98,1.83-12,5.43-3.45,3.1-7.71,5.02-12.31,5.57-3.84.46-7.94,1.17-12.19,2.13,0-.21,0-.42,0-.63,0-16.22,11.59-29.97,27.55-32.7,1.85-.32,3.74-.48,5.63-.48,2.79,0,5.56.35,8.22,1.03,14.69,3.75,24.95,16.96,24.95,32.14v.52s-.14.04-.14.04c-2.75.79-5.5,1.39-8.17,1.77-2.35.34-4.69.51-6.94.51Z"/>
        <path class="cls-1" d="m64.42,27.94c2.77,0,5.53.34,8.18,1.02,14.62,3.73,24.83,16.88,24.83,31.99,0,.13,0,.27,0,.4h-.02c-2.74.8-5.48,1.39-8.15,1.77-2.34.34-4.67.51-6.91.51-.92,0-1.85-.03-2.75-.09-1.45-.09-2.89-.26-4.27-.5-3.15-.54-6.49-2.5-6.88-5.64-.23-1.85.86-3.1,2.04-3.52.43-.15.92-.23,1.48-.23,1.96,0,4.07.93,4.77,1.24.23.1.27.12.35.12h.1s.08-.05.08-.05c.19-.13.47-.44.26-1.17-.59-1.97-4.37-5.5-9.77-5.5-3.98,0-8.05,1.84-12.1,5.47-3.43,3.07-7.65,4.98-12.22,5.53-3.78.45-7.82,1.15-12.01,2.09,0-.14,0-.29,0-.43,0-16.14,11.53-29.83,27.41-32.54,1.83-.32,3.72-.48,5.6-.48m0-.32c-1.93,0-3.82.16-5.65.48-15.72,2.68-27.68,16.37-27.68,32.85,0,.28,0,.56,0,.83.05-.01.1-.02.15-.04,3.78-.86,7.95-1.63,12.21-2.14,4.61-.55,8.93-2.51,12.4-5.61,4.49-4.02,8.55-5.39,11.89-5.39,6.61,0,10.44,5.34,9.34,6.07,0,0,0,0,0,0-.08,0-2.72-1.35-5.12-1.35-.55,0-1.09.07-1.59.25-1.3.47-2.51,1.83-2.25,3.86.4,3.28,3.89,5.36,7.15,5.92,1.44.25,2.88.41,4.31.5.93.06,1.85.09,2.77.09,2.39,0,4.73-.19,6.96-.51,2.94-.42,5.71-1.06,8.19-1.77.08-.02.17-.05.25-.07,0-.21,0-.43,0-.64,0-15.56-10.66-28.63-25.07-32.3-2.64-.68-5.41-1.03-8.26-1.03h0Z"/>
      </g>
      <g>
        <g>
          <path class="cls-1" d="m64.41,94.12c-17.22,0-31.39-12.88-33.02-29.99,8.02-1.81,15.31-2.72,21.66-2.72,5.94,0,11.04.81,15.16,2.42,4.3,1.68,9.05,2.53,14.11,2.53h0c4.81,0,9.89-.76,15.11-2.26-1.59,16.85-16.05,30.02-33.02,30.02Z"/>
          <path class="cls-1" d="m53.05,61.25v.32c5.92,0,11,.81,15.1,2.41,4.32,1.69,9.09,2.54,14.17,2.54,4.76,0,9.78-.74,14.93-2.2-.81,8.01-4.52,15.42-10.48,20.91-6.11,5.63-14.05,8.73-22.36,8.73s-16.22-3.08-22.32-8.69c-5.99-5.5-9.73-12.96-10.53-21.01,7.95-1.78,15.18-2.69,21.49-2.69v-.32m0,0c-7.44,0-15.22,1.26-21.83,2.76,1.54,16.98,15.81,30.27,33.19,30.27s31.72-13.36,33.21-30.4c-4.4,1.28-9.69,2.32-15.3,2.32-4.58,0-9.37-.69-14.05-2.52-4.5-1.75-9.77-2.43-15.22-2.43h0Z"/>
        </g>
        <g>
          <path class="cls-10" d="m66.68,87.92c-1.17,0-2.13-.31-2.84-.91-.02-.16-.04-.54.24-.92.43-.58,1.39-.91,2.77-.97.09,0,.18,0,.27,0,1.01,0,1.69.25,2.02.73.38.57.2,1.35.11,1.65-.35.12-1.4.43-2.57.43Z"/>
          <path class="cls-10" d="m67.13,85.4c.62,0,1.44.1,1.78.6.25.37.2.92.11,1.26-.43.13-1.34.37-2.34.37-1.05,0-1.91-.26-2.56-.77,0-.14.03-.37.19-.6.26-.36.91-.79,2.56-.86.09,0,.18,0,.26,0m0-.57c-.09,0-.18,0-.28,0-3.87.16-3.27,2.33-3.27,2.33.9.81,2.05,1.05,3.1,1.05,1.51,0,2.8-.49,2.8-.49,0,0,1.18-2.89-2.35-2.89h0Z"/>
        </g>
        <g>
          <path class="cls-10" d="m69.66,92.5c-1.09,0-2.24-.61-2.57-.81,0-.03.01-.08.04-.15.11-.24.53-.73,2.09-1.28.44-.15.83-.23,1.15-.23.37,0,.66.1.87.31.29.29.34.72.35.86-.37.87-1,1.3-1.92,1.3Z"/>
          <path class="cls-10" d="m70.36,90.32c.75,0,.9.52.92.83-.33.73-.85,1.07-1.63,1.07-.85,0-1.75-.41-2.21-.65.15-.2.59-.58,1.86-1.03.41-.14.76-.22,1.06-.22m0-.57c-.34,0-.74.07-1.25.25-2.79.98-2.28,1.88-2.28,1.88,0,0,1.43.91,2.82.91.87,0,1.73-.36,2.21-1.53,0,0,.03-1.51-1.5-1.51h0Z"/>
        </g>
        <g>
          <path class="cls-10" d="m61.32,92.47c-1.33,0-3.12-.17-4.11-.97-.77-.63-.77-.94-.75-1.02.03-.13.2-.22.33-.27.19.06.49.09.9.09.6,0,1.39-.06,2.38-.18.23-.03.46-.04.67-.04,1.95,0,2.89,1.12,3.09,1.38.03.72-.86.92-.9.93h0s-.69.08-1.6.08h0Z"/>
          <path class="cls-10" d="m60.73,90.37c1.66,0,2.53.87,2.8,1.19-.05.37-.53.52-.65.55-.14.02-.76.08-1.56.08-1.81,0-3.21-.32-3.93-.91-.57-.46-.64-.7-.66-.71.01-.02.04-.04.08-.05.19.04.46.07.88.07.61,0,1.42-.06,2.41-.18.22-.03.43-.04.63-.04m0-.57c-.22,0-.46.01-.7.04-1.12.14-1.86.18-2.34.18-.75,0-.89-.1-.89-.1,0,0-1.57.35.23,1.81,1.06.86,2.93,1.04,4.29,1.04.95,0,1.65-.09,1.65-.09,0,0,1.25-.26,1.12-1.31,0,0-1-1.57-3.37-1.57h0Z"/>
        </g>
        <path class="cls-10" d="m37.16,64.69c1.74,10.22,8.47,18.8,17.13,24.21,0,0-.05.1-.05.1-4.89-1.85-9.08-5.41-11.83-9.84-2.74-4.26-5.01-9.57-5.26-14.46h0Z"/>
        <path class="cls-9" d="m43.93,66.34c1.35,8.08,6.5,14.99,13.32,19.37,0,0-.04.07-.04.07-7.72-3-12.58-11.63-13.28-19.44h0Z"/>
        <path class="cls-10" d="m91.95,67.3c-1.29,9.8-6.98,19.95-16.57,23.58,0,0-.05-.09-.05-.09,8.95-5.76,14.37-13.24,16.62-23.49h0Z"/>
        <path class="cls-10" d="m52.04,63.98c.92,7.85,4.7,14.82,8.53,21.6,0,0-.08.06-.08.06-2.82-2.81-4.81-6.36-6.08-10.12-1.25-3.64-2.5-7.87-2.37-11.54h0Z"/>
        <path class="cls-9" d="m58.88,66.26c-.03,4.67,1.29,9.14,2.7,13.55-2.43-3.65-3.03-9.27-2.7-13.55h0Z"/>
        <path class="cls-10" d="m78.93,67.25c-.52,6.64-2.45,13.69-7.1,18.66,0,0-.07-.05-.07-.05,1.57-2.98,3.16-5.86,4.48-8.95,1.34-3.04,2.06-6.57,2.7-9.66h0Z"/>
        <path class="cls-9" d="m84.13,69.41c-.47,6.05-2.23,12.48-6.47,17.01,0,0-.06-.05-.06-.05,3.02-5.37,5.63-10.95,6.54-16.96h0Z"/>
        <path class="cls-10" d="m64.16,64.74c.11,4.6.39,9.19.75,13.76.11,1.3-.01,3.26.45,4.48,0,0-.08.07-.08.07-1.83-2.59-1.54-6.07-1.58-9.09.01-3.08.14-6.16.36-9.22h.11Z"/>
        <path class="cls-9" d="m72.38,68.2c-.32,3.15-.59,6.33-1.34,9.41-.34,1-.62,2.13-1.45,2.86,0,0-.05-.06-.05-.06.75-1.91.92-4.05,1.51-6.04.52-1.99.76-4.32,1.33-6.18h0Z"/>
      </g>
    </g>
  </g>
  <rect class="cls-6" x=".5" y="157.5" width="255.12" height="141.73"/>
  <g>
    <text class="cls-3" transform="translate(127.81 222.22)"><tspan x="0" y="0">OCEAN</tspan></text>
    <text class="cls-4" transform="translate(128.79 267.37)"><tspan x="0" y="0">ROCK</tspan></text>
  </g>
  <g>
    <path class="cls-1" d="m98.21,243.24c-17.31,35.19-32.06,33.54-32.06,33.54-6.14,0-18.53-6.14-32.23-33.54-11.82-23.63-9.85-35.28-9.39-38.02,4.25-25.27,37.15-25.32,41.62-25.27.31,0,35.72-1.18,41.15,22.91.71,3.13,3.58,14.63-9.09,40.39Z"/>
    <g>
      <path class="cls-8" d="m84.35,220.79c-.93,0-1.86-.03-2.76-.09-1.46-.09-2.9-.26-4.29-.5-3.2-.55-6.62-2.55-7.02-5.78-.24-1.94.91-3.25,2.15-3.69.44-.16.96-.24,1.53-.24,1.99,0,4.13.94,4.84,1.25.21.09.23.1.28.1.24-.13.47-.39.28-1.01-.58-1.93-4.29-5.38-9.61-5.38-3.94,0-7.98,1.83-12,5.43-3.45,3.1-7.71,5.02-12.31,5.57-3.83.46-7.94,1.17-12.19,2.13,0-.21,0-.42,0-.63,0-16.22,11.59-29.97,27.55-32.7,1.84-.32,3.74-.48,5.63-.48,2.79,0,5.55.35,8.22,1.03,14.69,3.75,24.95,16.96,24.95,32.14v.52s-.14.04-.14.04c-2.75.79-5.5,1.39-8.17,1.77-2.35.34-4.69.51-6.94.51Z"/>
      <path class="cls-8" d="m66.42,184.94c2.77,0,5.53.34,8.18,1.02,14.62,3.73,24.83,16.88,24.83,31.99,0,.13,0,.27,0,.4h-.02c-2.74.8-5.48,1.39-8.15,1.77-2.34.34-4.67.51-6.91.51-.92,0-1.85-.03-2.75-.09-1.45-.09-2.89-.26-4.27-.5-3.15-.54-6.49-2.5-6.88-5.64-.23-1.85.86-3.1,2.04-3.52.43-.15.92-.23,1.48-.23,1.96,0,4.07.93,4.77,1.24.23.1.27.12.35.12h.1s.08-.05.08-.05c.19-.13.47-.44.26-1.17-.59-1.97-4.37-5.5-9.77-5.5-3.98,0-8.05,1.84-12.1,5.47-3.43,3.07-7.65,4.98-12.22,5.53-3.78.45-7.82,1.15-12.01,2.09,0-.14,0-.29,0-.43,0-16.14,11.53-29.83,27.41-32.54,1.83-.32,3.72-.48,5.6-.48m0-.32c-1.93,0-3.82.16-5.65.48-15.72,2.68-27.68,16.37-27.68,32.85,0,.28,0,.56,0,.83.05-.01.1-.02.15-.04,3.78-.86,7.95-1.63,12.21-2.14,4.61-.55,8.93-2.51,12.4-5.61,4.49-4.02,8.55-5.39,11.89-5.39,6.61,0,10.44,5.34,9.34,6.07,0,0,0,0,0,0-.08,0-2.72-1.35-5.12-1.35-.55,0-1.09.07-1.59.25-1.3.47-2.51,1.83-2.25,3.86.4,3.28,3.89,5.36,7.15,5.92,1.44.25,2.88.41,4.31.5.93.06,1.85.09,2.77.09,2.39,0,4.73-.19,6.96-.51,2.94-.42,5.71-1.06,8.19-1.77.08-.02.17-.05.25-.07,0-.21,0-.43,0-.64,0-15.56-10.66-28.63-25.07-32.3-2.64-.68-5.41-1.03-8.26-1.03h0Z"/>
    </g>
    <g>
      <g>
        <path class="cls-8" d="m66.41,251.12c-17.22,0-31.39-12.88-33.02-29.99,8.02-1.81,15.31-2.72,21.66-2.72,5.94,0,11.04.81,15.16,2.42,4.3,1.68,9.05,2.53,14.11,2.53s9.89-.76,15.11-2.26c-1.59,16.85-16.05,30.02-33.02,30.02Z"/>
        <path class="cls-8" d="m55.05,218.25v.32c5.92,0,11,.81,15.1,2.41,4.32,1.69,9.09,2.54,14.17,2.54,4.76,0,9.78-.74,14.93-2.2-.81,8.01-4.52,15.42-10.48,20.91-6.11,5.63-14.05,8.73-22.36,8.73s-16.22-3.08-22.32-8.69c-5.99-5.5-9.73-12.96-10.53-21.01,7.95-1.78,15.18-2.69,21.49-2.69v-.32m0,0c-7.44,0-15.22,1.26-21.83,2.76,1.54,16.98,15.81,30.27,33.19,30.27s31.72-13.36,33.21-30.4c-4.4,1.28-9.69,2.32-15.3,2.32-4.58,0-9.37-.69-14.05-2.52-4.5-1.75-9.77-2.43-15.22-2.43h0Z"/>
      </g>
      <g>
        <path class="cls-1" d="m68.68,244.92c-1.17,0-2.13-.31-2.84-.91-.02-.16-.04-.54.24-.92.43-.58,1.39-.91,2.77-.97.09,0,.18,0,.27,0,1.01,0,1.69.25,2.02.73.38.57.2,1.35.11,1.64-.35.12-1.4.43-2.57.43Z"/>
        <path class="cls-1" d="m69.13,242.4c.62,0,1.44.1,1.78.6.25.37.2.92.11,1.26-.43.13-1.34.37-2.34.37-1.05,0-1.91-.26-2.56-.77,0-.15.03-.38.2-.61.26-.35.92-.78,2.55-.84.09,0,.18,0,.26,0m0-.57c-.09,0-.18,0-.28,0-3.87.16-3.27,2.33-3.27,2.33.9.81,2.05,1.05,3.1,1.05,1.51,0,2.8-.49,2.8-.49,0,0,1.18-2.89-2.35-2.89h0Z"/>
      </g>
      <g>
        <path class="cls-1" d="m71.66,249.5c-1.09,0-2.24-.62-2.57-.81,0-.03.01-.08.04-.15.11-.24.53-.73,2.09-1.28.44-.15.83-.23,1.15-.23.37,0,.66.1.87.31.29.29.34.72.35.86-.37.87-1,1.3-1.92,1.3h0Z"/>
        <path class="cls-1" d="m72.36,247.32c.75,0,.9.52.92.83-.33.73-.85,1.07-1.63,1.07-.85,0-1.75-.41-2.21-.65.15-.2.59-.58,1.86-1.03.41-.14.76-.22,1.06-.22m0-.57c-.34,0-.74.07-1.25.25-2.79.98-2.28,1.88-2.28,1.88,0,0,1.43.91,2.82.91.87,0,1.73-.36,2.21-1.53,0,0,.03-1.51-1.5-1.51h0Z"/>
      </g>
      <g>
        <path class="cls-1" d="m63.32,249.47c-1.33,0-3.12-.17-4.11-.97-.77-.62-.77-.94-.75-1.02.03-.13.2-.22.33-.27.19.06.49.09.9.09.6,0,1.4-.06,2.38-.18.23-.03.46-.04.67-.04,1.94,0,2.89,1.12,3.09,1.38.03.72-.86.92-.9.93h0s-.69.08-1.6.08h0Z"/>
        <path class="cls-1" d="m62.73,247.37c1.66,0,2.53.87,2.8,1.19-.05.37-.53.52-.65.55-.14.02-.76.08-1.56.08-1.81,0-3.21-.32-3.93-.91-.57-.46-.64-.7-.66-.71.01-.02.04-.04.08-.05.19.04.46.07.88.07.61,0,1.42-.06,2.41-.18.22-.03.43-.04.63-.04m0-.57c-.22,0-.46.01-.7.04-1.12.14-1.86.18-2.34.18-.75,0-.89-.1-.89-.1,0,0-1.57.35.23,1.81,1.06.86,2.93,1.04,4.29,1.04.95,0,1.65-.09,1.65-.09,0,0,1.25-.26,1.12-1.31,0,0-1-1.57-3.37-1.57h0Z"/>
      </g>
      <path class="cls-1" d="m39.16,221.69c1.74,10.22,8.47,18.8,17.13,24.21,0,0-.05.1-.05.1-4.89-1.85-9.08-5.41-11.83-9.84-2.74-4.26-5.01-9.57-5.26-14.46h0Z"/>
      <path class="cls-9" d="m45.93,223.34c1.35,8.08,6.5,14.99,13.32,19.37,0,0-.04.07-.04.07-7.72-3-12.58-11.63-13.28-19.44h0Z"/>
      <path class="cls-1" d="m93.95,224.3c-1.29,9.8-6.98,19.95-16.57,23.58,0,0-.05-.09-.05-.09,8.95-5.76,14.37-13.24,16.62-23.49h0Z"/>
      <path class="cls-1" d="m54.04,220.98c.92,7.85,4.7,14.82,8.53,21.6,0,0-.08.06-.08.06-2.82-2.81-4.81-6.36-6.08-10.12-1.25-3.64-2.5-7.87-2.37-11.54h0Z"/>
      <path class="cls-9" d="m60.88,223.26c-.03,4.67,1.29,9.14,2.7,13.55-2.43-3.65-3.03-9.27-2.7-13.55h0Z"/>
      <path class="cls-1" d="m80.93,224.25c-.52,6.64-2.45,13.69-7.1,18.66,0,0-.07-.05-.07-.05,1.57-2.98,3.16-5.86,4.48-8.95,1.34-3.04,2.06-6.57,2.7-9.66h0Z"/>
      <path class="cls-9" d="m86.13,226.41c-.47,6.05-2.23,12.48-6.47,17.01,0,0-.06-.05-.06-.05,3.02-5.37,5.63-10.95,6.54-16.96h0Z"/>
      <path class="cls-1" d="m66.16,221.74c.11,4.6.39,9.19.75,13.76.11,1.3-.01,3.26.45,4.48,0,0-.08.07-.08.07-1.83-2.59-1.54-6.07-1.58-9.09.01-3.08.14-6.16.36-9.22h.11Z"/>
      <path class="cls-9" d="m74.38,225.2c-.32,3.15-.59,6.33-1.34,9.41-.34,1-.62,2.13-1.45,2.86,0,0-.05-.06-.05-.06.75-1.91.92-4.05,1.51-6.04.52-1.99.76-4.32,1.33-6.18h0Z"/>
    </g>
  </g>
</svg>