<?xml version="1.0" encoding="UTF-8"?>
<svg id="Capa_2" data-name="Capa 2" xmlns="http://www.w3.org/2000/svg" xmlns:xlink="http://www.w3.org/1999/xlink" viewBox="0 0 2500 3789.01">
  <defs>
    <style>
      .cls-1 {
        fill: #ee9d7f;
      }

      .cls-1, .cls-2, .cls-3 {
        stroke-width: 0px;
      }

      .cls-4, .cls-3 {
        fill: #8db6b8;
      }

      .cls-2 {
        fill: #e3765f;
      }

      .cls-5 {
        clip-path: url(#clippath);
      }
    </style>
    <clipPath id="clippath">
      <rect class="cls-3" width="2500" height="3789.01"/>
    </clipPath>
  </defs>
  <g id="Capa_1-2" data-name="Capa 1">
    <g>
      <rect class="cls-4" width="2500" height="3789.01"/>
      <g class="cls-5">
        <g>
          <path class="cls-1" d="M2437.19,260.69l-216.99-81.56-3.43-1.29s2.96-2.09,2.96-2.09c94.4-73.86,198.43-26.25,276.18,46.53,23.43,21.83,44.95,45.68,64.17,71.31,3.2,4.26,11.14,15.61,14.28,19.94,0,0-18.35,2.28-18.36,2.28-58.69,3.31-117.32,5.74-176.06,2.63-17.16-1.33-34.82-2.2-51.22-8.08-2.38-.94-4.76-2.08-6.93-3.86,0,0,2.41-3.05,2.41-3.05,3.65,2.45,8.45,3.51,12.84,4.34,14.18,2.43,28.69,2.4,43.1,2.29,38.72-.74,77.42-4.47,115.93-8.71,19.26-2.17,38.59-4.56,57.69-7.23,0,0-7.96,16.85-7.96,16.85-.83-1.26-2.41-3.72-3.27-4.96-36.16-51.92-80.64-100.22-135.74-132.2-19.45-11.09-40.54-19.68-62.58-23.87-10-1.87-20.17-2.81-30.36-2.76-33.03.2-64.99,12.58-91.82,31.68,0,0-.47-3.38-.47-3.38l216.99,81.56s-1.37,3.64-1.37,3.64h0Z"/>
          <path class="cls-1" d="M2203.95,159.56c4.26-1.12,8.09.67,11.57,2.86,3.4,2.13,6.51,4.5,9.03,7.78,0,0-7.34,14.21-7.34,14.21-2.14-.06-4.12-.44-6.04-.94-5.62-1.76-12.17-3.71-14.56-9.69,0,0,7.34-14.21,7.34-14.21h0Z"/>
        </g>
        <g>
          <path class="cls-1" d="M1673.69,250.9l-95.76-211.11s-1.51-3.34-1.51-3.34c0,0,3.57.61,3.58.61,118.98,14.52,158.87,121.75,162.39,228.19,1.13,32.01-.51,64.09-5.05,95.8-.75,5.28-3.16,18.91-4,24.2,0,0-14.59-11.36-14.59-11.37-43.84-39.16-87.02-78.89-126.35-122.63-11.2-13.08-23.06-26.18-30.5-41.93-1.02-2.35-1.9-4.84-2.17-7.63,0,0,3.86-.46,3.86-.46.85,4.31,3.49,8.46,6.01,12.15,8.31,11.74,18.59,21.99,28.86,32.09,27.9,26.85,57.91,51.58,88.13,75.81,15.16,12.08,30.51,24.06,45.9,35.68,0,0-17.54,6.29-17.54,6.29.3-1.48.92-4.33,1.19-5.81,11.14-62.32,13.85-127.84-2.5-189.46-5.91-21.6-14.75-42.58-27.37-61.13-5.75-8.4-12.27-16.25-19.51-23.42-23.5-23.21-54.85-37.05-87.33-42.53,0,0,2.06-2.73,2.06-2.73l95.76,211.11s-3.54,1.61-3.54,1.61h0Z"/>
          <path class="cls-1" d="M1580.27,14.47c3.8,2.22,5.24,6.2,6.16,10.2.9,3.91,1.42,7.79.88,11.89,0,0-15.24,4.86-15.24,4.86-1.48-1.56-2.6-3.23-3.6-4.94-2.72-5.22-5.98-11.23-3.44-17.15,0,0,15.24-4.86,15.24-4.86h0Z"/>
        </g>
        <g>
          <path class="cls-1" d="M2057.62,654.87l194.27-126.47,3.07-2s-.07,3.62-.07,3.63c3.56,119.81-96.43,175.4-201.13,194.91-31.47,5.94-63.44,9.14-95.47,9.44-5.33.05-19.17-.28-24.53-.31,0,0,9.04-16.14,9.04-16.14,32.11-49.24,64.89-97.91,102.2-143.38,11.24-13.04,22.4-26.74,36.86-36.47,2.17-1.36,4.49-2.6,7.22-3.3,0,0,1.03,3.75,1.03,3.75-4.14,1.49-7.83,4.73-11.11,7.77-10.36,9.98-18.94,21.69-27.38,33.36-22.35,31.63-42.27,65.02-61.68,98.54-9.66,16.8-19.19,33.79-28.35,50.75,0,0-8.86-16.39-8.86-16.39,1.51.08,4.42.26,5.93.31,63.29,1.63,128.47-5.57,186.92-31.01,20.46-9.1,39.88-21,56.31-36.27,7.43-6.95,14.22-14.58,20.22-22.82,19.4-26.73,28.37-59.81,28.89-92.74,0,0,3.01,1.62,3.01,1.62l-194.27,126.47-2.12-3.26h0Z"/>
          <path class="cls-1" d="M2277.28,526.91c-1.62,4.09-5.33,6.12-9.16,7.63-3.73,1.48-7.48,2.58-11.62,2.67,0,0-7.1-14.34-7.1-14.34,1.32-1.69,2.8-3.06,4.34-4.3,4.75-3.48,10.2-7.61,16.44-5.99,0,0,7.1,14.34,7.1,14.34h0Z"/>
        </g>
        <g>
          <path class="cls-2" d="M2048.48,303.04l216.99,81.56s3.43,1.29,3.43,1.29c0,0-2.96,2.09-2.96,2.09-94.4,73.86-198.43,26.25-276.18-46.53-23.43-21.83-44.95-45.68-64.17-71.31-3.2-4.26-11.14-15.61-14.28-19.94,0,0,18.35-2.28,18.36-2.28,58.69-3.31,117.32-5.74,176.06-2.63,17.16,1.33,34.82,2.2,51.22,8.08,2.38.94,4.76,2.08,6.93,3.86,0,0-2.41,3.05-2.41,3.05-3.65-2.45-8.45-3.51-12.84-4.34-14.18-2.43-28.69-2.4-43.1-2.29-38.72.74-77.42,4.48-115.93,8.71-19.26,2.17-38.59,4.56-57.68,7.23,0,0,7.96-16.85,7.96-16.85.83,1.26,2.41,3.72,3.27,4.96,36.16,51.92,80.64,100.22,135.74,132.2,19.45,11.09,40.54,19.68,62.58,23.87,10,1.87,20.17,2.81,30.36,2.76,33.03-.2,64.99-12.58,91.82-31.68,0,0,.47,3.38.47,3.38l-216.99-81.56s1.37-3.64,1.37-3.64h0Z"/>
          <path class="cls-2" d="M2281.72,404.16c-4.26,1.12-8.09-.67-11.57-2.86-3.4-2.13-6.51-4.5-9.03-7.78,0,0,7.34-14.21,7.34-14.21,2.14.06,4.12.44,6.04.94,5.62,1.76,12.17,3.71,14.56,9.7,0,0-7.34,14.21-7.34,14.21h0Z"/>
        </g>
        <g>
          <path class="cls-2" d="M1840.35,819.92l95.76,211.11,1.51,3.34s-3.57-.61-3.58-.61c-118.98-14.52-158.87-121.75-162.39-228.19-1.13-32,.51-64.09,5.05-95.8.75-5.28,3.16-18.91,4-24.2,0,0,14.59,11.36,14.59,11.36,43.84,39.16,87.02,78.89,126.35,122.63,11.2,13.08,23.06,26.18,30.5,41.93,1.02,2.35,1.9,4.84,2.17,7.63l-3.86.46c-.85-4.31-3.49-8.46-6.01-12.15-8.31-11.74-18.59-21.99-28.86-32.09-27.9-26.85-57.91-51.58-88.13-75.81-15.16-12.08-30.51-24.06-45.9-35.68,0,0,17.54-6.29,17.54-6.29-.3,1.48-.92,4.33-1.19,5.81-11.14,62.32-13.85,127.84,2.5,189.46,5.91,21.6,14.75,42.58,27.37,61.13,5.75,8.4,12.27,16.25,19.51,23.42,23.5,23.21,54.85,37.06,87.33,42.53,0,0-2.06,2.73-2.06,2.73,0,0-95.76-211.11-95.76-211.11l3.54-1.61h0Z"/>
          <path class="cls-2" d="M1933.77,1056.34c-3.8-2.22-5.24-6.2-6.16-10.2-.9-3.91-1.42-7.79-.88-11.89,0,0,15.24-4.86,15.24-4.86,1.48,1.56,2.6,3.23,3.6,4.94,2.72,5.22,5.98,11.23,3.44,17.15,0,0-15.24,4.86-15.24,4.86h0Z"/>
        </g>
        <g>
          <path class="cls-2" d="M1838.68,466.94l-81.56,216.99-1.29,3.43s-2.09-2.96-2.09-2.96c-73.86-94.4-26.25-198.43,46.53-276.18,21.83-23.43,45.68-44.95,71.31-64.17,4.26-3.2,15.61-11.14,19.94-14.28,0,0,2.28,18.35,2.28,18.36,3.31,58.69,5.74,117.32,2.63,176.06-1.33,17.16-2.2,34.82-8.08,51.22-.94,2.38-2.08,4.76-3.86,6.93,0,0-3.05-2.41-3.05-2.41,2.45-3.65,3.51-8.45,4.34-12.84,2.43-14.18,2.4-28.69,2.29-43.1-.74-38.72-4.48-77.42-8.71-115.93-2.17-19.26-4.56-38.59-7.23-57.69,0,0,16.85,7.96,16.85,7.96-1.26.83-3.72,2.41-4.96,3.27-51.92,36.16-100.22,80.64-132.2,135.74-11.09,19.45-19.68,40.54-23.87,62.58-1.87,10-2.81,20.17-2.76,30.36.2,33.03,12.58,64.99,31.68,91.82,0,0-3.38.47-3.38.47l81.56-216.99s3.64,1.37,3.64,1.37h0Z"/>
          <path class="cls-2" d="M1737.55,700.18c-1.12-4.26.67-8.09,2.86-11.57,2.13-3.4,4.5-6.51,7.78-9.03,0,0,14.21,7.34,14.21,7.34-.06,2.14-.44,4.12-.94,6.04-1.76,5.62-3.71,12.17-9.69,14.56,0,0-14.21-7.34-14.21-7.34h0Z"/>
        </g>
        <path class="cls-1" d="M2097.52,73.57l93.87-211.95,1.48-3.35s1.92,3.07,1.92,3.08c68.33,98.48,14.83,199.61-62.3,273.06-23.14,22.14-48.19,42.26-74.87,59.98-4.44,2.95-16.22,10.23-20.73,13.12,0,0-1.22-18.45-1.23-18.46.06-58.78,1-117.45,7.47-175.92,2.31-17.06,4.2-34.63,11-50.67,1.08-2.32,2.35-4.63,4.25-6.7l2.91,2.58c-2.65,3.5-3.99,8.23-5.07,12.57-3.24,14.01-4.05,28.51-4.76,42.9-1.48,38.7.03,77.55,2.04,116.24,1.06,19.35,2.34,38.79,3.91,58,0,0-16.36-8.91-16.36-8.91,1.31-.76,3.85-2.19,5.13-2.98,53.91-33.12,104.68-74.76,139.77-127.93,12.19-18.78,21.97-39.35,27.42-61.11,2.44-9.88,3.97-19.98,4.5-30.15,1.69-32.98-8.84-65.6-26.36-93.49,0,0,3.4-.28,3.4-.28l-93.87,211.95-3.56-1.57h0Z"/>
        <g>
          <path class="cls-2" d="M2456.86,638.01l-152.57,174.53s-2.41,2.76-2.41,2.76c0,0-.92-3.5-.92-3.51-36.01-114.33,45.1-195.01,140.55-242.25,28.67-14.27,58.56-26.05,89.3-35.05,5.12-1.5,18.53-4.95,23.69-6.37,0,0-4.31,17.99-4.31,17.99-17.51,56.11-35.82,111.86-59.36,165.77-7.27,15.6-14.29,31.83-25.55,45.12-1.72,1.9-3.62,3.73-6.05,5.14,0,0-2.01-3.33-2.01-3.33,3.58-2.56,6.25-6.68,8.58-10.5,7.25-12.42,12.33-26.02,17.28-39.55,12.9-36.51,23-74.06,32.56-111.6,4.73-18.8,9.28-37.73,13.49-56.55,0,0,12.98,13.37,12.98,13.37-1.47.33-4.33.95-5.79,1.32-61.35,15.64-122.11,40.29-171.45,80.67-17.21,14.32-32.66,31.05-44.33,50.21-5.27,8.71-9.72,17.9-13.25,27.46-11.41,31-11.04,65.27-2.58,97.1,0,0-3.33-.74-3.33-.74l152.57-174.53s2.93,2.56,2.93,2.56h0Z"/>
          <path class="cls-2" d="M2280.27,820.88c.45-4.38,3.47-7.34,6.74-9.83,3.19-2.43,6.5-4.52,10.45-5.72,0,0,10.73,11.87,10.73,11.87-.81,1.99-1.86,3.7-3,5.32-3.62,4.64-7.75,10.09-14.19,10.23,0,0-10.73-11.87-10.73-11.87h0Z"/>
        </g>
        <g>
          <path class="cls-1" d="M2437.19,1196.86l-216.99-81.56s-3.43-1.29-3.43-1.29c0,0,2.96-2.09,2.96-2.09,94.4-73.86,198.43-26.25,276.18,46.53,23.43,21.83,44.95,45.68,64.17,71.31,3.2,4.26,11.14,15.61,14.28,19.94,0,0-18.35,2.28-18.36,2.28-58.69,3.31-117.32,5.74-176.06,2.63-17.16-1.33-34.82-2.2-51.22-8.08-2.38-.94-4.76-2.08-6.93-3.86l2.41-3.05c3.65,2.45,8.45,3.51,12.84,4.34,14.18,2.43,28.69,2.4,43.1,2.29,38.72-.74,77.42-4.48,115.93-8.71,19.26-2.17,38.59-4.56,57.69-7.23,0,0-7.96,16.85-7.96,16.85-.83-1.26-2.41-3.72-3.27-4.96-36.16-51.92-80.64-100.22-135.74-132.2-19.45-11.09-40.54-19.68-62.58-23.87-10-1.87-20.17-2.81-30.36-2.76-33.03.2-64.99,12.58-91.82,31.68,0,0-.47-3.38-.47-3.38l216.99,81.56s-1.37,3.64-1.37,3.64h0Z"/>
          <path class="cls-1" d="M2203.95,1095.73c4.26-1.12,8.09.67,11.57,2.86,3.4,2.13,6.51,4.5,9.03,7.78,0,0-7.34,14.21-7.34,14.21-2.14-.06-4.12-.44-6.04-.94-5.62-1.76-12.17-3.71-14.56-9.69,0,0,7.34-14.22,7.34-14.22h0Z"/>
        </g>
        <g>
          <path class="cls-1" d="M1673.69,1187.07l-95.76-211.11-1.51-3.34s3.57.61,3.58.61c118.98,14.52,158.87,121.75,162.39,228.19,1.13,32-.51,64.09-5.05,95.8-.75,5.28-3.16,18.91-4,24.2,0,0-14.59-11.36-14.59-11.36-43.84-39.16-87.02-78.89-126.35-122.63-11.2-13.08-23.06-26.18-30.5-41.93-1.02-2.35-1.9-4.84-2.17-7.63,0,0,3.86-.46,3.86-.46.85,4.31,3.49,8.46,6.01,12.15,8.31,11.74,18.59,21.99,28.86,32.09,27.9,26.85,57.91,51.58,88.13,75.81,15.16,12.08,30.51,24.06,45.9,35.68,0,0-17.54,6.29-17.54,6.29.3-1.48.92-4.33,1.19-5.81,11.14-62.32,13.85-127.84-2.5-189.46-5.91-21.6-14.75-42.58-27.37-61.13-5.75-8.4-12.27-16.25-19.51-23.42-23.5-23.21-54.85-37.06-87.33-42.53,0,0,2.06-2.73,2.06-2.73,0,0,95.76,211.11,95.76,211.11,0,0-3.54,1.61-3.54,1.61h0Z"/>
          <path class="cls-1" d="M1580.27,950.64c3.8,2.22,5.24,6.2,6.16,10.2.9,3.91,1.42,7.79.88,11.89,0,0-15.24,4.86-15.24,4.86-1.48-1.56-2.6-3.23-3.6-4.94-2.72-5.22-5.98-11.23-3.44-17.15,0,0,15.24-4.86,15.24-4.86h0Z"/>
        </g>
        <g>
          <path class="cls-1" d="M2057.62,1591.04l194.27-126.47s3.07-2,3.07-2c0,0-.07,3.62-.07,3.63,3.56,119.81-96.43,175.4-201.13,194.91-31.47,5.94-63.44,9.14-95.47,9.44-5.33.05-19.17-.28-24.53-.31,0,0,9.04-16.14,9.04-16.14,32.11-49.24,64.89-97.91,102.2-143.38,11.24-13.04,22.4-26.74,36.86-36.47,2.17-1.36,4.49-2.6,7.22-3.3,0,0,1.03,3.75,1.03,3.75-4.14,1.49-7.83,4.73-11.11,7.77-10.36,9.98-18.94,21.69-27.38,33.36-22.35,31.63-42.27,65.02-61.68,98.54-9.66,16.8-19.19,33.79-28.35,50.75,0,0-8.86-16.39-8.86-16.39,1.51.08,4.42.26,5.93.31,63.29,1.63,128.47-5.57,186.92-31.01,20.46-9.1,39.88-21,56.31-36.27,7.43-6.94,14.22-14.58,20.22-22.82,19.4-26.73,28.37-59.81,28.89-92.74,0,0,3.01,1.62,3.01,1.62l-194.27,126.47-2.12-3.26h0Z"/>
          <path class="cls-1" d="M2277.28,1463.08c-1.62,4.09-5.33,6.12-9.16,7.63-3.73,1.47-7.48,2.58-11.62,2.67,0,0-7.1-14.34-7.1-14.34,1.32-1.69,2.8-3.06,4.34-4.3,4.75-3.48,10.2-7.61,16.44-5.99,0,0,7.1,14.34,7.1,14.34h0Z"/>
        </g>
        <g>
          <path class="cls-2" d="M2048.48,1239.21l216.99,81.56s3.43,1.29,3.43,1.29c0,0-2.96,2.09-2.96,2.09-94.4,73.86-198.43,26.25-276.18-46.53-23.43-21.83-44.95-45.68-64.17-71.31-3.2-4.26-11.14-15.61-14.28-19.94,0,0,18.35-2.28,18.36-2.28,58.69-3.31,117.32-5.74,176.06-2.63,17.16,1.33,34.82,2.2,51.22,8.08,2.38.94,4.76,2.08,6.93,3.86,0,0-2.41,3.05-2.41,3.05-3.65-2.45-8.45-3.51-12.84-4.34-14.18-2.43-28.69-2.4-43.1-2.29-38.72.74-77.42,4.48-115.93,8.71-19.26,2.17-38.59,4.56-57.68,7.23,0,0,7.96-16.85,7.96-16.85.83,1.26,2.41,3.72,3.27,4.96,36.16,51.92,80.64,100.22,135.74,132.2,19.45,11.09,40.54,19.68,62.58,23.87,10,1.87,20.17,2.81,30.36,2.76,33.03-.2,64.99-12.58,91.82-31.68,0,0,.47,3.38.47,3.38,0,0-216.99-81.56-216.99-81.56,0,0,1.37-3.64,1.37-3.64h0Z"/>
          <path class="cls-2" d="M2281.72,1340.33c-4.26,1.12-8.09-.67-11.57-2.86-3.4-2.13-6.51-4.5-9.03-7.78,0,0,7.34-14.21,7.34-14.21,2.14.06,4.12.44,6.04.94,5.62,1.76,12.17,3.71,14.56,9.69,0,0-7.34,14.21-7.34,14.21h0Z"/>
        </g>
        <g>
          <path class="cls-2" d="M1840.35,1756.09l95.76,211.11s1.51,3.34,1.51,3.34c0,0-3.57-.61-3.58-.61-118.98-14.52-158.87-121.75-162.39-228.19-1.13-32.01.51-64.09,5.05-95.8.75-5.28,3.16-18.91,4-24.2,0,0,14.59,11.36,14.59,11.37,43.84,39.16,87.02,78.89,126.35,122.63,11.2,13.08,23.06,26.18,30.5,41.93,1.02,2.35,1.9,4.84,2.17,7.63l-3.86.46c-.85-4.31-3.49-8.46-6.01-12.15-8.31-11.74-18.59-21.99-28.86-32.09-27.9-26.85-57.91-51.58-88.13-75.81-15.16-12.08-30.51-24.06-45.9-35.68,0,0,17.54-6.29,17.54-6.29-.3,1.48-.92,4.33-1.19,5.81-11.14,62.32-13.85,127.84,2.5,189.46,5.91,21.6,14.75,42.58,27.37,61.13,5.75,8.4,12.27,16.25,19.51,23.42,23.5,23.21,54.85,37.05,87.33,42.53,0,0-2.06,2.73-2.06,2.73l-95.76-211.11s3.54-1.61,3.54-1.61h0Z"/>
          <path class="cls-2" d="M1933.77,1992.51c-3.8-2.22-5.24-6.2-6.16-10.2-.9-3.91-1.42-7.79-.88-11.89,0,0,15.24-4.86,15.24-4.86,1.48,1.56,2.6,3.23,3.6,4.94,2.72,5.22,5.98,11.23,3.44,17.15,0,0-15.24,4.86-15.24,4.86h0Z"/>
        </g>
        <g>
          <path class="cls-2" d="M1838.68,1403.11l-81.56,216.99-1.29,3.43s-2.09-2.96-2.09-2.96c-73.86-94.4-26.25-198.43,46.53-276.18,21.83-23.43,45.68-44.95,71.31-64.17,4.27-3.2,15.61-11.14,19.94-14.28,0,0,2.28,18.35,2.28,18.36,3.31,58.69,5.74,117.32,2.63,176.06-1.33,17.16-2.2,34.82-8.08,51.22-.94,2.38-2.08,4.76-3.86,6.93,0,0-3.05-2.41-3.05-2.41,2.45-3.65,3.51-8.45,4.34-12.84,2.43-14.18,2.4-28.69,2.29-43.1-.74-38.72-4.48-77.42-8.71-115.93-2.17-19.26-4.56-38.59-7.23-57.68,0,0,16.85,7.96,16.85,7.96-1.26.83-3.72,2.41-4.96,3.27-51.92,36.16-100.22,80.64-132.2,135.74-11.09,19.45-19.68,40.54-23.87,62.58-1.87,10-2.81,20.17-2.76,30.36.2,33.03,12.58,64.99,31.68,91.82,0,0-3.38.47-3.38.47l81.56-216.99s3.64,1.37,3.64,1.37h0Z"/>
          <path class="cls-2" d="M1737.55,1636.35c-1.12-4.26.67-8.09,2.86-11.57,2.13-3.4,4.5-6.51,7.78-9.03,0,0,14.21,7.34,14.21,7.34-.06,2.14-.44,4.12-.94,6.04-1.76,5.62-3.71,12.17-9.69,14.56,0,0-14.21-7.34-14.21-7.34h0Z"/>
        </g>
        <g>
          <path class="cls-1" d="M2097.52,1009.74l93.87-211.95s1.48-3.35,1.48-3.35c0,0,1.92,3.07,1.92,3.08,68.33,98.48,14.83,199.61-62.3,273.06-23.14,22.14-48.19,42.26-74.87,59.98-4.44,2.95-16.22,10.23-20.73,13.12,0,0-1.22-18.45-1.23-18.46.06-58.78,1-117.45,7.47-175.92,2.31-17.06,4.2-34.63,11-50.67,1.08-2.32,2.35-4.63,4.25-6.7l2.91,2.58c-2.65,3.5-3.99,8.23-5.07,12.57-3.24,14.01-4.05,28.51-4.76,42.9-1.48,38.7.03,77.55,2.04,116.23,1.06,19.35,2.34,38.79,3.91,58,0,0-16.36-8.91-16.36-8.91,1.31-.76,3.85-2.19,5.13-2.98,53.91-33.13,104.68-74.76,139.77-127.93,12.19-18.78,21.97-39.35,27.42-61.11,2.44-9.88,3.97-19.98,4.5-30.15,1.69-32.98-8.84-65.6-26.36-93.49,0,0,3.4-.28,3.4-.28,0,0-93.87,211.95-93.87,211.95,0,0-3.56-1.57-3.56-1.57h0Z"/>
          <path class="cls-1" d="M2211.86,782.69c.87,4.31-1.14,8.04-3.52,11.39-2.32,3.27-4.87,6.25-8.28,8.57,0,0-13.77-8.14-13.77-8.14.18-2.14.68-4.09,1.29-5.97,2.08-5.51,4.4-11.94,10.51-13.98,0,0,13.77,8.14,13.77,8.14h0Z"/>
        </g>
        <g>
          <path class="cls-2" d="M2456.86,1574.18l-152.57,174.53-2.41,2.76s-.92-3.5-.92-3.51c-36.01-114.33,45.1-195.01,140.55-242.25,28.67-14.27,58.56-26.05,89.3-35.05,5.12-1.5,18.53-4.95,23.69-6.37,0,0-4.31,17.99-4.31,17.99-17.51,56.11-35.82,111.86-59.36,165.77-7.27,15.6-14.29,31.83-25.55,45.12-1.72,1.9-3.62,3.73-6.05,5.14l-2.01-3.33c3.58-2.56,6.25-6.68,8.58-10.5,7.25-12.42,12.33-26.02,17.28-39.55,12.9-36.51,23-74.06,32.56-111.6,4.73-18.8,9.28-37.73,13.49-56.55,0,0,12.98,13.37,12.98,13.37-1.47.33-4.33.95-5.79,1.32-61.35,15.64-122.11,40.29-171.45,80.67-17.21,14.32-32.66,31.05-44.33,50.22-5.27,8.7-9.72,17.9-13.25,27.46-11.41,31-11.04,65.27-2.58,97.1,0,0-3.33-.74-3.33-.74l152.57-174.53,2.93,2.56h0Z"/>
          <path class="cls-2" d="M2280.27,1757.05c.45-4.38,3.47-7.34,6.74-9.83,3.19-2.43,6.5-4.52,10.45-5.72,0,0,10.73,11.87,10.73,11.87-.81,1.99-1.86,3.7-3,5.32-3.62,4.64-7.75,10.09-14.19,10.23,0,0-10.73-11.87-10.73-11.87h0Z"/>
        </g>
        <g>
          <path class="cls-1" d="M2437.19,2133.03l-216.99-81.56s-3.43-1.29-3.43-1.29c0,0,2.96-2.09,2.96-2.09,94.4-73.86,198.43-26.25,276.18,46.53,23.43,21.83,44.95,45.68,64.17,71.31,3.2,4.26,11.14,15.61,14.28,19.94,0,0-18.35,2.28-18.36,2.28-58.69,3.31-117.32,5.74-176.06,2.63-17.16-1.33-34.82-2.2-51.22-8.08-2.38-.94-4.76-2.08-6.93-3.86,0,0,2.41-3.05,2.41-3.05,3.65,2.45,8.45,3.51,12.84,4.34,14.18,2.43,28.69,2.4,43.1,2.29,38.72-.74,77.42-4.47,115.93-8.71,19.26-2.17,38.59-4.56,57.69-7.23,0,0-7.96,16.85-7.96,16.85-.83-1.26-2.41-3.72-3.27-4.96-36.16-51.92-80.64-100.22-135.74-132.2-19.45-11.09-40.54-19.68-62.58-23.87-10-1.87-20.17-2.81-30.36-2.76-33.03.2-64.99,12.58-91.82,31.68,0,0-.47-3.38-.47-3.38l216.99,81.56s-1.37,3.64-1.37,3.64h0Z"/>
          <path class="cls-1" d="M2203.95,2031.9c4.26-1.12,8.09.67,11.57,2.86,3.4,2.13,6.51,4.5,9.03,7.78,0,0-7.34,14.21-7.34,14.21-2.14-.06-4.12-.44-6.04-.94-5.62-1.76-12.17-3.71-14.56-9.69,0,0,7.34-14.21,7.34-14.21h0Z"/>
        </g>
        <g>
          <path class="cls-1" d="M1673.69,2123.24l-95.76-211.11-1.51-3.34s3.57.61,3.58.61c118.98,14.52,158.87,121.75,162.39,228.19,1.13,32.01-.51,64.09-5.05,95.8-.75,5.28-3.16,18.91-4,24.2,0,0-14.59-11.36-14.59-11.37-43.84-39.16-87.02-78.89-126.35-122.63-11.2-13.08-23.06-26.18-30.5-41.93-1.02-2.35-1.9-4.84-2.17-7.63l3.86-.46c.85,4.31,3.49,8.46,6.01,12.15,8.31,11.74,18.59,21.99,28.86,32.09,27.9,26.85,57.91,51.58,88.13,75.81,15.16,12.08,30.51,24.06,45.9,35.68,0,0-17.54,6.29-17.54,6.29.3-1.48.92-4.33,1.19-5.81,11.14-62.32,13.85-127.84-2.5-189.46-5.91-21.6-14.75-42.58-27.37-61.13-5.75-8.4-12.27-16.25-19.51-23.42-23.5-23.21-54.85-37.05-87.33-42.53,0,0,2.06-2.73,2.06-2.73l95.76,211.11s-3.54,1.61-3.54,1.61h0Z"/>
          <path class="cls-1" d="M1580.27,1886.81c3.8,2.22,5.24,6.2,6.16,10.2.9,3.91,1.42,7.79.88,11.89,0,0-15.24,4.86-15.24,4.86-1.48-1.56-2.6-3.23-3.6-4.94-2.72-5.22-5.98-11.23-3.44-17.15,0,0,15.24-4.86,15.24-4.86h0Z"/>
        </g>
        <g>
          <path class="cls-1" d="M2057.62,2527.21l194.27-126.47,3.07-2s-.07,3.62-.07,3.63c3.56,119.81-96.43,175.4-201.13,194.91-31.47,5.94-63.44,9.14-95.47,9.44-5.33.05-19.17-.28-24.53-.31,0,0,9.04-16.14,9.04-16.14,32.11-49.24,64.89-97.91,102.2-143.38,11.24-13.04,22.4-26.74,36.86-36.47,2.17-1.36,4.49-2.6,7.22-3.3l1.03,3.75c-4.14,1.49-7.83,4.73-11.11,7.77-10.36,9.98-18.94,21.69-27.38,33.36-22.35,31.63-42.27,65.02-61.68,98.54-9.66,16.8-19.19,33.79-28.35,50.75,0,0-8.86-16.39-8.86-16.39,1.51.08,4.42.26,5.93.31,63.29,1.63,128.47-5.57,186.92-31.01,20.46-9.1,39.88-21,56.31-36.27,7.43-6.94,14.22-14.58,20.22-22.82,19.4-26.73,28.37-59.81,28.89-92.74,0,0,3.01,1.62,3.01,1.62,0,0-194.27,126.47-194.27,126.47,0,0-2.12-3.26-2.12-3.26h0Z"/>
          <path class="cls-1" d="M2277.28,2399.25c-1.62,4.09-5.34,6.12-9.16,7.63-3.73,1.47-7.48,2.58-11.62,2.66,0,0-7.1-14.34-7.1-14.34,1.32-1.69,2.8-3.06,4.34-4.3,4.75-3.48,10.2-7.61,16.44-5.99,0,0,7.1,14.34,7.1,14.34h0Z"/>
        </g>
        <g>
          <path class="cls-2" d="M2048.48,2175.38l216.99,81.56s3.43,1.29,3.43,1.29c0,0-2.96,2.09-2.96,2.09-94.4,73.86-198.43,26.25-276.18-46.53-23.43-21.83-44.95-45.68-64.17-71.31-3.2-4.27-11.14-15.61-14.28-19.94,0,0,18.35-2.28,18.36-2.28,58.69-3.31,117.32-5.74,176.06-2.63,17.16,1.33,34.82,2.2,51.22,8.08,2.38.94,4.76,2.08,6.93,3.86,0,0-2.41,3.05-2.41,3.05-3.65-2.45-8.45-3.51-12.84-4.34-14.18-2.43-28.69-2.4-43.1-2.29-38.72.74-77.42,4.48-115.93,8.71-19.26,2.17-38.59,4.56-57.68,7.23,0,0,7.96-16.85,7.96-16.85.83,1.26,2.41,3.72,3.27,4.96,36.16,51.92,80.64,100.22,135.74,132.2,19.45,11.09,40.54,19.68,62.58,23.87,10,1.87,20.17,2.81,30.36,2.76,33.03-.2,64.99-12.58,91.82-31.68,0,0,.47,3.38.47,3.38l-216.99-81.56s1.37-3.64,1.37-3.64h0Z"/>
          <path class="cls-2" d="M2281.72,2276.5c-4.26,1.12-8.09-.67-11.57-2.86-3.4-2.13-6.51-4.5-9.03-7.78,0,0,7.34-14.21,7.34-14.21,2.14.06,4.12.44,6.04.94,5.62,1.76,12.17,3.71,14.56,9.69,0,0-7.34,14.21-7.34,14.21h0Z"/>
        </g>
        <g>
          <path class="cls-2" d="M1840.35,2692.26l95.76,211.11s1.51,3.34,1.51,3.34c0,0-3.57-.61-3.58-.61-118.98-14.52-158.87-121.75-162.39-228.19-1.13-32,.51-64.09,5.05-95.8.75-5.28,3.16-18.91,4-24.2,0,0,14.59,11.36,14.59,11.36,43.84,39.16,87.02,78.89,126.35,122.63,11.2,13.08,23.06,26.18,30.5,41.93,1.02,2.35,1.9,4.84,2.17,7.63,0,0-3.86.46-3.86.46-.85-4.31-3.49-8.46-6.01-12.15-8.31-11.74-18.59-21.99-28.86-32.09-27.9-26.85-57.91-51.58-88.13-75.81-15.16-12.08-30.51-24.06-45.9-35.68,0,0,17.54-6.29,17.54-6.29-.3,1.48-.92,4.33-1.19,5.81-11.14,62.32-13.85,127.84,2.5,189.46,5.91,21.6,14.75,42.58,27.37,61.13,5.75,8.4,12.27,16.25,19.51,23.42,23.5,23.21,54.85,37.06,87.33,42.53,0,0-2.06,2.73-2.06,2.73l-95.76-211.11,3.54-1.61h0Z"/>
          <path class="cls-2" d="M1933.77,2928.68c-3.8-2.22-5.24-6.2-6.16-10.2-.9-3.91-1.42-7.79-.88-11.89,0,0,15.24-4.86,15.24-4.86,1.48,1.56,2.6,3.23,3.6,4.94,2.72,5.22,5.98,11.23,3.44,17.15,0,0-15.24,4.86-15.24,4.86h0Z"/>
        </g>
        <g>
          <path class="cls-2" d="M1838.68,2339.28l-81.56,216.99s-1.29,3.43-1.29,3.43c0,0-2.09-2.96-2.09-2.96-73.86-94.4-26.25-198.43,46.53-276.18,21.83-23.43,45.68-44.95,71.31-64.17,4.26-3.2,15.61-11.14,19.94-14.28,0,0,2.28,18.35,2.28,18.36,3.31,58.69,5.74,117.32,2.63,176.06-1.33,17.17-2.2,34.82-8.08,51.22-.94,2.38-2.08,4.76-3.86,6.93l-3.05-2.41c2.45-3.65,3.51-8.45,4.34-12.84,2.43-14.18,2.4-28.69,2.29-43.1-.74-38.72-4.48-77.42-8.71-115.93-2.17-19.26-4.56-38.59-7.23-57.69,0,0,16.85,7.96,16.85,7.96-1.26.83-3.72,2.41-4.96,3.27-51.92,36.16-100.22,80.64-132.2,135.74-11.09,19.45-19.68,40.54-23.87,62.58-1.87,10-2.81,20.17-2.76,30.36.2,33.03,12.58,64.99,31.68,91.82,0,0-3.38.47-3.38.47,0,0,81.56-216.99,81.56-216.99,0,0,3.64,1.37,3.64,1.37h0Z"/>
          <path class="cls-2" d="M1737.55,2572.52c-1.12-4.26.67-8.09,2.86-11.57,2.13-3.4,4.5-6.51,7.78-9.03,0,0,14.21,7.34,14.21,7.34-.06,2.15-.44,4.12-.94,6.04-1.76,5.62-3.71,12.17-9.69,14.56,0,0-14.21-7.34-14.21-7.34h0Z"/>
        </g>
        <g>
          <path class="cls-1" d="M2097.52,1945.91l93.87-211.95,1.48-3.35s1.92,3.07,1.92,3.08c68.33,98.48,14.83,199.61-62.3,273.06-23.14,22.14-48.19,42.26-74.87,59.98-4.44,2.95-16.22,10.23-20.73,13.12,0,0-1.22-18.45-1.23-18.46.06-58.78,1-117.45,7.47-175.92,2.31-17.06,4.2-34.63,11-50.67,1.08-2.32,2.35-4.63,4.25-6.7,0,0,2.91,2.58,2.91,2.58-2.65,3.5-3.99,8.23-5.07,12.57-3.24,14.01-4.05,28.51-4.76,42.9-1.48,38.7.03,77.55,2.04,116.24,1.06,19.35,2.34,38.79,3.91,58,0,0-16.36-8.91-16.36-8.91,1.31-.76,3.85-2.19,5.13-2.98,53.94-33.15,104.65-74.73,139.77-127.93,12.19-18.79,21.97-39.35,27.42-61.11,2.44-9.88,3.97-19.98,4.5-30.15,1.69-32.98-8.84-65.6-26.36-93.49,0,0,3.4-.28,3.4-.28,0,0-93.87,211.95-93.87,211.95,0,0-3.56-1.57-3.56-1.57h0Z"/>
          <path class="cls-1" d="M2211.86,1718.86c.87,4.31-1.14,8.04-3.52,11.39-2.32,3.27-4.87,6.25-8.28,8.57,0,0-13.77-8.14-13.77-8.14.18-2.14.68-4.09,1.29-5.97,2.08-5.51,4.4-11.94,10.51-13.98,0,0,13.77,8.14,13.77,8.14h0Z"/>
        </g>
        <g>
          <path class="cls-2" d="M2456.86,2510.35l-152.57,174.53-2.41,2.76s-.92-3.5-.92-3.51c-36.01-114.33,45.1-195.01,140.55-242.25,28.67-14.27,58.56-26.05,89.3-35.05,5.12-1.5,18.53-4.95,23.69-6.37,0,0-4.31,17.99-4.31,17.99-17.51,56.11-35.82,111.86-59.36,165.77-7.27,15.6-14.29,31.83-25.55,45.12-1.72,1.9-3.62,3.73-6.05,5.14,0,0-2.01-3.33-2.01-3.33,3.58-2.56,6.25-6.68,8.58-10.5,7.25-12.42,12.33-26.02,17.28-39.55,12.9-36.51,23-74.06,32.56-111.6,4.73-18.8,9.28-37.73,13.49-56.55,0,0,12.98,13.37,12.98,13.37-1.47.33-4.33.95-5.79,1.32-61.35,15.64-122.11,40.29-171.45,80.67-17.21,14.32-32.66,31.05-44.33,50.22-5.27,8.7-9.72,17.9-13.25,27.46-11.41,30.99-11.04,65.27-2.58,97.1,0,0-3.33-.74-3.33-.74l152.57-174.53s2.93,2.56,2.93,2.56h0Z"/>
          <path class="cls-2" d="M2280.27,2693.22c.45-4.38,3.47-7.34,6.74-9.83,3.19-2.43,6.5-4.52,10.45-5.72,0,0,10.73,11.87,10.73,11.87-.81,1.99-1.86,3.7-3,5.32-3.62,4.64-7.75,10.09-14.19,10.23,0,0-10.73-11.87-10.73-11.87h0Z"/>
        </g>
        <g>
          <path class="cls-1" d="M2437.19,3069.2l-216.99-81.56s-3.43-1.29-3.43-1.29c0,0,2.96-2.09,2.96-2.1,94.4-73.86,198.43-26.25,276.18,46.53,23.43,21.83,44.95,45.68,64.17,71.31,3.2,4.26,11.14,15.61,14.28,19.94,0,0-18.35,2.28-18.36,2.28-58.69,3.31-117.32,5.74-176.06,2.63-17.16-1.33-34.82-2.2-51.22-8.08-2.38-.94-4.76-2.08-6.93-3.86,0,0,2.41-3.05,2.41-3.05,3.65,2.45,8.45,3.51,12.84,4.34,14.18,2.43,28.69,2.4,43.1,2.29,38.72-.74,77.42-4.48,115.93-8.71,19.26-2.17,38.59-4.56,57.69-7.23,0,0-7.96,16.85-7.96,16.85-.83-1.26-2.41-3.72-3.27-4.96-36.16-51.92-80.64-100.22-135.74-132.2-19.45-11.09-40.54-19.68-62.58-23.87-10-1.87-20.17-2.81-30.36-2.77-33.03.21-64.99,12.58-91.82,31.68,0,0-.47-3.38-.47-3.38l216.99,81.56s-1.37,3.64-1.37,3.64h0Z"/>
          <path class="cls-1" d="M2203.95,2968.07c4.26-1.12,8.09.67,11.57,2.86,3.4,2.13,6.51,4.5,9.03,7.78,0,0-7.34,14.21-7.34,14.21-2.14-.06-4.12-.44-6.04-.94-5.62-1.76-12.17-3.71-14.56-9.69,0,0,7.34-14.21,7.34-14.21h0Z"/>
        </g>
        <g>
          <path class="cls-1" d="M1673.69,3059.41l-95.76-211.11s-1.51-3.34-1.51-3.34c0,0,3.57.61,3.58.61,118.98,14.52,158.87,121.75,162.39,228.19,1.13,32-.51,64.09-5.05,95.8-.75,5.28-3.16,18.91-4,24.2,0,0-14.59-11.36-14.59-11.36-43.84-39.16-87.02-78.89-126.35-122.63-11.2-13.08-23.06-26.18-30.5-41.93-1.02-2.35-1.9-4.84-2.17-7.63l3.86-.46c.85,4.31,3.49,8.46,6.01,12.15,8.31,11.74,18.59,21.99,28.86,32.09,27.9,26.85,57.91,51.58,88.13,75.81,15.16,12.08,30.51,24.06,45.9,35.68,0,0-17.54,6.29-17.54,6.29.3-1.48.92-4.33,1.19-5.81,11.14-62.32,13.85-127.84-2.5-189.46-5.91-21.6-14.75-42.58-27.37-61.13-5.75-8.4-12.27-16.25-19.51-23.42-23.5-23.21-54.85-37.06-87.33-42.53,0,0,2.06-2.73,2.06-2.73l95.76,211.11s-3.54,1.61-3.54,1.61h0Z"/>
          <path class="cls-1" d="M1580.27,2822.98c3.8,2.22,5.24,6.2,6.16,10.2.9,3.91,1.42,7.79.88,11.89,0,0-15.24,4.86-15.24,4.86-1.48-1.56-2.6-3.23-3.6-4.94-2.72-5.22-5.98-11.23-3.44-17.15,0,0,15.24-4.86,15.24-4.86h0Z"/>
        </g>
        <g>
          <path class="cls-1" d="M2057.62,3463.38l194.27-126.47s3.07-2,3.07-2c0,0-.07,3.62-.07,3.63,3.56,119.81-96.43,175.4-201.13,194.91-31.47,5.94-63.44,9.14-95.47,9.44-5.33.05-19.17-.28-24.53-.31,0,0,9.04-16.14,9.04-16.14,32.11-49.24,64.89-97.91,102.2-143.38,11.24-13.04,22.4-26.74,36.86-36.47,2.17-1.36,4.49-2.6,7.22-3.3l1.03,3.75c-4.14,1.49-7.83,4.72-11.11,7.77-10.35,9.98-18.94,21.69-27.38,33.36-22.35,31.63-42.27,65.02-61.68,98.54-9.66,16.8-19.19,33.79-28.35,50.75,0,0-8.86-16.39-8.86-16.39,1.51.08,4.42.26,5.93.31,63.29,1.63,128.47-5.57,186.92-31.01,20.46-9.1,39.88-21,56.31-36.27,7.43-6.95,14.22-14.58,20.22-22.82,19.4-26.72,28.37-59.81,28.89-92.74,0,0,3.01,1.62,3.01,1.62l-194.27,126.47-2.12-3.26h0Z"/>
          <path class="cls-1" d="M2277.28,3335.42c-1.62,4.09-5.34,6.12-9.16,7.62-3.73,1.47-7.48,2.58-11.62,2.67,0,0-7.1-14.34-7.1-14.34,1.32-1.69,2.8-3.06,4.34-4.3,4.75-3.48,10.2-7.61,16.44-5.99,0,0,7.1,14.34,7.1,14.34h0Z"/>
        </g>
        <g>
          <path class="cls-2" d="M2048.48,3111.55l216.99,81.56,3.43,1.29s-2.96,2.09-2.96,2.09c-94.4,73.86-198.43,26.25-276.18-46.53-23.43-21.83-44.95-45.68-64.17-71.31-3.2-4.26-11.14-15.61-14.28-19.94,0,0,18.35-2.28,18.36-2.28,58.69-3.31,117.32-5.74,176.06-2.63,17.16,1.33,34.82,2.2,51.22,8.08,2.38.94,4.76,2.08,6.93,3.86,0,0-2.41,3.05-2.41,3.05-3.65-2.45-8.45-3.51-12.84-4.34-14.18-2.43-28.69-2.4-43.1-2.29-38.72.74-77.42,4.48-115.93,8.71-19.26,2.17-38.59,4.56-57.68,7.23,0,0,7.96-16.85,7.96-16.85.83,1.26,2.41,3.72,3.27,4.96,36.16,51.92,80.64,100.22,135.74,132.2,19.45,11.09,40.54,19.68,62.58,23.87,10,1.87,20.17,2.81,30.36,2.76,33.03-.2,64.99-12.58,91.82-31.68,0,0,.47,3.38.47,3.38l-216.99-81.56s1.37-3.64,1.37-3.64h0Z"/>
          <path class="cls-2" d="M2281.72,3212.67c-4.26,1.12-8.09-.67-11.57-2.86-3.4-2.13-6.51-4.5-9.03-7.78,0,0,7.34-14.22,7.34-14.22,2.14.06,4.12.44,6.04.94,5.62,1.76,12.17,3.71,14.56,9.69,0,0-7.34,14.21-7.34,14.21h0Z"/>
        </g>
        <path class="cls-2" d="M1840.35,3628.43l95.76,211.11s1.51,3.34,1.51,3.34c0,0-3.57-.61-3.58-.61-118.98-14.52-158.87-121.75-162.39-228.19-1.13-32.01.51-64.09,5.05-95.8.75-5.28,3.16-18.91,4-24.2,0,0,14.59,11.36,14.59,11.37,43.84,39.16,87.02,78.89,126.35,122.63,11.2,13.08,23.06,26.18,30.5,41.93,1.02,2.35,1.9,4.84,2.17,7.63l-3.86.46c-.85-4.31-3.49-8.46-6.01-12.15-8.31-11.74-18.59-21.99-28.86-32.09-27.9-26.85-57.91-51.58-88.13-75.81-15.16-12.08-30.51-24.06-45.9-35.68,0,0,17.54-6.29,17.54-6.29-.3,1.48-.92,4.33-1.19,5.81-11.14,62.32-13.85,127.84,2.5,189.46,5.91,21.6,14.75,42.58,27.37,61.13,5.75,8.4,12.27,16.25,19.51,23.42,23.5,23.21,54.85,37.06,87.33,42.53,0,0-2.06,2.73-2.06,2.73l-95.76-211.11,3.54-1.61h0Z"/>
        <g>
          <path class="cls-2" d="M1838.68,3275.45l-81.56,216.99-1.29,3.43s-2.09-2.96-2.09-2.96c-73.86-94.4-26.25-198.43,46.53-276.18,21.83-23.43,45.68-44.95,71.31-64.17,4.26-3.2,15.61-11.14,19.94-14.29,0,0,2.28,18.35,2.28,18.36,3.31,58.69,5.74,117.32,2.63,176.06-1.33,17.16-2.2,34.82-8.08,51.22-.94,2.38-2.08,4.76-3.86,6.93,0,0-3.05-2.41-3.05-2.41,2.45-3.65,3.51-8.45,4.34-12.84,2.43-14.18,2.4-28.69,2.29-43.1-.74-38.72-4.48-77.42-8.71-115.93-2.17-19.26-4.56-38.59-7.23-57.69,0,0,16.85,7.96,16.85,7.96-1.26.83-3.72,2.41-4.96,3.27-51.95,36.19-100.19,80.61-132.2,135.74-11.09,19.45-19.68,40.54-23.87,62.58-1.87,10-2.81,20.17-2.76,30.36.2,33.03,12.59,64.99,31.68,91.82,0,0-3.38.47-3.38.47l81.56-216.99s3.64,1.37,3.64,1.37h0Z"/>
          <path class="cls-2" d="M1737.55,3508.69c-1.12-4.25.67-8.09,2.86-11.57,2.13-3.4,4.5-6.51,7.78-9.03,0,0,14.21,7.34,14.21,7.34-.06,2.15-.44,4.12-.94,6.04-1.76,5.62-3.71,12.17-9.69,14.56,0,0-14.21-7.34-14.21-7.34h0Z"/>
        </g>
        <g>
          <path class="cls-1" d="M2097.52,2882.08l93.87-211.95,1.48-3.35s1.92,3.07,1.92,3.08c68.33,98.48,14.83,199.61-62.3,273.06-23.14,22.14-48.19,42.26-74.87,59.98-4.44,2.95-16.22,10.23-20.73,13.12,0,0-1.22-18.45-1.23-18.46.06-58.78,1-117.45,7.47-175.92,2.31-17.06,4.2-34.63,11-50.67,1.08-2.32,2.35-4.63,4.25-6.7l2.91,2.58c-2.65,3.5-3.99,8.23-5.07,12.57-3.24,14.01-4.05,28.51-4.76,42.9-1.48,38.7.03,77.55,2.04,116.23,1.06,19.36,2.34,38.79,3.91,58,0,0-16.36-8.91-16.36-8.91,1.31-.76,3.85-2.19,5.13-2.98,53.91-33.12,104.68-74.76,139.77-127.93,12.19-18.78,21.97-39.35,27.42-61.11,2.44-9.88,3.97-19.98,4.5-30.15,1.69-32.98-8.84-65.6-26.36-93.49,0,0,3.4-.28,3.4-.28l-93.87,211.95s-3.56-1.57-3.56-1.57h0Z"/>
          <path class="cls-1" d="M2211.86,2655.03c.87,4.31-1.14,8.04-3.52,11.39-2.32,3.27-4.87,6.25-8.28,8.57,0,0-13.77-8.14-13.77-8.14.18-2.14.68-4.09,1.29-5.97,2.08-5.5,4.4-11.94,10.51-13.98,0,0,13.77,8.14,13.77,8.14h0Z"/>
        </g>
        <g>
          <path class="cls-2" d="M2456.86,3446.52l-152.57,174.53s-2.41,2.76-2.41,2.76c0,0-.92-3.5-.92-3.51-36.01-114.33,45.1-195.01,140.55-242.25,28.67-14.27,58.56-26.05,89.3-35.05,5.12-1.5,18.53-4.95,23.69-6.37,0,0-4.31,17.99-4.31,17.99-17.51,56.11-35.82,111.86-59.36,165.77-7.27,15.6-14.29,31.83-25.55,45.12-1.72,1.9-3.62,3.73-6.05,5.14,0,0-2.01-3.33-2.01-3.33,3.58-2.56,6.25-6.68,8.58-10.5,7.25-12.42,12.33-26.02,17.28-39.55,12.9-36.51,23-74.06,32.56-111.6,4.73-18.8,9.28-37.73,13.49-56.55,0,0,12.98,13.37,12.98,13.37-1.47.33-4.33.95-5.79,1.32-61.35,15.64-122.11,40.29-171.45,80.67-17.21,14.32-32.66,31.05-44.33,50.22-5.27,8.7-9.72,17.9-13.25,27.46-11.41,31-11.04,65.27-2.58,97.1,0,0-3.33-.74-3.33-.74,0,0,152.57-174.53,152.57-174.53l2.93,2.56h0Z"/>
          <path class="cls-2" d="M2280.27,3629.39c.45-4.38,3.47-7.34,6.74-9.83,3.19-2.43,6.5-4.52,10.45-5.72,0,0,10.73,11.87,10.73,11.87-.81,1.99-1.86,3.7-3,5.32-3.62,4.64-7.75,10.09-14.19,10.23,0,0-10.73-11.87-10.73-11.87h0Z"/>
        </g>
        <g>
          <path class="cls-1" d="M1673.69,3995.58l-95.76-211.11s-1.51-3.34-1.51-3.34c0,0,3.57.61,3.58.61,118.98,14.52,158.87,121.75,162.39,228.19,1.13,32-.51,64.09-5.05,95.8-.75,5.28-3.16,18.91-4,24.2,0,0-14.59-11.37-14.59-11.37-43.84-39.16-87.02-78.9-126.35-122.63-11.2-13.08-23.06-26.18-30.5-41.93-1.02-2.35-1.9-4.84-2.17-7.63,0,0,3.86-.46,3.86-.46.85,4.31,3.49,8.46,6.01,12.15,8.31,11.74,18.59,21.99,28.86,32.09,27.9,26.85,57.91,51.58,88.13,75.81,15.16,12.08,30.51,24.06,45.9,35.68,0,0-17.54,6.29-17.54,6.29.3-1.48.92-4.33,1.19-5.81,11.14-62.32,13.85-127.84-2.5-189.46-5.91-21.6-14.75-42.58-27.37-61.13-5.75-8.4-12.27-16.25-19.51-23.42-23.5-23.21-54.85-37.05-87.33-42.53,0,0,2.06-2.73,2.06-2.73l95.76,211.11-3.54,1.61h0Z"/>
          <path class="cls-1" d="M1580.27,3759.15c3.8,2.22,5.24,6.2,6.16,10.2.9,3.91,1.42,7.79.88,11.89,0,0-15.24,4.86-15.24,4.86-1.48-1.56-2.6-3.23-3.6-4.94-2.72-5.22-5.98-11.23-3.44-17.15,0,0,15.24-4.86,15.24-4.86h0Z"/>
        </g>
        <g>
          <path class="cls-1" d="M2097.52,3818.25l93.87-211.95s1.48-3.35,1.48-3.35c0,0,1.92,3.07,1.92,3.08,68.33,98.48,14.83,199.61-62.3,273.06-23.14,22.14-48.19,42.26-74.87,59.98-4.44,2.95-16.22,10.23-20.73,13.12,0,0-1.22-18.45-1.23-18.46.06-58.78,1-117.45,7.47-175.92,2.31-17.06,4.2-34.63,11-50.67,1.08-2.32,2.35-4.63,4.25-6.7,0,0,2.91,2.58,2.91,2.58-2.65,3.5-3.99,8.23-5.07,12.57-3.24,14.01-4.05,28.51-4.76,42.9-1.48,38.7.03,77.55,2.04,116.24,1.06,19.35,2.34,38.79,3.91,58,0,0-16.36-8.91-16.36-8.91,1.31-.76,3.85-2.19,5.13-2.98,53.94-33.15,104.65-74.73,139.77-127.93,12.19-18.79,21.97-39.35,27.42-61.11,2.44-9.87,3.97-19.98,4.5-30.15,1.69-32.98-8.84-65.6-26.36-93.49,0,0,3.4-.28,3.4-.28,0,0-93.87,211.95-93.87,211.95l-3.56-1.57h0Z"/>
          <path class="cls-1" d="M2211.86,3591.2c.87,4.31-1.14,8.04-3.52,11.39-2.32,3.27-4.87,6.25-8.28,8.57,0,0-13.77-8.14-13.77-8.14.18-2.14.68-4.09,1.29-5.97,2.08-5.5,4.4-11.94,10.51-13.98,0,0,13.77,8.14,13.77,8.14h0Z"/>
        </g>
        <g>
          <path class="cls-1" d="M1476.19,260.69l-216.99-81.56s-3.43-1.29-3.43-1.29c0,0,2.96-2.09,2.96-2.09,94.4-73.86,198.43-26.25,276.18,46.53,23.43,21.83,44.95,45.68,64.17,71.31,3.2,4.26,11.14,15.61,14.28,19.94,0,0-18.35,2.28-18.36,2.28-58.69,3.31-117.32,5.74-176.06,2.63-17.16-1.33-34.82-2.2-51.22-8.08-2.38-.94-4.76-2.08-6.93-3.86,0,0,2.41-3.05,2.41-3.05,3.65,2.45,8.45,3.51,12.84,4.34,14.18,2.43,28.69,2.4,43.1,2.29,38.72-.74,77.42-4.47,115.93-8.71,19.26-2.17,38.59-4.56,57.68-7.23,0,0-7.96,16.85-7.96,16.85-.83-1.26-2.41-3.72-3.27-4.96-36.16-51.92-80.64-100.22-135.74-132.2-19.45-11.09-40.54-19.68-62.58-23.87-10-1.87-20.17-2.81-30.36-2.76-33.03.2-64.99,12.58-91.82,31.68,0,0-.47-3.38-.47-3.38l216.99,81.56s-1.37,3.64-1.37,3.64h0Z"/>
          <path class="cls-1" d="M1242.96,159.56c4.26-1.12,8.09.67,11.57,2.86,3.4,2.13,6.51,4.5,9.03,7.78,0,0-7.34,14.21-7.34,14.21-2.14-.06-4.12-.44-6.04-.94-5.62-1.76-12.17-3.71-14.56-9.69,0,0,7.34-14.21,7.34-14.21h0Z"/>
        </g>
        <g>
          <path class="cls-1" d="M712.69,250.9l-95.76-211.11s-1.51-3.34-1.51-3.34c0,0,3.57.61,3.58.61,118.98,14.52,158.87,121.75,162.39,228.19,1.13,32.01-.51,64.09-5.05,95.8-.75,5.28-3.16,18.91-4,24.2,0,0-14.59-11.36-14.59-11.37-43.84-39.16-87.02-78.89-126.35-122.63-11.2-13.08-23.06-26.18-30.5-41.93-1.02-2.35-1.9-4.84-2.17-7.63l3.86-.46c.85,4.31,3.49,8.46,6.01,12.15,8.31,11.74,18.59,21.99,28.86,32.09,27.9,26.85,57.91,51.58,88.13,75.81,15.16,12.08,30.51,24.06,45.9,35.68,0,0-17.54,6.29-17.54,6.29.3-1.48.92-4.33,1.19-5.81,11.14-62.32,13.85-127.84-2.5-189.46-5.91-21.6-14.75-42.58-27.37-61.13-5.75-8.4-12.27-16.25-19.51-23.42-23.5-23.21-54.85-37.05-87.33-42.53,0,0,2.06-2.73,2.06-2.73,0,0,95.76,211.11,95.76,211.11,0,0-3.54,1.61-3.54,1.61h0Z"/>
          <path class="cls-1" d="M619.28,14.47c3.8,2.22,5.24,6.2,6.16,10.2.9,3.91,1.42,7.79.88,11.89,0,0-15.24,4.86-15.24,4.86-1.48-1.56-2.6-3.23-3.6-4.94-2.72-5.22-5.98-11.23-3.44-17.15,0,0,15.24-4.86,15.24-4.86h0Z"/>
        </g>
        <g>
          <path class="cls-1" d="M1096.62,654.87l194.27-126.47s3.07-2,3.07-2c0,0-.07,3.62-.07,3.63,3.56,119.81-96.43,175.4-201.13,194.91-31.47,5.94-63.44,9.14-95.47,9.44-5.33.05-19.17-.28-24.53-.31,0,0,9.04-16.14,9.04-16.14,32.11-49.24,64.89-97.91,102.2-143.38,11.24-13.04,22.4-26.74,36.86-36.47,2.17-1.36,4.49-2.6,7.22-3.3,0,0,1.03,3.75,1.03,3.75-4.14,1.49-7.83,4.72-11.11,7.77-10.35,9.98-18.94,21.69-27.38,33.36-22.35,31.63-42.27,65.02-61.68,98.54-9.66,16.8-19.19,33.79-28.36,50.75,0,0-8.86-16.39-8.86-16.39,1.51.08,4.42.26,5.93.31,63.29,1.63,128.47-5.57,186.92-31.01,20.46-9.1,39.88-21,56.31-36.27,7.43-6.95,14.22-14.58,20.22-22.82,19.4-26.73,28.37-59.81,28.89-92.74,0,0,3.01,1.62,3.01,1.62,0,0-194.27,126.47-194.27,126.47,0,0-2.12-3.26-2.12-3.26h0Z"/>
          <path class="cls-1" d="M1316.28,526.91c-1.62,4.09-5.33,6.12-9.16,7.63-3.73,1.48-7.48,2.58-11.62,2.67,0,0-7.1-14.34-7.1-14.34,1.32-1.69,2.8-3.06,4.34-4.3,4.75-3.48,10.2-7.61,16.44-5.99,0,0,7.1,14.34,7.1,14.34h0Z"/>
        </g>
        <g>
          <path class="cls-2" d="M1087.49,303.04l216.99,81.56,3.43,1.29s-2.96,2.09-2.96,2.09c-94.4,73.86-198.43,26.25-276.18-46.53-23.43-21.83-44.95-45.68-64.17-71.31-3.2-4.26-11.14-15.61-14.28-19.94,0,0,18.35-2.28,18.36-2.28,58.69-3.31,117.32-5.74,176.06-2.63,17.16,1.33,34.82,2.2,51.22,8.08,2.38.94,4.76,2.08,6.93,3.86,0,0-2.41,3.05-2.41,3.05-3.65-2.45-8.45-3.51-12.84-4.34-14.18-2.43-28.69-2.4-43.1-2.29-38.72.74-77.42,4.48-115.93,8.71-19.26,2.17-38.59,4.56-57.68,7.23,0,0,7.96-16.85,7.96-16.85.83,1.26,2.41,3.72,3.27,4.96,36.16,51.92,80.64,100.22,135.74,132.2,19.45,11.09,40.54,19.68,62.58,23.87,10,1.87,20.17,2.81,30.36,2.76,33.03-.2,64.99-12.58,91.82-31.68,0,0,.47,3.38.47,3.38,0,0-216.99-81.56-216.99-81.56,0,0,1.37-3.64,1.37-3.64h0Z"/>
          <path class="cls-2" d="M1320.72,404.16c-4.26,1.12-8.09-.67-11.57-2.86-3.4-2.13-6.51-4.5-9.03-7.78,0,0,7.34-14.21,7.34-14.21,2.14.06,4.12.44,6.04.94,5.62,1.76,12.17,3.71,14.56,9.7,0,0-7.34,14.21-7.34,14.21h0Z"/>
        </g>
        <g>
          <path class="cls-2" d="M879.36,819.92l95.76,211.11,1.51,3.34s-3.57-.61-3.58-.61c-118.98-14.52-158.87-121.75-162.39-228.19-1.13-32,.51-64.09,5.05-95.8.75-5.28,3.16-18.91,4-24.2,0,0,14.59,11.36,14.59,11.36,43.84,39.16,87.02,78.89,126.35,122.63,11.2,13.08,23.06,26.18,30.5,41.93,1.02,2.35,1.9,4.84,2.17,7.63,0,0-3.86.46-3.86.46-.85-4.31-3.49-8.46-6.01-12.15-8.31-11.74-18.59-21.99-28.86-32.09-27.9-26.85-57.91-51.58-88.13-75.81-15.16-12.08-30.51-24.06-45.9-35.68,0,0,17.54-6.29,17.54-6.29-.3,1.48-.92,4.33-1.19,5.81-11.14,62.32-13.85,127.84,2.5,189.46,5.91,21.6,14.75,42.58,27.37,61.13,5.75,8.4,12.27,16.25,19.51,23.42,23.5,23.21,54.85,37.06,87.33,42.53,0,0-2.06,2.73-2.06,2.73,0,0-95.76-211.11-95.76-211.11l3.54-1.61h0Z"/>
          <path class="cls-2" d="M972.77,1056.34c-3.8-2.22-5.24-6.2-6.16-10.2-.9-3.91-1.42-7.79-.88-11.89,0,0,15.24-4.86,15.24-4.86,1.48,1.56,2.6,3.23,3.6,4.94,2.72,5.22,5.98,11.23,3.44,17.15,0,0-15.24,4.86-15.24,4.86h0Z"/>
        </g>
        <g>
          <path class="cls-2" d="M877.69,466.94l-81.56,216.99-1.29,3.43s-2.09-2.96-2.09-2.96c-73.86-94.4-26.25-198.43,46.53-276.18,21.83-23.43,45.68-44.95,71.31-64.17,4.26-3.2,15.61-11.14,19.94-14.28,0,0,2.28,18.35,2.28,18.36,3.31,58.69,5.74,117.32,2.63,176.06-1.33,17.16-2.2,34.82-8.08,51.22-.94,2.38-2.08,4.76-3.86,6.93,0,0-3.05-2.41-3.05-2.41,2.45-3.65,3.51-8.45,4.34-12.84,2.43-14.18,2.4-28.69,2.29-43.1-.74-38.72-4.48-77.42-8.71-115.93-2.17-19.26-4.56-38.59-7.23-57.69,0,0,16.85,7.96,16.85,7.96-1.26.83-3.72,2.41-4.96,3.27-51.92,36.16-100.22,80.64-132.2,135.74-11.09,19.45-19.68,40.54-23.87,62.58-1.87,10-2.81,20.17-2.76,30.36.2,33.03,12.58,64.99,31.68,91.82,0,0-3.38.47-3.38.47l81.56-216.99s3.64,1.37,3.64,1.37h0Z"/>
          <path class="cls-2" d="M776.56,700.18c-1.12-4.26.67-8.09,2.86-11.57,2.13-3.4,4.5-6.51,7.78-9.03,0,0,14.21,7.34,14.21,7.34-.06,2.14-.44,4.12-.94,6.04-1.76,5.62-3.71,12.17-9.69,14.56,0,0-14.22-7.34-14.22-7.34h0Z"/>
        </g>
        <path class="cls-1" d="M1136.53,73.57l93.87-211.95s1.48-3.35,1.48-3.35c0,0,1.92,3.07,1.92,3.08,68.33,98.48,14.83,199.61-62.3,273.06-23.14,22.14-48.19,42.26-74.87,59.98-4.44,2.95-16.22,10.23-20.73,13.12,0,0-1.22-18.45-1.23-18.46.06-58.78,1-117.45,7.47-175.92,2.31-17.06,4.2-34.63,11-50.67,1.08-2.32,2.35-4.63,4.25-6.7,0,0,2.91,2.58,2.91,2.58-2.65,3.5-3.99,8.23-5.07,12.57-3.24,14.01-4.05,28.51-4.76,42.9-1.48,38.7.03,77.55,2.04,116.24,1.06,19.35,2.34,38.79,3.91,58,0,0-16.36-8.91-16.36-8.91,1.31-.76,3.85-2.19,5.13-2.98,53.91-33.12,104.68-74.76,139.77-127.93,12.19-18.78,21.97-39.35,27.42-61.11,2.44-9.88,3.97-19.98,4.5-30.15,1.69-32.98-8.84-65.6-26.36-93.49,0,0,3.4-.28,3.4-.28l-93.87,211.95-3.56-1.57h0Z"/>
        <g>
          <path class="cls-2" d="M1495.87,638.01l-152.57,174.53-2.41,2.76s-.92-3.5-.92-3.51c-36.01-114.33,45.1-195.01,140.55-242.25,28.67-14.27,58.56-26.05,89.3-35.05,5.12-1.5,18.53-4.95,23.69-6.37,0,0-4.31,17.99-4.31,17.99-17.51,56.11-35.82,111.86-59.36,165.77-7.27,15.6-14.29,31.83-25.55,45.12-1.72,1.9-3.62,3.73-6.05,5.14,0,0-2.01-3.33-2.01-3.33,3.57-2.56,6.25-6.68,8.58-10.5,7.25-12.42,12.33-26.02,17.28-39.55,12.9-36.51,23-74.06,32.56-111.6,4.73-18.8,9.28-37.73,13.49-56.55,0,0,12.98,13.37,12.98,13.37-1.47.33-4.33.95-5.79,1.32-61.35,15.64-122.11,40.29-171.45,80.67-17.21,14.32-32.66,31.05-44.33,50.21-5.27,8.71-9.72,17.9-13.25,27.46-11.41,31-11.04,65.27-2.58,97.1,0,0-3.33-.74-3.33-.74,0,0,152.57-174.53,152.57-174.53,0,0,2.93,2.56,2.93,2.56h0Z"/>
          <path class="cls-2" d="M1319.28,820.88c.45-4.38,3.47-7.34,6.74-9.83,3.19-2.43,6.5-4.52,10.45-5.72,0,0,10.73,11.87,10.73,11.87-.81,1.99-1.86,3.7-3,5.32-3.62,4.64-7.75,10.09-14.19,10.23,0,0-10.73-11.87-10.73-11.87h0Z"/>
        </g>
        <g>
          <path class="cls-1" d="M1476.19,1196.86l-216.99-81.56-3.43-1.29s2.96-2.09,2.96-2.09c94.4-73.86,198.43-26.25,276.18,46.53,23.43,21.83,44.95,45.68,64.17,71.31,3.2,4.26,11.14,15.61,14.28,19.94,0,0-18.35,2.28-18.36,2.28-58.69,3.31-117.32,5.74-176.06,2.63-17.16-1.33-34.82-2.2-51.22-8.08-2.38-.94-4.76-2.08-6.93-3.86,0,0,2.41-3.05,2.41-3.05,3.65,2.45,8.45,3.51,12.84,4.34,14.18,2.43,28.69,2.4,43.1,2.29,38.72-.74,77.42-4.48,115.93-8.71,19.26-2.17,38.59-4.56,57.68-7.23,0,0-7.96,16.85-7.96,16.85-.83-1.26-2.41-3.72-3.27-4.96-36.16-51.92-80.64-100.22-135.74-132.2-19.45-11.09-40.54-19.68-62.58-23.87-10-1.87-20.17-2.81-30.36-2.76-33.03.2-64.99,12.58-91.82,31.68,0,0-.47-3.38-.47-3.38,0,0,216.99,81.56,216.99,81.56l-1.37,3.64h0Z"/>
          <path class="cls-1" d="M1242.96,1095.73c4.26-1.12,8.09.67,11.57,2.86,3.4,2.13,6.51,4.5,9.03,7.78,0,0-7.34,14.21-7.34,14.21-2.14-.06-4.12-.44-6.04-.94-5.62-1.76-12.17-3.71-14.56-9.69,0,0,7.34-14.22,7.34-14.22h0Z"/>
        </g>
        <g>
          <path class="cls-1" d="M712.69,1187.07l-95.76-211.11s-1.51-3.34-1.51-3.34c0,0,3.57.61,3.58.61,118.98,14.52,158.87,121.75,162.39,228.19,1.13,32-.51,64.09-5.05,95.8-.75,5.28-3.16,18.91-4,24.2,0,0-14.59-11.36-14.59-11.36-43.84-39.16-87.02-78.89-126.35-122.63-11.2-13.08-23.06-26.18-30.5-41.93-1.02-2.35-1.9-4.84-2.17-7.63l3.86-.46c.85,4.31,3.49,8.46,6.01,12.15,8.31,11.74,18.59,21.99,28.86,32.09,27.9,26.85,57.91,51.58,88.13,75.81,15.16,12.08,30.51,24.06,45.9,35.68,0,0-17.54,6.29-17.54,6.29.3-1.48.92-4.33,1.19-5.81,11.14-62.32,13.85-127.84-2.5-189.46-5.91-21.6-14.75-42.58-27.37-61.13-5.75-8.4-12.27-16.25-19.51-23.42-23.5-23.21-54.85-37.06-87.33-42.53,0,0,2.06-2.73,2.06-2.73,0,0,95.76,211.11,95.76,211.11,0,0-3.54,1.61-3.54,1.61h0Z"/>
          <path class="cls-1" d="M619.28,950.64c3.8,2.22,5.24,6.2,6.16,10.2.9,3.91,1.42,7.79.88,11.89,0,0-15.24,4.86-15.24,4.86-1.48-1.56-2.6-3.23-3.6-4.94-2.72-5.22-5.98-11.23-3.44-17.15,0,0,15.24-4.86,15.24-4.86h0Z"/>
        </g>
        <g>
          <path class="cls-1" d="M1096.62,1591.04l194.27-126.47s3.07-2,3.07-2c0,0-.07,3.62-.07,3.63,3.56,119.81-96.43,175.4-201.13,194.91-31.47,5.94-63.44,9.14-95.47,9.44-5.33.05-19.17-.28-24.53-.31,0,0,9.04-16.14,9.04-16.14,32.11-49.24,64.89-97.91,102.2-143.38,11.24-13.04,22.4-26.74,36.86-36.47,2.17-1.36,4.49-2.6,7.22-3.3,0,0,1.03,3.75,1.03,3.75-4.14,1.49-7.83,4.73-11.11,7.77-10.35,9.98-18.94,21.69-27.38,33.36-22.35,31.63-42.27,65.02-61.68,98.54-9.66,16.8-19.19,33.79-28.36,50.75,0,0-8.86-16.39-8.86-16.39,1.51.08,4.42.26,5.93.31,63.29,1.63,128.47-5.57,186.92-31.01,20.46-9.1,39.88-21,56.31-36.27,7.43-6.94,14.22-14.58,20.22-22.82,19.4-26.73,28.37-59.81,28.89-92.74,0,0,3.01,1.62,3.01,1.62l-194.27,126.47s-2.12-3.26-2.12-3.26h0Z"/>
          <path class="cls-1" d="M1316.28,1463.08c-1.62,4.09-5.33,6.12-9.16,7.63-3.73,1.47-7.48,2.58-11.62,2.67,0,0-7.1-14.34-7.1-14.34,1.32-1.69,2.8-3.06,4.34-4.3,4.75-3.48,10.2-7.61,16.44-5.99,0,0,7.1,14.34,7.1,14.34h0Z"/>
        </g>
        <g>
          <path class="cls-2" d="M1087.49,1239.21l216.99,81.56s3.43,1.29,3.43,1.29c0,0-2.96,2.09-2.96,2.09-94.4,73.86-198.43,26.25-276.18-46.53-23.43-21.83-44.95-45.68-64.17-71.31-3.2-4.26-11.14-15.61-14.28-19.94,0,0,18.35-2.28,18.36-2.28,58.69-3.31,117.32-5.74,176.06-2.63,17.16,1.33,34.82,2.2,51.22,8.08,2.38.94,4.76,2.08,6.93,3.86,0,0-2.41,3.05-2.41,3.05-3.65-2.45-8.45-3.51-12.84-4.34-14.18-2.43-28.69-2.4-43.1-2.29-38.72.74-77.42,4.48-115.93,8.71-19.26,2.17-38.59,4.56-57.68,7.23,0,0,7.96-16.85,7.96-16.85.83,1.26,2.41,3.72,3.27,4.96,36.16,51.92,80.64,100.22,135.74,132.2,19.45,11.09,40.54,19.68,62.58,23.87,10,1.87,20.17,2.81,30.36,2.76,33.03-.2,64.99-12.58,91.82-31.68,0,0,.47,3.38.47,3.38,0,0-216.99-81.56-216.99-81.56l1.37-3.64h0Z"/>
          <path class="cls-2" d="M1320.72,1340.33c-4.26,1.12-8.09-.67-11.57-2.86-3.4-2.13-6.51-4.5-9.03-7.78,0,0,7.34-14.21,7.34-14.21,2.14.06,4.12.44,6.04.94,5.62,1.76,12.17,3.71,14.56,9.69,0,0-7.34,14.21-7.34,14.21h0Z"/>
        </g>
        <g>
          <path class="cls-2" d="M879.36,1756.09l95.76,211.11,1.51,3.34s-3.57-.61-3.58-.61c-118.98-14.52-158.87-121.75-162.39-228.19-1.13-32.01.51-64.09,5.05-95.8.75-5.28,3.16-18.91,4-24.2,0,0,14.59,11.36,14.59,11.37,43.84,39.16,87.02,78.89,126.35,122.63,11.2,13.08,23.06,26.18,30.5,41.93,1.02,2.35,1.9,4.84,2.17,7.63l-3.86.46c-.85-4.31-3.49-8.46-6.01-12.15-8.31-11.74-18.59-21.99-28.86-32.09-27.9-26.85-57.91-51.58-88.13-75.81-15.16-12.08-30.51-24.06-45.9-35.68,0,0,17.54-6.29,17.54-6.29-.3,1.48-.92,4.33-1.19,5.81-11.14,62.32-13.85,127.84,2.5,189.46,5.91,21.6,14.75,42.58,27.37,61.13,5.75,8.4,12.27,16.25,19.51,23.42,23.5,23.21,54.85,37.05,87.33,42.53,0,0-2.06,2.73-2.06,2.73l-95.76-211.11,3.54-1.61h0Z"/>
          <path class="cls-2" d="M972.77,1992.51c-3.8-2.22-5.24-6.2-6.16-10.2-.9-3.91-1.42-7.79-.88-11.89,0,0,15.24-4.86,15.24-4.86,1.48,1.56,2.6,3.23,3.6,4.94,2.72,5.22,5.98,11.23,3.44,17.15,0,0-15.24,4.86-15.24,4.86h0Z"/>
        </g>
        <g>
          <path class="cls-2" d="M877.69,1403.11l-81.56,216.99-1.29,3.43s-2.09-2.96-2.09-2.96c-73.86-94.4-26.25-198.43,46.53-276.18,21.83-23.43,45.68-44.95,71.31-64.17,4.27-3.2,15.61-11.14,19.94-14.28,0,0,2.28,18.35,2.28,18.36,3.31,58.69,5.74,117.32,2.63,176.06-1.33,17.16-2.2,34.82-8.08,51.22-.94,2.38-2.08,4.76-3.86,6.93,0,0-3.05-2.41-3.05-2.41,2.45-3.65,3.51-8.45,4.34-12.84,2.43-14.18,2.4-28.69,2.29-43.1-.74-38.72-4.48-77.42-8.71-115.93-2.17-19.26-4.56-38.59-7.23-57.68,0,0,16.85,7.96,16.85,7.96-1.26.83-3.72,2.41-4.96,3.27-51.92,36.16-100.22,80.64-132.2,135.74-11.09,19.45-19.68,40.54-23.87,62.58-1.87,10-2.81,20.17-2.76,30.36.2,33.03,12.58,64.99,31.68,91.82,0,0-3.38.47-3.38.47l81.56-216.99s3.64,1.37,3.64,1.37h0Z"/>
          <path class="cls-2" d="M776.56,1636.35c-1.12-4.26.67-8.09,2.86-11.57,2.13-3.4,4.5-6.51,7.78-9.03,0,0,14.21,7.34,14.21,7.34-.06,2.14-.44,4.12-.94,6.04-1.76,5.62-3.71,12.17-9.69,14.56,0,0-14.22-7.34-14.22-7.34h0Z"/>
        </g>
        <g>
          <path class="cls-1" d="M1136.53,1009.74l93.87-211.95s1.48-3.35,1.48-3.35c0,0,1.92,3.07,1.92,3.08,68.33,98.48,14.83,199.61-62.3,273.06-23.14,22.14-48.19,42.26-74.87,59.98-4.44,2.95-16.22,10.23-20.73,13.12,0,0-1.22-18.45-1.23-18.46.06-58.78,1-117.45,7.47-175.92,2.31-17.06,4.2-34.63,11-50.67,1.08-2.32,2.35-4.63,4.25-6.7,0,0,2.91,2.58,2.91,2.58-2.65,3.5-3.99,8.23-5.07,12.57-3.24,14.01-4.05,28.51-4.76,42.9-1.48,38.7.03,77.55,2.04,116.23,1.06,19.35,2.34,38.79,3.91,58,0,0-16.36-8.91-16.36-8.91,1.31-.76,3.85-2.19,5.13-2.98,53.91-33.13,104.68-74.76,139.77-127.93,12.19-18.78,21.97-39.35,27.42-61.11,2.44-9.88,3.97-19.98,4.5-30.15,1.69-32.98-8.84-65.6-26.36-93.49,0,0,3.4-.28,3.4-.28l-93.87,211.95-3.56-1.57h0Z"/>
          <path class="cls-1" d="M1250.87,782.69c.87,4.31-1.14,8.04-3.52,11.39-2.32,3.27-4.87,6.25-8.28,8.57,0,0-13.77-8.14-13.77-8.14.18-2.14.68-4.09,1.29-5.97,2.08-5.51,4.4-11.94,10.51-13.98,0,0,13.77,8.14,13.77,8.14h0Z"/>
        </g>
        <g>
          <path class="cls-2" d="M1495.87,1574.18l-152.57,174.53s-2.41,2.76-2.41,2.76c0,0-.92-3.5-.92-3.51-36.01-114.33,45.1-195.01,140.55-242.25,28.67-14.27,58.56-26.05,89.3-35.05,5.12-1.5,18.53-4.95,23.69-6.37,0,0-4.31,17.99-4.31,17.99-17.51,56.11-35.82,111.86-59.36,165.77-7.27,15.6-14.29,31.83-25.55,45.12-1.72,1.9-3.62,3.73-6.05,5.14l-2.01-3.33c3.58-2.56,6.25-6.68,8.58-10.5,7.25-12.42,12.33-26.02,17.28-39.55,12.9-36.51,23-74.06,32.56-111.6,4.73-18.8,9.28-37.73,13.49-56.55,0,0,12.98,13.37,12.98,13.37-1.47.33-4.33.95-5.79,1.32-61.35,15.64-122.11,40.29-171.45,80.67-17.21,14.32-32.66,31.05-44.33,50.22-5.27,8.71-9.72,17.9-13.25,27.46-11.41,31-11.04,65.27-2.58,97.1,0,0-3.33-.74-3.33-.74l152.57-174.53s2.93,2.56,2.93,2.56h0Z"/>
          <path class="cls-2" d="M1319.28,1757.05c.45-4.38,3.47-7.34,6.74-9.83,3.19-2.43,6.5-4.52,10.45-5.72,0,0,10.73,11.87,10.73,11.87-.81,1.99-1.86,3.7-3,5.32-3.62,4.64-7.75,10.09-14.19,10.23,0,0-10.73-11.87-10.73-11.87h0Z"/>
        </g>
        <g>
          <path class="cls-1" d="M1476.19,2133.03l-216.99-81.56s-3.43-1.29-3.43-1.29c0,0,2.96-2.09,2.96-2.09,94.4-73.86,198.43-26.25,276.18,46.53,23.43,21.83,44.95,45.68,64.17,71.31,3.2,4.26,11.14,15.61,14.28,19.94,0,0-18.35,2.28-18.36,2.28-58.69,3.31-117.32,5.74-176.06,2.63-17.16-1.33-34.82-2.2-51.22-8.08-2.38-.94-4.76-2.08-6.93-3.86,0,0,2.41-3.05,2.41-3.05,3.65,2.45,8.45,3.51,12.84,4.34,14.18,2.43,28.69,2.4,43.1,2.29,38.72-.74,77.42-4.47,115.93-8.71,19.26-2.17,38.59-4.56,57.68-7.23,0,0-7.96,16.85-7.96,16.85-.83-1.26-2.41-3.72-3.27-4.96-36.16-51.92-80.64-100.22-135.74-132.2-19.45-11.09-40.54-19.68-62.58-23.87-10-1.87-20.17-2.81-30.36-2.76-33.03.2-64.99,12.58-91.82,31.68,0,0-.47-3.38-.47-3.38,0,0,216.99,81.56,216.99,81.56l-1.37,3.64h0Z"/>
          <path class="cls-1" d="M1242.96,2031.9c4.26-1.12,8.09.67,11.57,2.86,3.4,2.13,6.51,4.5,9.03,7.78,0,0-7.34,14.21-7.34,14.21-2.14-.06-4.12-.44-6.04-.94-5.62-1.76-12.17-3.71-14.56-9.69,0,0,7.34-14.21,7.34-14.21h0Z"/>
        </g>
        <g>
          <path class="cls-1" d="M712.69,2123.24l-95.76-211.11s-1.51-3.34-1.51-3.34c0,0,3.57.61,3.58.61,118.98,14.52,158.87,121.75,162.39,228.19,1.13,32.01-.51,64.09-5.05,95.8-.75,5.28-3.16,18.91-4,24.2,0,0-14.59-11.36-14.59-11.37-43.84-39.16-87.02-78.89-126.35-122.63-11.2-13.08-23.06-26.18-30.5-41.93-1.02-2.35-1.9-4.84-2.17-7.63,0,0,3.86-.46,3.86-.46.85,4.31,3.49,8.46,6.01,12.15,8.31,11.74,18.59,21.99,28.86,32.09,27.9,26.85,57.91,51.58,88.13,75.81,15.16,12.08,30.51,24.06,45.9,35.68,0,0-17.54,6.29-17.54,6.29.3-1.48.92-4.33,1.19-5.81,11.14-62.32,13.85-127.84-2.5-189.46-5.91-21.6-14.75-42.58-27.37-61.13-5.75-8.4-12.27-16.25-19.51-23.42-23.5-23.21-54.85-37.05-87.33-42.53,0,0,2.06-2.73,2.06-2.73l95.76,211.11-3.54,1.61h0Z"/>
          <path class="cls-1" d="M619.28,1886.81c3.8,2.22,5.24,6.2,6.16,10.2.9,3.91,1.42,7.79.88,11.89,0,0-15.24,4.86-15.24,4.86-1.48-1.56-2.6-3.23-3.6-4.94-2.72-5.22-5.98-11.23-3.44-17.15,0,0,15.24-4.86,15.24-4.86h0Z"/>
        </g>
        <g>
          <path class="cls-1" d="M1096.62,2527.21l194.27-126.47s3.07-2,3.07-2c0,0-.07,3.62-.07,3.63,3.56,119.81-96.43,175.4-201.13,194.91-31.47,5.94-63.44,9.14-95.47,9.44-5.33.05-19.17-.28-24.53-.31,0,0,9.04-16.14,9.04-16.14,32.11-49.24,64.89-97.91,102.2-143.38,11.24-13.04,22.4-26.74,36.86-36.47,2.17-1.36,4.49-2.6,7.22-3.3l1.03,3.75c-4.14,1.49-7.83,4.72-11.11,7.77-10.35,9.98-18.94,21.69-27.38,33.36-22.35,31.63-42.27,65.02-61.68,98.54-9.66,16.8-19.19,33.79-28.36,50.75,0,0-8.86-16.39-8.86-16.39,1.51.08,4.42.26,5.93.31,63.29,1.63,128.47-5.57,186.92-31.01,20.46-9.1,39.88-21,56.31-36.27,7.43-6.94,14.22-14.58,20.22-22.82,19.4-26.73,28.37-59.81,28.89-92.74,0,0,3.01,1.62,3.01,1.62l-194.27,126.47-2.12-3.26h0Z"/>
          <path class="cls-1" d="M1316.28,2399.25c-1.62,4.09-5.34,6.12-9.16,7.63-3.73,1.47-7.48,2.58-11.62,2.66,0,0-7.1-14.34-7.1-14.34,1.32-1.69,2.8-3.06,4.34-4.3,4.75-3.48,10.2-7.61,16.44-5.99,0,0,7.1,14.34,7.1,14.34h0Z"/>
        </g>
        <g>
          <path class="cls-2" d="M1087.49,2175.38l216.99,81.56s3.43,1.29,3.43,1.29c0,0-2.96,2.09-2.96,2.09-94.4,73.86-198.43,26.25-276.18-46.53-23.43-21.83-44.95-45.68-64.17-71.31-3.2-4.27-11.14-15.61-14.28-19.94,0,0,18.35-2.28,18.36-2.28,58.69-3.31,117.32-5.74,176.06-2.63,17.16,1.33,34.82,2.2,51.22,8.08,2.38.94,4.76,2.08,6.93,3.86,0,0-2.41,3.05-2.41,3.05-3.65-2.45-8.45-3.51-12.84-4.34-14.18-2.43-28.69-2.4-43.1-2.29-38.72.74-77.42,4.48-115.93,8.71-19.26,2.17-38.59,4.56-57.68,7.23,0,0,7.96-16.85,7.96-16.85.83,1.26,2.41,3.72,3.27,4.96,36.16,51.92,80.64,100.22,135.74,132.2,19.45,11.09,40.54,19.68,62.58,23.87,10,1.87,20.17,2.81,30.36,2.76,33.03-.2,64.99-12.58,91.82-31.68,0,0,.47,3.38.47,3.38l-216.99-81.56,1.37-3.64h0Z"/>
          <path class="cls-2" d="M1320.72,2276.5c-4.26,1.12-8.09-.67-11.57-2.86-3.4-2.13-6.51-4.5-9.03-7.78,0,0,7.34-14.21,7.34-14.21,2.14.06,4.12.44,6.04.94,5.62,1.76,12.17,3.71,14.56,9.69,0,0-7.34,14.21-7.34,14.21h0Z"/>
        </g>
        <g>
          <path class="cls-2" d="M879.36,2692.26l95.76,211.11,1.51,3.34s-3.57-.61-3.58-.61c-118.98-14.52-158.87-121.75-162.39-228.19-1.13-32,.51-64.09,5.05-95.8.75-5.28,3.16-18.91,4-24.2,0,0,14.59,11.36,14.59,11.36,43.84,39.16,87.02,78.89,126.35,122.63,11.2,13.08,23.06,26.18,30.5,41.93,1.02,2.35,1.9,4.84,2.17,7.63l-3.86.46c-.85-4.31-3.49-8.46-6.01-12.15-8.31-11.74-18.59-21.99-28.86-32.09-27.9-26.85-57.91-51.58-88.13-75.81-15.16-12.08-30.51-24.06-45.9-35.68,0,0,17.54-6.29,17.54-6.29-.3,1.48-.92,4.33-1.19,5.81-11.14,62.32-13.85,127.84,2.5,189.46,5.91,21.6,14.75,42.58,27.37,61.13,5.75,8.4,12.27,16.25,19.51,23.42,23.5,23.21,54.85,37.06,87.33,42.53,0,0-2.06,2.73-2.06,2.73l-95.76-211.11s3.54-1.61,3.54-1.61h0Z"/>
          <path class="cls-2" d="M972.77,2928.68c-3.8-2.22-5.24-6.2-6.16-10.2-.9-3.91-1.42-7.79-.88-11.89,0,0,15.24-4.86,15.24-4.86,1.48,1.56,2.6,3.23,3.6,4.94,2.72,5.22,5.98,11.23,3.44,17.15,0,0-15.24,4.86-15.24,4.86h0Z"/>
        </g>
        <g>
          <path class="cls-2" d="M877.69,2339.28l-81.56,216.99-1.29,3.43s-2.09-2.96-2.09-2.96c-73.86-94.4-26.25-198.43,46.53-276.18,21.83-23.43,45.68-44.95,71.31-64.17,4.26-3.2,15.61-11.14,19.94-14.28,0,0,2.28,18.35,2.28,18.36,3.31,58.69,5.74,117.32,2.63,176.06-1.33,17.17-2.2,34.82-8.08,51.22-.94,2.38-2.08,4.76-3.86,6.93,0,0-3.05-2.41-3.05-2.41,2.45-3.65,3.51-8.45,4.34-12.84,2.43-14.18,2.4-28.69,2.29-43.1-.74-38.72-4.48-77.42-8.71-115.93-2.17-19.26-4.56-38.59-7.23-57.69,0,0,16.85,7.96,16.85,7.96-1.26.83-3.72,2.41-4.96,3.27-51.92,36.16-100.22,80.64-132.2,135.74-11.09,19.45-19.68,40.54-23.87,62.58-1.87,10-2.81,20.17-2.76,30.36.2,33.03,12.58,64.99,31.68,91.82,0,0-3.38.47-3.38.47,0,0,81.56-216.99,81.56-216.99,0,0,3.64,1.37,3.64,1.37h0Z"/>
          <path class="cls-2" d="M776.56,2572.52c-1.12-4.26.67-8.09,2.86-11.57,2.13-3.4,4.5-6.51,7.78-9.03,0,0,14.21,7.34,14.21,7.34-.06,2.15-.44,4.12-.94,6.04-1.76,5.62-3.71,12.17-9.69,14.56,0,0-14.22-7.34-14.22-7.34h0Z"/>
        </g>
        <g>
          <path class="cls-1" d="M1136.53,1945.91l93.87-211.95s1.48-3.35,1.48-3.35c0,0,1.92,3.07,1.92,3.08,68.33,98.48,14.83,199.61-62.3,273.06-23.14,22.14-48.19,42.26-74.87,59.98-4.44,2.95-16.22,10.23-20.73,13.12,0,0-1.22-18.45-1.23-18.46.06-58.78,1-117.45,7.47-175.92,2.31-17.06,4.2-34.63,11-50.67,1.08-2.32,2.35-4.63,4.25-6.7l2.91,2.58c-2.65,3.5-3.99,8.23-5.07,12.57-3.24,14.01-4.05,28.51-4.76,42.9-1.48,38.7.03,77.55,2.04,116.24,1.06,19.35,2.34,38.79,3.91,58,0,0-16.36-8.91-16.36-8.91,1.31-.76,3.85-2.19,5.13-2.98,53.94-33.15,104.65-74.73,139.77-127.93,12.19-18.79,21.97-39.35,27.42-61.11,2.44-9.88,3.97-19.98,4.5-30.15,1.69-32.98-8.84-65.6-26.36-93.49,0,0,3.4-.28,3.4-.28,0,0-93.87,211.95-93.87,211.95l-3.56-1.57h0Z"/>
          <path class="cls-1" d="M1250.87,1718.86c.87,4.31-1.14,8.04-3.52,11.39-2.32,3.27-4.87,6.25-8.28,8.57,0,0-13.77-8.14-13.77-8.14.18-2.14.68-4.09,1.29-5.97,2.08-5.51,4.4-11.94,10.51-13.98,0,0,13.77,8.14,13.77,8.14h0Z"/>
        </g>
        <g>
          <path class="cls-2" d="M1495.87,2510.35l-152.57,174.53s-2.41,2.76-2.41,2.76c0,0-.92-3.5-.92-3.51-36.01-114.33,45.1-195.01,140.55-242.25,28.67-14.27,58.56-26.05,89.3-35.05,5.12-1.5,18.53-4.95,23.69-6.37,0,0-4.31,17.99-4.31,17.99-17.51,56.11-35.82,111.86-59.36,165.77-7.27,15.6-14.29,31.83-25.55,45.12-1.72,1.9-3.62,3.73-6.05,5.14,0,0-2.01-3.33-2.01-3.33,3.58-2.56,6.25-6.68,8.58-10.5,7.25-12.42,12.33-26.02,17.28-39.55,12.9-36.51,23-74.06,32.56-111.6,4.73-18.8,9.28-37.73,13.49-56.55,0,0,12.98,13.37,12.98,13.37-1.47.33-4.33.95-5.79,1.32-61.35,15.64-122.11,40.29-171.45,80.67-17.21,14.32-32.66,31.05-44.33,50.22-5.27,8.7-9.72,17.9-13.25,27.46-11.41,30.99-11.04,65.27-2.58,97.1,0,0-3.33-.74-3.33-.74l152.57-174.53s2.93,2.56,2.93,2.56h0Z"/>
          <path class="cls-2" d="M1319.28,2693.22c.45-4.38,3.47-7.34,6.74-9.83,3.19-2.43,6.5-4.52,10.45-5.72,0,0,10.73,11.87,10.73,11.87-.81,1.99-1.86,3.7-3,5.32-3.62,4.64-7.75,10.09-14.19,10.23,0,0-10.73-11.87-10.73-11.87h0Z"/>
        </g>
        <g>
          <path class="cls-1" d="M1476.19,3069.2l-216.99-81.56s-3.43-1.29-3.43-1.29c0,0,2.96-2.09,2.96-2.1,94.4-73.86,198.43-26.25,276.18,46.53,23.43,21.83,44.95,45.68,64.17,71.31,3.2,4.26,11.14,15.61,14.28,19.94,0,0-18.35,2.28-18.36,2.28-58.69,3.31-117.32,5.74-176.06,2.63-17.16-1.33-34.82-2.2-51.22-8.08-2.38-.94-4.76-2.08-6.93-3.86l2.41-3.05c3.65,2.45,8.45,3.51,12.84,4.34,14.18,2.43,28.69,2.4,43.1,2.29,38.72-.74,77.42-4.48,115.93-8.71,19.26-2.17,38.59-4.56,57.68-7.23,0,0-7.96,16.85-7.96,16.85-.83-1.26-2.41-3.72-3.27-4.96-36.16-51.92-80.64-100.22-135.74-132.2-19.45-11.09-40.54-19.68-62.58-23.87-10-1.87-20.17-2.81-30.36-2.77-33.03.21-64.99,12.58-91.82,31.68,0,0-.47-3.38-.47-3.38l216.99,81.56s-1.37,3.64-1.37,3.64h0Z"/>
          <path class="cls-1" d="M1242.96,2968.07c4.26-1.12,8.09.67,11.57,2.86,3.4,2.13,6.51,4.5,9.03,7.78,0,0-7.34,14.21-7.34,14.21-2.14-.06-4.12-.44-6.04-.94-5.62-1.76-12.17-3.71-14.56-9.69,0,0,7.34-14.21,7.34-14.21h0Z"/>
        </g>
        <g>
          <path class="cls-1" d="M712.69,3059.41l-95.76-211.11s-1.51-3.34-1.51-3.34c0,0,3.57.61,3.58.61,118.98,14.52,158.87,121.75,162.39,228.19,1.13,32-.51,64.09-5.05,95.8-.75,5.28-3.16,18.91-4,24.2,0,0-14.59-11.36-14.59-11.36-43.84-39.16-87.02-78.89-126.35-122.63-11.2-13.08-23.06-26.18-30.5-41.93-1.02-2.35-1.9-4.84-2.17-7.63,0,0,3.86-.46,3.86-.46.85,4.31,3.49,8.46,6.01,12.15,8.31,11.74,18.59,21.99,28.86,32.09,27.9,26.85,57.91,51.58,88.13,75.81,15.16,12.08,30.51,24.06,45.9,35.68,0,0-17.54,6.29-17.54,6.29.3-1.48.92-4.33,1.19-5.81,11.14-62.32,13.85-127.84-2.5-189.46-5.91-21.6-14.75-42.58-27.37-61.13-5.75-8.4-12.27-16.25-19.51-23.42-23.5-23.21-54.85-37.06-87.33-42.53,0,0,2.06-2.73,2.06-2.73l95.76,211.11s-3.54,1.61-3.54,1.61h0Z"/>
          <path class="cls-1" d="M619.28,2822.98c3.8,2.22,5.24,6.2,6.16,10.2.9,3.91,1.42,7.79.88,11.89,0,0-15.24,4.86-15.24,4.86-1.48-1.56-2.6-3.23-3.6-4.94-2.72-5.22-5.98-11.23-3.44-17.15,0,0,15.24-4.86,15.24-4.86h0Z"/>
        </g>
        <g>
          <path class="cls-1" d="M1096.62,3463.38l194.27-126.47s3.07-2,3.07-2c0,0-.07,3.62-.07,3.63,3.56,119.81-96.43,175.4-201.13,194.91-31.47,5.94-63.44,9.14-95.47,9.44-5.33.05-19.17-.28-24.53-.31,0,0,9.04-16.14,9.04-16.14,32.11-49.24,64.89-97.91,102.2-143.38,11.24-13.04,22.4-26.74,36.86-36.47,2.17-1.36,4.49-2.6,7.22-3.3l1.03,3.75c-4.14,1.49-7.83,4.72-11.11,7.77-10.35,9.98-18.94,21.69-27.38,33.36-22.35,31.63-42.27,65.02-61.68,98.54-9.66,16.8-19.19,33.79-28.36,50.75,0,0-8.86-16.39-8.86-16.39,1.51.08,4.42.26,5.93.31,63.29,1.63,128.47-5.57,186.92-31.01,20.46-9.1,39.88-21,56.31-36.27,7.43-6.95,14.22-14.58,20.22-22.82,19.4-26.72,28.37-59.81,28.89-92.74,0,0,3.01,1.62,3.01,1.62l-194.27,126.47s-2.12-3.26-2.12-3.26h0Z"/>
          <path class="cls-1" d="M1316.28,3335.42c-1.62,4.09-5.33,6.12-9.16,7.62-3.73,1.47-7.48,2.58-11.62,2.67,0,0-7.1-14.34-7.1-14.34,1.32-1.69,2.8-3.06,4.34-4.3,4.75-3.48,10.2-7.61,16.44-5.99,0,0,7.1,14.34,7.1,14.34h0Z"/>
        </g>
        <g>
          <path class="cls-2" d="M1087.49,3111.55s216.99,81.56,216.99,81.56c0,0,3.43,1.29,3.43,1.29,0,0-2.96,2.09-2.96,2.09-94.4,73.86-198.43,26.25-276.18-46.53-23.43-21.83-44.95-45.68-64.17-71.31-3.2-4.26-11.14-15.61-14.28-19.94,0,0,18.35-2.28,18.36-2.28,58.69-3.31,117.32-5.74,176.06-2.63,17.16,1.33,34.82,2.2,51.22,8.08,2.38.94,4.76,2.08,6.93,3.86l-2.41,3.05c-3.65-2.45-8.45-3.51-12.84-4.34-14.18-2.43-28.69-2.4-43.1-2.29-38.72.74-77.42,4.48-115.93,8.71-19.26,2.17-38.59,4.56-57.68,7.23,0,0,7.96-16.85,7.96-16.85.83,1.26,2.41,3.72,3.27,4.96,36.16,51.92,80.64,100.22,135.74,132.2,19.45,11.09,40.54,19.68,62.58,23.87,10,1.87,20.17,2.81,30.36,2.76,33.03-.2,64.99-12.58,91.82-31.68,0,0,.47,3.38.47,3.38l-216.99-81.56s1.37-3.64,1.37-3.64h0Z"/>
          <path class="cls-2" d="M1320.72,3212.67c-4.26,1.12-8.09-.67-11.57-2.86-3.4-2.13-6.51-4.5-9.03-7.78,0,0,7.34-14.22,7.34-14.22,2.14.06,4.12.44,6.04.94,5.62,1.76,12.17,3.71,14.56,9.69,0,0-7.34,14.21-7.34,14.21h0Z"/>
        </g>
        <path class="cls-2" d="M879.36,3628.43l95.76,211.11,1.51,3.34s-3.57-.61-3.58-.61c-118.98-14.52-158.87-121.75-162.39-228.19-1.13-32.01.51-64.09,5.05-95.8.75-5.28,3.16-18.91,4-24.2,0,0,14.59,11.36,14.59,11.37,43.84,39.16,87.02,78.89,126.35,122.63,11.2,13.08,23.06,26.18,30.5,41.93,1.02,2.35,1.9,4.84,2.17,7.63,0,0-3.86.46-3.86.46-.85-4.31-3.49-8.46-6.01-12.15-8.31-11.74-18.59-21.99-28.86-32.09-27.9-26.85-57.91-51.58-88.13-75.81-15.16-12.08-30.51-24.06-45.9-35.68,0,0,17.54-6.29,17.54-6.29-.3,1.48-.92,4.33-1.19,5.81-11.14,62.32-13.85,127.84,2.5,189.46,5.91,21.6,14.75,42.58,27.37,61.13,5.75,8.4,12.27,16.25,19.51,23.42,23.5,23.21,54.85,37.06,87.33,42.53,0,0-2.06,2.73-2.06,2.73l-95.76-211.11s3.54-1.61,3.54-1.61h0Z"/>
        <g>
          <path class="cls-2" d="M877.69,3275.45l-81.56,216.99s-1.29,3.43-1.29,3.43c0,0-2.09-2.96-2.09-2.96-73.86-94.4-26.25-198.43,46.53-276.18,21.83-23.43,45.68-44.95,71.31-64.17,4.26-3.2,15.61-11.14,19.94-14.29,0,0,2.28,18.35,2.28,18.36,3.31,58.69,5.74,117.32,2.63,176.06-1.33,17.16-2.2,34.82-8.08,51.22-.94,2.38-2.08,4.76-3.86,6.93,0,0-3.05-2.41-3.05-2.41,2.45-3.65,3.51-8.45,4.34-12.84,2.43-14.18,2.4-28.69,2.29-43.1-.74-38.72-4.48-77.42-8.71-115.93-2.17-19.26-4.56-38.59-7.23-57.69,0,0,16.85,7.96,16.85,7.96-1.26.83-3.72,2.41-4.96,3.27-51.95,36.19-100.19,80.61-132.2,135.74-11.09,19.45-19.68,40.54-23.87,62.58-1.87,10-2.81,20.17-2.76,30.36.2,33.03,12.59,64.99,31.68,91.82,0,0-3.38.47-3.38.47l81.56-216.99s3.64,1.37,3.64,1.37h0Z"/>
          <path class="cls-2" d="M776.56,3508.69c-1.12-4.25.67-8.09,2.86-11.57,2.13-3.4,4.5-6.51,7.78-9.03,0,0,14.21,7.34,14.21,7.34-.06,2.15-.44,4.12-.94,6.04-1.76,5.62-3.71,12.17-9.69,14.56,0,0-14.22-7.34-14.22-7.34h0Z"/>
        </g>
        <g>
          <path class="cls-1" d="M1136.53,2882.08l93.87-211.95,1.48-3.35s1.92,3.07,1.92,3.08c68.33,98.48,14.83,199.61-62.3,273.06-23.14,22.14-48.19,42.26-74.87,59.98-4.44,2.95-16.22,10.23-20.73,13.12,0,0-1.22-18.45-1.23-18.46.06-58.78,1-117.45,7.47-175.92,2.31-17.06,4.2-34.63,11-50.67,1.08-2.32,2.35-4.63,4.25-6.7,0,0,2.91,2.58,2.91,2.58-2.65,3.5-3.99,8.23-5.07,12.57-3.24,14.01-4.05,28.51-4.76,42.9-1.48,38.7.03,77.55,2.04,116.23,1.06,19.36,2.34,38.79,3.91,58,0,0-16.36-8.91-16.36-8.91,1.31-.76,3.85-2.19,5.13-2.98,53.91-33.12,104.68-74.76,139.77-127.93,12.19-18.78,21.97-39.35,27.42-61.11,2.44-9.88,3.97-19.98,4.5-30.15,1.69-32.98-8.84-65.6-26.36-93.49,0,0,3.4-.28,3.4-.28l-93.87,211.95s-3.56-1.57-3.56-1.57h0Z"/>
          <path class="cls-1" d="M1250.87,2655.03c.87,4.31-1.14,8.04-3.52,11.39-2.32,3.27-4.87,6.25-8.28,8.57,0,0-13.77-8.14-13.77-8.14.18-2.14.68-4.09,1.29-5.97,2.08-5.5,4.4-11.94,10.51-13.98,0,0,13.77,8.14,13.77,8.14h0Z"/>
        </g>
        <g>
          <path class="cls-2" d="M1495.87,3446.52s-152.57,174.53-152.57,174.53c0,0-2.41,2.76-2.41,2.76,0,0-.92-3.5-.92-3.51-36.01-114.33,45.1-195.01,140.55-242.25,28.67-14.27,58.56-26.05,89.3-35.05,5.12-1.5,18.53-4.95,23.69-6.37,0,0-4.31,17.99-4.31,17.99-17.51,56.11-35.82,111.86-59.36,165.77-7.27,15.6-14.29,31.83-25.55,45.12-1.72,1.9-3.62,3.73-6.05,5.14l-2.01-3.33c3.58-2.56,6.25-6.68,8.58-10.5,7.25-12.42,12.33-26.02,17.28-39.55,12.9-36.51,23-74.06,32.56-111.6,4.73-18.8,9.28-37.73,13.49-56.55,0,0,12.98,13.37,12.98,13.37-1.47.33-4.33.95-5.79,1.32-61.35,15.64-122.11,40.29-171.45,80.67-17.21,14.32-32.66,31.05-44.33,50.22-5.27,8.7-9.72,17.9-13.25,27.46-11.41,31-11.04,65.27-2.58,97.1,0,0-3.33-.74-3.33-.74,0,0,152.57-174.53,152.57-174.53,0,0,2.93,2.56,2.93,2.56h0Z"/>
          <path class="cls-2" d="M1319.28,3629.39c.45-4.38,3.47-7.34,6.74-9.83,3.19-2.43,6.5-4.52,10.45-5.72,0,0,10.73,11.87,10.73,11.87-.81,1.99-1.86,3.7-3,5.32-3.62,4.64-7.75,10.09-14.19,10.23,0,0-10.73-11.87-10.73-11.87h0Z"/>
        </g>
        <g>
          <path class="cls-1" d="M712.69,3995.58l-95.76-211.11s-1.51-3.34-1.51-3.34c0,0,3.57.61,3.58.61,118.98,14.52,158.87,121.75,162.39,228.19,1.13,32-.51,64.09-5.05,95.8-.75,5.28-3.16,18.91-4,24.2,0,0-14.59-11.36-14.59-11.37-43.84-39.16-87.02-78.9-126.35-122.63-11.2-13.08-23.06-26.18-30.5-41.93-1.02-2.35-1.9-4.84-2.17-7.63,0,0,3.86-.46,3.86-.46.85,4.31,3.49,8.46,6.01,12.15,8.31,11.74,18.59,21.99,28.86,32.09,27.9,26.85,57.91,51.58,88.13,75.81,15.16,12.08,30.51,24.06,45.9,35.68,0,0-17.54,6.29-17.54,6.29.3-1.48.92-4.33,1.19-5.81,11.14-62.32,13.85-127.84-2.5-189.46-5.91-21.6-14.75-42.58-27.37-61.13-5.75-8.4-12.27-16.25-19.51-23.42-23.5-23.21-54.85-37.05-87.33-42.53,0,0,2.06-2.73,2.06-2.73l95.76,211.11-3.54,1.61h0Z"/>
          <path class="cls-1" d="M619.28,3759.15c3.8,2.22,5.24,6.2,6.16,10.2.9,3.91,1.42,7.79.88,11.89,0,0-15.24,4.86-15.24,4.86-1.48-1.56-2.6-3.23-3.6-4.94-2.72-5.22-5.98-11.23-3.44-17.15,0,0,15.24-4.86,15.24-4.86h0Z"/>
        </g>
        <g>
          <path class="cls-1" d="M1136.53,3818.25l93.87-211.95s1.48-3.35,1.48-3.35c0,0,1.92,3.07,1.92,3.08,68.33,98.48,14.83,199.61-62.3,273.06-23.14,22.14-48.19,42.26-74.87,59.98-4.44,2.95-16.22,10.23-20.73,13.12,0,0-1.22-18.45-1.23-18.46.06-58.78,1-117.45,7.47-175.92,2.31-17.06,4.2-34.63,11-50.67,1.08-2.32,2.35-4.63,4.25-6.7l2.91,2.58c-2.65,3.5-3.99,8.23-5.07,12.57-3.24,14.01-4.05,28.51-4.76,42.9-1.48,38.7.03,77.55,2.04,116.24,1.06,19.35,2.34,38.79,3.91,58,0,0-16.36-8.91-16.36-8.91,1.31-.76,3.85-2.19,5.13-2.98,53.94-33.15,104.65-74.73,139.77-127.93,12.19-18.78,21.97-39.35,27.42-61.11,2.44-9.87,3.97-19.98,4.5-30.15,1.69-32.98-8.84-65.6-26.36-93.49,0,0,3.4-.28,3.4-.28,0,0-93.87,211.95-93.87,211.95,0,0-3.56-1.57-3.56-1.57h0Z"/>
          <path class="cls-1" d="M1250.87,3591.2c.87,4.31-1.14,8.04-3.52,11.39-2.32,3.27-4.87,6.25-8.28,8.57,0,0-13.77-8.14-13.77-8.14.18-2.14.68-4.09,1.29-5.97,2.08-5.5,4.4-11.94,10.51-13.98,0,0,13.77,8.14,13.77,8.14h0Z"/>
        </g>
        <g>
          <path class="cls-1" d="M515.2,260.69s-216.99-81.56-216.99-81.56c0,0-3.43-1.29-3.43-1.29,0,0,2.96-2.09,2.96-2.09,94.4-73.86,198.43-26.25,276.18,46.53,23.43,21.83,44.95,45.68,64.17,71.31,3.2,4.26,11.14,15.61,14.28,19.94,0,0-18.35,2.28-18.36,2.28-58.69,3.31-117.32,5.74-176.06,2.63-17.16-1.33-34.82-2.2-51.22-8.08-2.38-.94-4.76-2.08-6.93-3.86,0,0,2.41-3.05,2.41-3.05,3.65,2.45,8.45,3.51,12.84,4.34,14.18,2.43,28.69,2.4,43.1,2.29,38.72-.74,77.42-4.47,115.93-8.71,19.26-2.17,38.59-4.56,57.68-7.23,0,0-7.96,16.85-7.96,16.85-.83-1.26-2.41-3.72-3.27-4.96-36.16-51.92-80.64-100.22-135.74-132.2-19.45-11.09-40.54-19.68-62.58-23.87-10-1.87-20.17-2.81-30.36-2.76-33.03.2-64.99,12.58-91.82,31.68,0,0-.47-3.38-.47-3.38l216.99,81.56s-1.37,3.64-1.37,3.64h0Z"/>
          <path class="cls-1" d="M281.97,159.56c4.26-1.12,8.09.67,11.57,2.86,3.4,2.13,6.51,4.5,9.03,7.78,0,0-7.34,14.21-7.34,14.21-2.14-.06-4.12-.44-6.04-.94-5.62-1.76-12.17-3.71-14.56-9.69,0,0,7.34-14.21,7.34-14.21h0Z"/>
        </g>
        <g>
          <path class="cls-1" d="M135.63,654.87s194.27-126.47,194.27-126.47c0,0,3.07-2,3.07-2,0,0-.07,3.62-.07,3.63,3.56,119.81-96.43,175.4-201.13,194.91-31.47,5.94-63.44,9.14-95.47,9.44-5.33.05-19.17-.28-24.53-.31,0,0,9.04-16.14,9.04-16.14,32.11-49.24,64.89-97.91,102.2-143.38,11.24-13.04,22.4-26.74,36.86-36.47,2.17-1.36,4.49-2.6,7.22-3.3,0,0,1.03,3.75,1.03,3.75-4.14,1.49-7.83,4.72-11.11,7.77-10.35,9.98-18.94,21.69-27.38,33.36-22.35,31.63-42.27,65.02-61.68,98.54-9.66,16.8-19.19,33.79-28.36,50.75,0,0-8.86-16.39-8.86-16.39,1.51.08,4.42.26,5.93.31,63.29,1.63,128.47-5.57,186.92-31.01,20.46-9.1,39.88-21,56.31-36.27,7.43-6.95,14.22-14.58,20.22-22.82,19.4-26.73,28.37-59.81,28.89-92.74,0,0,3.01,1.62,3.01,1.62,0,0-194.27,126.47-194.27,126.47l-2.12-3.26h0Z"/>
          <path class="cls-1" d="M355.29,526.91c-1.62,4.09-5.33,6.12-9.16,7.63-3.73,1.48-7.48,2.58-11.62,2.67,0,0-7.1-14.34-7.1-14.34,1.32-1.69,2.8-3.06,4.34-4.3,4.75-3.48,10.2-7.61,16.44-5.99,0,0,7.1,14.34,7.1,14.34h0Z"/>
        </g>
        <g>
          <path class="cls-2" d="M126.5,303.04l216.99,81.56,3.43,1.29s-2.96,2.09-2.96,2.09c-94.4,73.86-198.43,26.25-276.18-46.53-23.43-21.83-44.95-45.68-64.17-71.31-3.2-4.26-11.14-15.61-14.28-19.94,0,0,18.35-2.28,18.36-2.28,58.69-3.31,117.32-5.74,176.06-2.63,17.16,1.33,34.82,2.2,51.22,8.08,2.38.94,4.76,2.08,6.93,3.86l-2.41,3.05c-3.65-2.45-8.45-3.51-12.84-4.34-14.18-2.43-28.69-2.4-43.1-2.29-38.72.74-77.42,4.48-115.93,8.71-19.26,2.17-38.59,4.56-57.68,7.23,0,0,7.96-16.85,7.96-16.85.83,1.26,2.41,3.72,3.27,4.96,36.16,51.92,80.64,100.22,135.74,132.2,19.45,11.09,40.54,19.68,62.58,23.87,10,1.87,20.17,2.81,30.36,2.76,33.03-.2,64.99-12.58,91.82-31.68,0,0,.47,3.38.47,3.38l-216.99-81.56s1.37-3.64,1.37-3.64h0Z"/>
          <path class="cls-2" d="M359.73,404.16c-4.26,1.12-8.09-.67-11.57-2.86-3.4-2.13-6.51-4.5-9.03-7.78,0,0,7.34-14.21,7.34-14.21,2.14.06,4.12.44,6.04.94,5.62,1.76,12.17,3.71,14.56,9.7,0,0-7.34,14.21-7.34,14.21h0Z"/>
        </g>
        <g>
          <path class="cls-2" d="M-81.63,819.92l95.76,211.11,1.51,3.34s-3.57-.61-3.58-.61c-118.98-14.52-158.87-121.75-162.39-228.19-1.13-32,.51-64.09,5.05-95.8.75-5.28,3.16-18.91,4-24.2,0,0,14.59,11.36,14.59,11.36,43.84,39.16,87.02,78.89,126.35,122.63,11.2,13.08,23.06,26.18,30.5,41.93,1.02,2.35,1.9,4.84,2.17,7.63,0,0-3.86.46-3.86.46-.85-4.31-3.49-8.46-6.01-12.15-8.31-11.74-18.59-21.99-28.86-32.09-27.9-26.85-57.91-51.58-88.13-75.81-15.16-12.08-30.51-24.06-45.9-35.68,0,0,17.54-6.29,17.54-6.29-.3,1.48-.92,4.33-1.19,5.81-11.14,62.32-13.85,127.84,2.5,189.46,5.91,21.6,14.75,42.58,27.37,61.13,5.75,8.4,12.27,16.25,19.51,23.42,23.5,23.21,54.85,37.06,87.33,42.53,0,0-2.06,2.73-2.06,2.73l-95.76-211.11s3.54-1.61,3.54-1.61h0Z"/>
          <path class="cls-2" d="M11.78,1056.34c-3.8-2.22-5.24-6.2-6.16-10.2-.9-3.91-1.42-7.79-.88-11.89,0,0,15.24-4.86,15.24-4.86,1.48,1.56,2.6,3.23,3.6,4.94,2.72,5.22,5.98,11.23,3.44,17.15,0,0-15.24,4.86-15.24,4.86h0Z"/>
        </g>
        <path class="cls-1" d="M175.54,73.57l93.87-211.95s1.48-3.35,1.48-3.35c0,0,1.92,3.07,1.92,3.08,68.33,98.48,14.83,199.61-62.3,273.06-23.14,22.14-48.19,42.26-74.87,59.98-4.44,2.95-16.22,10.23-20.73,13.12,0,0-1.22-18.45-1.23-18.46.06-58.78,1-117.45,7.47-175.92,2.31-17.06,4.2-34.63,11-50.67,1.08-2.32,2.35-4.63,4.25-6.7,0,0,2.91,2.58,2.91,2.58-2.65,3.5-3.99,8.23-5.07,12.57-3.24,14.01-4.05,28.51-4.76,42.9-1.48,38.7.03,77.55,2.04,116.24,1.06,19.35,2.34,38.79,3.91,58,0,0-16.36-8.91-16.36-8.91,1.31-.76,3.85-2.19,5.13-2.98,53.91-33.12,104.68-74.76,139.77-127.93,12.19-18.78,21.97-39.35,27.42-61.11,2.44-9.88,3.97-19.98,4.5-30.15,1.69-32.98-8.84-65.6-26.36-93.49,0,0,3.4-.28,3.4-.28,0,0-93.87,211.95-93.87,211.95l-3.56-1.57h0Z"/>
        <g>
          <path class="cls-2" d="M534.88,638.01l-152.57,174.53s-2.41,2.76-2.41,2.76c0,0-.92-3.5-.92-3.51-36.01-114.33,45.1-195.01,140.55-242.25,28.67-14.27,58.56-26.05,89.3-35.05,5.12-1.5,18.53-4.95,23.69-6.37,0,0-4.31,17.99-4.31,17.99-17.51,56.11-35.82,111.86-59.36,165.77-7.27,15.6-14.29,31.83-25.55,45.12-1.72,1.9-3.62,3.73-6.05,5.14,0,0-2.01-3.33-2.01-3.33,3.57-2.56,6.25-6.68,8.58-10.5,7.25-12.42,12.33-26.02,17.28-39.55,12.9-36.51,23-74.06,32.56-111.6,4.73-18.8,9.28-37.73,13.49-56.55,0,0,12.98,13.37,12.98,13.37-1.47.33-4.33.95-5.79,1.32-61.35,15.64-122.11,40.29-171.45,80.67-17.21,14.32-32.66,31.05-44.33,50.21-5.27,8.71-9.72,17.9-13.25,27.46-11.41,31-11.04,65.27-2.58,97.1,0,0-3.33-.74-3.33-.74l152.57-174.53,2.93,2.56h0Z"/>
          <path class="cls-2" d="M358.29,820.88c.45-4.38,3.47-7.34,6.74-9.83,3.19-2.43,6.5-4.52,10.45-5.72,0,0,10.73,11.87,10.73,11.87-.81,1.99-1.86,3.7-3,5.32-3.62,4.64-7.75,10.09-14.19,10.23,0,0-10.73-11.87-10.73-11.87h0Z"/>
        </g>
        <g>
          <path class="cls-1" d="M515.2,1196.86l-216.99-81.56s-3.43-1.29-3.43-1.29c0,0,2.96-2.09,2.96-2.09,94.4-73.86,198.43-26.25,276.18,46.53,23.43,21.83,44.95,45.68,64.17,71.31,3.2,4.26,11.14,15.61,14.28,19.94,0,0-18.35,2.28-18.36,2.28-58.69,3.31-117.32,5.74-176.06,2.63-17.16-1.33-34.82-2.2-51.22-8.08-2.38-.94-4.76-2.08-6.93-3.86,0,0,2.41-3.05,2.41-3.05,3.65,2.45,8.45,3.51,12.84,4.34,14.18,2.43,28.69,2.4,43.1,2.29,38.72-.74,77.42-4.48,115.93-8.71,19.26-2.17,38.59-4.56,57.68-7.23,0,0-7.96,16.85-7.96,16.85-.83-1.26-2.41-3.72-3.27-4.96-36.16-51.92-80.64-100.22-135.74-132.2-19.45-11.09-40.54-19.68-62.58-23.87-10-1.87-20.17-2.81-30.36-2.76-33.03.2-64.99,12.58-91.82,31.68,0,0-.47-3.38-.47-3.38,0,0,216.99,81.56,216.99,81.56,0,0-1.37,3.64-1.37,3.64h0Z"/>
          <path class="cls-1" d="M281.97,1095.73c4.26-1.12,8.09.67,11.57,2.86,3.4,2.13,6.51,4.5,9.03,7.78,0,0-7.34,14.21-7.34,14.21-2.14-.06-4.12-.44-6.04-.94-5.62-1.76-12.17-3.71-14.56-9.69,0,0,7.34-14.22,7.34-14.22h0Z"/>
        </g>
        <g>
          <path class="cls-1" d="M135.63,1591.04s194.27-126.47,194.27-126.47c0,0,3.07-2,3.07-2,0,0-.07,3.62-.07,3.63,3.56,119.81-96.43,175.4-201.13,194.91-31.47,5.94-63.44,9.14-95.47,9.44-5.33.05-19.17-.28-24.53-.31,0,0,9.04-16.14,9.04-16.14,32.11-49.24,64.89-97.91,102.2-143.38,11.24-13.04,22.4-26.74,36.86-36.47,2.17-1.36,4.49-2.6,7.22-3.3,0,0,1.03,3.75,1.03,3.75-4.14,1.49-7.83,4.73-11.11,7.77-10.35,9.98-18.94,21.69-27.38,33.36-22.35,31.63-42.27,65.02-61.68,98.54-9.66,16.8-19.19,33.79-28.36,50.75,0,0-8.86-16.39-8.86-16.39,1.51.08,4.42.26,5.93.31,63.29,1.63,128.47-5.57,186.92-31.01,20.46-9.1,39.88-21,56.31-36.27,7.43-6.94,14.22-14.58,20.22-22.82,19.4-26.73,28.37-59.81,28.89-92.74,0,0,3.01,1.62,3.01,1.62l-194.27,126.47-2.12-3.26h0Z"/>
          <path class="cls-1" d="M355.29,1463.08c-1.62,4.09-5.33,6.12-9.16,7.63-3.73,1.47-7.48,2.58-11.62,2.67,0,0-7.1-14.34-7.1-14.34,1.32-1.69,2.8-3.06,4.34-4.3,4.75-3.48,10.2-7.61,16.44-5.99,0,0,7.1,14.34,7.1,14.34h0Z"/>
        </g>
        <g>
          <path class="cls-2" d="M126.5,1239.21l216.99,81.56s3.43,1.29,3.43,1.29c0,0-2.96,2.09-2.96,2.09-94.4,73.86-198.43,26.25-276.18-46.53-23.43-21.83-44.95-45.68-64.17-71.31-3.2-4.26-11.14-15.61-14.28-19.94,0,0,18.35-2.28,18.36-2.28,58.69-3.31,117.32-5.74,176.06-2.63,17.16,1.33,34.82,2.2,51.22,8.08,2.38.94,4.76,2.08,6.93,3.86l-2.41,3.05c-3.65-2.45-8.45-3.51-12.84-4.34-14.18-2.43-28.69-2.4-43.1-2.29-38.72.74-77.42,4.48-115.93,8.71-19.26,2.17-38.59,4.56-57.68,7.23,0,0,7.96-16.85,7.96-16.85.83,1.26,2.41,3.72,3.27,4.96,36.16,51.92,80.64,100.22,135.74,132.2,19.45,11.09,40.54,19.68,62.58,23.87,10,1.87,20.17,2.81,30.36,2.76,33.03-.2,64.99-12.58,91.82-31.68,0,0,.47,3.38.47,3.38,0,0-216.99-81.56-216.99-81.56l1.37-3.64h0Z"/>
          <path class="cls-2" d="M359.73,1340.33c-4.26,1.12-8.09-.67-11.57-2.86-3.4-2.13-6.51-4.5-9.03-7.78,0,0,7.34-14.21,7.34-14.21,2.14.06,4.12.44,6.04.94,5.62,1.76,12.17,3.71,14.56,9.69,0,0-7.34,14.21-7.34,14.21h0Z"/>
        </g>
        <g>
          <path class="cls-2" d="M-81.63,1756.09l95.76,211.11,1.51,3.34s-3.57-.61-3.58-.61c-118.98-14.52-158.87-121.75-162.39-228.19-1.13-32.01.51-64.09,5.05-95.8.75-5.28,3.16-18.91,4-24.2,0,0,14.59,11.36,14.59,11.37,43.84,39.16,87.02,78.89,126.35,122.63,11.2,13.08,23.06,26.18,30.5,41.93,1.02,2.35,1.9,4.84,2.17,7.63l-3.86.46c-.85-4.31-3.49-8.46-6.01-12.15-8.31-11.74-18.59-21.99-28.86-32.09-27.9-26.85-57.91-51.58-88.13-75.81-15.16-12.08-30.51-24.06-45.9-35.68,0,0,17.54-6.29,17.54-6.29-.3,1.48-.92,4.33-1.19,5.81-11.14,62.32-13.85,127.84,2.5,189.46,5.91,21.6,14.75,42.58,27.37,61.13,5.75,8.4,12.27,16.25,19.51,23.42,23.5,23.21,54.85,37.05,87.33,42.53,0,0-2.06,2.73-2.06,2.73l-95.76-211.11s3.54-1.61,3.54-1.61h0Z"/>
          <path class="cls-2" d="M11.78,1992.51c-3.8-2.22-5.24-6.2-6.16-10.2-.9-3.91-1.42-7.79-.88-11.89,0,0,15.24-4.86,15.24-4.86,1.48,1.56,2.6,3.23,3.6,4.94,2.72,5.22,5.98,11.23,3.44,17.15,0,0-15.24,4.86-15.24,4.86h0Z"/>
        </g>
        <g>
          <path class="cls-1" d="M175.54,1009.74l93.87-211.95,1.48-3.35s1.92,3.07,1.92,3.08c68.33,98.48,14.83,199.61-62.3,273.06-23.14,22.14-48.19,42.26-74.87,59.98-4.44,2.95-16.22,10.23-20.73,13.12,0,0-1.22-18.45-1.23-18.46.06-58.78,1-117.45,7.47-175.92,2.31-17.06,4.2-34.63,11-50.67,1.08-2.32,2.35-4.63,4.25-6.7,0,0,2.91,2.58,2.91,2.58-2.65,3.5-3.99,8.23-5.07,12.57-3.24,14.01-4.05,28.51-4.76,42.9-1.48,38.7.03,77.55,2.04,116.23,1.06,19.35,2.34,38.79,3.91,58,0,0-16.36-8.91-16.36-8.91,1.31-.76,3.85-2.19,5.13-2.98,53.91-33.13,104.68-74.76,139.77-127.93,12.19-18.78,21.97-39.35,27.42-61.11,2.44-9.88,3.97-19.98,4.5-30.15,1.69-32.98-8.84-65.6-26.36-93.49,0,0,3.4-.28,3.4-.28l-93.87,211.95-3.56-1.57h0Z"/>
          <path class="cls-1" d="M289.88,782.69c.87,4.31-1.14,8.04-3.52,11.39-2.32,3.27-4.87,6.25-8.28,8.57,0,0-13.77-8.14-13.77-8.14.18-2.14.68-4.09,1.29-5.97,2.08-5.51,4.4-11.94,10.51-13.98,0,0,13.77,8.14,13.77,8.14h0Z"/>
        </g>
        <g>
          <path class="cls-2" d="M534.88,1574.18l-152.57,174.53-2.41,2.76s-.92-3.5-.92-3.51c-36.01-114.33,45.1-195.01,140.55-242.25,28.67-14.27,58.56-26.05,89.3-35.05,5.12-1.5,18.53-4.95,23.69-6.37,0,0-4.31,17.99-4.31,17.99-17.51,56.11-35.82,111.86-59.36,165.77-7.27,15.6-14.29,31.83-25.55,45.12-1.72,1.9-3.62,3.73-6.05,5.14,0,0-2.01-3.33-2.01-3.33,3.58-2.56,6.25-6.68,8.58-10.5,7.25-12.42,12.33-26.02,17.28-39.55,12.9-36.51,23-74.06,32.56-111.6,4.73-18.8,9.28-37.73,13.49-56.55,0,0,12.98,13.37,12.98,13.37-1.47.33-4.33.95-5.79,1.32-61.35,15.64-122.11,40.29-171.45,80.67-17.21,14.32-32.66,31.05-44.33,50.22-5.27,8.71-9.72,17.9-13.25,27.46-11.41,31-11.04,65.27-2.58,97.1,0,0-3.33-.74-3.33-.74,0,0,152.57-174.53,152.57-174.53,0,0,2.93,2.56,2.93,2.56h0Z"/>
          <path class="cls-2" d="M358.29,1757.05c.45-4.38,3.47-7.34,6.74-9.83,3.19-2.43,6.5-4.52,10.45-5.72,0,0,10.73,11.87,10.73,11.87-.81,1.99-1.86,3.7-3,5.32-3.62,4.64-7.75,10.09-14.19,10.23,0,0-10.73-11.87-10.73-11.87h0Z"/>
        </g>
        <g>
          <path class="cls-1" d="M515.2,2133.03l-216.99-81.56-3.43-1.29s2.96-2.09,2.96-2.09c94.4-73.86,198.43-26.25,276.18,46.53,23.43,21.83,44.95,45.68,64.17,71.31,3.2,4.26,11.14,15.61,14.28,19.94,0,0-18.35,2.28-18.36,2.28-58.69,3.31-117.32,5.74-176.06,2.63-17.16-1.33-34.82-2.2-51.22-8.08-2.38-.94-4.76-2.08-6.93-3.86,0,0,2.41-3.05,2.41-3.05,3.65,2.45,8.45,3.51,12.84,4.34,14.18,2.43,28.69,2.4,43.1,2.29,38.72-.74,77.42-4.47,115.93-8.71,19.26-2.17,38.59-4.56,57.68-7.23,0,0-7.96,16.85-7.96,16.85-.83-1.26-2.41-3.72-3.27-4.96-36.16-51.92-80.64-100.22-135.74-132.2-19.45-11.09-40.54-19.68-62.58-23.87-10-1.87-20.17-2.81-30.36-2.76-33.03.2-64.99,12.58-91.82,31.68,0,0-.47-3.38-.47-3.38l216.99,81.56s-1.37,3.64-1.37,3.64h0Z"/>
          <path class="cls-1" d="M281.97,2031.9c4.26-1.12,8.09.67,11.57,2.86,3.4,2.13,6.51,4.5,9.03,7.78,0,0-7.34,14.21-7.34,14.21-2.14-.06-4.12-.44-6.04-.94-5.62-1.76-12.17-3.71-14.56-9.69,0,0,7.34-14.21,7.34-14.21h0Z"/>
        </g>
        <g>
          <path class="cls-1" d="M135.63,2527.21l194.27-126.47s3.07-2,3.07-2c0,0-.07,3.62-.07,3.63,3.56,119.81-96.43,175.4-201.13,194.91-31.47,5.94-63.44,9.14-95.47,9.44-5.33.05-19.17-.28-24.53-.31,0,0,9.04-16.14,9.04-16.14,32.11-49.24,64.89-97.91,102.2-143.38,11.24-13.04,22.4-26.74,36.86-36.47,2.17-1.36,4.49-2.6,7.22-3.3,0,0,1.03,3.75,1.03,3.75-4.14,1.49-7.83,4.72-11.11,7.77-10.35,9.98-18.94,21.69-27.38,33.36-22.35,31.63-42.27,65.02-61.68,98.54-9.66,16.8-19.19,33.79-28.36,50.75,0,0-8.86-16.39-8.86-16.39,1.51.08,4.42.26,5.93.31,63.29,1.63,128.47-5.57,186.92-31.01,20.46-9.1,39.88-21,56.31-36.27,7.43-6.94,14.22-14.58,20.22-22.82,19.4-26.73,28.37-59.81,28.89-92.74,0,0,3.01,1.62,3.01,1.62l-194.27,126.47s-2.12-3.26-2.12-3.26h0Z"/>
          <path class="cls-1" d="M355.29,2399.25c-1.62,4.09-5.34,6.12-9.16,7.63-3.73,1.47-7.48,2.58-11.62,2.66,0,0-7.1-14.34-7.1-14.34,1.32-1.69,2.8-3.06,4.34-4.3,4.75-3.48,10.2-7.61,16.44-5.99,0,0,7.1,14.34,7.1,14.34h0Z"/>
        </g>
        <g>
          <path class="cls-2" d="M126.5,2175.38s216.99,81.56,216.99,81.56,3.43,1.29,3.43,1.29c0,0-2.96,2.09-2.96,2.09-94.4,73.86-198.43,26.25-276.18-46.53-23.43-21.83-44.95-45.68-64.17-71.31-3.2-4.27-11.14-15.61-14.28-19.94,0,0,18.35-2.28,18.36-2.28,58.69-3.31,117.32-5.74,176.06-2.63,17.16,1.33,34.82,2.2,51.22,8.08,2.38.94,4.76,2.08,6.93,3.86,0,0-2.41,3.05-2.41,3.05-3.65-2.45-8.45-3.51-12.84-4.34-14.18-2.43-28.69-2.4-43.1-2.29-38.72.74-77.42,4.48-115.93,8.71-19.26,2.17-38.59,4.56-57.68,7.23,0,0,7.96-16.85,7.96-16.85.83,1.26,2.41,3.72,3.27,4.96,36.16,51.92,80.64,100.22,135.74,132.2,19.45,11.09,40.54,19.68,62.58,23.87,10,1.87,20.17,2.81,30.36,2.76,33.03-.2,64.99-12.58,91.82-31.68,0,0,.47,3.38.47,3.38l-216.99-81.56s1.37-3.64,1.37-3.64h0Z"/>
          <path class="cls-2" d="M359.73,2276.5c-4.26,1.12-8.09-.67-11.57-2.86-3.4-2.13-6.51-4.5-9.03-7.78,0,0,7.34-14.21,7.34-14.21,2.14.06,4.12.44,6.04.94,5.62,1.76,12.17,3.71,14.56,9.69,0,0-7.34,14.21-7.34,14.21h0Z"/>
        </g>
        <g>
          <path class="cls-2" d="M-81.63,2692.26s95.76,211.11,95.76,211.11c0,0,1.51,3.34,1.51,3.34,0,0-3.57-.61-3.58-.61-118.98-14.52-158.87-121.75-162.39-228.19-1.13-32,.51-64.09,5.05-95.8.75-5.28,3.16-18.91,4-24.2,0,0,14.59,11.36,14.59,11.36,43.84,39.16,87.02,78.89,126.35,122.63,11.2,13.08,23.06,26.18,30.5,41.93,1.02,2.35,1.9,4.84,2.17,7.63,0,0-3.86.46-3.86.46-.85-4.31-3.49-8.46-6.01-12.15-8.31-11.74-18.59-21.99-28.86-32.09-27.9-26.85-57.91-51.58-88.13-75.81-15.16-12.08-30.51-24.06-45.9-35.68,0,0,17.54-6.29,17.54-6.29-.3,1.48-.92,4.33-1.19,5.81-11.14,62.32-13.85,127.84,2.5,189.46,5.91,21.6,14.75,42.58,27.37,61.13,5.75,8.4,12.27,16.25,19.51,23.42,23.5,23.21,54.85,37.06,87.33,42.53,0,0-2.06,2.73-2.06,2.73l-95.76-211.11s3.54-1.61,3.54-1.61h0Z"/>
          <path class="cls-2" d="M11.78,2928.68c-3.8-2.22-5.24-6.2-6.16-10.2-.9-3.91-1.42-7.79-.88-11.89,0,0,15.24-4.86,15.24-4.86,1.48,1.56,2.6,3.23,3.6,4.94,2.72,5.22,5.98,11.23,3.44,17.15,0,0-15.24,4.86-15.24,4.86h0Z"/>
        </g>
        <g>
          <path class="cls-1" d="M175.54,1945.91l93.87-211.95,1.48-3.35s1.92,3.07,1.92,3.08c68.33,98.48,14.83,199.61-62.3,273.06-23.14,22.14-48.19,42.26-74.87,59.98-4.44,2.95-16.22,10.23-20.73,13.12,0,0-1.22-18.45-1.23-18.46.06-58.78,1-117.45,7.47-175.92,2.31-17.06,4.2-34.63,11-50.67,1.08-2.32,2.35-4.63,4.25-6.7,0,0,2.91,2.58,2.91,2.58-2.65,3.5-3.99,8.23-5.07,12.57-3.24,14.01-4.05,28.51-4.76,42.9-1.48,38.7.03,77.55,2.04,116.24,1.06,19.35,2.34,38.79,3.91,58,0,0-16.36-8.91-16.36-8.91,1.31-.76,3.85-2.19,5.13-2.98,53.94-33.15,104.65-74.73,139.77-127.93,12.19-18.79,21.97-39.35,27.42-61.11,2.44-9.88,3.97-19.98,4.5-30.15,1.69-32.98-8.84-65.6-26.36-93.49,0,0,3.4-.28,3.4-.28,0,0-93.87,211.95-93.87,211.95,0,0-3.56-1.57-3.56-1.57h0Z"/>
          <path class="cls-1" d="M289.88,1718.86c.87,4.31-1.14,8.04-3.52,11.39-2.32,3.27-4.87,6.25-8.28,8.57,0,0-13.77-8.14-13.77-8.14.18-2.14.68-4.09,1.29-5.97,2.08-5.51,4.4-11.94,10.51-13.98,0,0,13.77,8.14,13.77,8.14h0Z"/>
        </g>
        <g>
          <path class="cls-2" d="M534.88,2510.35l-152.57,174.53s-2.41,2.76-2.41,2.76c0,0-.92-3.5-.92-3.51-36.01-114.33,45.1-195.01,140.55-242.25,28.67-14.27,58.56-26.05,89.3-35.05,5.12-1.5,18.53-4.95,23.69-6.37,0,0-4.31,17.99-4.31,17.99-17.51,56.11-35.82,111.86-59.36,165.77-7.27,15.6-14.29,31.83-25.55,45.12-1.72,1.9-3.62,3.73-6.05,5.14,0,0-2.01-3.33-2.01-3.33,3.58-2.56,6.25-6.68,8.58-10.5,7.25-12.42,12.33-26.02,17.28-39.55,12.9-36.51,23-74.06,32.56-111.6,4.73-18.8,9.28-37.73,13.49-56.55,0,0,12.98,13.37,12.98,13.37-1.47.33-4.33.95-5.79,1.32-61.35,15.64-122.11,40.29-171.45,80.67-17.21,14.32-32.66,31.05-44.33,50.22-5.27,8.7-9.72,17.9-13.25,27.46-11.41,30.99-11.04,65.27-2.58,97.1,0,0-3.33-.74-3.33-.74l152.57-174.53,2.93,2.56h0Z"/>
          <path class="cls-2" d="M358.29,2693.22c.45-4.38,3.47-7.34,6.74-9.83,3.19-2.43,6.5-4.52,10.45-5.72,0,0,10.73,11.87,10.73,11.87-.81,1.99-1.86,3.7-3,5.32-3.62,4.64-7.75,10.09-14.19,10.23,0,0-10.73-11.87-10.73-11.87h0Z"/>
        </g>
        <g>
          <path class="cls-1" d="M515.2,3069.2l-216.99-81.56s-3.43-1.29-3.43-1.29c0,0,2.96-2.09,2.96-2.1,94.4-73.86,198.43-26.25,276.18,46.53,23.43,21.83,44.95,45.68,64.17,71.31,3.2,4.26,11.14,15.61,14.28,19.94,0,0-18.35,2.28-18.36,2.28-58.69,3.31-117.32,5.74-176.06,2.63-17.16-1.33-34.82-2.2-51.22-8.08-2.38-.94-4.76-2.08-6.93-3.86,0,0,2.41-3.05,2.41-3.05,3.65,2.45,8.45,3.51,12.84,4.34,14.18,2.43,28.69,2.4,43.1,2.29,38.72-.74,77.42-4.48,115.93-8.71,19.26-2.17,38.59-4.56,57.68-7.23,0,0-7.96,16.85-7.96,16.85-.83-1.26-2.41-3.72-3.27-4.96-36.16-51.92-80.64-100.22-135.74-132.2-19.45-11.09-40.54-19.68-62.58-23.87-10-1.87-20.17-2.81-30.36-2.77-33.03.21-64.99,12.58-91.82,31.68,0,0-.47-3.38-.47-3.38,0,0,216.99,81.56,216.99,81.56,0,0-1.37,3.64-1.37,3.64h0Z"/>
          <path class="cls-1" d="M281.97,2968.07c4.26-1.12,8.09.67,11.57,2.86,3.4,2.13,6.51,4.5,9.03,7.78,0,0-7.34,14.21-7.34,14.21-2.14-.06-4.12-.44-6.04-.94-5.62-1.76-12.17-3.71-14.56-9.69,0,0,7.34-14.21,7.34-14.21h0Z"/>
        </g>
        <g>
          <path class="cls-1" d="M135.63,3463.38s194.27-126.47,194.27-126.47c0,0,3.07-2,3.07-2,0,0-.07,3.62-.07,3.63,3.56,119.81-96.43,175.4-201.13,194.91-31.47,5.94-63.44,9.14-95.47,9.44-5.33.05-19.17-.28-24.53-.31,0,0,9.04-16.14,9.04-16.14,32.11-49.24,64.89-97.91,102.2-143.38,11.24-13.04,22.4-26.74,36.86-36.47,2.17-1.36,4.49-2.6,7.22-3.3,0,0,1.03,3.75,1.03,3.75-4.14,1.49-7.83,4.72-11.11,7.77-10.35,9.98-18.94,21.69-27.38,33.36-22.35,31.63-42.27,65.02-61.68,98.54-9.66,16.8-19.19,33.79-28.36,50.75,0,0-8.86-16.39-8.86-16.39,1.51.08,4.42.26,5.93.31,63.29,1.63,128.47-5.57,186.92-31.01,20.46-9.1,39.88-21,56.31-36.27,7.43-6.95,14.22-14.58,20.22-22.82,19.4-26.72,28.37-59.81,28.89-92.74,0,0,3.01,1.62,3.01,1.62,0,0-194.27,126.47-194.27,126.47,0,0-2.12-3.26-2.12-3.26h0Z"/>
          <path class="cls-1" d="M355.29,3335.42c-1.62,4.09-5.34,6.12-9.16,7.62-3.73,1.47-7.48,2.58-11.62,2.67,0,0-7.1-14.34-7.1-14.34,1.32-1.69,2.8-3.06,4.34-4.3,4.75-3.48,10.2-7.61,16.44-5.99,0,0,7.1,14.34,7.1,14.34h0Z"/>
        </g>
        <g>
          <path class="cls-2" d="M126.5,3111.55s216.99,81.56,216.99,81.56c0,0,3.43,1.29,3.43,1.29,0,0-2.96,2.09-2.96,2.09-94.4,73.86-198.43,26.25-276.18-46.53-23.43-21.83-44.95-45.68-64.17-71.31-3.2-4.26-11.14-15.61-14.28-19.94,0,0,18.35-2.28,18.36-2.28,58.69-3.31,117.32-5.74,176.06-2.63,17.16,1.33,34.82,2.2,51.22,8.08,2.38.94,4.76,2.08,6.93,3.86l-2.41,3.05c-3.65-2.45-8.45-3.51-12.84-4.34-14.18-2.43-28.69-2.4-43.1-2.29-38.72.74-77.42,4.48-115.93,8.71-19.26,2.17-38.59,4.56-57.68,7.23,0,0,7.96-16.85,7.96-16.85.83,1.26,2.41,3.72,3.27,4.96,36.16,51.92,80.64,100.22,135.74,132.2,19.45,11.09,40.54,19.68,62.58,23.87,10,1.87,20.17,2.81,30.36,2.76,33.03-.2,64.99-12.58,91.82-31.68,0,0,.47,3.38.47,3.38,0,0-216.99-81.56-216.99-81.56,0,0,1.37-3.64,1.37-3.64h0Z"/>
          <path class="cls-2" d="M359.73,3212.67c-4.26,1.12-8.09-.67-11.57-2.86-3.4-2.13-6.51-4.5-9.03-7.78,0,0,7.34-14.22,7.34-14.22,2.14.06,4.12.44,6.04.94,5.62,1.76,12.17,3.71,14.56,9.69,0,0-7.34,14.21-7.34,14.21h0Z"/>
        </g>
        <path class="cls-2" d="M-81.63,3628.43s95.76,211.11,95.76,211.11c0,0,1.51,3.34,1.51,3.34,0,0-3.57-.61-3.58-.61-118.98-14.52-158.87-121.75-162.39-228.19-1.13-32.01.51-64.09,5.05-95.8.75-5.28,3.16-18.91,4-24.2,0,0,14.59,11.36,14.59,11.37,43.84,39.16,87.02,78.89,126.35,122.63,11.2,13.08,23.06,26.18,30.5,41.93,1.02,2.35,1.9,4.84,2.17,7.63l-3.86.46c-.85-4.31-3.49-8.46-6.01-12.15-8.31-11.74-18.59-21.99-28.86-32.09-27.9-26.85-57.91-51.58-88.13-75.81-15.16-12.08-30.51-24.06-45.9-35.68,0,0,17.54-6.29,17.54-6.29-.3,1.48-.92,4.33-1.19,5.81-11.14,62.32-13.85,127.84,2.5,189.46,5.91,21.6,14.75,42.58,27.37,61.13,5.75,8.4,12.27,16.25,19.51,23.42,23.5,23.21,54.85,37.06,87.33,42.53,0,0-2.06,2.73-2.06,2.73l-95.76-211.11s3.54-1.61,3.54-1.61h0Z"/>
        <g>
          <path class="cls-1" d="M175.54,2882.08l93.87-211.95s1.48-3.35,1.48-3.35c0,0,1.92,3.07,1.92,3.08,68.33,98.48,14.83,199.61-62.3,273.06-23.14,22.14-48.19,42.26-74.87,59.98-4.44,2.95-16.22,10.23-20.73,13.12,0,0-1.22-18.45-1.23-18.46.06-58.78,1-117.45,7.47-175.92,2.31-17.06,4.2-34.63,11-50.67,1.08-2.32,2.35-4.63,4.25-6.7,0,0,2.91,2.58,2.91,2.58-2.65,3.5-3.99,8.23-5.07,12.57-3.24,14.01-4.05,28.51-4.76,42.9-1.48,38.7.03,77.55,2.04,116.23,1.06,19.36,2.34,38.79,3.91,58,0,0-16.36-8.91-16.36-8.91,1.31-.76,3.85-2.19,5.13-2.98,53.91-33.12,104.68-74.76,139.77-127.93,12.19-18.78,21.97-39.35,27.42-61.11,2.44-9.88,3.97-19.98,4.5-30.15,1.69-32.98-8.84-65.6-26.36-93.49,0,0,3.4-.28,3.4-.28l-93.87,211.95s-3.56-1.57-3.56-1.57h0Z"/>
          <path class="cls-1" d="M289.88,2655.03c.87,4.31-1.14,8.04-3.52,11.39-2.32,3.27-4.87,6.25-8.28,8.57,0,0-13.77-8.14-13.77-8.14.18-2.14.68-4.09,1.29-5.97,2.08-5.5,4.4-11.94,10.51-13.98,0,0,13.77,8.14,13.77,8.14h0Z"/>
        </g>
        <g>
          <path class="cls-2" d="M534.88,3446.52l-152.57,174.53-2.41,2.76s-.92-3.5-.92-3.51c-36.01-114.33,45.1-195.01,140.55-242.25,28.67-14.27,58.56-26.05,89.3-35.05,5.12-1.5,18.53-4.95,23.69-6.37,0,0-4.31,17.99-4.31,17.99-17.51,56.11-35.82,111.86-59.36,165.77-7.27,15.6-14.29,31.83-25.55,45.12-1.72,1.9-3.62,3.73-6.05,5.14l-2.01-3.33c3.58-2.56,6.25-6.68,8.58-10.5,7.25-12.42,12.33-26.02,17.28-39.55,12.9-36.51,23-74.06,32.56-111.6,4.73-18.8,9.28-37.73,13.49-56.55,0,0,12.98,13.37,12.98,13.37-1.47.33-4.33.95-5.79,1.32-61.35,15.64-122.11,40.29-171.45,80.67-17.21,14.32-32.66,31.05-44.33,50.22-5.27,8.7-9.72,17.9-13.25,27.46-11.41,31-11.04,65.27-2.58,97.1,0,0-3.33-.74-3.33-.74,0,0,152.57-174.53,152.57-174.53,0,0,2.93,2.56,2.93,2.56h0Z"/>
          <path class="cls-2" d="M358.29,3629.39c.45-4.38,3.47-7.34,6.74-9.83,3.19-2.43,6.5-4.52,10.45-5.72,0,0,10.73,11.87,10.73,11.87-.81,1.99-1.86,3.7-3,5.32-3.62,4.64-7.75,10.09-14.19,10.23,0,0-10.73-11.87-10.73-11.87h0Z"/>
        </g>
        <g>
          <path class="cls-1" d="M175.54,3818.25l93.87-211.95,1.48-3.35s1.92,3.07,1.92,3.08c68.33,98.48,14.83,199.61-62.3,273.06-23.14,22.14-48.19,42.26-74.87,59.98-4.44,2.95-16.22,10.23-20.73,13.12,0,0-1.22-18.45-1.23-18.46.06-58.78,1-117.45,7.47-175.92,2.31-17.06,4.2-34.63,11-50.67,1.08-2.32,2.35-4.63,4.25-6.7l2.91,2.58c-2.65,3.5-3.99,8.23-5.07,12.57-3.24,14.01-4.05,28.51-4.76,42.9-1.48,38.7.03,77.55,2.04,116.24,1.06,19.35,2.34,38.79,3.91,58,0,0-16.36-8.91-16.36-8.91,1.31-.76,3.85-2.19,5.13-2.98,53.94-33.15,104.65-74.73,139.77-127.93,12.19-18.78,21.97-39.35,27.42-61.11,2.44-9.87,3.97-19.98,4.5-30.15,1.69-32.98-8.84-65.6-26.36-93.49,0,0,3.4-.28,3.4-.28,0,0-93.87,211.95-93.87,211.95l-3.56-1.57h0Z"/>
          <path class="cls-1" d="M289.88,3591.2c.87,4.31-1.14,8.04-3.52,11.39-2.32,3.27-4.87,6.25-8.28,8.57,0,0-13.77-8.14-13.77-8.14.18-2.14.68-4.09,1.29-5.97,2.08-5.5,4.4-11.94,10.51-13.98,0,0,13.77,8.14,13.77,8.14h0Z"/>
        </g>
      </g>
    </g>
  </g>
</svg>