<?xml version="1.0" encoding="UTF-8"?>
<svg id="Capa_2" data-name="Capa 2" xmlns="http://www.w3.org/2000/svg" viewBox="0 0 148.47 138.25">
  <defs>
    <style>
      .cls-1 {
        fill: #000;
        stroke-width: 0px;
      }
    </style>
  </defs>
  <g id="Capa_1-2" data-name="Capa 1">
    <path class="cls-1" d="M53.11,134.99c-1.45-2.71-3.78-4.87-6.45-6.4-2.67-1.55-5.65-2.56-8.69-3.22-6.1-1.29-12.46-1.32-18.63-.48-3.08.44-6.14,1.11-9.04,2.13-1.45.51-2.85,1.12-4.15,1.86-1.27.74-2.48,1.65-3.18,2.71-.69,1.07-.72,2.11-.06,3.17.26.39.59.6,1.12.72.53.12,1.2.1,1.88,0,1.39-.2,2.84-.69,4.34-1.18,1.41-.43,2.6-1.1,3.77-1.96,2.32-1.73,4.24-4.12,5.91-6.65,1.67-2.55,3.09-5.3,4.37-8.12,2.55-5.65,4.53-11.6,6.24-17.62,3.4-12.06,5.76-24.45,7.56-36.9.89-6.23,1.64-12.48,2.24-18.74.3-3.13.57-6.27.79-9.4l.16-2.35.08-1.18c.02-.4.04-.65.04-.97,0-1.23-.18-2.42-.55-3.41-.37-1-.9-1.78-1.58-2.32-.72-.58-1.4-.87-2.29-.93-1.78-.09-3.12.65-4.05,2.47-.46.91-.77,2.07-.95,3.33-.05.31-.07.64-.11.96l-.05.97c-.02.48.03,1.08.12,1.71.34,2.58,1.23,5.49,2.26,8.3,2.13,5.67,4.96,11.24,8.06,16.63,3.12,5.39,6.56,10.64,10.22,15.73,3.67,5.09,7.61,10,11.78,14.72,4.15,4.74,8.57,9.25,13.26,13.5l-.64.77c-5.09-3.83-9.96-7.97-14.59-12.38-4.63-4.41-9.01-9.1-13.16-13.98-4.16-4.88-8.07-10-11.67-15.36-3.6-5.37-6.94-10.92-9.71-16.96-1.36-3.05-2.63-6.15-3.29-9.84-.15-.94-.24-1.92-.22-3.03.03-.98.1-1.85.23-2.81.26-1.87.78-3.82,1.77-5.74.98-1.9,2.56-3.76,4.65-4.96,2.09-1.2,4.52-1.67,6.81-1.41,2.28.19,4.64,1.25,6.32,2.74,1.76,1.5,2.97,3.51,3.64,5.49.68,2,.89,4.01.84,5.95-.01.46-.05,1.01-.09,1.4l-.12,1.19-.25,2.39c-.34,3.18-.72,6.35-1.14,9.52-.83,6.34-1.81,12.65-2.94,18.94-2.28,12.57-5.08,25.08-9.03,37.29-2,6.1-4.27,12.13-7.17,17.94-1.46,2.9-3.07,5.74-4.98,8.42-1.92,2.66-4.12,5.24-6.98,7.21-1.41.97-3.06,1.79-4.71,2.22-1.52.43-3.11.91-4.88,1.09-.88.08-1.83.1-2.84-.17-1.01-.24-2.1-.98-2.63-1.98-.49-.83-.82-1.87-.77-2.93.04-1.07.46-2.06,1-2.84,1.11-1.57,2.58-2.53,4.04-3.35,1.48-.8,3.01-1.42,4.56-1.92,3.11-1.01,6.29-1.63,9.49-2,6.4-.71,12.91-.53,19.2.96,3.13.76,6.21,1.88,8.99,3.58,2.78,1.68,5.22,4.05,6.71,6.99l-.89.46Z"/>
    <path class="cls-1" d="M76.77,118.18c-.32-1.18-.4-2.24-.45-3.36-.03-1.1-.04-2.21.04-3.3.12-2.19.4-4.37.75-6.53.73-4.31,1.78-8.56,3-12.74,2.48-8.36,5.61-16.51,9.03-24.51,6.91-15.98,15.01-31.4,23.57-46.52L124.73,0l-3.67,24.51h0c-1.21,5.44-2.27,11.09-3.23,16.68-.96,5.61-1.8,11.24-2.5,16.89-1.4,11.29-2.33,22.65-2.2,33.97.08,5.66.43,11.31,1.31,16.85.9,5.52,2.28,11.01,4.93,15.8,1.33,2.37,3.01,4.54,5.11,6.18,2.09,1.65,4.62,2.72,7.31,3.1,2.69.4,5.5.16,8.24-.46,2.74-.61,5.42-1.59,8.02-2.74l.44.9c-2.57,1.33-5.26,2.5-8.09,3.3-2.82.81-5.81,1.26-8.84,1-3.02-.24-6.04-1.29-8.57-3.06-2.54-1.76-4.59-4.12-6.21-6.66-3.23-5.13-5.02-10.88-6.3-16.6-1.26-5.75-1.97-11.57-2.39-17.39-.82-11.64-.55-23.28.2-34.86.38-5.79.9-11.57,1.54-17.34.65-5.79,1.37-11.49,2.31-17.33h0s8.35,3.29,8.35,3.29c-9.59,14.21-18.74,28.74-26.75,43.88-3.98,7.58-7.67,15.32-10.73,23.3-1.52,3.99-2.86,8.05-3.9,12.18-.51,2.07-.94,4.15-1.22,6.26-.15,1.05-.23,2.11-.28,3.16-.04,1.04-.02,2.14.15,3.07l-.96.29Z"/>
    <circle class="cls-1" cx="139.71" cy="35.19" r="4.58"/>
    <path class="cls-1" d="M136.15,77.8c0-1.71-1.38-3.42-3.09-3.42s-3.09,1.38-3.09,3.09,1.38,3.09,3.09,3.09,3.09-1.05,3.09-2.76Z"/>
    <circle class="cls-1" cx="137.33" cy="115.84" r="2.38"/>
  </g>
</svg>