<?xml version="1.0" encoding="UTF-8"?>
<svg id="Capa_2" data-name="Capa 2" xmlns="http://www.w3.org/2000/svg" viewBox="0 0 495.86 609.88">
  <defs>
    <style>
      .cls-1 {
        fill: #000;
      }

      .cls-1, .cls-2 {
        stroke-width: 0px;
      }

      .cls-2 {
        fill: #fff;
      }
    </style>
  </defs>
  <g id="Layer_1" data-name="Layer 1">
    <g>
      <path class="cls-2" d="M459.61,13.21c1.33-.34,3.43-.78,5.76,0-14.09,6.54-27.45,13.55-39.84,22.08-5.95,4.1-11.73,8.73-17.76,13.44-5.66,4.42-12.27,8.55-16.8,13.92-4.9,5.81-8.18,14.35-12,22.08-3.79,7.67-7.59,15.68-10.56,23.52-3.39,8.96-4.04,18.35-5.76,28.32-1.59,9.22-4.18,17.99-6.72,26.88-4.93,1.04-9.04,4.43-14.4,4.8-5.85.41-12.09-2.51-19.2-1.44-1.4-.6.28-2.07.48-2.4,8.28-13.81,17.47-27.88,24.96-43.68,7.61-16.05,15.55-32.3,26.88-46.08,16.31-19.84,37.55-35.47,60.48-49.44,8.08-4.93,15.56-9.76,24.48-12Z"/>
      <path class="cls-2" d="M288.25,568.57c7.16-2.44,6.26,7.99,1.44,8.16-3.65.13-6.55-6.41-1.44-8.16Z"/>
      <path class="cls-2" d="M364.57,280.57c13.83-1.99,16.7,6.98,28.8,6.72-8.26,1.5-20.72-1.2-26.4,2.88-2.9-1.13-4.36-5.63-3.36-9.12.39-.09.48-.48.96-.48Z"/>
      <path class="cls-2" d="M424.57,417.37c-.1,10.94.53,22.61-1.44,31.68-.92,1.64-1.94-1.02-2.4-1.44-6.01-5.56-13.37-13.14-19.68-18.72,1.62-9.74,2.96-19.76,3.36-30.72,7.21,5.91,13.89,12.35,20.16,19.2Z"/>
      <path class="cls-1" d="M192.25,405.37c.21.43.42.86.96.96-.6,3.08-3.4,3.96-6.24,4.8.29-3.39,2.04-5.32,5.28-5.76Z"/>
      <path class="cls-1" d="M343.93,569.53c.71,1.06-1.53,2.37-2.88,2.88-1.65,2.35-4.33,3.67-4.8,7.2,1.03,2.81,4.93,2.75,4.32,7.2-5.05,1.78-8.83-1.68-9.6-5.76-9.06-5.82-20.93-8.83-32.16-12.48,1.74-.66,3.32-1.48,4.8-2.4,10.17,2.95,18.75,7.49,27.84,11.52.45-2.18-4.87-2.4-5.76-4.8,0-1.28-.18-2.74.48-3.36-5.21-.22-9.41-1.47-10.56-5.76-3.22.02-5.26-1.14-6.24-3.36.92-4.68,5.27-5.93,6.72-10.08-5.97-3.29-7.38,5.98-12,7.2-.38-1.06-1.68-1.2-2.4-1.92,2.02-4.06,5.98-6.18,8.16-10.08-5.84.64-16.44,10.13-18.72,0-5.07.43-8.21-1.07-8.64-5.28-1.15.29-2.19.69-3.84.48-1.93-1.44-2.39-5.22-1.44-8.16,1.25-1.63,3.94-1.82,5.28-3.36-2.01-1.75-5.41,2.72-9.6,1.92-3.31,3.6-9.98,7.78-16.8,4.8-4.29-6.82,1.59-16.42,9.6-13.92-4.05,2.68-8.85,4.59-8.64,11.52,6.19.7,12.29-3.68,15.36-8.16,1.66-2.43,2.42-5.74,2.4-9.12-1.17-.91-3.83-.33-5.28-.96-.61-1.15-1.75-1.77-1.44-3.84-2.19,2.1-5.27,4.79-8.64,7.2-4.73,3.38-10.19,8.07-17.28,4.32.86-8.18,7.4-15.31,13.44-20.64,6.42-5.66,16.92-10.44,26.88-9.6,1.84-1.73,3.32-3.16,5.76-.96-.19,1.25-1.43,1.45-1.44,2.88,8.19,5.68,2.62,18.73-6.72,19.2,1.84,6.82-1.86,11.33-4.8,14.88,3.38.18,4.79-1.61,6.72-2.88-.12-2.52.38-4.42,1.44-5.76,2.15.09,3.48,1,4.8,1.92-.13,2.91-2.94,3.14-3.84,5.28.07,1.69,1.37,2.15,1.44,3.84-3.11.49-5.96,3.53-4.8,6.72,2.31.07,1.96-2.52,3.36-3.36,3-2.86,8.49.08,12,.48,1.15.13.82.34,1.44,0,.05-.03,1.12-.79.99-.94.67.21,3.77,2.54,3.81,2.86.18,1.5-3.69,3.98-4.8,5.28-1.8,2.12-2.9,3.68-3.84,5.76,6.92,2,17.43-10.89,21.12-.48,2.43-.19,3.43,1.05,4.32,2.4,0,5.92-5.08,6.76-6.24,11.52,3.79,2.04,5.63-3.78,9.6-4.32,3.21-.44,6.24.46,8.16,3.36-.59,1.33-.7,3.14-1.92,3.84-1.13.01-1.41-.83-2.88-.48.01-1.43,1.25-1.63,1.44-2.88-3.55-1.36-8.12.14-8.16,2.88-.14,8.38,18.37-1.71,21.12,4.8,1.43-.67,2.94-.57,3.36.96ZM335.77,582.49c-.6,2.69,1.6,4.88,2.88,2.88-.97-.95-1.57-2.27-2.88-2.88ZM339.13,569.05c-3.89-1.79-10.83-1.37-9.6,4.8,3.74,3.46,8.46-1.24,9.6-4.8ZM291.61,544.09c1.16-3,3.89-4.43,4.8-7.68-5.35-2.22-12.33.17-10.56,6.24,1.3,1.1,3.13,1.67,5.76,1.44ZM279.13,511.45c5.86-1.72,13.55-11.23,3.84-14.4-3.63,4.37-8.06,7.94-12,12,3.31.21,5.46,1.58,8.16,2.4ZM263.77,510.49c5.43-4.75,11.61-8.96,15.36-15.36-10.45,1.53-19.23,7.98-25.92,14.4-3.74,3.59-7.75,8.04-8.64,12.48,8.46-.94,14.02-6.98,19.2-11.52ZM270.01,513.85c1.36-.08,3.29.41,3.36-.96-.8-.64-1.61-1.27-3.36-.96v1.92Z"/>
      <path class="cls-2" d="M298.33,375.61c-1.35,3.77-3.12,7.12-4.8,10.56-20.04-4.6-41.63-7.65-66.72-7.2,2.38-4.34,4.01-9.43,7.2-12.96,24.32.32,45.24,4.04,64.32,9.6Z"/>
      <path class="cls-1" d="M254.65,489.85c.57,1.85-3.14,3.14-1.92,7.2-2.44.2-3.13-1.35-4.32-2.4-4.58,1.71-5.66-2.5-10.56-.96-.63-1.29-2.88-.96-2.88-2.88-1.88-.27-2.99,1.67-4.32.48.78-1.62,3.05-1.75,4.32-2.88,1.4-5.38,4.92-13.02,11.52-10.08.72,7.44-6.64,6.8-8.64,11.52-.32,2.08,2.23,1.29,3.84,1.44,3.48-4.04,4.86-10.18,10.56-12,.01.47.59.37.96.48,2.52,7.2-5.65,7.75-7.2,12.48,4.09,2.11,4.78-4.05,8.64-2.4ZM247.93,486.97c1.65-.41,5.22-3.54,2.88-4.8-.88,1.68-2.84,2.28-2.88,4.8ZM238.81,486.01c3.04-.81,4.51-3.17,5.76-5.76-3.47.36-4.72,2.96-5.76,5.76Z"/>
      <path class="cls-2" d="M443.29,426.49c1.21,4.93,2.34,9.74,3.36,14.88-3.84-2.96-6.54-8.57-10.08-12.96-3.61-4.46-7.86-8.25-11.04-12.48-.24-9.68-1.61-18.23-3.84-25.92,4.9,3.88,9.04,10.19,13.44,16.32,1.31,1.82,3.38,3.86,4.32,5.76,2.03,4.12,2.67,9.63,3.84,14.4Z"/>
      <path class="cls-2" d="M253.21,290.65c1.47,1.81-.6,4.18,0,6.72-1.38-.02.42-4.53,0-6.72Z"/>
      <path class="cls-1" d="M180.25,426.01c2.4-1.75,7.04-1.9,5.28,2.4-1.93,1.11-3.79,2.29-6.24,2.88.32-1.76.51-3.65.96-5.28Z"/>
      <path class="cls-2" d="M273.37,512.89c-.07,1.37-2,.88-3.36.96v-1.92c1.75-.31,2.56.32,3.36.96Z"/>
      <path class="cls-2" d="M282.97,497.05c9.71,3.17,2.02,12.68-3.84,14.4-2.7-.82-4.85-2.19-8.16-2.4,3.94-4.06,8.37-7.63,12-12Z"/>
      <path class="cls-2" d="M285.85,179.77c6.52,4.44,11.33,6.95,13.44,15.36-4.38-2.29-6.77-7.9-11.04-11.04-4.07-2.99-10.38-4.66-15.84-7.2-10.34-4.81-20.22-9.59-28.8-16.32-4.36-3.42-8.67-7.61-12.96-9.6-4.75-2.2-10.98-3-16.32-4.32-16.67-4.14-32.49-7.54-48-13.44,11.95-.49,23.85,2.77,35.04,4.8,5.57,1.01,11.52,1.96,16.8,3.36,11.13,2.95,18.58,6.86,27.36,12,4.1,2.4,8.31,4.47,11.52,7.2,2.55,2.17,4.12,5.37,6.72,7.2,3.69,2.59,8.37,3.25,12.48,5.28,3,1.48,6.29,4.47,9.6,6.72Z"/>
      <path class="cls-1" d="M238.81,537.37c1.07.37,1.87,1.01,3.36.96-1.39,5.33-3.67,9.77-5.28,14.88-1.07-.37-1.87-1.01-3.36-.96,1.28-5.44,3.69-9.75,5.28-14.88Z"/>
      <path class="cls-2" d="M298.84,534.03c.13.15-.94.91-.99.94-.62.34-.29.13-1.44,0-3.51-.4-9-3.34-12-.48-1.4.84-1.05,3.43-3.36,3.36-1.16-3.19,1.69-6.23,4.8-6.72-.07-1.69-1.37-2.15-1.44-3.84.9-2.14,3.71-2.37,3.84-5.28-1.32-.92-2.65-1.83-4.8-1.92-1.06,1.34-1.56,3.24-1.44,5.76-1.93,1.27-3.34,3.06-6.72,2.88,2.94-3.55,6.64-8.06,4.8-14.88,9.34-.47,14.91-13.52,6.72-19.2,0-1.43,1.25-1.63,1.44-2.88-2.44-2.2-3.92-.77-5.76.96-9.96-.84-20.46,3.94-26.88,9.6-6.04,5.33-12.58,12.46-13.44,20.64,7.09,3.75,12.55-.94,17.28-4.32,3.37-2.41,6.45-5.1,8.64-7.2-.31,2.07.83,2.69,1.44,3.84,1.45.63,4.11.05,5.28.96.02,3.38-.74,6.69-2.4,9.12-3.07,4.48-9.17,8.86-15.36,8.16-.21-6.93,4.59-8.84,8.64-11.52-8.01-2.5-13.89,7.1-9.6,13.92,6.82,2.98,13.49-1.2,16.8-4.8,4.19.8,7.59-3.67,9.6-1.92-1.34,1.54-4.03,1.73-5.28,3.36-.95,2.94-.49,6.72,1.44,8.16,1.65.21,2.69-.19,3.84-.48.43,4.21,3.57,5.71,8.64,5.28,2.28,10.13,12.88.64,18.72,0-2.18,3.9-6.14,6.02-8.16,10.08.72.72,2.02.86,2.4,1.92,4.62-1.22,6.03-10.49,12-7.2-1.45,4.15-5.8,5.4-6.72,10.08.98,2.22,3.02,3.38,6.24,3.36,1.15,4.29,5.35,5.54,10.56,5.76-.66.62-.48,2.08-.48,3.36.89,2.4,6.21,2.62,5.76,4.8-9.09-4.03-17.67-8.57-27.84-11.52-1.48.92-3.06,1.74-4.8,2.4,11.23,3.65,23.1,6.66,32.16,12.48.77,4.08,4.55,7.54,9.6,5.76.61-4.45-3.29-4.39-4.32-7.2.47-3.53,3.15-4.85,4.8-7.2,1.35-.51,3.59-1.82,2.88-2.88-.42-1.53-1.93-1.63-3.36-.96-2.75-6.51-21.26,3.58-21.12-4.8.04-2.74,4.61-4.24,8.16-2.88-.19,1.25-1.43,1.45-1.44,2.88,1.47-.35,1.75.49,2.88.48,1.22-.7,1.33-2.51,1.92-3.84-1.92-2.9-4.95-3.8-8.16-3.36-3.97.54-5.81,6.36-9.6,4.32,1.16-4.76,6.24-5.6,6.24-11.52-.89-1.35-1.89-2.59-4.32-2.4-3.69-10.41-14.2,2.48-21.12.48.94-2.08,2.04-3.64,3.84-5.76,1.11-1.3,4.98-3.78,4.8-5.28-.04-.32-3.14-2.65-3.81-2.86ZM321.85,497.53c27.93,21.93,48.1,52.54,65.76,82.08-19.61,13.31-43.06,24.26-72.96,26.88-30.36,2.66-59.47-4.1-81.6-15.84-21.29-11.3-38.8-27.74-52.32-47.52-13.63-19.94-24.03-44.09-25.44-73.92,17.76-3.51,34.8-6.76,54.24-7.68,50.2-2.37,84.04,13.79,112.32,36ZM290.17,580.57c10.1-.45,10.16-18.44-2.4-15.84-10.1,2.09-6.38,16.23,2.4,15.84ZM284.89,560.89c-1.02-.74-2.14-1.38-3.36-1.92-1.51,2.33-2.91,4.77-4.8,6.72-1.89-2.86-1.6-12.75-5.76-12.48-2.32,4.56-5.28,8.48-7.68,12.96,1.2.4,1.89,1.32,3.36,1.44,1.3-2.38,2.85-4.51,4.32-6.72,2.08,4.16,1.46,11.02,5.76,12.96,2.61-4.43,5.76-8.32,8.16-12.96ZM262.33,565.21c.63-5.29.56-11.28,1.44-16.32-1.02-.74-2.14-1.38-3.36-1.92-3.69,3.99-8.72,6.64-12,11.04,3.22,1.9,7.05-.05,10.08,3.36-.34,2.9,2.42,2.7,3.84,3.84ZM252.73,497.05c-1.22-4.06,2.49-5.35,1.92-7.2-3.86-1.65-4.55,4.51-8.64,2.4,1.55-4.73,9.72-5.28,7.2-12.48-.37-.11-.95-.01-.96-.48-5.7,1.82-7.08,7.96-10.56,12-1.61-.15-4.16.64-3.84-1.44,2-4.72,9.36-4.08,8.64-11.52-6.6-2.94-10.12,4.7-11.52,10.08-1.27,1.13-3.54,1.26-4.32,2.88,1.33,1.19,2.44-.75,4.32-.48,0,1.92,2.25,1.59,2.88,2.88,4.9-1.54,5.98,2.67,10.56.96,1.19,1.05,1.88,2.6,4.32,2.4ZM248.41,540.73c-1.52.08-1.6-1.28-3.36-.96-1.83,4.89-4.51,8.93-5.76,14.4,2.88.64,5.16,1.88,7.68,2.88.07-1.69,1.37-2.15,1.44-3.84-1.37-.71-3.18-.98-4.32-1.92,1.51-3.45,3.61-6.31,4.32-10.56ZM237.85,508.57c5.47,1.92,10.04-3.7,8.16-6.72-2.5-4.03-7.65,1.06-5.28,4.8-.66.94-2.89.31-2.88,1.92ZM242.17,538.33c-1.49.05-2.29-.59-3.36-.96-1.59,5.13-4,9.44-5.28,14.88,1.49-.05,2.29.59,3.36.96,1.61-5.11,3.89-9.55,5.28-14.88ZM231.13,507.13c4.8,1.7,11.28-3.91,7.2-8.16-4.45-.93-4.65,2.39-4.32,6.24-.78.82-3.01.19-2.88,1.92ZM236.41,536.41c-1.73.13-2.31-.89-3.84-.96-1.85,1.51-3.51,3.21-5.76,4.32-1.06-2.46-2.57-4.47-3.36-7.2-1.56.28-2.23-.33-3.36-.48-.55,5.37-2.53,9.31-2.88,14.88,1.28.01,2.74-.18,3.36.48.32-2.88.95-5.45,1.92-7.68.87,1.69,1.94,3.18,2.4,5.28,2.76-.12,3.32-2.44,5.76-2.88-1.01,2.67-1.95,5.41-2.88,8.16,1.49-.05,2.29.59,3.36.96,1.77-4.95,3.48-9.96,5.28-14.88ZM219.61,494.17c1.13-10.23,16.64-6.08,16.32-17.76-7.15-4.76-9.93,5.62-14.4,8.16.36-4.36-.19-7.81-2.4-9.6-6.91-2.32-13.11,2-10.56,9.12,2.39.98,6.92,2.67,7.68-.96-4.17.47-6.24-.98-6.24-3.36,0-5.37,9.87-4.08,8.16,3.36.29,1.79,2.21,1.95,2.4,3.84-2.34,3.1-4.59,6.29-6.24,10.08-4.44,3.47-9.07,7.52-12.96,12-3.59,4.13-8.85,9.13-7.2,16.8,2.42,2.1,5.82,1.19,8.16-.48,2.78-1.98,6.5-8.44,9.12-14.4,2.94-6.69,6.16-16.23,13.44-13.44.7,3.25.94,5.52-.48,7.68-1.08,1.64-4.95,1.74-5.28,3.84,12.12.13,15.49-18.5.48-14.88Z"/>
      <path class="cls-2" d="M307.45,403.45c-1.72,18.6-4.34,36.3-6.24,54.72-6.87-1.61-12.84-4.12-19.2-6.24v-11.04c-2.49-2.15-6.93-2.35-10.56-3.36-3.04,2.24-5,5.56-6.72,9.12-5.95-1.73-11.88-3.48-18.24-4.8,10.31-16.89,23.33-31.07,36.96-44.64,8.54,1.54,17.02,3.14,24,6.24ZM284.41,426.01c-.47-2.39,2.36-6.06,0-7.2-1.4,2.44-4.16,3.51-5.76,5.76,1.99.41,3.51,1.29,5.76,1.44Z"/>
      <path class="cls-2" d="M367.93,406.81c-.44,4.52-2.44,7.48-2.88,12-20.54-13.54-43.25-24.91-70.08-32.16,1.97-3.31,3.02-7.54,5.28-10.56,25.52,7.28,48.09,17.51,67.68,30.72Z"/>
      <path class="cls-2" d="M402.97,397.21c-.43,10.61-1.27,20.81-3.36,29.76.12,1.54-2.59-.82-3.36-1.44-7.75-6.21-17.36-14.33-26.4-19.68,2.72-8.64,4.6-18.12,6.72-27.36,9.6,5.44,18.49,11.59,26.4,18.72Z"/>
      <path class="cls-2" d="M379.45,351.13c-1.23,8.21-2.23,16.65-3.84,24.48-18.66-10.3-38.65-19.27-61.44-25.44,4.45-7.39,9.25-14.43,14.88-20.64,18.68,5.32,35.47,12.53,50.4,21.6Z"/>
      <path class="cls-1" d="M238.33,498.97c4.08,4.25-2.4,9.86-7.2,8.16-.13-1.73,2.1-1.1,2.88-1.92-.33-3.85-.13-7.17,4.32-6.24Z"/>
      <path class="cls-2" d="M404.89,476.41c-1.69,4.71-4.8,8-6.72,12.48-3.39-5.17-3.78-13.66-10.56-14.4-7.72-.84-10.86,8.78-9.12,15.36.61,2.3,2.89,6.63,4.32,8.64,2.03,2.84,6.18,5.81,6.24,6.72.07,1.12-3.3,3.99-4.32,5.28-1.84,2.32-2.63,4.06-4.32,5.28-14.02-6.45-25.91-29.12-16.8-48.48,1.86-3.95,5.16-8.98,8.16-11.04,5.97-4.11,15.14-3.68,20.64.48,6,4.54,8.91,13.5,12.48,19.68Z"/>
      <path class="cls-2" d="M327.13,328.57c-4.54,7.29-10.32,13.36-14.4,21.12-18.37-4.67-38.2-7.88-59.52-9.6,5.96-6.84,12.97-12.63,20.64-17.76,2.58,4.06,4.59,9.4,10.08,9.6,8.39.31,23.06-5.57,31.2-6.24,3.91,1.04,7.82,2.1,12,2.88Z"/>
      <path class="cls-2" d="M97.21,158.17c8.16-4,16.57-7.75,26.4-10.08-8.67,3.49-17.48,6.84-26.4,10.08Z"/>
      <path class="cls-2" d="M184.09,169.69c3.86-1.67,7.74-3.93,12-4.32-6.95,3.61-15.06,6.06-22.08,9.6,1.82-2.58,6.37-3.68,10.08-5.28Z"/>
      <path class="cls-2" d="M332.41,322.33c2.12.06-.89,1.95-1.44,2.4-.76,1.16-1.72,2.12-2.88,2.88-2.43-1.25-6.56-.8-8.16-2.88,4.57-.39,8.43-1.49,12.48-2.4Z"/>
      <path class="cls-2" d="M248.41,341.53c1.58.55-.75,2.14-.96,2.4-4.55,5.67-10.8,13.13-14.4,20.16-14.96-.08-28.94.82-42.24,2.4-1.54-.09.66-2.46,1.44-3.36,6.68-7.7,16.98-15.77,25.44-22.08,10.23.17,21.24-.44,30.72.48Z"/>
      <path class="cls-2" d="M375.13,377.53c-1.6,9.6-4.28,18.12-6.24,27.36-20.67-12.13-42.46-23.14-68.16-30.24,4.1-7.9,7.74-16.26,12.96-23.04,22.78,6.33,43.41,14.83,61.44,25.92Z"/>
      <path class="cls-1" d="M281.53,558.97c1.22.54,2.34,1.18,3.36,1.92-2.4,4.64-5.55,8.53-8.16,12.96-4.3-1.94-3.68-8.8-5.76-12.96-1.47,2.21-3.02,4.34-4.32,6.72-1.47-.12-2.16-1.04-3.36-1.44,2.4-4.48,5.36-8.4,7.68-12.96,4.16-.27,3.87,9.62,5.76,12.48,1.89-1.95,3.29-4.39,4.8-6.72Z"/>
      <path class="cls-2" d="M390.97,166.81c-4.95,1.23-10.11-.59-14.4,1.44.25-.39.5-.78.48-1.44-3.75-.23-6.22.82-9.12,1.44.01-.95,1.31-.61.96-1.92-3.83.17-6.16,1.84-8.64,3.36-.96-.39.86-1.98.96-2.88-2.66,1.18-5.04,2.64-7.2,4.32-.65-.15-.4-1.2-.48-1.92-5.39,1.49-9.64,4.12-14.88,5.76.83-1.73,2.73-2.39,3.84-3.84-13.59.49-22.66,9.66-32.16,15.84.27-2.57,2.62-6.02,4.8-9.12,2.57-3.65,6.53-9.03,11.52-9.6,5.09-.58,10.55,1.97,15.84,1.44,6.43-.64,12.79-4.36,19.68-5.28,5.32-.71,12.05,1.14,18.24,1.44,4.06.2,7.51-.37,10.56.96Z"/>
      <path class="cls-2" d="M225.37,275.77c.95-1.13.95.04,0,.48-9.62,5.1-19.05,10.39-28.32,15.84-1.12.96-1.12-.21,0-.48,8.8-5.92,18.44-11,28.32-15.84Z"/>
      <path class="cls-2" d="M394.81,348.25c1.84,4.88,3.11,10.33,4.8,15.36-5.51-3.29-12.15-9.61-18.72-13.44-.27-4.27.85-7.15.48-11.52,4.97,2.71,8.87,6.49,13.44,9.6Z"/>
      <path class="cls-2" d="M234.01,276.73c1.54.35-.97,1.7-1.92,2.4-7.54,5.56-17.97,11.37-25.44,17.28,4.99-8.77,16.96-14.72,27.36-19.68Z"/>
      <path class="cls-1" d="M263.77,548.89c-.88,5.04-.81,11.03-1.44,16.32-1.42-1.14-4.18-.94-3.84-3.84-3.03-3.41-6.86-1.46-10.08-3.36,3.28-4.4,8.31-7.05,12-11.04,1.22.54,2.34,1.18,3.36,1.92ZM256.09,556.09c1.41-.13,1.47,1.09,2.88.96-.29-1.15.6-3.48-.48-3.84-.18,1.58-2.55.97-2.4,2.88Z"/>
      <path class="cls-2" d="M318.97,279.13c-1.09.99-1.35,2.81-1.92,4.32-3.67.47-4.15-2.25-6.72-2.88-.07-1.51,1.23-1.65,2.4-1.92-1.3-1.1-4.26-.54-5.76-1.44.82-1.1,2.71-1.14,4.32-1.44-2.34-.87-5.09-1.31-6.72-2.88.82-1.1,2.7-1.13,4.32-1.44-2-1.04-5.06-1.02-7.2-1.92,1.41-.99,3.46-1.34,5.28-1.92-5.83-1.37-9.87-4.53-12-9.6,3.63,2.13,6.81,4.71,12.48,4.8,4.15,5.13,8.52,10.04,11.52,16.32Z"/>
      <path class="cls-1" d="M385.69,169.69c.65,1.42.6,2.97-.48,3.84-1.96.2-3.03-.49-2.88-2.4,1.81.72,2.16.36,1.44-1.44h1.92Z"/>
      <path class="cls-2" d="M424.09,413.53c-.71,1.75-1.78-1.3-1.92-1.44-5.03-5.2-12.62-10.94-17.76-16.32-.03-9.89-1.22-18.62-2.4-27.36,3.83,2.91,9.3,9.38,13.44,13.92,1.55,1.71,3.62,2.83,4.32,4.32,1.56,3.29,2.16,8.67,2.88,12.96.72,4.25.8,9.03,1.44,13.92Z"/>
      <path class="cls-2" d="M265.69,319.45c2.65-.66,6.52-3.04,7.68.48-4.67,1.89-12.19.93-17.28,2.4-.74-.25-.03-.5.48-.48,2.32-.91,5.99-1.62,9.12-2.4Z"/>
      <path class="cls-1" d="M287.77,564.73c12.56-2.6,12.5,15.39,2.4,15.84-8.78.39-12.5-13.75-2.4-15.84ZM289.69,576.73c4.82-.17,5.72-10.6-1.44-8.16-5.11,1.75-2.21,8.29,1.44,8.16Z"/>
      <path class="cls-2" d="M245.53,216.25c6.91-7.01,12.93-14.91,24.48-17.28-7.94,6.14-16.09,12.07-24.48,17.76-.58.67-.19.04,0-.48Z"/>
      <path class="cls-2" d="M423.13,451.93c-1.05,5.03-2.04,10.11-2.88,15.36-2.86-.07-3.97-3.34-5.76-5.28-5.25-5.69-11.66-12.01-17.76-17.28,1.58-4.34,2.38-9.46,3.84-13.92,8.06,6.5,15.03,14.09,22.56,21.12Z"/>
      <path class="cls-2" d="M333.37,277.21c-.76,1.19-3.36.2-4.32,0,2.02-1.02-.49-1.65-1.92-1.92.08-.56.88-.41,1.44-.48.07-1.51-1.23-1.65-2.4-1.92.21-.59.61-.99,1.44-.96-.59-.69-1.65-.91-2.88-.96-.48-1.44,1.07-.85,1.92-.96-.26-1.5-1.79-1.73-3.36-1.92-.85-3.31-2.12-6.2-1.92-10.56,5.42,5.14,7.87,13.25,12,19.68Z"/>
      <path class="cls-2" d="M346.81,284.89c11.66-2.42,13.19,14.14,10.08,23.52-21.6,3.84-43.73,7.15-64.8,11.52,1.95-9.2-.48-19.81-4.32-23.52,9.63-1.57,18.7-3.7,28.32-5.28.38,1.06,1.68,1.2,2.4,1.92-2.71,4.29-5.1,13.96,2.4,14.88,2.3-2.42-.97-7.9,1.44-10.56,1.36-.08,2-.88,3.36-.96,2.7,3.22,5.47,6.37,6.72,11.04,3.87-2.51,1.7-11.96-.96-13.92,3.91-1.83,5.39,2.06,9.12,1.92,1.41-8.71-9.98-4.71-16.32-5.76,4.44-.3,11.1-3.81,16.32-3.36,2.85.25,4.72,3.03,7.68,2.4,1.73-1.61-1.73-2.08-1.44-3.84Z"/>
      <path class="cls-2" d="M233.05,477.37c-.38,5.06-4.59,6.29-8.64,7.68,2.53-2.91,3.67-7.21,8.64-7.68Z"/>
      <path class="cls-2" d="M231.61,365.53c-1.87,5.01-4.57,9.19-6.72,13.92-18.35.21-33.97,3.15-48.96,6.72,3.13-6.79,7.88-11.96,12-17.76,13.54-1.98,28.19-2.85,43.68-2.88Z"/>
      <path class="cls-2" d="M296.41,536.41c-.91,3.25-3.64,4.68-4.8,7.68-2.63.23-4.46-.34-5.76-1.44-1.77-6.07,5.21-8.46,10.56-6.24Z"/>
      <path class="cls-2" d="M446.65,479.29c-1.2,6.32-2.16,12.88-3.84,18.72-6.96-9.68-14.08-19.2-21.6-28.32.69-5.55,2.36-10.12,2.88-15.84,8.57,7.43,14.59,17.4,22.56,25.44Z"/>
      <path class="cls-2" d="M381.37,170.65c3.17-5.63,9.25,3.22,2.4,3.84-1.07-1.01-2.56-1.6-2.4-3.84ZM385.21,173.53c1.08-.87,1.13-2.42.48-3.84h-1.92c.72,1.8.37,2.16-1.44,1.44-.15,1.91.92,2.6,2.88,2.4Z"/>
      <path class="cls-2" d="M155.77,167.29c4.13-3.23,8.49-6.23,14.4-7.68-3.63,2.53-11.75,6.66-14.4,7.68Z"/>
      <path class="cls-2" d="M311.77,351.13c-4.45,7.39-8.63,15.05-12.48,23.04-19.57-5.23-40.29-9.31-64.8-9.6,4.96-8.48,10.56-16.32,17.28-23.04,21.59,1.61,41.78,4.62,60,9.6Z"/>
      <path class="cls-2" d="M421.69,509.53c.52,5.65-2.19,14.77-3.84,22.56-.75,3.52-1.66,7.52-2.4,11.04-1.58,7.47-2.63,13.36-8.16,15.84-.56-4.06-4.92-5-5.28-11.04-.26-4.4,3.09-9.06,2.4-12.96-.12-.69-4.12-7.07-5.28-7.2-2.17-.24-3.13,4.26-6.24,4.32-3.44-4.08-6.09-8.95-9.12-13.44,3.85-5.6,7.93-10.91,12-16.32,4.29-5.7,8.92-11.17,12.96-17.28,4.02,2.7,6.51,8.36,9.12,14.4,1.6,3.69,3.6,7.51,3.84,10.08ZM408.73,521.53c-.67-2.93,1.4-5.62,0-7.68-.92,1.32-2.04,2.44-3.36,3.36.85,1.71,1.64,3.48,3.36,4.32Z"/>
      <path class="cls-2" d="M447.13,445.21c.44,9.86,1.19,22.09-.48,31.2.08,2.02-.74,0-1.44,0-4.47-6.56-9.51-12.51-15.36-19.2-1.8-2.06-4.85-4.29-5.28-6.24-.68-3.08,1.21-8.38,1.44-13.44.27-5.98-.21-12.41,0-18.24,8.1,7.58,14.14,17.22,21.12,25.92Z"/>
      <path class="cls-2" d="M258.97,557.05c-1.41.13-1.47-1.09-2.88-.96-.15-1.91,2.22-1.3,2.4-2.88,1.08.36.19,2.69.48,3.84Z"/>
      <path class="cls-2" d="M355.93,430.33c5.82,3.46,12.02,6.54,16.8,11.04-6.56,15.52-14.14,30.02-20.64,45.6-5.56-3.72-10.45-8.11-16.8-11.04-.77-8.83-1.95-17.25-2.88-25.92-3.7,5.58-5.85,12.71-9.12,18.72-6.15-3.45-11.82-7.38-19.2-9.6,7.44-15.76,14.68-31.72,23.52-46.08,7.13,2.31,12.26,6.62,17.76,10.56.19,7.81-.45,16.45.48,23.52,3.45-5.51,7.09-10.83,10.08-16.8Z"/>
      <path class="cls-2" d="M211.93,204.73c4.3-4.02,9.4-7.24,16.8-8.16-5.17,3.15-11.09,5.55-16.8,8.16Z"/>
      <path class="cls-2" d="M239.77,286.33c-1.78,4.78-7.02,10.26-9.6,15.84-.64-7.2,6.19-11.09,9.6-15.84Z"/>
      <path class="cls-2" d="M248.89,197.05c-3.71,5.25-12.29,9.79-17.28,15.36,3.32-5.64,10.59-11.49,17.28-15.36Z"/>
      <path class="cls-2" d="M270.97,322.33c-7.47,5.33-14.06,11.54-20.64,17.76-9.49-.75-20.06-.42-30.24-.48,13.23-9.49,28.38-17.06,50.88-17.28Z"/>
      <path class="cls-1" d="M228.38,274.27s-.08.04-.13.06c.05-.02.09-.04.13-.06ZM227.29,274.75c.08-.04.16-.07.25-.12-.1.05-.18.08-.25.12ZM454.14,39.13h.67s.03-.01.05-.02c7.96-.17,16.54-3.3,25.87-3.34-.81,3.76-4.86,4.7-7.68,6.24-8.54,4.65-18.37,9.17-28.32,12.48,6.17.09,14.97-1.34,21.6-2.4-.73,3.84-5.15,4.24-8.16,5.28-9.45,3.25-20.77,6.02-30.24,9.12,5.55,2.67,13.93-.54,18.72,0-2.84,3.39-7.74,5.18-12.48,6.72-4.79,1.55-10.28,2.6-15.36,3.84,4.4,1.19,10.76.21,15.36,0-5.34,6.5-17.98,5.7-24.48,11.04,2.42,2.59,7.97-1.68,11.04,0-4.06,3.3-9.59,5.13-15.84,6.24,1.08,1.31,5.12-.31,6.24.96-4.02,4.14-9.62,6.7-14.88,9.6.83,1.25,3.65.51,4.32,1.92-1.51,4.73-8.44,4.04-10.56,8.16,1.36,1.17,4.56.1,5.76-.48,1.86,1.6-1.69,2.88-3.36,3.84-2.02,1.16-4.36,2.06-5.76,2.88-.47,1.75,2.34.22,1.44,2.4-.7,2.98-5.22,2.14-6.72,4.32-.19,2.11.59,3.25,2.4,3.36-.84,3.17-4.66,3.34-6.24,5.76.13,1.95,1.92,2.24,3.36,2.88-1.55,2.13-4.49,2.87-5.76,5.28,2.32,4.38-2.26,5.1-3.36,8.64-.08,1.04,1.7.22,2.4.48-1.08,3.08-4.99,3.33-5.28,7.2,8.35,3.17,22.3.74,29.28,5.28,2.31-.89,4.56-1.84,8.16-1.44,3.77,2.64,2.5,10.89,0,13.92-1.15-.93-1.47-2.69-3.36-2.88-7.98,1.46-13.51,5.37-17.76,10.56,6.82.35,12.82.91,17.28-1.92-1.2,7.12-11.5,5.14-18.72,6.24-.96.64-1.07,2.13-1.44,3.36-7.44,6.77-17.01,8.06-24,12.48-5.55,3.51-6.32,9.63-10.56,15.36-1.48,2-3.92,3.05-5.76,4.8-2.94,2.8-5.92,6.33-8.64,9.6-2.76,3.32-5.75,7.27-6.72,11.52-1.51.23-1.27-1.29-2.4-1.44-2.67,6.24,1.14,10.18,4.32,15.84,3.29,5.84,6.58,16.55,13.44,17.28,2.81.3,5.78-2.46,8.64-1.92,1.78.34,1.88,1.08,3.84,2.88,8.06-1.26,13.53-3.94,21.12-2.4,4.74.96,7.74,5.68,12,6.24,7,.91,11.98-2.71,19.68-2.88,1.16,2.09,2.46,4.78,1.44,7.68,1.86,1.26,4.39-.21,6.24-.48.15-3.67-.91-6.13-2.4-8.16,7.22-5.19,12.03,5.25,9.12,11.52-11.08,5-23.79,2.77-31.68,8.16-3.83,2.62-4.9,8.37-9.12,10.56-8.91,4.63-21.5,5.16-33.6,8.16,27.14,9.22,50.88,25.43,68.64,47.04,18.8,22.87,32.36,51.8,34.08,88.8.28,5.96-.11,11.6-.48,17.76-2.13,35.85-19.35,70.03-43.2,93.12-25.8,24.98-57.32,40.68-97.92,43.2-27.78,1.73-52.06-5.37-72-14.88-30.65-14.62-53.93-38.22-69.12-69.12-8.59-17.47-13.3-37.2-14.4-61.44-1.17-25.82,2.47-49.2,12.96-66.24,4.06-6.59,8.69-14.2,13.44-21.12,12.87-18.75,29.83-33.88,47.52-44.16,1.33.21.45-1.79,1.44-1.92,13.92-5.6,27.06-11.98,43.68-14.88-1.61-10.5.93-17.77,8.64-20.16,8.14-2.53,20.37-3.05,28.32-5.28-2.34-4.07-5.1,1.63-10.08.48-1.75-.53,2.66-2.63,2.88-4.32-2.8.24-4.34,1.74-7.68,1.44-2.1-.24,1.39-2.17.96-3.84-2.17.39-3.21,1.91-5.76,1.92-1.23-1.96,2.87-2.07,2.4-4.8-1.46-1.11-3.79.99-5.76.96-.35-1.31.95-.97.96-1.92-7.45,3.27-15.83,5.61-23.04,9.12.2,7.88-1.73,13.63-5.76,17.28-1.88-.04-2.99-.85-4.32-1.44-1.31,1.25-1.62,3.5-3.36,4.32-1.71-.05-3.3-.22-3.84-1.44-1.14,1.42-1.5,3.62-4.8,2.88-1.99.07-1.46-2.38-1.92-3.84-1.82.4-3.17,3.65-6.72,3.36-1.86-.15-2.96-1.51-4.32-2.88-2.21.51-2.82,2.62-5.28,2.88-.89-.87-3.34-.18-2.88-2.4-1.88,1.32-2.02,4.38-3.84,5.76-2.13.05-4.41.25-3.84-2.4-1.07,2.09-3.3,4.63-6.72,2.88.77-2.75.08-6.96.96-9.6-2.24-.31-4.44,3.55-9.12,2.4.02-3.34,1.22-5.5,1.92-8.16-3.75.73-6.95,4.57-11.52,2.88-2.02-.76,3.78-3.99,4.32-5.76-4.92,1.16-8.46,3.7-14.88,3.36.38-2.74,4.13-3.95,6.72-5.76,12.32-8.62,26.6-17.36,40.8-25.44,5.7-3.24,12.18-6.04,16.32-10.08,5.81-5.67,8.23-14.03,10.56-22.56-2.54-3.8-13.32-1.05-17.28-1.92.53-3.31,3.7-3.98,4.8-6.72-5.88,1.45-12.26,4.53-18.72,3.84.02-1.9,1.06-2.78,1.44-4.32-2.66-2.46-10.93.69-12.96-2.4.05-2.03,2.59-1.57,2.88-3.36-2.41-6.61-11.91.82-17.28-1.44-.52-3.08,2.72-2.4,2.88-4.8-3.05-.28-9.37.2-11.52-2.4.25-2.79,4.71-1.37,4.32-4.8-.78-1.68-2.52.32-4.32.48-3.87.33-8.9-.62-11.04-2.4,1.09-2.43,5.27-1.77,6.72-3.84-3.63-.87-11.29,1.17-14.88-.96,1.88-2.12,5.44-2.56,6.24-5.76-3.93-2.67-9.89,2.93-14.4,0,.66-2.7,3.49-3.23,4.32-5.76-2.99-1.17-8.79.47-11.04-1.44.85-2.35,4.28-2.12,5.28-4.32-3.17-1.08-9.27,1.06-12.96-.48-.63-2.36,3.75-3.51,4.32-6.24-7.18-.54-11.13,4.44-17.76,2.88.21-2.51,3.01-2.43,3.36-4.8-5.43,1.05-11.13,4.12-17.28,2.88-1-2.73,3.39-3.88,4.32-6.24-4.75,1.5-12.22,4.24-18.72,4.8-2.77.24-7.54.97-9.12-1.92,1.99-2.17,5.25-3.07,8.16-4.32-8.52-.62-21.38,5.52-30.24,1.44-.23-2.63,3.22-1.58,3.84-3.36-6.85,1.4-14.84,1.69-22.56.96-1.21-1.2.92-1.52,1.44-2.4-7.45,1.22-16.85.65-20.64-3.36,2.54-2.39,6.69-2.7,10.08-3.36,10.79-2.1,21.94-4.49,32.16-7.2-14.59,1.02-33.59,8.06-52.32,5.76-4.06-.5-9.16-1.05-11.52-3.84,3.99-1.93,10.64-1.2,15.84-1.92-9.7-1.66-24.61,1.89-27.84-6.24,7.82-3.34,16.46-4.2,24.96-5.28,8.77-1.11,17.58-2.4,26.4-3.84,18.63-3.04,36.59-6.09,56.16-7.68,45.28-3.69,93.98,2.56,127.2,15.36,10.32,3.98,20.32,10.08,28.32,16.8,4.02,3.37,7.84,6.87,12.96,9.6,2.35,1.25,5.09,2.14,7.68,3.36,4.78,2.25,6.85,4.53,14.4,3.84,7.54-.69,14-4.34,18.72-8.64,9.78-14.7,18.92-30.55,26.88-47.52,7.68-16.39,16.03-32.76,27.84-46.56,17.4-20.32,37.55-35.51,61.44-50.4,7.75-4.83,16.11-10.29,24.48-12.48,2.18-.57,6.01-1.15,8.16.48,10.03-4.21,19.37-9.11,29.76-12.96-.07,3.46-3,6.12-5.28,8.16-6.76,6.06-15.75,11.21-25.44,14.88,9.4,2.2,16.58-1.98,23.04-4.32-3.07,11.79-21.88,15.44-33.07,20.14-.24.02-.48.02-.72.02ZM465.37,13.21c-2.33-.78-4.43-.34-5.76,0-8.92,2.24-16.4,7.07-24.48,12-22.93,13.97-44.17,29.6-60.48,49.44-11.33,13.78-19.27,30.03-26.88,46.08-7.49,15.8-16.68,29.87-24.96,43.68-.2.33-1.88,1.8-.48,2.4,7.11-1.07,13.35,1.85,19.2,1.44,5.36-.37,9.47-3.76,14.4-4.8,2.54-8.89,5.13-17.66,6.72-26.88,1.72-9.97,2.37-19.36,5.76-28.32,2.97-7.84,6.77-15.85,10.56-23.52,3.82-7.73,7.1-16.27,12-22.08,4.53-5.37,11.14-9.5,16.8-13.92,6.03-4.71,11.81-9.34,17.76-13.44,12.39-8.53,25.75-15.54,39.84-22.08ZM446.65,476.41c1.67-9.11.92-21.34.48-31.2-6.98-8.7-13.02-18.34-21.12-25.92-.21,5.83.27,12.26,0,18.24-.23,5.06-2.12,10.36-1.44,13.44.43,1.95,3.48,4.18,5.28,6.24,5.85,6.69,10.89,12.64,15.36,19.2.7,0,1.52,2.02,1.44,0ZM446.65,441.37c-1.02-5.14-2.15-9.95-3.36-14.88-1.17-4.77-1.81-10.28-3.84-14.4-.94-1.9-3.01-3.94-4.32-5.76-4.4-6.13-8.54-12.44-13.44-16.32,2.23,7.69,3.6,16.24,3.84,25.92,3.18,4.23,7.43,8.02,11.04,12.48,3.54,4.39,6.24,10,10.08,12.96ZM442.81,498.01c1.68-5.84,2.64-12.4,3.84-18.72-7.97-8.04-13.99-18.01-22.56-25.44-.52,5.72-2.19,10.29-2.88,15.84,7.52,9.12,14.64,18.64,21.6,28.32ZM424.57,390.49c4.27,5.15,8.41,10.5,12,14.4-5.68-11.8-12.24-25.4-20.16-33.12,2.9,4.29,2.17,9.59,4.32,13.92.68,1.38,2.64,3.35,3.84,4.8ZM423.13,449.05c1.97-9.07,1.34-20.74,1.44-31.68-6.27-6.85-12.95-13.29-20.16-19.2-.4,10.96-1.74,20.98-3.36,30.72,6.31,5.58,13.67,13.16,19.68,18.72.46.42,1.48,3.08,2.4,1.44ZM422.17,412.09c.14.14,1.21,3.19,1.92,1.44-.64-4.89-.72-9.67-1.44-13.92-.72-4.29-1.32-9.67-2.88-12.96-.7-1.49-2.77-2.61-4.32-4.32-4.14-4.54-9.61-11.01-13.44-13.92,1.18,8.74,2.37,17.47,2.4,27.36,5.14,5.38,12.73,11.12,17.76,16.32ZM417.85,532.09c1.65-7.79,4.36-16.91,3.84-22.56-.24-2.57-2.24-6.39-3.84-10.08-2.61-6.04-5.1-11.7-9.12-14.4-4.04,6.11-8.67,11.58-12.96,17.28-4.07,5.41-8.15,10.72-12,16.32,3.03,4.49,5.68,9.36,9.12,13.44,3.11-.06,4.07-4.56,6.24-4.32,1.16.13,5.16,6.51,5.28,7.2.69,3.9-2.66,8.56-2.4,12.96.36,6.04,4.72,6.98,5.28,11.04,5.53-2.48,6.58-8.37,8.16-15.84.74-3.52,1.65-7.52,2.4-11.04ZM420.25,467.29c.84-5.25,1.83-10.33,2.88-15.36-7.53-7.03-14.5-14.62-22.56-21.12-1.46,4.46-2.26,9.58-3.84,13.92,6.1,5.27,12.51,11.59,17.76,17.28,1.79,1.94,2.9,5.21,5.76,5.28ZM416.41,380.41c.19.17,1.53,3,1.92.96-2.56-5.43-2.78-11.44-5.76-15.84-1.77-2.62-4.92-5.23-7.2-7.68-2.48-2.66-5.61-4.82-8.16-7.2,1.42,4.82,3.16,9.32,3.84,14.88,5.26,3.86,10.74,10.73,15.36,14.88ZM400.09,392.89c.85.6,3.09,2.64,2.88.96-.35-9.73-1.28-18.88-2.88-27.36-6.35-5.01-12.09-10.63-19.68-14.4-.35,8.93-2.3,16.26-3.36,24.48,7.74,4.44,16.12,11.45,23.04,16.32ZM399.61,426.97c2.09-8.95,2.93-19.15,3.36-29.76-7.91-7.13-16.8-13.28-26.4-18.72-2.12,9.24-4,18.72-6.72,27.36,9.04,5.35,18.65,13.47,26.4,19.68.77.62,3.48,2.98,3.36,1.44ZM398.17,488.89c1.92-4.48,5.03-7.77,6.72-12.48-3.57-6.18-6.48-15.14-12.48-19.68-5.5-4.16-14.67-4.59-20.64-.48-3,2.06-6.3,7.09-8.16,11.04-9.11,19.36,2.78,42.03,16.8,48.48,1.69-1.22,2.48-2.96,4.32-5.28,1.02-1.29,4.39-4.16,4.32-5.28-.06-.91-4.21-3.88-6.24-6.72-1.43-2.01-3.71-6.34-4.32-8.64-1.74-6.58,1.4-16.2,9.12-15.36,6.78.74,7.17,9.23,10.56,14.4ZM402.01,168.73v-1.92c-1.75.02-5.14,2.94-4.32,2.4,1.46-.15,2.87-1.79,4.32-.48ZM395.77,443.29c1.11-4.49,2.51-8.69,3.36-13.44-9.01-8.27-18.83-15.73-29.76-22.08-.87,4.25-2.24,8-3.36,12,10.6,7.16,20.13,15.39,29.76,23.52ZM399.61,363.61c-1.69-5.03-2.96-10.48-4.8-15.36-4.57-3.11-8.47-6.89-13.44-9.6.37,4.37-.75,7.25-.48,11.52,6.57,3.83,13.21,10.15,18.72,13.44ZM393.37,287.29c-12.1.26-14.97-8.71-28.8-6.72-.48,0-.57.39-.96.48-1,3.49.46,7.99,3.36,9.12,5.68-4.08,18.14-1.38,26.4-2.88ZM376.57,168.25c4.29-2.03,9.45-.21,14.4-1.44-3.05-1.33-6.5-.76-10.56-.96-6.19-.3-12.92-2.15-18.24-1.44-6.89.92-13.25,4.64-19.68,5.28-5.29.53-10.75-2.02-15.84-1.44-4.99.57-8.95,5.95-11.52,9.6-2.18,3.1-4.53,6.55-4.8,9.12,9.5-6.18,18.57-15.35,32.16-15.84-1.11,1.45-3.01,2.11-3.84,3.84,5.24-1.64,9.49-4.27,14.88-5.76.08.72-.17,1.77.48,1.92,2.16-1.68,4.54-3.14,7.2-4.32-.1.9-1.92,2.49-.96,2.88,2.48-1.52,4.81-3.19,8.64-3.36.35,1.31-.95.97-.96,1.92,2.9-.62,5.37-1.67,9.12-1.44.02.66-.23,1.05-.48,1.44ZM383.77,174.49c6.85-.62.77-9.47-2.4-3.84-.16,2.24,1.33,2.83,2.4,3.84ZM379.45,349.21c.25-3.91.24-8.08.96-11.52-5.23-3.17-11.41-6.49-18.24-9.6-6.99-3.18-17.29-8.55-25.44-6.72-2.03,2.45-5.22,3.74-6.24,7.2,18.37,4.83,34.07,12.33,48.96,20.64ZM375.61,375.61c1.61-7.83,2.61-16.27,3.84-24.48-14.93-9.07-31.72-16.28-50.4-21.6-5.63,6.21-10.43,13.25-14.88,20.64,22.79,6.17,42.78,15.14,61.44,25.44ZM368.89,404.89c1.96-9.24,4.64-17.76,6.24-27.36-18.03-11.09-38.66-19.59-61.44-25.92-5.22,6.78-8.86,15.14-12.96,23.04,25.7,7.1,47.49,18.11,68.16,30.24ZM365.05,418.81c.44-4.52,2.44-7.48,2.88-12-19.59-13.21-42.16-23.44-67.68-30.72-2.26,3.02-3.31,7.25-5.28,10.56,26.83,7.25,49.54,18.62,70.08,32.16ZM372.73,441.37c-4.78-4.5-10.98-7.58-16.8-11.04-2.99,5.97-6.63,11.29-10.08,16.8-.93-7.07-.29-15.71-.48-23.52-5.5-3.94-10.63-8.25-17.76-10.56-8.84,14.36-16.08,30.32-23.52,46.08,7.38,2.22,13.05,6.15,19.2,9.6,3.27-6.01,5.42-13.14,9.12-18.72.93,8.67,2.11,17.09,2.88,25.92,6.35,2.93,11.24,7.32,16.8,11.04,6.5-15.58,14.08-30.08,20.64-45.6ZM387.61,579.61c-17.66-29.54-37.83-60.15-65.76-82.08-28.28-22.21-62.12-38.37-112.32-36-19.44.92-36.48,4.17-54.24,7.68,1.41,29.83,11.81,53.98,25.44,73.92,13.52,19.78,31.03,36.22,52.32,47.52,22.13,11.74,51.24,18.5,81.6,15.84,29.9-2.62,53.35-13.57,72.96-26.88ZM356.89,308.41c3.11-9.38,1.58-25.94-10.08-23.52-.29,1.76,3.17,2.23,1.44,3.84-2.96.63-4.83-2.15-7.68-2.4-5.22-.45-11.88,3.06-16.32,3.36,6.34,1.05,17.73-2.95,16.32,5.76-3.73.14-5.21-3.75-9.12-1.92,2.66,1.96,4.83,11.41.96,13.92-1.25-4.67-4.02-7.82-6.72-11.04-1.36.08-2,.88-3.36.96-2.41,2.66.86,8.14-1.44,10.56-7.5-.92-5.11-10.59-2.4-14.88-.72-.72-2.02-.86-2.4-1.92-9.62,1.58-18.69,3.71-28.32,5.28,3.84,3.71,6.27,14.32,4.32,23.52,21.07-4.37,43.2-7.68,64.8-11.52ZM330.97,324.73c.55-.45,3.56-2.34,1.44-2.4-4.05.91-7.91,2.01-12.48,2.4,1.6,2.08,5.73,1.63,8.16,2.88,1.16-.76,2.12-1.72,2.88-2.88ZM329.05,277.21c.96.2,3.56,1.19,4.32,0-4.13-6.43-6.58-14.54-12-19.68-.2,4.36,1.07,7.25,1.92,10.56,1.57.19,3.1.42,3.36,1.92-.85.11-2.4-.48-1.92.96,1.23.05,2.29.27,2.88.96-.83-.03-1.23.37-1.44.96,1.17.27,2.47.41,2.4,1.92-.56.07-1.36-.08-1.44.48,1.43.27,3.94.9,1.92,1.92ZM334.81,284.41c-3.68,0-6.22-1.14-9.12-1.92-.08.56.08,1.36-.48,1.44-.85-.43-.79-1.77-1.92-1.92-.62,1.64-1.23,2.38-1.92.48-.13,1.47-1.04,2.16-1.44,3.36.69.27,1.17.75,1.44,1.44,4.77-.67,9.6-1.28,13.44-2.88ZM312.73,349.69c4.08-7.76,9.86-13.83,14.4-21.12-4.18-.78-8.09-1.84-12-2.88-8.14.67-22.81,6.55-31.2,6.24-5.49-.2-7.5-5.54-10.08-9.6-7.67,5.13-14.68,10.92-20.64,17.76,21.32,1.72,41.15,4.93,59.52,9.6ZM317.05,283.45c.57-1.51.83-3.33,1.92-4.32-3-6.28-7.37-11.19-11.52-16.32-5.67-.09-8.85-2.67-12.48-4.8,2.13,5.07,6.17,8.23,12,9.6-1.82.58-3.87.93-5.28,1.92,2.14.9,5.2.88,7.2,1.92-1.62.31-3.5.34-4.32,1.44,1.63,1.57,4.38,2.01,6.72,2.88-1.61.3-3.5.34-4.32,1.44,1.5.9,4.46.34,5.76,1.44-1.17.27-2.47.41-2.4,1.92,2.57.63,3.05,3.35,6.72,2.88ZM301.21,458.17c1.9-18.42,4.52-36.12,6.24-54.72-6.98-3.1-15.46-4.7-24-6.24-13.63,13.57-26.65,27.75-36.96,44.64,6.36,1.32,12.29,3.07,18.24,4.8,1.72-3.56,3.68-6.88,6.72-9.12,3.63,1.01,8.07,1.21,10.56,3.36v11.04c6.36,2.12,12.33,4.63,19.2,6.24ZM299.29,374.17c3.85-7.99,8.03-15.65,12.48-23.04-18.22-4.98-38.41-7.99-60-9.6-6.72,6.72-12.32,14.56-17.28,23.04,24.51.29,45.23,4.37,64.8,9.6ZM299.29,195.13c-2.11-8.41-6.92-10.92-13.44-15.36-3.31-2.25-6.6-5.24-9.6-6.72-4.11-2.03-8.79-2.69-12.48-5.28-2.6-1.83-4.17-5.03-6.72-7.2-3.21-2.73-7.42-4.8-11.52-7.2-8.78-5.14-16.23-9.05-27.36-12-5.28-1.4-11.23-2.35-16.8-3.36-11.19-2.03-23.09-5.29-35.04-4.8,15.51,5.9,31.33,9.3,48,13.44,5.34,1.32,11.57,2.12,16.32,4.32,4.29,1.99,8.6,6.18,12.96,9.6,8.58,6.73,18.46,11.51,28.8,16.32,5.46,2.54,11.77,4.21,15.84,7.2,4.27,3.14,6.66,8.75,11.04,11.04ZM293.53,386.17c1.68-3.44,3.45-6.79,4.8-10.56-19.08-5.56-40-9.28-64.32-9.6-3.19,3.53-4.82,8.62-7.2,12.96,25.09-.45,46.68,2.6,66.72,7.2ZM273.37,319.93c-1.16-3.52-5.03-1.14-7.68-.48-3.13.78-6.8,1.49-9.12,2.4-.51-.02-1.22.23-.48.48,5.09-1.47,12.61-.51,17.28-2.4ZM259.45,252.25c3.65-3.23,6.69-7.07,8.16-12.48-2.33-3.46-8.39-5.11-13.92-3.84-.1.54-.53.75-.96.96-1.5,10.02-5.61,17.43-11.04,23.52,2.53-.05-1.78,2.67,0,3.36,1.04-1.3,2.65-4.04,4.32-1.92,1.08-1.48,1.94-3.18,3.36-4.32.63.01.44.84.96.96,1.08-1.48,2.36-2.76,3.84-3.84.26.7-.56,2.48.48,2.4,1.51-2.33,2.91-4.77,4.8-6.72v1.92ZM250.33,340.09c6.58-6.22,13.17-12.43,20.64-17.76-22.5.22-37.65,7.79-50.88,17.28,10.18.06,20.75-.27,30.24.48ZM241.69,419.77c11.7,2.01,21.26-10.58,19.2-21.12-2.43-12.43-28.83-9.04-41.28-7.68-7.08,16.12-16.33,30.07-20.64,48.96h16.32c.85-2.57,2.24-5.12,3.36-7.68,1.08-2.48,1.64-5.63,3.84-7.2.56,2.78,1.85,5.62,2.88,8.16,1.04,2.56,1.72,5.58,3.84,7.2,4.6,1.16,10.62.9,15.36,1.92-.28-8.2-2.39-14.57-2.88-22.56ZM270.01,198.97c-11.55,2.37-17.57,10.27-24.48,17.28-.19.52-.58,1.15,0,.48,8.39-5.69,16.54-11.62,24.48-17.76ZM253.21,297.37c-.6-2.54,1.47-4.91,0-6.72.42,2.19-1.38,6.7,0,6.72ZM247.45,343.93c.21-.26,2.54-1.85.96-2.4-9.48-.92-20.49-.31-30.72-.48-8.46,6.31-18.76,14.38-25.44,22.08-.78.9-2.98,3.27-1.44,3.36,13.3-1.58,27.28-2.48,42.24-2.4,3.6-7.03,9.85-14.49,14.4-20.16ZM241.69,302.17c1.08-4.68,4.93-9.15,5.28-12.96-1.68,4.09-6.05,8.02-5.28,12.96ZM231.61,212.41c4.99-5.57,13.57-10.11,17.28-15.36-6.69,3.87-13.96,9.72-17.28,15.36ZM230.17,302.17c2.58-5.58,7.82-11.06,9.6-15.84-3.41,4.75-10.24,8.64-9.6,15.84ZM232.09,279.13c.95-.7,3.46-2.05,1.92-2.4-10.4,4.96-22.37,10.91-27.36,19.68,7.47-5.91,17.9-11.72,25.44-17.28ZM232.09,286.34c0,.08,3.17-1.07.96-1.45-3.73,4.1-9.29,7.66-12.96,12-1.05,1.24-2.49,3.08-2.4,4.8,3.98-5.01,10.15-10.95,14.4-15.35ZM225.37,276.25c.95-.44.95-1.61,0-.48-9.88,4.84-19.52,9.92-28.32,15.84-1.12.27-1.12,1.44,0,.48,9.27-5.45,18.7-10.74,28.32-15.84ZM224.89,379.45c2.15-4.73,4.85-8.91,6.72-13.92-15.49.03-30.14.9-43.68,2.88-4.12,5.8-8.87,10.97-12,17.76,14.99-3.57,30.61-6.51,48.96-6.72ZM228.73,196.57c-7.4.92-12.5,4.14-16.8,8.16,5.71-2.61,11.63-5.01,16.8-8.16ZM220.57,182.65c-7.41.26-12.69,3.14-16.8,6.24-1.95,1.47-4.4,3.28-4.8,5.28,6.77-4.27,15.09-6.99,21.6-11.52ZM196.09,417.37c3.56-3.91,13.57-11.99,12.96-19.2-.36-4.33-4.28-6.28-9.12-5.76-6.66.72-14.43,6.92-20.16,8.64-6.64,15.28-14.5,29.34-16.8,48.96,10.51-1.68,27.41-6.05,33.6-14.4,3.54-4.79,6.54-16.09-.48-18.24ZM196.09,165.37c-4.26.39-8.14,2.65-12,4.32-3.71,1.6-8.26,2.7-10.08,5.28,7.02-3.54,15.13-5.99,22.08-9.6ZM170.17,159.61c-5.91,1.45-10.27,4.45-14.4,7.68,2.65-1.02,10.77-5.15,14.4-7.68ZM127.45,162.97c5.82-2.66,12.9-4.06,18.72-6.72-7.4.62-15.67,3.33-18.72,6.72ZM123.61,148.09c-9.83,2.33-18.24,6.08-26.4,10.08,8.92-3.24,17.73-6.59,26.4-10.08Z"/>
      <path class="cls-2" d="M209.05,398.17c.61,7.21-9.4,15.29-12.96,19.2,7.02,2.15,4.02,13.45.48,18.24-6.19,8.35-23.09,12.72-33.6,14.4,2.3-19.62,10.16-33.68,16.8-48.96,5.73-1.72,13.5-7.92,20.16-8.64,4.84-.52,8.76,1.43,9.12,5.76ZM193.21,406.33c-.54-.1-.75-.53-.96-.96-3.24.44-4.99,2.37-5.28,5.76,2.84-.84,5.64-1.72,6.24-4.8ZM185.53,428.41c1.76-4.3-2.88-4.15-5.28-2.4-.45,1.63-.64,3.52-.96,5.28,2.45-.59,4.31-1.77,6.24-2.88Z"/>
      <path class="cls-2" d="M260.89,398.65c2.06,10.54-7.5,23.13-19.2,21.12.49,7.99,2.6,14.36,2.88,22.56-4.74-1.02-10.76-.76-15.36-1.92-2.12-1.62-2.8-4.64-3.84-7.2-1.03-2.54-2.32-5.38-2.88-8.16-2.2,1.57-2.76,4.72-3.84,7.2-1.12,2.56-2.51,5.11-3.36,7.68h-16.32c4.31-18.89,13.56-32.84,20.64-48.96,12.45-1.36,38.85-4.75,41.28,7.68ZM228.73,410.17c5.24.15,10.62.07,10.56-3.84-.04-2.68-3.34-3.92-7.68-3.84-.54,2.98-2.06,4.98-2.88,7.68Z"/>
      <path class="cls-2" d="M418.33,381.37c-.39,2.04-1.73-.79-1.92-.96-4.62-4.15-10.1-11.02-15.36-14.88-.68-5.56-2.42-10.06-3.84-14.88,2.55,2.38,5.68,4.54,8.16,7.2,2.28,2.45,5.43,5.06,7.2,7.68,2.98,4.4,3.2,10.41,5.76,15.84Z"/>
      <path class="cls-2" d="M146.17,156.25c-5.82,2.66-12.9,4.06-18.72,6.72,3.05-3.39,11.32-6.1,18.72-6.72Z"/>
      <path class="cls-1" d="M408.73,513.85c1.4,2.06-.67,4.75,0,7.68-1.72-.84-2.51-2.61-3.36-4.32,1.32-.92,2.44-2.04,3.36-3.36Z"/>
      <path class="cls-2" d="M402.01,166.81v1.92c-1.45-1.31-2.86.33-4.32.48-.82.54,2.57-2.38,4.32-2.4Z"/>
      <path class="cls-2" d="M228.25,274.33s.1-.04.13-.06c-.04.02-.08.04-.13.06Z"/>
      <path class="cls-2" d="M380.41,337.69c-.72,3.44-.71,7.61-.96,11.52-14.89-8.31-30.59-15.81-48.96-20.64,1.02-3.46,4.21-4.75,6.24-7.2,8.15-1.83,18.45,3.54,25.44,6.72,6.83,3.11,13.01,6.43,18.24,9.6Z"/>
      <path class="cls-2" d="M246.97,289.21c-.35,3.81-4.2,8.28-5.28,12.96-.77-4.94,3.6-8.87,5.28-12.96Z"/>
      <path class="cls-2" d="M325.69,282.49c2.9.78,5.44,1.92,9.12,1.92-3.84,1.6-8.67,2.21-13.44,2.88-.27-.69-.75-1.17-1.44-1.44.4-1.2,1.31-1.89,1.44-3.36.69,1.9,1.3,1.16,1.92-.48,1.13.15,1.07,1.49,1.92,1.92.56-.08.4-.88.48-1.44Z"/>
      <path class="cls-1" d="M246.01,501.85c1.88,3.02-2.69,8.64-8.16,6.72-.01-1.61,2.22-.98,2.88-1.92-2.37-3.74,2.78-8.83,5.28-4.8Z"/>
      <path class="cls-1" d="M232.57,535.45c1.53.07,2.11,1.09,3.84.96-1.8,4.92-3.51,9.93-5.28,14.88-1.07-.37-1.87-1.01-3.36-.96.93-2.75,1.87-5.49,2.88-8.16-2.44.44-3,2.76-5.76,2.88-.46-2.1-1.53-3.59-2.4-5.28-.97,2.23-1.6,4.8-1.92,7.68-.62-.66-2.08-.47-3.36-.48.35-5.57,2.33-9.51,2.88-14.88,1.13.15,1.8.76,3.36.48.79,2.73,2.3,4.74,3.36,7.2,2.25-1.11,3.91-2.81,5.76-4.32Z"/>
      <path class="cls-2" d="M203.77,188.89c4.11-3.1,9.39-5.98,16.8-6.24-6.51,4.53-14.83,7.25-21.6,11.52.4-2,2.85-3.81,4.8-5.28Z"/>
      <path class="cls-1" d="M284.41,418.81c2.36,1.14-.47,4.81,0,7.2-2.25-.15-3.77-1.03-5.76-1.44,1.6-2.25,4.36-3.32,5.76-5.76Z"/>
      <path class="cls-2" d="M250.81,482.17c2.34,1.26-1.23,4.39-2.88,4.8.04-2.52,2-3.12,2.88-4.8Z"/>
      <path class="cls-2" d="M399.13,429.85c-.85,4.75-2.25,8.95-3.36,13.44-9.63-8.13-19.16-16.36-29.76-23.52,1.12-4,2.49-7.75,3.36-12,10.93,6.35,20.75,13.81,29.76,22.08Z"/>
      <path class="cls-2" d="M329.53,573.85c-1.23-6.17,5.71-6.59,9.6-4.8-1.14,3.56-5.86,8.26-9.6,4.8Z"/>
      <path class="cls-1" d="M245.05,539.77c1.76-.32,1.84,1.04,3.36.96-.71,4.25-2.81,7.11-4.32,10.56,1.14.94,2.95,1.21,4.32,1.92-.07,1.69-1.37,2.15-1.44,3.84-2.52-1-4.8-2.24-7.68-2.88,1.25-5.47,3.93-9.51,5.76-14.4Z"/>
      <path class="cls-1" d="M239.29,406.33c.06,3.91-5.32,3.99-10.56,3.84.82-2.7,2.34-4.7,2.88-7.68,4.34-.08,7.64,1.16,7.68,3.84Z"/>
      <path class="cls-2" d="M436.57,404.89c-3.59-3.9-7.73-9.25-12-14.4-1.2-1.45-3.16-3.42-3.84-4.8-2.15-4.33-1.42-9.63-4.32-13.92,7.92,7.72,14.48,21.32,20.16,33.12Z"/>
      <path class="cls-2" d="M244.57,480.25c-1.25,2.59-2.72,4.95-5.76,5.76,1.04-2.8,2.29-5.4,5.76-5.76Z"/>
      <path class="cls-2" d="M454.86,39.11s-.03.01-.05.02h-.67c.24,0,.48,0,.72-.02Z"/>
      <path class="cls-2" d="M232.09,286.34c-4.25,4.4-10.42,10.34-14.4,15.35-.09-1.72,1.35-3.56,2.4-4.8,3.67-4.34,9.23-7.9,12.96-12,2.21.38-.96,1.53-.96,1.45Z"/>
      <path class="cls-2" d="M279.13,495.13c-3.75,6.4-9.93,10.61-15.36,15.36-5.18,4.54-10.74,10.58-19.2,11.52.89-4.44,4.9-8.89,8.64-12.48,6.69-6.42,15.47-12.87,25.92-14.4Z"/>
      <path class="cls-2" d="M338.65,585.37c-1.28,2-3.48-.19-2.88-2.88,1.31.61,1.91,1.93,2.88,2.88Z"/>
      <path class="cls-2" d="M267.61,239.77c-1.47,5.41-4.51,9.25-8.16,12.48v-1.92c-1.89,1.95-3.29,4.39-4.8,6.72-1.04.08-.22-1.7-.48-2.4-1.48,1.08-2.76,2.36-3.84,3.84-.52-.12-.33-.95-.96-.96-1.42,1.14-2.28,2.84-3.36,4.32-1.67-2.12-3.28.62-4.32,1.92-1.78-.69,2.53-3.41,0-3.36,5.43-6.09,9.54-13.5,11.04-23.52.43-.21.86-.42.96-.96,5.53-1.27,11.59.38,13.92,3.84Z"/>
      <path class="cls-2" d="M402.97,393.85c.21,1.68-2.03-.36-2.88-.96-6.92-4.87-15.3-11.88-23.04-16.32,1.06-8.22,3.01-15.55,3.36-24.48,7.59,3.77,13.33,9.39,19.68,14.4,1.6,8.48,2.53,17.63,2.88,27.36Z"/>
      <path class="cls-1" d="M235.93,476.41c.32,11.68-15.19,7.53-16.32,17.76,15.01-3.62,11.64,15.01-.48,14.88.33-2.1,4.2-2.2,5.28-3.84,1.42-2.16,1.18-4.43.48-7.68-7.28-2.79-10.5,6.75-13.44,13.44-2.62,5.96-6.34,12.42-9.12,14.4-2.34,1.67-5.74,2.58-8.16.48-1.65-7.67,3.61-12.67,7.2-16.8,3.89-4.48,8.52-8.53,12.96-12,1.65-3.79,3.9-6.98,6.24-10.08-.19-1.89-2.11-2.05-2.4-3.84,1.71-7.44-8.16-8.73-8.16-3.36,0,2.38,2.07,3.83,6.24,3.36-.76,3.63-5.29,1.94-7.68.96-2.55-7.12,3.65-11.44,10.56-9.12,2.21,1.79,2.76,5.24,2.4,9.6,4.47-2.54,7.25-12.92,14.4-8.16ZM224.41,485.05c4.05-1.39,8.26-2.62,8.64-7.68-4.97.47-6.11,4.77-8.64,7.68ZM195.61,523.45c8.2-2.84,11.08-13.56,13.92-20.16-5.55,5.81-12.01,10.71-13.92,20.16Z"/>
      <path class="cls-2" d="M209.53,503.29c-2.84,6.6-5.72,17.32-13.92,20.16,1.91-9.45,8.37-14.35,13.92-20.16Z"/>
      <path class="cls-2" d="M227.54,274.63c-.09.05-.17.08-.25.12.07-.04.15-.07.25-.12Z"/>
    </g>
  </g>
</svg>