<?xml version="1.0" encoding="UTF-8"?>
<svg id="Capa_2" data-name="Capa 2" xmlns="http://www.w3.org/2000/svg" viewBox="0 0 283.98 96.36">
  <defs>
    <style>
      .cls-1 {
        fill: #fff;
        stroke-width: 0px;
      }

      .cls-2 {
        fill: #1c349b;
        stroke: #2b4699;
        stroke-miterlimit: 10;
        stroke-width: 3px;
      }
    </style>
  </defs>
  <g id="Layer_1" data-name="Layer 1">
    <rect class="cls-2" x="1.5" y="1.5" width="280.98" height="93.36" rx="20.14" ry="20.14"/>
    <g>
      <path class="cls-1" d="M87.4,43.3h-6.46v-6.41c0-.53-.33-.79-.98-.79s-1.03.26-1.03.79v22.46c0,.53.34.79,1.03.79s.98-.26.98-.79v-7.99h6.46v8.22c0,1.54-.75,2.77-2.26,3.69-1.5.93-3.21,1.39-5.1,1.39-5.48,0-8.22-1.94-8.22-5.82v-20.84c0-4.2,2.74-6.3,8.22-6.3,4.91,0,7.36,1.91,7.36,5.73v5.87Z"/>
      <path class="cls-1" d="M89.87,58.83v-20.84c0-4.2,2.72-6.3,8.16-6.3s8.05,2.08,8.05,6.25v20.84c0,1.88-.75,3.33-2.24,4.35-1.5,1.02-3.45,1.52-5.85,1.52-5.41,0-8.12-1.94-8.12-5.82ZM99.14,59.17v-22.06c0-.65-.38-.97-1.15-.97s-1.2.32-1.2.97v22.06c0,.65.4.97,1.2.97s1.15-.32,1.15-.97Z"/>
      <path class="cls-1" d="M133.32,64.36h-6.34v-18.17l-3.7,18.17h-4.9l-4.24-18.17v18.17h-5.55V31.99h9.14l3.25,16.8,2.82-16.8h9.53v32.37Z"/>
      <path class="cls-1" d="M142.8,52.44v11.92h-6.93V31.99h7.47c2.96,0,5.17.38,6.6,1.13,1.44.75,2.16,2.29,2.16,4.61v8.98c0,2.12-.59,3.62-1.76,4.5s-3.69,1.29-7.54,1.23ZM145.17,46.1v-7.77c0-1.14-.79-1.72-2.37-1.72v11.2c1.58,0,2.37-.57,2.37-1.72Z"/>
      <path class="cls-1" d="M171.93,64.41h-7.11c-.77-.92-1.15-3.52-1.15-7.81v-.05l.05-1.94c.04-2.69.07-4.07.07-4.13,0-1.1-.74-1.65-2.21-1.65v15.53h-7.11V31.99h8.78c2,0,3.74.46,5.23,1.38,1.48.92,2.22,2.37,2.22,4.36v3.88c0,2.51-1.47,4.21-4.4,5.1,2.95.69,4.42,2.48,4.42,5.35l-.11,3.54c0,5.18.44,8.11,1.33,8.8ZM163.75,43.18v-5.34c0-1.13-.73-1.7-2.19-1.7v8.76c1.46,0,2.19-.57,2.19-1.72Z"/>
      <path class="cls-1" d="M193.08,64.36h-7.05l-1.2-8.69h-3.16l-1.21,8.69h-7.05l5.32-32.37h9.02l5.33,32.37ZM184.26,51.18l-1.02-9.66-.97,9.66h1.99Z"/>
      <path class="cls-1" d="M212.74,64.41h-7.11c-.77-.92-1.15-3.52-1.15-7.81v-.05l.05-1.94c.04-2.69.07-4.07.07-4.13,0-1.1-.74-1.65-2.21-1.65v15.53h-7.11V31.99h8.78c2,0,3.74.46,5.23,1.38,1.48.92,2.22,2.37,2.22,4.36v3.88c0,2.51-1.47,4.21-4.4,5.1,2.95.69,4.42,2.48,4.42,5.35l-.11,3.54c0,5.18.44,8.11,1.33,8.8ZM204.57,43.18v-5.34c0-1.13-.73-1.7-2.19-1.7v8.76c1.46,0,2.19-.57,2.19-1.72Z"/>
    </g>
  </g>
</svg>